<?xml version="1.0" encoding="UTF-8"?><!DOCTYPE svg PUBLIC "-//W3C//DTD SVG 1.1//EN" "http://www.w3.org/Graphics/SVG/1.1/DTD/svg11.dtd"><svg xmlns="http://www.w3.org/2000/svg" xmlns:xlink="http://www.w3.org/1999/xlink"><symbol id="icon--cart" viewBox="0 0 31 24"><path clip-rule="evenodd" d="M10.042 5.28h18.2c.723 0 1.336.7 1.36 1.46l-1.358 9.274c-.22.75-.634 1.586-1.376 1.586h-15.11c-.516 0-.928-.21-1.38-1.578L8.68 6.763c.004-.073.016-.127.03-.196.004-.023.007-.103.01-.127.148-.623.693-1.16 1.321-1.16zm15.044 17.312c-.93 0-1.687-.762-1.687-1.7s.757-1.7 1.687-1.7c.931 0 1.689.762 1.689 1.7s-.758 1.7-1.689 1.7zm-11.528 0c-.93 0-1.688-.762-1.688-1.7s.757-1.7 1.688-1.7c.93 0 1.688.762 1.688 1.7s-.757 1.7-1.688 1.7zM0 .704c0 .389.313.704.699.704h5.38L7.313 6.4c-.018.127-.03.29-.03.421 0 .043.004.102.012.144l1.716 9.419a.755.755 0 00.023.096c.225.69.712 2.18 2.046 2.565a3.107 3.107 0 00-.608 1.846c0 1.714 1.384 3.109 3.085 3.109s3.086-1.461 3.086-3.175c0-.65-.2-1.113-.538-1.817h6.433c-.338.704-.537 1.168-.537 1.817 0 1.714 1.384 3.142 3.085 3.142a3.086 3.086 0 002.469-4.939c.708-.22 1.556-.857 2.044-2.573a.714.714 0 00.02-.09l1.374-9.41c.005-.033.007-.134.007-.168 0-1.544-1.263-2.915-2.759-2.915H10.042c-.652 0-1.261.315-1.74.724l-1-4.03C7.221.251 6.943 0 6.623 0H.699A.702.702 0 000 .704z"/></symbol><symbol id="icon--chevron-down" viewBox="0 0 448 512"><path d="M207.029 381.476L12.686 187.132c-9.373-9.373-9.373-24.569 0-33.941l22.667-22.667c9.357-9.357 24.522-9.375 33.901-.04L224 284.505l154.745-154.021c9.379-9.335 24.544-9.317 33.901.04l22.667 22.667c9.373 9.373 9.373 24.569 0 33.941L240.971 381.476c-9.373 9.372-24.569 9.372-33.942 0z"/></symbol><symbol id="icon--connection" viewBox="0 0 66 66"><style>.st1{fill:none;stroke:#1d1d1d;stroke-width:3;stroke-miterlimit:10}</style><switch><g><path d="M42 66H24C10.7 66 0 55.3 0 42V24C0 10.7 10.7 0 24 0h18c13.3 0 24 10.7 24 24v18c0 13.3-10.7 24-24 24z" fill="#feec00" id="Back"/><g id="Icon"><circle class="st1" cx="33" cy="47.7" r="4.4"/><path class="st1" d="M23.6 38.4c5.2-5.2 13.6-5.2 18.8 0m-25-6.3c8.6-8.6 22.6-8.6 31.3 0m-37.6-6.3c12.1-12.1 31.7-12.1 43.8 0"/></g></g></switch></symbol><symbol id="icon--logo" viewBox="0 0 120 55"><path d="M26.5 26.001V26c-.168.163-.333.334-.5.5h.008c.164-.168.328-.333.492-.499m57.671 12.875c-.411.964-.053 1.65.776 1.942.83.292 1.636.338 1.946-.673.31-1.011-.069-1.783-.898-2.075-.829-.292-1.648.395-1.824.806"/><path d="M72.185 37.025c-.057-.192 1.326-1.369 1.39-1.099.136.584-1.272 1.506-1.39 1.1m-2.37-.652c-.426-.421-.57-1.951 1.755-2.01.742-.018 1.278.451 1.624.905-1.444 1.327-2.832 1.646-3.38 1.105m-5.122 2.965c-.034-.097-.062-.375-.08-.78.14.095.301.199.48.311a4.41 4.41 0 01-.4.469m-6.963-7.425c.142-8.503 1.639-12.198 2.783-12.198 1.566 0 .044 6.198-.711 8.333a76.54 76.54 0 01-2.056 5.129c-.017-.42-.023-.843-.016-1.264m-4.135-2.422c.402.008.557.504.618 1.02-.02 1.522-.517 3.813-1.85 6.095-.396-2.863.102-7.137 1.232-7.115M39.06 26.63c-1.248.047-2.356.078-3.348.097 2.57-3.301 5.01-5.617 5.57-5.063.3.297-.364 1.933-1.075 4.923l-1.147.043m-7.414 15.69c.014 2.366-1.678 4.787-3.217 4.787-.766 0-1.394-.471-1.738-1.168-.984-1.996.645-5.488 2.29-8.407 2.151 1.707 2.654 2.988 2.665 4.788m62.793-11.483A485.408 485.408 0 0080.7 28.67a.387.387 0 00-.428.28c-.121.436-.244 1.202.214 1.63.213 2.935-.76 7.312-1.436 7.312-.938 0-.675-6.031-.585-7.48.61-.793 1.366-3.646 1.034-5.11-.237-1.046-1.477-.936-1.989-.488-1.123.981-1.62 2.84-.82 5.9-.051.116-1.215 2.024-2.552 3.569-1.215-1.121-3.172-1.269-4.429-.707 2.347-4.569 4.676-9.797 5.515-12.048.293-.784-1.64-1.732-2.03-.652-.988 2.733-4.88 12.74-7.394 16.928l-1.214-.599c0-1.903.115-4.667.427-6.643 1.069-3.517 3.526-10.573 2.296-11.834-1.295-1.328-2.888-.27-2.965 2.892-.047 1.877-.88 8.364-.898 8.502-.275.806-.839 1.905-2.055 2.977-1.02.9-2.037 1.535-2.846 1.88-.18.077-.23.287-.092.439.675.737 1.46 2.065 1.951 3.265.553 1.349.736 2.535-.022 2.535-.99 0-2.043-2.729-2.465-6.022.949-1.92 2.035-4.191 2.948-6.36 1.012-2.402 3.554-10.948.086-10.948-2.773 0-4.86 5.703-4.574 14.499.04 1.226.114 2.327.219 3.315-.162.742-1.618 3.427-2.86 3.427-.389 0-.783-.443-.987-.914.27-.336.463-.6.55-.742 2.544-4.197 2.258-7.244 2.043-7.805-.129-.338-.583-1.495-2.045-1.38-1.47.117-2.914 2.539-2.78 7.376.03 1.124.194 2.041.437 2.779-1.308 1.381-3.226 2.962-3.777 2.417-.85-.839 2.223-3.577 1.521-5.697-.53-1.6-1.79-2.98-2.378-3.564a11.61 11.61 0 00-.123-.759c-.124-.629-.458-2.297-1.91-2.126-1.679.198-1.055 2.55.6 3.783 0 0 .79 2.582-.909 5.711-.223.412-1.833 2.31-2.63 1.523-1.083-1.07-.594-6.12.418-11.43 4.044-.503 7.892-1.12 10.073-1.799.555-.173.567-1.276-.618-1.03-3.167.657-5.722.877-9.094 1.033.165-.788.339-1.572.519-2.34.436-1.865.735-3.446.145-3.963-1.848-1.62-5.358 1.606-8.891 6.223l-.248.325h-.005c-3.314.012-4.882-.12-5.869-.12-2.399 0-2.548 3.01-.969 3.01.602 0 2.484-.115 4.99-.32-.654.946-2.878 4.543-3.339 5.28-1.514-1.024-3.15-1.966-4.576-2.973-4.763-3.362-8.777-6.483-8.777-11.798 0-4.176 2.926-11.511 12.671-11.511 9.758 0 11.805 4.18 12.548 5.263.753 1.097 2.713-.14 2.144-1.037C42.312 12.298 39.376 6 27.982 6 21.038 6 13 10.632 13 20.118c0 6.522 4.379 9.665 9.556 13.029 2.017 1.31 3.598 2.344 4.835 3.21-2.494 4.231-4.304 8.531-1.991 11.29.82.977 2.091 1.471 3.096 1.329 3.54-.501 5.061-4.319 4.984-7.231-.068-2.57-1.48-4.427-3.458-6.005.82-1.399 3.43-5.897 3.922-6.605a253.61 253.61 0 005.839-.596 49.887 49.887 0 00-.796 5.934c-.096 1.305-.37 5.106 1.19 6.648 1.116 1.103 2.735.34 4.274-1.774 1.11-1.526 1.786-3.369 1.93-5.423.497.728.733 1.484.679 2.085-.141 1.56-3.167 4.42-1.216 6.348 1.301 1.286 3.89-.854 5.66-2.721.487.771 1.302 1.241 1.974 1.241 1.876 0 3.03-2.783 3.345-3.492.635 3.787 1.871 5.372 3.54 5.372 1.111 0 2.705-1.164 1.343-4.482a8.866 8.866 0 00-1.99-2.93c.84-.485 2.178-1.114 3.37-2.407-.178 3.796-.226 8.762 1.138 8.762.46 0 1.19-.81 2.065-2.11 5.165 3.011 17.185 9.107 18.73 8.872 1.522-.232 1.093-1.678 1.093-1.678s-8.894-3.508-12.054-4.974c-1.676-.777-4.782-2.295-7.02-3.395a54.28 54.28 0 001.146-1.974c.475 1.69 3.991 2.682 6.327.093.6-.799.175-1.649.175-1.649s1.597-1.533 1.931-2.14c-.01 2.141.454 6.594 2.326 6.594 2.031 0 3.152-6.022 3.152-8.614 2.442.296 7.265.97 11.798 1.809 8.38 1.552 12.347 2.352 11.996 3.007-.234.437-1.8.405-4.077.405-.916 0-.558 1.252-.118 1.357 1.137.274 5.873.498 6.282-1.492.317-1.544-2.395-3.037-13.537-4.974"/></symbol><symbol id="icon--tempo" viewBox="0 0 66 66"><style>.st1{fill:none;stroke:#1d1d1d;stroke-width:3;stroke-miterlimit:10}</style><switch><g><path d="M42 66H24C10.7 66 0 55.3 0 42V24C0 10.7 10.7 0 24 0h18c13.3 0 24 10.7 24 24v18c0 13.3-10.7 24-24 24z" fill="#feec00" id="Back"/><g id="Icon"><circle class="st1" cx="33" cy="33.1" r="3.6"/><circle class="st1" cx="33" cy="33.1" r="10.9"/><circle class="st1" cx="33" cy="33.1" r="18.1"/><path class="st1" d="M33 15v-4.8m0 41V56m18.1-22.9h4.8m-45.8 0h4.8"/></g></g></switch></symbol><symbol id="icon__akses-podsak-i-kukan" viewBox="0 0 666.26 670.02"><path class="fil0" d="M558.22 25.52c62.14 53.49 46.52 173.52-34.89 268.09-75.48 87.69-181 122.7-245.5 84.7L26.75 670.01 0 646.99l251.08-291.7c-47.17-58.13-28.26-167.68 47.22-255.37 81.41-94.58 197.77-127.89 259.91-74.4zM350.69 411.44c15.8 5.89 33.42 11.66 52.12 16.47 1.48-5.12 6.2-8.87 11.79-8.87 6.78 0 12.27 5.49 12.27 12.27 0 .69-.06 1.37-.17 2.03 8.98 1.77 18.11 3.26 27.33 4.38a12.274 12.274 0 01-1.81-6.41c0-6.78 5.49-12.27 12.27-12.27 6.78 0 12.27 5.49 12.27 12.27 0 3.15-1.19 6.02-3.14 8.2 10.58.64 21.2.72 31.75.13a12.225 12.225 0 01-3.25-8.32c0-6.78 5.49-12.27 12.27-12.27 6.78 0 12.27 5.49 12.27 12.27 0 2.35-.66 4.55-1.81 6.42 9.19-1.3 18.28-3.2 27.19-5.76-.01-.22-.02-.44-.02-.66 0-6.78 5.49-12.27 12.27-12.27 4.04 0 7.63 1.96 9.87 4.97 3.91-1.71 7.76-3.58 11.56-5.62-4.85-1.64-8.34-6.23-8.34-11.63 0-6.78 5.49-12.27 12.27-12.27 6.78 0 12.27 5.49 12.27 12.27 0 .61-.04 1.2-.13 1.79a162.08 162.08 0 0019.01-15.51 12.24 12.24 0 01-5.79 1.45H614.54c-.13 0-.27.01-.41.01-6.78 0-12.27-5.49-12.27-12.27 0-6.78 5.49-12.27 12.27-12.27.14 0 .27 0 .41.01H615.01c6.78 0 12.27 5.49 12.27 12.27 0 2.12-.54 4.11-1.48 5.85.6-.62 1.2-1.22 1.79-1.85 4.93-5.26 9.31-10.71 13.21-16.33-.41.04-.83.06-1.25.06-6.78 0-12.27-5.49-12.27-12.27 0-6.78 5.49-12.27 12.27-12.27 5.09 0 9.45 3.09 11.31 7.5 1.87-3.75 3.56-7.55 5.07-11.41a12.228 12.228 0 01-3.29-8.36c0-5.85 4.1-10.75 9.58-11.97 1.89-8.15 3.09-16.46 3.73-24.88-.34.03-.68.04-1.03.04-6.78 0-12.27-5.49-12.27-12.27 0-6.78 5.49-12.27 12.27-12.27.45 0 .89.02 1.32.07-.4-8.19-1.27-16.43-2.53-24.67-6.21-.61-11.06-5.84-11.06-12.21 0-4.7 2.65-8.79 6.53-10.85-4.1-17.25-9.7-34.32-16.16-50.8-.85.19-1.74.29-2.64.29-6.78 0-12.27-5.49-12.27-12.27 0-4.29 2.2-8.07 5.54-10.26-2.08-4.62-4.21-9.17-6.37-13.64-.34 6.48-5.69 11.63-12.25 11.63-1.58 0-3.09-.3-4.48-.84-.53 3.83-1.15 7.63-1.87 11.4-1.43 7.55-3.21 15.04-5.33 22.47 1.6-4.92 6.22-8.48 11.67-8.48 6.78 0 12.27 5.49 12.27 12.27 0 6.78-5.49 12.27-12.27 12.27-6.78 0-12.27-5.49-12.27-12.27 0-1.04.13-2.05.37-3.01-1.69 5.87-3.58 11.69-5.66 17.46 3.2 2.22 5.29 5.91 5.29 10.09 0 6.78-5.49 12.27-12.27 12.27H590.01c-.14 0-.27.01-.41.01-.44 0-.87-.02-1.29-.07-7.92 17.4-17.48 34.13-28.23 49.88 1.3-.47 2.7-.73 4.16-.73.14 0 .27 0 .41.01H565.12c6.78 0 12.27 5.49 12.27 12.27 0 6.78-5.49 12.27-12.27 12.27H564.65c-.14 0-.27.01-.41.01-6.78 0-12.27-5.49-12.27-12.27v-.17c-3.2 4.31-6.49 8.54-9.85 12.68 5.62 1.12 9.85 6.08 9.85 12.03 0 6.78-5.49 12.27-12.27 12.27-5.32 0-9.85-3.39-11.55-8.13-2.78 3.03-5.61 6.02-8.51 8.97 4.56 1.79 7.79 6.23 7.79 11.43 0 6.78-5.49 12.27-12.27 12.27H514.69c-.14 0-.27.01-.41.01-5.18 0-9.61-3.21-11.41-7.74a344.58 344.58 0 01-9.59 8.27c5.05 1.52 8.73 6.21 8.73 11.75 0 6.78-5.49 12.27-12.27 12.27H489.28c-.14 0-.27.01-.41.01-6.38 0-11.63-4.88-12.22-11.11-16.46 12.01-34.04 22.45-52.42 30.75-2.24 2.97-5.8 4.9-9.81 4.9-.52 0-1.02-.03-1.52-.09-3.75 1.49-7.53 2.88-11.34 4.18-.88.3-1.76.59-2.64.88 1.51 2.04 2.41 4.57 2.41 7.3 0 6.78-5.49 12.27-12.27 12.27-6.78 0-12.27-5.49-12.27-12.27 0-.44.02-.88.07-1.3-8.47 1.83-17.07 3.14-25.69 3.83-.16.74-.38 1.46-.66 2.15zm271.24-284.81c-3.18-6.24-6.4-12.3-9.63-18.14.31 5.41.38 10.85.23 16.28.81-.17 1.65-.26 2.52-.26 2.55 0 4.92.78 6.88 2.11zM452.24 406.77c0 6.78-5.49 12.27-12.27 12.27H439.51c-.14 0-.27.01-.41.01-6.78 0-12.27-5.49-12.27-12.27 0-6.78 5.49-12.27 12.27-12.27.14 0 .27 0 .41.01H439.97c6.78 0 12.27 5.49 12.27 12.27zm150.53-147.26c0 6.78-5.49 12.27-12.27 12.27H590.03c-.14 0-.27.01-.41.01-6.78 0-12.27-5.49-12.27-12.27 0-6.78 5.49-12.27 12.27-12.27.14 0 .27 0 .41.01H590.49c6.78 0 12.27 5.49 12.27 12.27zM502.14 406.77c0 6.78-5.49 12.27-12.27 12.27H489.41c-.14 0-.27.01-.41.01-6.78 0-12.27-5.49-12.27-12.27 0-6.78 5.49-12.27 12.27-12.27.14 0 .27 0 .41.01H489.87c6.78 0 12.27 5.49 12.27 12.27zm75.27-73.63c0 6.78-5.49 12.27-12.27 12.27H564.67c-.14 0-.27.01-.41.01-6.78 0-12.27-5.49-12.27-12.27 0-6.78 5.49-12.27 12.27-12.27.14 0 .27 0 .41.01H565.14c6.78 0 12.27 5.49 12.27 12.27zm75.27-73.63c0 6.78-5.49 12.27-12.27 12.27H639.95c-.14 0-.27.01-.41.01-6.78 0-12.27-5.49-12.27-12.27 0-6.78 5.49-12.27 12.27-12.27.14 0 .27 0 .41.01H640.41c6.78 0 12.27 5.49 12.27 12.27zM552.05 406.77c0 6.78-5.49 12.27-12.27 12.27-6.78 0-12.27-5.49-12.27-12.27 0-6.78 5.49-12.27 12.27-12.27 6.78 0 12.27 5.49 12.27 12.27zm75.27-73.63c0 6.78-5.49 12.27-12.27 12.27-6.78 0-12.27-5.49-12.27-12.27 0-6.78 5.49-12.27 12.27-12.27 6.78 0 12.27 5.49 12.27 12.27zm-100.63 49.09c0 6.78-5.49 12.27-12.27 12.27-6.78 0-12.27-5.49-12.27-12.27 0-6.78 5.49-12.27 12.27-12.27 6.78 0 12.27 5.49 12.27 12.27zm75.27-73.63c0 6.78-5.49 12.27-12.27 12.27-6.78 0-12.27-5.49-12.27-12.27 0-6.78 5.49-12.27 12.27-12.27 6.78 0 12.27 5.49 12.27 12.27zm-25.36 73.63c0 6.78-5.49 12.27-12.27 12.27-6.78 0-12.27-5.49-12.27-12.27 0-6.78 5.49-12.27 12.27-12.27 6.78 0 12.27 5.49 12.27 12.27zm75.27-73.63c0 6.78-5.49 12.27-12.27 12.27-6.78 0-12.27-5.49-12.27-12.27 0-6.78 5.49-12.27 12.27-12.27 6.78 0 12.27 5.49 12.27 12.27zm.82-98.17c0 6.78-5.49 12.27-12.27 12.27H639.95c-.14 0-.27.01-.41.01-6.78 0-12.27-5.49-12.27-12.27 0-6.78 5.49-12.27 12.27-12.27.14 0 .27 0 .41.01H640.42c6.78 0 12.27 5.49 12.27 12.27zM552.06 357.69c0 6.78-5.49 12.27-12.27 12.27-6.78 0-12.27-5.49-12.27-12.27 0-6.78 5.49-12.27 12.27-12.27 6.78 0 12.27 5.49 12.27 12.27zm75.27-73.63c0 6.78-5.49 12.27-12.27 12.27-6.78 0-12.27-5.49-12.27-12.27 0-6.78 5.49-12.27 12.27-12.27 6.78 0 12.27 5.49 12.27 12.27zm-25.36 73.63c0 6.78-5.49 12.27-12.27 12.27-6.78 0-12.27-5.49-12.27-12.27 0-6.78 5.49-12.27 12.27-12.27 6.78 0 12.27 5.49 12.27 12.27zM476.8 382.23c0 6.78-5.49 12.27-12.27 12.27-6.78 0-12.27-5.49-12.27-12.27 0-6.78 5.49-12.27 12.27-12.27 6.78 0 12.27 5.49 12.27 12.27zm150.53-147.26c0 6.78-5.49 12.27-12.27 12.27-6.78 0-12.27-5.49-12.27-12.27 0-6.78 5.49-12.27 12.27-12.27 6.78 0 12.27 5.49 12.27 12.27zm-92.11-182.7c47.37 40.77 30.08 138.52-38.61 218.33s-162.78 111.45-210.15 70.68c-47.37-40.77-30.08-138.52 38.61-218.33S487.85 11.5 535.22 52.27z"/></symbol></svg>