<svg width="633px" height="793px" viewBox="0 0 633 793" version="1.1" xmlns:xlink="http://www.w3.org/1999/xlink" xmlns="http://www.w3.org/2000/svg" id="block-2nd__img" class="block-2nd__img-img" style="opacity: 0;">
  <desc>Created with Lunacy</desc>
  <defs>
    <linearGradient x1="-1.48282874" y1="0.799032748" x2="1.204834" y2="0.425632447" id="block-2nd__img_gradient_1">
      <stop offset="0" stop-color="#7172BC" />
      <stop offset="1" stop-color="#EEEEF7" />
    </linearGradient>
    <linearGradient x1="0.761462152" y1="0.192813963" x2="0.283523142" y2="0.800191641" id="block-2nd__img_gradient_2">
      <stop offset="0" stop-color="#3F4262" />
      <stop offset="1" stop-color="#3F47AD" stop-opacity="0" />
    </linearGradient>
    <linearGradient x1="1" y1="0.09094803" x2="-0.238599032" y2="0.8462075" id="block-2nd__img_gradient_3">
      <stop offset="0" stop-color="#E9E9F4" />
      <stop offset="1" stop-color="#E0E0EB" />
    </linearGradient>
    <linearGradient x1="0.9457794" y1="0.192293361" x2="0.8214642" y2="0.192293361" id="block-2nd__img_gradient_4">
      <stop offset="0" stop-color="#FFFFFF" stop-opacity="0.7882353" />
      <stop offset="1" stop-color="#E4E4F6" stop-opacity="0.243137255" />
    </linearGradient>
    <linearGradient x1="0.5" y1="0" x2="0.5" y2="1" id="block-2nd__img_gradient_5">
      <stop offset="0" stop-color="#F5F6FA" />
      <stop offset="1" stop-color="#CDCDDA" />
    </linearGradient>
    <linearGradient x1="0.5" y1="0" x2="0.5" y2="1" id="block-2nd__img_gradient_6">
      <stop offset="0" stop-color="#EFEFF0" />
      <stop offset="1" stop-color="#D0D0DD" />
    </linearGradient>
    <linearGradient x1="0.5" y1="0" x2="0.5" y2="1" id="block-2nd__img_gradient_7">
      <stop offset="0" stop-color="#EFEFF0" />
      <stop offset="1" stop-color="#CECEDC" />
    </linearGradient>
    <linearGradient x1="0.5" y1="0" x2="0.5" y2="1" id="block-2nd__img_gradient_8">
      <stop offset="0" stop-color="#EFEFF0" />
      <stop offset="1" stop-color="#E2E2E9" />
    </linearGradient>
    <linearGradient x1="0.2985437" y1="0" x2="0.89234215" y2="1" id="block-2nd__img_gradient_9">
      <stop offset="0" stop-color="#F8F8FD" />
      <stop offset="0.112432204" stop-color="#FFFFFF" />
      <stop offset="0.252277434" stop-color="#EFEFF8" />
      <stop offset="0.376574874" stop-color="#FFFFFF" />
      <stop offset="0.6291382" stop-color="#F2F3F9" />
      <stop offset="0.79985553" stop-color="#C6C6C6" />
      <stop offset="1" stop-color="#D8D8D8" />
    </linearGradient>
    <linearGradient x1="0.640171" y1="0.352353036" x2="0.4183371" y2="0.811213434" id="block-2nd__img_gradient_10">
      <stop offset="0" stop-color="#9A9CB7" />
      <stop offset="1" stop-color="#797DB2" stop-opacity="0" />
    </linearGradient>
    <linearGradient x1="0.97218883" y1="0.153019428" x2="-0.023898961" y2="0.9635135" id="block-2nd__img_gradient_11">
      <stop offset="0" stop-color="#E2C87A" />
      <stop offset="1" stop-color="#AB713D" />
    </linearGradient>
    <linearGradient x1="0.5" y1="0" x2="0.5" y2="1" id="block-2nd__img_gradient_12">
      <stop offset="0" stop-color="#CDB352" />
      <stop offset="1" stop-color="#573A1E" />
    </linearGradient>
    <linearGradient x1="0.5" y1="0" x2="0.5" y2="1" id="block-2nd__img_gradient_13">
      <stop offset="0" stop-color="#E2C87A" />
      <stop offset="1" stop-color="#AB713D" />
    </linearGradient>
    <linearGradient x1="0.2985437" y1="0" x2="0.89234215" y2="1" id="block-2nd__img_gradient_14">
      <stop offset="0" stop-color="#EEEEEE" />
      <stop offset="0.112432204" stop-color="#FFFFFF" />
      <stop offset="0.252277434" stop-color="#E8E4E4" />
      <stop offset="0.376574874" stop-color="#FFFFFF" />
      <stop offset="0.6291382" stop-color="#EBEBEB" />
      <stop offset="1" stop-color="#F9F9F9" />
    </linearGradient>
    <filter filterUnits="userSpaceOnUse" color-interpolation-filters="sRGB" id="block-2nd__img_filter_1">
      <feFlood flood-opacity="0" result="BackgroundImageFix" />
      <feBlend mode="normal" in="SourceGraphic" in2="BackgroundImageFix" result="shape" />
      <feColorMatrix in="SourceAlpha" type="matrix" values="0 0 0 0 0 0 0 0 0 0 0 0 0 0 0 0 0 0 127 0" result="hardAlpha" />
      <feOffset dx="0" dy="1" />
      <feGaussianBlur stdDeviation="8" />
      <feComposite in2="hardAlpha" operator="arithmetic" k2="-1" k3="1" />
      <feColorMatrix type="matrix" values="0 0 0 0 0.7019608 0 0 0 0 0.7019608 0 0 0 0 0.8117647 0 0 0 1 0" />
      <feBlend mode="normal" in2="shape" result="effect0_innerShadow" />
    </filter>
    <filter filterUnits="userSpaceOnUse" color-interpolation-filters="sRGB" id="block-2nd__img_filter_2">
      <feFlood flood-opacity="0" result="BackgroundImageFix" />
      <feBlend mode="normal" in="SourceGraphic" in2="BackgroundImageFix" result="shape" />
      <feColorMatrix in="SourceAlpha" type="matrix" values="0 0 0 0 0 0 0 0 0 0 0 0 0 0 0 0 0 0 127 0" result="hardAlpha" />
      <feOffset dx="-1" dy="1" />
      <feGaussianBlur stdDeviation="0" />
      <feComposite in2="hardAlpha" operator="arithmetic" k2="-1" k3="1" />
      <feColorMatrix type="matrix" values="0 0 0 0 0.9686275 0 0 0 0 0.854902 0 0 0 0 0.4352941 0 0 0 0.7921569 0" />
      <feBlend mode="normal" in2="shape" result="effect0_innerShadow" />
    </filter>
    <filter filterUnits="userSpaceOnUse" color-interpolation-filters="sRGB" id="block-2nd__img_filter_3">
      <feFlood flood-opacity="0" result="BackgroundImageFix" />
      <feColorMatrix in="SourceAlpha" type="matrix" values="0 0 0 0 0 0 0 0 0 0 0 0 0 0 0 0 0 0 127 0" />
      <feOffset dx="0" dy="1" />
      <feGaussianBlur stdDeviation="0" />
      <feColorMatrix type="matrix" values="0 0 0 0 1 0 0 0 0 1 0 0 0 0 1 0 0 0 0.654902 0" />
      <feBlend mode="normal" in2="BackgroundImageFix" result="effect0_dropShadow" />
      <feBlend mode="normal" in="SourceGraphic" in2="effect0_dropShadow" result="shape" />
    </filter>
    <filter filterUnits="userSpaceOnUse" color-interpolation-filters="sRGB" id="block-2nd__img_filter_4">
      <feFlood flood-opacity="0" result="BackgroundImageFix" />
      <feColorMatrix in="SourceAlpha" type="matrix" values="0 0 0 0 0 0 0 0 0 0 0 0 0 0 0 0 0 0 127 0" />
      <feOffset dx="0" dy="1" />
      <feGaussianBlur stdDeviation="0" />
      <feColorMatrix type="matrix" values="0 0 0 0 1 0 0 0 0 1 0 0 0 0 1 0 0 0 0.5882353 0" />
      <feBlend mode="normal" in2="BackgroundImageFix" result="effect0_dropShadow" />
      <feBlend mode="normal" in="SourceGraphic" in2="effect0_dropShadow" result="shape" />
    </filter>
    <filter filterUnits="userSpaceOnUse" color-interpolation-filters="sRGB" id="block-2nd__img_filter_5">
      <feFlood flood-opacity="0" result="BackgroundImageFix" />
      <feBlend mode="normal" in="SourceGraphic" in2="BackgroundImageFix" result="shape" />
      <feColorMatrix in="SourceAlpha" type="matrix" values="0 0 0 0 0 0 0 0 0 0 0 0 0 0 0 0 0 0 127 0" result="hardAlpha" />
      <feOffset dx="0" dy="-2" />
      <feGaussianBlur stdDeviation="0" />
      <feComposite in2="hardAlpha" operator="arithmetic" k2="-1" k3="1" />
      <feColorMatrix type="matrix" values="0 0 0 0 0.945098 0 0 0 0 0.8392157 0 0 0 0 0.4431373 0 0 0 0.3960784 0" />
      <feBlend mode="normal" in2="shape" result="effect0_innerShadow" />
    </filter>
    <filter filterUnits="userSpaceOnUse" color-interpolation-filters="sRGB" id="block-2nd__img_filter_6">
      <feFlood flood-opacity="0" result="BackgroundImageFix" />
      <feColorMatrix in="SourceAlpha" type="matrix" values="0 0 0 0 0 0 0 0 0 0 0 0 0 0 0 0 0 0 127 0" />
      <feOffset dx="0" dy="0" />
      <feGaussianBlur stdDeviation="5.5" />
      <feColorMatrix type="matrix" values="0 0 0 0 0.4705882 0 0 0 0 0.9921569 0 0 0 0 0.8666667 0 0 0 0.4941176 0" />
      <feBlend mode="normal" in2="BackgroundImageFix" result="effect0_dropShadow" />
      <feBlend mode="normal" in="SourceGraphic" in2="effect0_dropShadow" result="shape" />
      <feColorMatrix in="SourceAlpha" type="matrix" values="0 0 0 0 0 0 0 0 0 0 0 0 0 0 0 0 0 0 127 0" result="hardAlpha" />
      <feOffset dx="0" dy="0" />
      <feGaussianBlur stdDeviation="1.5" />
      <feComposite in2="hardAlpha" operator="arithmetic" k2="-1" k3="1" />
      <feColorMatrix type="matrix" values="0 0 0 0 0 0 0 0 0 0 0 0 0 0 0 0 0 0 0.5019608 0" />
      <feBlend mode="normal" in2="shape" result="effect1_innerShadow" />
    </filter>
    <path d="M210.619 49.7729C220.46 55.145 220.46 63.855 210.619 69.2271L126.819 114.971C116.978 120.343 101.022 120.343 91.1806 114.971L7.38105 69.2271C-2.46035 63.855 -2.46035 55.145 7.38105 49.7729L91.1806 4.02911C101.022 -1.34304 116.978 -1.34304 126.819 4.02911L210.619 49.7729Z" transform="matrix(-1 0 0 1 218 0)" id="block-2nd__img_path_1" />
    <path d="M0.162485 31.4336L0.162485 207.918C0.528076 218.213 4.36679 225.567 11.6786 229.979C18.9904 234.391 42.2055 247.995 81.3238 270.791C86.8076 273.549 91.9259 273.365 94.4851 271.894C98.3238 269.688 101.614 267.358 101.614 258.106C101.614 251.938 101.614 188.33 101.614 67.2821C101.614 55.1487 97.4098 46.876 87.9044 41.3609C78.399 35.8457 55.5496 22.6093 19.356 1.65177C14.4205 -1.10581 8.0227 -0.186619 5.09797 2.7548C2.17324 5.69621 0.528076 9.55682 0.162485 14.3366C-0.203106 19.1164 0.162485 26.6397 0.162485 31.4336Z" id="block-2nd__img_path_2" />
    <path d="M1.75 0.1396C2.7165 -0.276181 3.5 0.268201 3.5 1.35551L3.5 15.418C3.5 16.5053 2.7165 17.5041 1.75 17.6488C0.783502 17.7935 0 17.0774 0 16.0494L0 2.75382C0 1.72581 0.783502 0.555381 1.75 0.1396Z" transform="translate(0.5 0)" id="block-2nd__img_path_3" />
    <path d="M0.75 0.0711142C1.16421 -0.14069 1.5 0.136625 1.5 0.690516L1.5 7.85415C1.5 8.40804 1.16421 8.91681 0.75 8.99053C0.335786 9.06425 0 8.69948 0 8.1758L0 1.40283C0 0.87915 0.335786 0.282919 0.75 0.0711142Z" transform="translate(0.5 0)" id="block-2nd__img_path_4" />
    <path d="M1.22245 4.68352C1.94223 4.65716 2.56311 3.58746 2.60925 2.29428C2.65538 1.0011 2.10928 -0.0258644 1.38951 0.000496338C0.669739 0.0268571 0.0488517 1.09656 0.00272031 2.38974C-0.0434111 3.68292 0.502683 4.70988 1.22245 4.68352Z" transform="matrix(0.8191521 -0.5735765 0.5735765 0.8191521 0 1.498169)" id="block-2nd__img_path_5" />
    <path d="M0 0.376419C0 1.22568 0.822909 1.65125 0.822909 1.65125L10.5837 7.74382C10.5837 7.74382 11.529 8.14581 11.529 7.30952C11.529 6.7381 11.3182 6.30673 10.7727 6.10082C9.68182 5.52939 1.05236 0.101028 1.05236 0.101028C1.05236 0.101028 1.99996e-17 -0.19501 0 0.376419Z" id="block-2nd__img_path_6" />
    <path d="M0 399.761L79.998 442L86.998 8.2843L7.99804 0L0 399.761Z" id="block-2nd__img_path_7" />
    <path d="M2.41672 0L0 1.52441L3.07039 113.786L5.31289 123.415L10.9332 126.816L12.5387 126.816L31.6278 108.549L31.6278 102.787L28.6989 95.6771L28.6989 85.6756L31.2617 81.2132L31.2617 72.5322L27.6005 60.9176L27.6005 51.3707L22.8409 42.7726L23.5732 35.0129L26.8683 32.7825L28.465 35.9092L32.3601 33.6113L32.3601 24.2918L30.6887 21.2725L19.9651 15.9445L17.3845 11.7093L4.48123 4.8269L2.41672 0Z" transform="translate(0.3322754 0.9682617)" id="block-2nd__img_path_8" />
    <path d="M0 0L0 113.391L2.27484 121.028L10.2804 125.413L29.573 107.069L29.573 102.345L26.5398 95.2055L26.5398 85.1619L29.1938 80.6806L29.1938 71.9631L25.4024 60.2993L25.4024 50.7122L20.4736 42.0778L21.2319 34.2854L24.6441 32.0456L28.4355 34.1222L30.3312 32.8779L30.3312 23.519L28.7505 20.7498L17.6059 15.6682L15.0217 11.0004L2.27484 4.50367L0 0Z" id="block-2nd__img_path_9" />
    <path d="M3.2069 1.37895L0.534483 0.0618161C0.239296 -0.0836703 0 0.0364154 0 0.330035L0 96.5579C0 96.8515 0.239296 97.2075 0.534483 97.353L3.2069 98.6701C3.50208 98.8156 3.74138 98.6955 3.74138 98.4019L3.74138 2.17402C3.74138 1.8804 3.50208 1.52443 3.2069 1.37895ZM8.22589 4.20293L10.8983 5.52006C11.1935 5.66555 11.4328 6.02151 11.4328 6.31513L11.4328 92.5264C11.4328 92.6343 11.4726 92.7714 11.5084 92.8945C11.57 93.1063 11.6195 93.2765 11.4328 93.1845L8.49313 96.1158C8.19794 95.9703 7.69141 95.5343 7.69141 95.2407L7.69141 4.47115C7.69141 4.17753 7.9307 4.05744 8.22589 4.20293ZM17.5777 35.5082L16.2415 31.7867C15.9463 31.6412 15.707 31.7613 15.707 32.0549L15.707 88.1256C15.707 88.4192 15.9463 88.7752 16.2415 88.9206L18.9139 86.7979L18.9139 84.4279L18.4293 78.4531L18.4293 68.1522L19.4484 64.2495L19.4484 55.5953C19.4484 55.3017 19.2091 54.9457 18.9139 54.8002L17.5777 50.137L17.5777 35.5082Z" transform="translate(4.460938 16.84351)" id="block-2nd__img_path_10" />
    <path d="M0 346.573L73.5 385L76 14.073L1.5 0L0 346.573Z" id="block-2nd__img_path_11" />
    <path d="M2.28667 0L0 1.5016L0 46.9848L27.7667 59.3667L22.4663 128.278L34.1496 137.432L48.4194 128.087L48.4194 41.7106L34.9794 18.0749L2.28667 0Z" id="block-2nd__img_path_12" />
    <path d="M1.77821e-13 45.4698L3.6544 52.8919L19.2107 60.4746L22.8516 66.6172L22.6687 129.459L35.1555 136.235L46.4253 128.906L46.4253 41.5138L32.8076 17.8781L0 0L1.77821e-13 45.4698Z" id="block-2nd__img_path_13" />
    <path d="M27.141 13.6263L1.32408 0.0864741C0.958484 -0.104914 0.662109 0.0320166 0.662109 0.392317L0.662109 3.00184C0.662109 3.36214 0.958484 3.80937 1.32408 4.00076L27.141 17.5406C27.5066 17.7319 27.803 17.595 27.803 17.2347L27.803 14.6252C27.803 14.2649 27.5066 13.8177 27.141 13.6263ZM34.4225 27.9787L0.661972 11.1897C0.296375 10.9984 0 11.1353 0 11.4956L0 14.1051C0 14.4654 0.296375 14.9126 0.661972 15.104L34.4225 31.893C34.7881 32.0844 35.0845 31.9474 35.0845 31.5871L35.0845 28.9776C35.0845 28.6173 34.7881 28.1701 34.4225 27.9787ZM0.661972 22.2801L34.4225 39.069C34.7881 39.2604 35.0845 39.7077 35.0845 40.068L35.0845 42.6775C35.0845 43.0378 34.7881 43.1747 34.4225 42.9833L0.661972 26.1944C0.296375 26.003 0 25.5557 0 25.1954L0 22.5859C0 22.2256 0.296375 22.0887 0.661972 22.2801ZM34.4225 50.812L0.661972 34.023C0.296375 33.8316 0 33.9685 0 34.3288L0 36.9384C0 37.2987 0.296375 37.7459 0.661972 37.9373L34.4021 54.7161C34.3444 54.732 34.2844 54.748 34.2227 54.764C32.3832 55.112 32.0322 55.2027 32.3166 55.161C32.601 55.1193 33.5208 54.9453 34.2227 54.764C34.2875 54.7517 34.3541 54.7391 34.4225 54.7262L34.4021 54.7161C34.7959 54.6072 35.0845 54.4997 35.0845 54.4204L35.0845 51.8109C35.0845 51.4506 34.7881 51.0033 34.4225 50.812ZM24.4921 58.4212L33.7597 63.2072C34.1253 63.3986 34.4216 63.8458 34.4216 64.2061L34.4216 66.8157C34.4216 67.176 34.1253 67.3129 33.7597 67.1215L24.4921 62.3355C24.1265 62.1441 23.8301 61.6969 23.8301 61.3366L23.8301 58.727C23.8301 58.3667 24.1265 58.2298 24.4921 58.4212ZM33.7597 74.2978L24.4921 69.5118C24.1265 69.3204 23.8301 69.4573 23.8301 69.8176L23.8301 72.4271C23.8301 72.7874 24.1265 73.2347 24.4921 73.4261L33.7597 78.2121C34.1253 78.4035 34.4216 78.2665 34.4216 77.9062L34.4216 75.2967C34.4216 74.9364 34.1253 74.4892 33.7597 74.2978ZM24.4921 80.6021L33.7597 85.3881C34.1253 85.5795 34.4216 86.0267 34.4216 86.3871L34.4216 88.9966C34.4216 89.3569 34.1253 89.4938 33.7597 89.3024L24.4921 84.5164C24.1265 84.325 23.8301 83.8778 23.8301 83.5175L23.8301 80.9079C23.8301 80.5476 24.1265 80.4107 24.4921 80.6021ZM33.7597 96.4787L24.4921 91.6927C24.1265 91.5013 23.8301 91.6382 23.8301 91.9985L23.8301 94.608C23.8301 94.9683 24.1265 95.4156 24.4921 95.607L33.7597 100.393C34.1253 100.584 34.4216 100.447 34.4216 100.087L34.4216 97.4776C34.4216 97.1173 34.1253 96.6701 33.7597 96.4787ZM24.4921 102.697L30.4498 105.612C30.8154 105.803 31.1118 106.251 31.1118 106.611L31.1118 109.22C31.1118 109.581 30.8154 109.718 30.4498 109.526L24.4921 106.611C24.1265 106.419 23.8301 105.972 23.8301 105.612L23.8301 103.002C23.8301 102.642 24.1265 102.505 24.4921 102.697Z" transform="translate(4.978516 9.662598)" id="block-2nd__img_path_14" />
    <clipPath id="block-2nd__img_clip_1">
      <use xlink:href="#block-2nd__img_path_10" />
    </clipPath>
    <clipPath id="block-2nd__img_clip_2">
      <use xlink:href="#block-2nd__img_path_14" />
    </clipPath>
    <clipPath id="block-2nd__img_mask_1">
      <use xlink:href="#block-2nd__img_path_1" />
    </clipPath>
    <clipPath id="block-2nd__img_mask_2">
      <use xlink:href="#block-2nd__img_path_2" />
    </clipPath>
    <clipPath id="block-2nd__img_mask_3">
      <use xlink:href="#block-2nd__img_path_3" />
    </clipPath>
    <clipPath id="block-2nd__img_mask_4">
      <use xlink:href="#block-2nd__img_path_4" />
    </clipPath>
    <clipPath id="block-2nd__img_mask_5">
      <use xlink:href="#block-2nd__img_path_5" />
    </clipPath>
    <clipPath id="block-2nd__img_mask_6">
      <use xlink:href="#block-2nd__img_path_6" />
    </clipPath>
    <clipPath id="block-2nd__img_mask_7">
      <use xlink:href="#block-2nd__img_path_7" />
    </clipPath>
    <clipPath id="block-2nd__img_mask_8">
      <use xlink:href="#block-2nd__img_path_8" />
    </clipPath>
    <clipPath id="block-2nd__img_mask_9">
      <use xlink:href="#block-2nd__img_path_9" />
    </clipPath>
    <clipPath id="block-2nd__img_mask_10">
      <use xlink:href="#block-2nd__img_path_11" />
    </clipPath>
    <clipPath id="block-2nd__img_mask_11">
      <use xlink:href="#block-2nd__img_path_12" />
    </clipPath>
    <clipPath id="block-2nd__img_mask_12">
      <use xlink:href="#block-2nd__img_path_13" />
    </clipPath>
  </defs>
  <g id="block-2nd__img_Group-31" transform="translate(1 1)">
    <g id="block-2nd__img_Group-28" transform="translate(168 327.8345)">
      <path d="M135.26 32.206C141.58 35.6821 141.58 41.3179 135.26 44.794L81.4437 74.3929C75.1235 77.869 64.8765 77.869 58.5563 74.3929L4.74013 44.794C-1.58004 41.3179 -1.58004 35.6821 4.74013 32.206L58.5563 2.60707C64.8765 -0.869023 75.1235 -0.869023 81.4437 2.60707L135.26 32.206Z" transform="translate(323 386)" id="block-2nd__img_Rectangle-Copy-44" fill="#5F60B7" fill-opacity="0.0502697155" stroke="none" />
      <path d="M103.377 24.6773C108.208 27.3408 108.208 31.6592 103.377 34.3227L62.2462 57.0024C57.4158 59.6659 49.5842 59.6659 44.7538 57.0024L3.62281 34.3227C-1.2076 31.6592 -1.2076 27.3408 3.62281 24.6773L44.7538 1.99762C49.5842 -0.665875 57.4158 -0.665875 62.2462 1.99762L103.377 24.6773Z" transform="translate(0 329)" id="block-2nd__img_Rectangle-Copy-51" fill="#5F60B7" fill-opacity="0.0458519347" stroke="none" />
      <path d="M83.0882 19.6582C86.9706 21.78 86.9706 25.22 83.0882 27.3418L50.0297 45.4087C46.1473 47.5304 39.8527 47.5304 35.9703 45.4087L2.91179 27.3418C-0.970597 25.22 -0.970597 21.78 2.91179 19.6582L35.9703 1.59133C39.8527 -0.530443 46.1473 -0.530443 50.0297 1.59133L83.0882 19.6582Z" transform="translate(364 0)" id="block-2nd__img_Rectangle-Copy-43" fill="#5F60B7" fill-opacity="0.07493955" stroke="none" />
    </g>
    <g id="block-2nd__img_Group-16" transform="translate(0 102.8345)">
      <g id="block-2nd__img_Path-6" transform="translate(0 187)">
        <path d="M210.619 49.7729C220.46 55.145 220.46 63.855 210.619 69.2271L126.819 114.971C116.978 120.343 101.022 120.343 91.1806 114.971L7.38105 69.2271C-2.46035 63.855 -2.46035 55.145 7.38105 49.7729L91.1806 4.02911C101.022 -1.34304 116.978 -1.34304 126.819 4.02911L210.619 49.7729Z" transform="matrix(-1 0 0 1 218 0)" id="block-2nd__img_Mask" fill="url(#block-2nd__img_gradient_1)" fill-opacity="0.651343942" stroke="none" />
        <g clip-path="url(#block-2nd__img_mask_1)">
          <path d="M64 0L0 26L86 75L134 43L64 0Z" transform="matrix(-1 0 0 1 212 40)" id="block-2nd__img_Path-6" fill="url(#block-2nd__img_gradient_2)" fill-opacity="0.214960009" stroke="none" />
        </g>
      </g>
      <g id="block-2nd__img_Group-9" transform="matrix(-1 0 0 1 159 0)">
        <g id="block-2nd__img_Group">
          <g id="block-2nd__img_Path-18-+-Path-18-Mask">
            <g filter="url(#block-2nd__img_filter_1)">
              <g id="block-2nd__img_Mask">
                <use stroke="none" fill="url(#block-2nd__img_gradient_3)" xlink:href="#block-2nd__img_path_2" />
                <use stroke="none" fill="url(#block-2nd__img_gradient_4)" xlink:href="#block-2nd__img_path_2" />
              </g>
            </g>
            <g clip-path="url(#block-2nd__img_mask_2)">
              <path d="M0.250561 5.89307L0 5.78107C1.47924 2.43379 3.33992 0.562501 5.58661 0.185916C7.81131 -0.186982 9.48996 0.000599636 10.6112 0.752906L25.4198 9.02684L77.5205 39.3626C83.3884 43.0509 87.4265 46.9275 89.6327 50.9953C91.1451 53.7839 92.064 57.3286 92.3914 61.6397L92.3914 258.431C92.3914 261.051 91.4547 262.935 89.5829 264.064C87.7257 265.185 85.1374 265.557 81.8198 265.186L81.8501 264.912C85.1131 265.277 87.6432 264.913 89.4418 263.828C91.226 262.751 92.1172 260.959 92.1172 258.431L92.1172 74.637L92.1176 61.6503C91.7933 57.3861 90.8842 53.8786 89.392 51.1273C87.2112 47.1063 83.2063 43.2616 77.3792 39.5988L25.2845 9.26669L10.4686 0.988156C9.40576 0.275561 7.79409 0.0954658 5.63169 0.457922C3.49129 0.816691 1.69605 2.62217 0.250561 5.89307Z" transform="translate(0.03720445 6.293482)" id="block-2nd__img_Path-18" fill="url(#block-2nd__img_gradient_5)" stroke="none" />
              <path d="M0.252024 6.69784L0 6.58922C1.10744 3.99045 2.58793 2.12928 4.44257 1.01015C6.30568 -0.114095 8.35805 -0.301739 10.6119 0.456334L25.4205 8.73027L77.5142 39.0619C81.5496 41.2756 85.2177 44.2268 88.5182 47.9149C91.8304 51.6161 93.6887 56.532 94.0951 62.6668L94.0951 74.3405L94.0951 258.135C94.0762 261.695 93.1461 264.133 91.2947 265.435C88.6648 267.284 85.4999 267.836 81.8088 267.094L81.8626 266.823C85.4833 267.552 88.572 267.013 91.1376 265.209C92.9044 263.966 93.8024 261.612 93.8209 258.134L93.8209 74.3405L93.8212 62.6759C93.419 56.6089 91.5829 51.7518 88.3144 48.0994C85.0343 44.434 81.3906 41.5024 77.3799 39.3022L25.2852 8.97012L10.502 0.707665C8.34558 -0.0152451 6.37645 0.164788 4.58364 1.24661C2.78237 2.33353 1.33813 4.14913 0.252024 6.69784Z" transform="translate(0.03647325 4.935509)" id="block-2nd__img_Path-18" fill="url(#block-2nd__img_gradient_5)" stroke="none" />
            </g>
          </g>
          <g id="block-2nd__img_Rectangle" transform="translate(97 118)">
            <path d="M1.75 0.142228C2.7165 -0.281381 3.5 0.273251 3.5 1.38103L3.5 15.7083C3.5 16.8161 2.7165 17.8336 1.75 17.9811C0.783502 18.1285 0 17.399 0 16.3516L0 2.80567C0 1.7583 0.783502 0.565838 1.75 0.142228Z" id="block-2nd__img_Mask" fill="#BDBDD6" stroke="none" />
            <path d="M1.75 0.1396C2.7165 -0.276181 3.5 0.268201 3.5 1.35551L3.5 15.418C3.5 16.5053 2.7165 17.5041 1.75 17.6488C0.783502 17.7935 0 17.0774 0 16.0494L0 2.75382C0 1.72581 0.783502 0.555381 1.75 0.1396Z" transform="translate(0.5 0)" id="block-2nd__img_Mask" fill="url(#block-2nd__img_gradient_6)" stroke="none" />
            <g clip-path="url(#block-2nd__img_mask_3)">
              <path d="M1.25 0.1396C1.94036 -0.276181 2.5 0.268201 2.5 1.35551L2.5 15.418C2.5 16.5053 1.94036 17.5041 1.25 17.6488C0.559644 17.7935 0 17.0774 0 16.0494L0 2.75382C0 1.72581 0.559644 0.555381 1.25 0.1396Z" transform="translate(1.5 0.5625)" id="block-2nd__img_Rectangle" fill="#FFFFFF" stroke="none" />
            </g>
          </g>
          <g id="block-2nd__img_Rectangle" transform="translate(97 97)">
            <path d="M1.75 0.142228C2.7165 -0.281381 3.5 0.273251 3.5 1.38103L3.5 15.7083C3.5 16.8161 2.7165 17.8336 1.75 17.9811C0.783502 18.1285 0 17.399 0 16.3516L0 2.80567C0 1.7583 0.783502 0.565838 1.75 0.142228Z" id="block-2nd__img_Mask" fill="#BDBDD6" stroke="none" />
            <path d="M1.75 0.1396C2.7165 -0.276181 3.5 0.268201 3.5 1.35551L3.5 15.418C3.5 16.5053 2.7165 17.5041 1.75 17.6488C0.783502 17.7935 0 17.0774 0 16.0494L0 2.75382C0 1.72581 0.783502 0.555381 1.75 0.1396Z" transform="translate(0.5 0)" id="block-2nd__img_Mask" fill="url(#block-2nd__img_gradient_7)" stroke="none" />
            <g clip-path="url(#block-2nd__img_mask_3)">
              <path d="M1.25 0.1396C1.94036 -0.276181 2.5 0.268201 2.5 1.35551L2.5 15.418C2.5 16.5053 1.94036 17.5041 1.25 17.6488C0.559644 17.7935 0 17.0774 0 16.0494L0 2.75382C0 1.72581 0.559644 0.555381 1.25 0.1396Z" transform="translate(1.5 0.5625)" id="block-2nd__img_Rectangle" fill="#FFFFFF" stroke="none" />
            </g>
          </g>
          <path d="M0.4 0.708491L1.6 0.0414429C1.82091 -0.0813573 2 0.0779847 2 0.397343L2 8.68498C2 9.00433 1.82091 9.36277 1.6 9.48557L0.48299 9.97644C0.262076 10.0992 0 9.71755 0 9.39819L0 1.50909C0 1.18973 0.179086 0.831291 0.4 0.708491Z" transform="translate(98 81)" id="block-2nd__img_Rectangle" fill="#C3C3D3" stroke="none" />
          <g id="block-2nd__img_Rectangle-Copy" transform="translate(98 82)">
            <path d="M0.75 0.0711142C1.16421 -0.14069 1.5 0.136625 1.5 0.690516L1.5 7.85415C1.5 8.40804 1.16421 8.91681 0.75 8.99053C0.335786 9.06425 0 8.69948 0 8.1758L0 1.40283C0 0.87915 0.335786 0.282919 0.75 0.0711142Z" id="block-2nd__img_Mask" fill="#C3C3D3" stroke="none" />
            <path d="M0.75 0.0711142C1.16421 -0.14069 1.5 0.136625 1.5 0.690516L1.5 7.85415C1.5 8.40804 1.16421 8.91681 0.75 8.99053C0.335786 9.06425 0 8.69948 0 8.1758L0 1.40283C0 0.87915 0.335786 0.282919 0.75 0.0711142Z" transform="translate(0.5 0)" id="block-2nd__img_Mask" fill="url(#block-2nd__img_gradient_8)" stroke="none" />
            <g clip-path="url(#block-2nd__img_mask_4)">
              <path d="M0.75 0.0711142C1.16421 -0.14069 1.5 0.136625 1.5 0.690516L1.5 7.85415C1.5 8.40804 1.16421 8.91681 0.75 8.99053C0.335786 9.06425 0 8.69948 0 8.1758L0 1.40283C0 0.87915 0.335786 0.282919 0.75 0.0711142Z" transform="translate(0.5 0)" id="block-2nd__img_Rectangle" fill="#F3F3F3" stroke="none" />
            </g>
          </g>
          <g id="block-2nd__img_Oval" transform="translate(32.96875 26.3324)">
            <path d="M1.22245 4.68352C1.94223 4.65716 2.56311 3.58746 2.60925 2.29428C2.65538 1.0011 2.10928 -0.0258644 1.38951 0.000496338C0.669739 0.0268571 0.0488517 1.09656 0.00272031 2.38974C-0.0434111 3.68292 0.502683 4.70988 1.22245 4.68352Z" transform="matrix(0.8191521 -0.5735765 0.5735765 0.8191521 0 1.498169)" id="block-2nd__img_Mask" fill="#C2C3CA" stroke="none" />
            <g clip-path="url(#block-2nd__img_mask_5)">
              <path d="M1.22245 4.68352C1.94223 4.65716 2.56311 3.58746 2.60925 2.29428C2.65538 1.0011 2.10928 -0.0258644 1.38951 0.000496338C0.669739 0.0268571 0.0488517 1.09656 0.0027203 2.38974C-0.0434111 3.68292 0.502683 4.70988 1.22245 4.68352Z" transform="matrix(0.8191521 -0.5735765 0.5735765 0.8191521 0.5546875 0.8981934)" id="block-2nd__img_Oval" fill="#D1D2DA" stroke="none" />
              <path d="M0.529966 2.3417C0.844867 2.33017 1.11884 1.79666 1.14191 1.15006C1.16497 0.503474 0.928395 -0.0113428 0.613494 0.000190044C0.298594 0.0117229 0.0246187 0.545238 0.00155306 1.19183C-0.0215126 1.83842 0.215066 2.35324 0.529966 2.3417Z" transform="matrix(0.8191521 -0.5735765 0.5735765 0.8191521 1.828125 1.436401)" id="block-2nd__img_Oval" fill="#BABAD5" stroke="none" />
            </g>
          </g>
          <path d="M0.275641 7.06659C0.275641 7.06659 0.275641 1.54582 3.03205 0.441662C5.23718 -0.662493 8.54487 0.99374 8.54487 0.99374L17.9167 6.51452C17.9167 6.51452 19.0192 7.06659 19.0192 8.72283C19.0192 10.3791 19.5705 15.3478 25.0833 18.6602C30.5962 21.9727 62.5705 40.1912 62.5705 40.1912C62.5705 40.1912 66.4295 41.8475 66.4295 37.9829C66.4295 34.1184 68.6346 35.7746 68.6346 35.7746L76.3526 40.1912C76.3526 40.1912 85.1731 45.712 85.7244 55.0973C86.2756 64.4827 85.7244 86.0137 85.7244 86.0137L85.7244 201.95L85.7244 251.085C85.7244 251.085 85.1731 259.366 78.5577 256.054C71.9423 252.741 42.1731 235.627 42.1731 235.627L8.54487 215.752C8.54487 215.752 0.826923 210.231 0.275641 201.95C-0.275641 193.669 0.275641 7.06659 0.275641 7.06659Z" transform="translate(3 11)" id="block-2nd__img_Path-16" fill="#FFFFFF" stroke="none" />
          <g id="block-2nd__img_Path-17" transform="translate(40 31)">
            <path d="M0 0.376419C0 1.22568 0.822909 1.65125 0.822909 1.65125L10.5837 7.74382C10.5837 7.74382 11.529 8.14581 11.529 7.30952C11.529 6.7381 11.3182 6.30673 10.7727 6.10082C9.68182 5.52939 1.05236 0.101028 1.05236 0.101028C1.05236 0.101028 1.99996e-17 -0.19501 0 0.376419Z" id="block-2nd__img_Mask" fill="#C2C3CA" stroke="none" />
            <g clip-path="url(#block-2nd__img_mask_6)">
              <path d="M0 0.376419C0 1.22568 0.822909 1.65125 0.822909 1.65125L10.5837 7.74382C10.5837 7.74382 11.529 8.14581 11.529 7.30952C11.529 6.7381 11.3182 6.30673 10.7727 6.10082C9.68182 5.52939 1.05236 0.101028 1.05236 0.101028C1.05236 0.101028 1.99996e-17 -0.19501 0 0.376419Z" transform="translate(-6.146195E-13 -0.5714286)" id="block-2nd__img_Path-17" fill="#D1D2DA" stroke="none" />
            </g>
          </g>
        </g>
        <g id="block-2nd__img_flaticon1575719145-eps" transform="translate(30 91)">
          <g id="block-2nd__img_Fill-2" transform="translate(0.5576172 0)" style="opacity: 0;">
            <path d="M15 37.1716C8.4 33.2589 3.00375 23.032 3.00375 14.4365L0 12.6558C0 23.3953 6.75375 36.1949 15 41.0835C23.2463 45.9721 30 41.1802 30 30.4407C30 19.7012 23.2463 6.90162 15 2.01299C13.0519 0.858087 11.1038 0.284354 9.30188 0L11.6962 4.54754C12.7519 4.78264 13.7981 5.21242 15 5.92493C21.6 9.8376 26.9963 20.0645 26.9963 28.66C26.9963 37.2555 21.6 41.0842 15 37.1716ZM23.4375 25.209L21.3606 21.2743L16.7495 24.5187L3.95929 0.351545L1.875 1.81698L16.7495 29.9111L23.4375 25.209Z" transform="translate(0.4423828 0)" id="block-2nd__img_Fill-1" fill="#50B067" fill-rule="evenodd" stroke="none" />
          </g>
        </g>
      </g>
    </g>
    <path d="M479.206 114.185C501.598 126.509 501.598 146.491 479.206 158.815L288.543 263.757C266.152 276.081 229.848 276.081 207.457 263.757L16.7936 158.815C-5.59786 146.491 -5.59786 126.509 16.7936 114.185L207.457 9.24324C229.848 -3.08108 266.152 -3.08108 288.543 9.24324L479.206 114.185Z" transform="translate(122 358.8345)" id="block-2nd__img_Rectangle-Copy-35" fill="#5F60B7" fill-opacity="0.110653833" stroke="none" />
    <path d="M58 0L0 31L76 73L124 42L58 0Z" transform="matrix(-1 0 0 1 546 516.8345)" id="block-2nd__img_Path-6" fill="url(#block-2nd__img_gradient_2)" fill-opacity="0.214960009" stroke="none" class="block-2nd__img-shadow" style="opacity: 0;" />
    <g id="block-2nd__img_Group-22" transform="translate(75 260.8345)">      
      <g id="block-2nd__img-paper-1" style="opacity: 0;">
        <path d="M0.115458 41.9011L0.115458 66.4135C0.115458 66.4135 -1.65483 110.051 23.7184 115.343C49.0916 120.634 45.9832 108.165 77.023 110.051C108.063 111.937 124.05 196.018 152.037 205.022C157.034 206.023 165.03 210.025 165.03 210.025L243.992 165.002C243.992 165.002 233.997 165.002 227 161C196.274 150.828 181.027 66.4135 152.041 66.4135C123.056 66.4135 107.459 81.4211 91.467 74.9179C75.4748 68.4146 73.6 48.2921 73.6 31.2834C73.6 14.2748 73.6 0 73.6 0L0.115458 41.9011Z" id="block-2nd__img_Path-8" fill="url(#block-2nd__img_gradient_9)" stroke="none" />
      
        <path d="M1.33391 29.364L54.0179 0.384338C55.3904 -0.370615 57 0.000708359 57 1.37439C57 2.74806 56.8814 4.00074 55.5089 4.75569L2.82496 33.7353C1.45248 34.4903 0.000110148 33.5265 0.000110148 32.1528C0.000110148 30.7791 -0.0385728 30.1189 1.33391 29.364Z" transform="translate(136 134)" id="block-2nd__img_Rectangle-Copy-45" fill="#8E88C0" fill-opacity="0.290248334" stroke="none" />
        <path d="M1.31751 13.3283L24.0545 0.387293C25.4102 -0.373464 27 0.000713804 27 1.38495C27 2.76919 26.8829 4.03149 25.5273 4.79225L2.79024 17.7333C1.43463 18.494 0.000108794 17.5228 0.000108794 16.1386C0.000108794 14.7544 -0.0380987 14.0891 1.31751 13.3283Z" transform="translate(145 162)" id="block-2nd__img_Rectangle-Copy-48" fill="#8E88C0" fill-opacity="0.290248334" stroke="none" />
        <path d="M1.32574 20.3317L38.0361 0.387016C39.4002 -0.373197 41 0.000713294 41 1.38396C41 2.76721 40.8821 4.02861 39.5181 4.78882L2.80767 24.7335C1.44359 25.4937 0.000109474 24.5232 0.000109474 23.1399C0.000109474 21.7567 -0.0383367 21.0919 1.32574 20.3317Z" transform="translate(128 128)" id="block-2nd__img_Rectangle-Copy-46" fill="#8E88C0" fill-opacity="0.215657547" stroke="none" />
        <path d="M1.33391 29.364L54.0179 0.384338C55.3904 -0.370615 57 0.000708359 57 1.37439C57 2.74806 56.8814 4.00074 55.5089 4.75569L2.82496 33.7353C1.45248 34.4903 0.000110148 33.5265 0.000110148 32.1528C0.000110148 30.7791 -0.0385728 30.1189 1.33391 29.364Z" transform="translate(119 104)" id="block-2nd__img_Rectangle-Copy-47" fill="#8E88C0" fill-opacity="0.153738841" stroke="none" />
        <path d="M1.36611 19.3369L37.1093 0.356882C37.981 -0.116451 39.5555 -0.315735 40.4822 1.03821C41.4088 2.39216 40.9741 2.82539 40.1024 3.29872L4.35921 22.2787C3.48753 22.752 1.28515 23.6326 0.358521 22.2787C-0.568111 20.9248 0.494419 19.8102 1.36611 19.3369Z" transform="translate(19 79)" id="block-2nd__img_Rectangle-Copy-39" fill="#8E88C0" fill-opacity="0.365513384" stroke="none" />
        <path d="M1.36611 19.3369L37.1093 0.356882C37.981 -0.116451 39.5555 -0.315735 40.4822 1.03821C41.4088 2.39216 40.9741 2.82539 40.1024 3.29872L4.35921 22.2787C3.48753 22.752 1.28515 23.6326 0.358521 22.2787C-0.568111 20.9248 0.494419 19.8102 1.36611 19.3369Z" transform="translate(96 81)" id="block-2nd__img_Rectangle-Copy-42" fill="#8E88C0" fill-opacity="0.0966099352" stroke="none" />
        <path d="M1.82657 13.7014L41.8026 0.252874C42.7798 -0.0825132 44.3986 -0.223718 45.0227 0.735639C45.6468 1.695 45.1154 2.00197 44.1381 2.33736L4.16212 15.7859C3.18487 16.1213 0.786201 16.7453 0.162122 15.7859C-0.461958 14.8265 0.849317 14.0368 1.82657 13.7014Z" transform="matrix(0.9816272 -0.190809 0.190809 0.9816272 46 89.64209)" id="block-2nd__img_Rectangle-Copy-40" fill="#8E88C0" fill-opacity="0.209472656" stroke="none" />
        <path d="M1.82657 13.7014L41.8026 0.252874C42.7798 -0.0825132 44.3986 -0.223718 45.0227 0.735639C45.6468 1.695 45.1154 2.00197 44.1381 2.33736L4.16212 15.7859C3.18487 16.1213 0.786201 16.7453 0.162122 15.7859C-0.461958 14.8265 0.849316 14.0368 1.82657 13.7014Z" transform="matrix(0.9816272 -0.190809 0.190809 0.9816272 64 85.64209)" id="block-2nd__img_Rectangle-Copy-41" fill="#8E88C0" fill-opacity="0.209472656" stroke="none" />
      </g>  
      <g id="block-2nd__img-btn" transform="translate(9 31.11572)" style="opacity: 0;">
        <path d="M5.56993 0.468894L53.4301 27.0826C56.5063 28.7931 59 33.6413 59 36.6776C59 39.714 56.5063 43.0105 53.4301 41.2999L4.74476 13.8642C1.66857 12.1536 0 8.12749 0 5.09115C7.32902e-15 2.0548 2.49374 -1.24169 5.56993 0.468894Z" transform="matrix(-1 0 0 1 59 0)" id="block-2nd__img_Rectangle" fill="#FFCE49" stroke="none" />
        <g id="block-2nd__img_Confirm-2" transform="translate(20 13.88439)">
          <path d="M15.7461 2.05128L15.7461 5.71188L16.2659 5.41803L16.2659 3.12312C16.2659 2.61627 16.5646 2.06726 16.9768 1.83421C17.3622 1.61636 17.6131 1.76313 17.6131 2.2031L17.6131 4.6564L18.1329 4.36256L18.1329 2.03597C18.1329 1.53968 18.4227 1.01685 18.835 0.7838C19.2442 0.552439 19.4802 0.714691 19.4802 1.2145L19.4802 3.60093L20 3.30708L20 0.779867C20 0.0547873 19.6027 -0.192261 18.9873 0.155623C18.5512 0.402182 18.1867 0.868676 18.0134 1.40308L18.0015 1.40983C17.8671 1.04233 17.5534 0.966228 17.1292 1.20603C16.711 1.44246 16.3943 1.88193 16.2479 2.35186L16.236 2.35861L16.236 1.77433L15.7461 2.05128ZM12.5765 2.84695C12.5765 3.05462 12.7229 3.14434 12.8992 3.04471C13.0784 2.94338 13.2248 2.68816 13.2248 2.48049C13.2248 2.2693 13.0784 2.1831 12.8992 2.28443C12.7229 2.38407 12.5765 2.63577 12.5765 2.84695ZM13.8611 6.77748L13.8611 3.11689L14.351 2.83993L14.351 3.4383L14.363 3.43155C14.4645 2.96935 14.7513 2.55028 15.1158 2.34426C15.2054 2.29359 15.283 2.26728 15.3249 2.25068L15.3249 2.84553C15.283 2.85157 15.1725 2.89646 15.0471 2.96738C14.6438 3.19537 14.3809 3.6854 14.3809 4.20281L14.3809 6.48364L13.8611 6.77748ZM10.9216 5.28196L10.9216 8.43922L11.4414 8.14538L11.4414 4.98812L12.0747 4.6301L12.0747 4.12677L11.4384 4.48647L11.4384 4.0817C11.4384 3.71916 11.5728 3.46717 11.8536 3.30843C11.9403 3.25946 12.0269 3.22104 12.0896 3.19614L12.0896 2.69985C12.0149 2.72798 11.8895 2.78483 11.773 2.8507C11.1994 3.17494 10.9216 3.66637 10.9216 4.37033L10.9216 4.77863L10.4884 5.0235L10.4884 5.52683L10.9216 5.28196ZM12.6393 7.46819L12.6393 3.80759L13.1591 3.51375L13.1591 7.17434L12.6393 7.46819ZM7.53099 10.356L7.53099 6.69537L8.02091 6.41842L8.02091 7.0027L8.03286 6.99595C8.20612 6.50378 8.53771 6.0629 9.01867 5.79101C9.69978 5.40598 10.0941 5.70047 10.0941 6.53114L10.0941 8.90701L9.57431 9.20086L9.57431 6.9341C9.57431 6.34278 9.33831 6.15237 8.86034 6.42257C8.37043 6.69952 8.05078 7.28852 8.05078 7.908L8.05078 10.0621L7.53099 10.356ZM5.57132 11.5272C4.71098 12.0135 4.13144 11.6125 4.13144 10.4475C4.13144 9.2789 4.71098 8.2262 5.57132 7.73984C6.42868 7.25517 7.00821 7.65263 7.00821 8.8212C7.00821 9.98626 6.42868 11.0425 5.57132 11.5272ZM0 12.072C0 13.6806 0.752801 14.2722 1.94175 13.6001C2.8947 13.0614 3.53398 12.1404 3.73114 11.0258L3.18745 11.3331C3.03211 12.0404 2.57804 12.6561 1.94474 13.0141C1.09335 13.4954 0.552651 13.0056 0.552651 11.7596C0.552651 10.5242 1.09933 9.4126 1.94175 8.93637C2.55713 8.58849 3.05004 8.7463 3.18745 9.33386L3.73114 9.0265C3.59373 8.09048 2.87976 7.82182 1.94175 8.35209C0.761762 9.01915 0 10.4776 0 12.072ZM6.47946 9.12011C6.47946 9.98246 6.12099 10.6779 5.57132 10.9886C5.02166 11.2994 4.66019 11.0109 4.66019 10.1486C4.66019 9.28622 5.02166 8.5891 5.57132 8.27837C6.12099 7.96764 6.47946 8.25776 6.47946 9.12011Z" id="block-2nd__img_Confirm" fill="#000000" fill-rule="evenodd" stroke="none" />
        </g>
      </g>    
    </g>
    <g id="block-2nd__img_Group-26" transform="translate(161 0)">
      <path d="M66.8885 0L0 40L155 126L228 87.8982L66.8885 0Z" transform="translate(0 488.8345)" id="block-2nd__img_Path-6" fill="url(#block-2nd__img_gradient_10)" fill-opacity="0.295944929" stroke="none" />
      <g filter="url(#block-2nd__img_filter_2)">
        <path d="M305.841 0C305.841 0 306.159 95.9443 305.841 101.163C305.549 105.939 302.104 110.668 295.505 114.314L177.932 179.278C164.124 186.907 141.737 186.907 127.929 179.278L10.3559 114.314C3.01279 110.257 -0.425194 104.859 0.041903 99.5462C0.453129 94.869 0.041903 2.5 0.041903 2.5L127.929 21.722C141.737 14.0927 164.124 14.0927 177.932 21.722L305.841 0Z" transform="translate(56 394.8345)" id="block-2nd__img_Rectangle-Copy-35" fill="url(#block-2nd__img_gradient_11)" stroke="none" />
      </g>
      <g filter="url(#block-2nd__img_filter_3)">
        <path d="M2.5 50.589L90.5 0.377459C91.8807 -0.410355 93 0.0749793 93 1.46148L93 4.47407C93 5.86057 91.8807 7.62321 90.5 8.41102L2.5 58.6225C1.11929 59.4104 -4.63842e-11 58.925 -4.63842e-11 57.5385L-4.63842e-11 54.5259C-4.63842e-11 53.1394 1.11929 51.3768 2.5 50.589Z" transform="translate(251 455.8345)" id="block-2nd__img_Rectangle" fill="#725B1F" stroke="none" />
      </g>
      <g filter="url(#block-2nd__img_filter_4)">
        <path d="M22 52.1436C34.1503 57.5664 44 50.7053 44 36.8189C44 22.9325 34.1503 7.27925 22 1.85644C9.84974 -3.56638 0 3.29472 0 17.1811C0 31.0675 9.84974 46.7207 22 52.1436Z" transform="translate(102 468.8345)" id="block-2nd__img-oval" fill="#E45A32" stroke="none" />
      </g>
      <g filter="url(#block-2nd__img_filter_5)">
        <path d="M295.639 70.6859C309.454 78.3152 309.454 90.6848 295.639 98.3142L178.013 163.278C164.199 170.907 141.801 170.907 127.987 163.278L10.3606 98.3142C-3.45352 90.6848 -3.45352 78.3152 10.3606 70.6859L127.987 5.72201C141.801 -1.90734 164.199 -1.90734 178.013 5.72201L295.639 70.6859Z" transform="translate(56 312.8345)" id="block-2nd__img_Rectangle-Copy-38" fill="#D7B76E" stroke="none" />
      </g>
      <path d="M11.347 0.261755L57.5162 25.0095C58.6192 25.5899 57.7723 26.9481 55.6247 28.0431L52.5389 29.8065C50.3912 30.9015 47.756 31.3187 46.653 30.7382L0.483795 5.99052C-0.619209 5.4101 0.227654 4.05191 2.37532 2.95691L5.46111 1.1935C7.60877 0.0984981 10.244 -0.318658 11.347 0.261755Z" transform="translate(183 374.8345)" id="block-2nd__img_Rectangle" fill="#725B1F" stroke="none" />
      <path d="M48 23.2535L44.9049 25L0 1.74649L3.09511 0L48 23.2535Z" transform="translate(188 378.8345)" id="block-2nd__img_Rectangle" fill="#4A3B14" stroke="none" />
      <g id="block-2nd__img_Group-7" transform="translate(126.002 0)">
        <path d="M11.2965 0.259089L46.8883 19.407C47.9864 19.9815 47.1433 21.3259 45.0052 22.4097L41.9331 24.1552C39.795 25.239 37.1715 25.6519 36.0734 25.0774L0.481643 5.92948C-0.616454 5.35498 0.226641 4.01063 2.36475 2.92678L5.43681 1.18134C7.57492 0.0974946 10.1984 -0.315412 11.2965 0.259089Z" transform="translate(16.55273 406.4094)" id="block-2nd__img-line-1" fill="#725B1F" stroke="none" />
        <path d="M37.2705 17.8919L34.1984 19.6373L0 1.74544L3.07206 0L37.2705 17.8919Z" transform="translate(21.36328 409.4536)" id="block-2nd__img_Rectangle" fill="#4A3B14" stroke="none" />
        <g id="block-2nd__img_Shape-6-Copy">
          <path d="M0 399.761L79.998 442L86.998 8.2843L7.99804 0L0 399.761Z" id="block-2nd__img_Mask" fill="#D8D8D8" fill-opacity="0" stroke="none" />
          <g clip-path="url(#block-2nd__img_mask_7)">
            <g id="block-2nd__img-key-1" transform="translate(24.99805 -106)" style="opacity: 0;">
              <g id="block-2nd__img_Rectangle">
                <path d="M2.41672 0L0 1.52441L3.07039 113.786L5.31289 123.415L10.9332 126.816L12.5387 126.816L31.6278 108.549L31.6278 102.787L28.6989 95.6771L28.6989 85.6756L31.2617 81.2132L31.2617 72.5322L27.6005 60.9176L27.6005 51.3707L22.8409 42.7726L23.5732 35.0129L26.8683 32.7825L28.465 35.9092L32.3601 33.6113L32.3601 24.2918L30.6887 21.2725L19.9651 15.9445L17.3845 11.7093L4.48123 4.8269L2.41672 0Z" transform="translate(0.3322754 0.9682617)" id="block-2nd__img_Mask" fill="url(#block-2nd__img_gradient_12)" stroke="none" />
              </g>
              <g id="block-2nd__img_Path-2-+-Path-2-Mask" transform="translate(0.3496094 2.37085)">
                <g filter="url(#block-2nd__img_filter_2)">
                  <path d="M0 0L0 113.391L2.27484 121.028L10.2804 125.413L29.573 107.069L29.573 102.345L26.5398 95.2055L26.5398 85.1619L29.1938 80.6806L29.1938 71.9631L25.4024 60.2993L25.4024 50.7122L20.4736 42.0778L21.2319 34.2854L24.6441 32.0456L28.4355 34.1222L30.3312 32.8779L30.3312 23.519L28.7505 20.7498L17.6059 15.6682L15.0217 11.0004L2.27484 4.50367L0 0Z" id="block-2nd__img_Mask" fill="url(#block-2nd__img_gradient_13)" stroke="none" />
                </g>
                <g clip-path="url(#block-2nd__img_mask_9)">
                  <g filter="url(#block-2nd__img_filter_6)">
                    <g id="block-2nd__img_Combined-Shape">
                      <use stroke="none" fill="#79FFDF" xlink:href="#block-2nd__img_path_10" fill-rule="evenodd" />
                      <g clip-path="url(#block-2nd__img_clip_1)">
                        <use xlink:href="#block-2nd__img_path_10" fill="none" stroke="#76FFDE" stroke-width="2" />
                      </g>
                    </g>
                  </g>
                </g>
              </g>
            </g>
          </g>
        </g>
      </g>
      <g id="block-2nd__img_Group-13" transform="translate(216.5 1.261475)">
        <path d="M11.2965 0.259089L64.2603 28.3296C65.3584 28.9041 64.5154 30.2485 62.3772 31.3323L59.3052 33.0778C57.1671 34.1616 54.5436 34.5745 53.4455 34L0.481643 5.92949C-0.616454 5.35499 0.226641 4.01063 2.36475 2.92678L5.43681 1.18134C7.57492 0.0974946 10.1984 -0.315412 11.2965 0.259089Z" transform="translate(7.054688 348.1479)" id="block-2nd__img-line-2" fill="#725B1F" stroke="none" />
        <path d="M54.6426 26.8144L51.5705 28.5599L0 1.74544L3.07206 0L54.6426 26.8144Z" transform="translate(11.86523 351.1921)" id="block-2nd__img_Rectangle" fill="#4A3B14" stroke="none" />
        <path d="M0 346.573L73.5 385L76 14.073L1.5 0L0 346.573Z" id="block-2nd__img_Mask" fill="#D8D8D8" fill-opacity="0" stroke="none" />
        <g clip-path="url(#block-2nd__img_mask_10)">
          <g id="block-2nd__img-key-2" transform="translate(13.07422 -107.317)" style="opacity: 0;">
            <g id="block-2nd__img_Rectangle" transform="translate(1.005859 0)">
              <path d="M2.28667 0L0 1.5016L0 46.9848L27.7667 59.3667L22.4663 128.278L34.1496 137.432L48.4194 128.087L48.4194 41.7106L34.9794 18.0749L2.28667 0Z" id="block-2nd__img_Mask" fill="url(#block-2nd__img_gradient_12)" stroke="none" />
            </g>
            <g id="block-2nd__img_Path-2-+-Path-2-Mask" transform="translate(0 1.196899)">
              <g filter="url(#block-2nd__img_filter_2)">
                <path d="M1.77821e-13 45.4698L3.6544 52.8919L19.2107 60.4746L22.8516 66.6172L22.6687 129.459L35.1555 136.235L46.4253 128.906L46.4253 41.5138L32.8076 17.8781L0 0L1.77821e-13 45.4698Z" id="block-2nd__img_Mask" fill="url(#block-2nd__img_gradient_13)" stroke="none" />
              </g>
              <g clip-path="url(#block-2nd__img_mask_12)">
                <g filter="url(#block-2nd__img_filter_6)">
                  <g id="block-2nd__img_Combined-Shape-Copy">
                    <use stroke="none" fill="#79FFDF" xlink:href="#block-2nd__img_path_14" fill-rule="evenodd" />
                    <g clip-path="url(#block-2nd__img_clip_2)">
                      <use xlink:href="#block-2nd__img_path_14" fill="none" stroke="#76FFDE" stroke-width="2" />
                    </g>
                  </g>
                </g>
              </g>
            </g>
          </g>
        </g>
      </g>
      <path d="M0 6.87428C0 6.87428 10 44.8743 21 43.8743C32 42.8743 87 6.87428 87 6.87428L11.534 0L0 6.87428Z" transform="translate(251 507.9602)" id="block-2nd__img_Path-14" fill="#725B1F" fill-opacity="0.232212618" stroke="none" class="block-2nd__img-shadow" style="opacity: 0;" />
    </g>
    <g id="block-2nd__img_Group-25" transform="translate(419 462.8345)" class="block-2nd__img-paper-2" style="opacity: 0;">
      <path d="M0 41.9984C0 41.9984 3.41987 43.4831 4.53399 45.1257C5.64811 46.7684 6.54001 51.6408 6.54001 51.6408C6.54001 51.6408 4.76353 95.3573 30.2254 100.659C55.6873 105.96 52.6783 140.346 84.7194 157C113.862 140.847 134.925 127.817 160 113.283C127.904 100.659 118.877 60.1605 98.2109 60.1605C77.5451 60.1605 80.2814 33.4865 80.2814 16.447C80.2814 -0.592388 73.7414 0.0213366 73.7414 0.0213366L0 41.9984Z" id="block-2nd__img_Path-8" fill="url(#block-2nd__img_gradient_14)" stroke="none" />
      <path d="M33.6886 34.1444C42.9193 30.1731 45.8916 20.9079 40.4516 13.2489L44.5723 11.5958C51.3964 21.1129 47.7379 32.5906 36.2043 37.5536C24.5373 42.7728 9.30824 39.4155 2.62315 29.6312C-1.10414 23.9193 -0.636834 17.2496 2.62315 11.9876C5.27828 7.70184 7.06722 5.69322 12.4044 2.79545C15.1084 1.66298 17.6237 0.280047 20.5848 0L19.1691 4.31779C17.4688 4.55997 15.901 4.98896 14.2299 5.69322C11.1591 7.01257 8.73753 9.00277 7.06722 11.3658C3.71866 16.1032 3.3896 22.3391 6.90278 27.6727C12.2538 35.5027 24.3726 38.2797 33.6886 34.1444ZM11 24.3436L12.2869 20.6211L22.7529 23.2258L30.3699 1L35 2.35969L26.2422 28L11 24.3436Z" transform="translate(56 66)" id="block-2nd__img_Fill-1" fill="#50B067" fill-rule="evenodd" stroke="none" />
    </g>
    <path d="M16.2667 16.1407L16.7232 16.3953C17.4263 16.7874 18 17.9639 18 19.0216L18 31.6639C18 32.7203 17.4263 33.2648 16.7232 32.8727L1.27684 24.2581C0.573707 23.8659 0 22.6815 0 21.6251L0 8.98284C0 7.92507 0.573707 7.38857 1.27684 7.78072L1.73333 8.03531L1.73333 5.51461C1.73333 0.852824 4.86788 -1.29355 8.7861 0.808493C8.89297 0.865898 9.10703 0.985276 9.2139 1.04708C13.1319 3.3154 16.2667 8.95822 16.2667 13.62L16.2667 16.1407ZM4.74098 9.7127L13.259 14.4633L13.259 11.9426C13.259 9.16574 11.3466 5.80279 8.99991 4.49399C6.65312 3.18516 4.74098 4.41514 4.74098 7.19201L4.74098 9.7127ZM10.4471 21.1175L10.4471 24.9375C10.4471 25.375 10.1367 25.5718 9.76577 25.3649L8.23423 24.5108C7.86326 24.3039 7.55292 23.7609 7.55292 23.3234L7.55292 19.5034C7.19326 18.8847 6.98366 18.19 6.98366 17.5508C6.98366 16.3395 7.77708 15.7408 8.7861 16.2556C8.89297 16.3099 9.10703 16.4293 9.2139 16.4942C10.223 17.1049 11.0163 18.5885 11.0163 19.7999C11.0163 20.439 10.8068 20.9 10.4471 21.1175Z" transform="translate(274 478.8345)" id="block-2nd__img_Fill-1" fill="#FFFFFF" fill-rule="evenodd" stroke="none" />
  </g>
</svg>