<svg width="45" height="46" viewBox="0 0 45 46" fill="none" xmlns="http://www.w3.org/2000/svg">
<mask id="mask0" mask-type="alpha" maskUnits="userSpaceOnUse" x="0" y="0" width="45" height="46">
<path fill-rule="evenodd" clip-rule="evenodd" d="M44.9883 0.0244141H0.0235558V45.8061H44.9883V0.0244141Z" fill="white"/>
</mask>
<g mask="url(#mask0)">
<path fill-rule="evenodd" clip-rule="evenodd" d="M22.5118 0.0244141C23.0177 0.0244141 23.4273 0.44152 23.4273 0.956254C23.4273 1.47041 23.0177 1.88809 22.5118 1.88809C11.1219 1.88809 1.85472 11.3206 1.85472 22.9153C1.85472 34.5093 11.1219 43.9426 22.5118 43.9426C33.9027 43.9426 43.1691 34.5101 43.1691 22.9153C43.1691 15.0264 38.8916 7.86848 32.0063 4.23468C31.5572 3.99808 31.3822 3.4356 31.6146 2.97909C31.8476 2.522 32.3996 2.34382 32.8487 2.581C40.344 6.53642 45 14.3283 45 22.9153C45 35.5374 34.912 45.8061 22.5118 45.8061C10.1118 45.8061 0.0238342 35.5374 0.0238342 22.9153C0.0238342 10.2933 10.1118 0.0244141 22.5118 0.0244141Z" fill="#55BCA4"/>
</g>
<path fill-rule="evenodd" clip-rule="evenodd" d="M13.3427 11.1555C15.9147 9.1681 18.9873 8.11719 22.2282 8.11719C30.3188 8.11719 36.9004 14.793 36.9004 22.9995C36.9004 31.206 30.3188 37.8819 22.2282 37.8819C18.3095 37.8819 14.6249 36.3337 11.8532 33.5231C11.4936 33.1576 11.4936 32.5652 11.8532 32.1996C12.2136 31.8341 12.7984 31.8341 13.158 32.1996C15.5807 34.657 18.8019 36.0101 22.2282 36.0101C29.3016 36.0101 35.056 30.1742 35.056 22.9995C35.056 15.8248 29.3016 9.98898 22.2282 9.98898C16.5558 9.98898 11.49 13.8427 9.90887 19.362C9.76704 19.8585 9.25506 20.1433 8.76556 19.9992C8.27683 19.8546 7.99528 19.3361 8.13711 18.8396C9.00579 15.8081 10.8548 13.0789 13.3427 11.1555Z" fill="#55BCA4"/>
<path fill-rule="evenodd" clip-rule="evenodd" d="M23.4121 22.7011H21.5879C20.5486 22.7011 19.7031 21.9079 19.7031 20.933C19.7031 19.958 20.5486 19.1648 21.5879 19.1648H25.2364C25.7066 19.1648 26.0879 18.8071 26.0879 18.3659C26.0879 17.9247 25.7066 17.567 25.2364 17.567H23.3516V15.7989C23.3516 15.3577 22.9703 15 22.5 15C22.0297 15 21.6484 15.3577 21.6484 15.7989V17.567H21.5879C19.6095 17.567 18 19.077 18 20.933C18 22.7889 19.6096 24.2988 21.5879 24.2988H23.4122C24.4514 24.2988 25.2969 25.092 25.2969 26.067C25.2969 27.0419 24.4514 27.8352 23.4122 27.8352H19.7637C19.2934 27.8352 18.9121 28.1928 18.9121 28.634C18.9121 29.0752 19.2934 29.4329 19.7637 29.4329H21.6484V31.2011C21.6484 31.6423 22.0297 32 22.5 32C22.9703 32 23.3516 31.6423 23.3516 31.2011V29.4329H23.4121C25.3905 29.4329 27 27.9229 27 26.067C27 24.211 25.3905 22.7011 23.4121 22.7011Z" fill="#55BCA4"/>
<path fill-rule="evenodd" clip-rule="evenodd" d="M11.8866 20.1179C12.2557 19.751 12.854 19.751 13.2231 20.1179C13.5923 20.4848 13.5923 21.0795 13.2231 21.4464L9.66799 24.9792C9.491 25.1559 9.25121 25.2545 9.00039 25.2545C8.74899 25.2545 8.509 25.1559 8.3322 24.9792L4.77685 21.4464C4.40772 21.0795 4.40772 20.4848 4.77685 20.1179C5.14599 19.751 5.74429 19.751 6.11343 20.1179L9.00039 22.9866L11.8866 20.1179Z" fill="#55BCA4"/>
</svg>
