<svg width="32" height="55" viewBox="0 0 32 55" fill="none" xmlns="http://www.w3.org/2000/svg">
<mask id="mask0" mask-type="alpha" maskUnits="userSpaceOnUse" x="0" y="0" width="32" height="55">
<path fill-rule="evenodd" clip-rule="evenodd" d="M0.455078 0H31.5408V54.9313H0.455078V0Z" fill="white"/>
</mask>
<g mask="url(#mask0)">
<path fill-rule="evenodd" clip-rule="evenodd" d="M27.5134 0H4.48251C2.26308 0 0.455078 1.81271 0.455078 4.03677V50.9632C0.455078 53.1873 2.26308 55 4.48251 55H27.5134C29.7374 55 31.5408 53.1873 31.5408 50.9632V4.03677C31.5408 1.81271 29.7374 0 27.5134 0ZM2.28594 7.33104V42.1678H29.7145V7.33104H2.28594ZM4.48251 1.83563H27.5134C28.7282 1.83563 29.7145 2.82448 29.7145 4.03677V5.50115H2.28594V4.03677C2.28594 2.82448 3.27222 1.83563 4.48251 1.83563ZM27.5134 53.1644H4.48251C3.27222 53.1644 2.28594 52.1755 2.28594 50.9632V43.9977H29.7145V50.9632C29.7145 52.1755 28.7282 53.1644 27.5134 53.1644ZM6.22801 16.4614L7.53877 15.2278L7.55675 15.2469C9.81944 13.2863 12.7713 12.1 16.0002 12.1C23.1247 12.1 28.9002 17.8755 28.9002 25C28.9002 32.1245 23.1247 37.9 16.0002 37.9C8.87575 37.9 3.10022 32.1245 3.10022 25C3.10022 21.7525 4.30019 18.7854 6.28092 16.5177L6.22801 16.4614ZM7.52148 17.8358C5.88617 19.7692 4.90022 22.2694 4.90022 25C4.90022 31.1304 9.86986 36.1 16.0002 36.1C18.4892 36.1 20.7868 35.2808 22.6382 33.8973L7.52148 17.8358ZM8.79164 16.559L23.9891 32.7063C25.9154 30.7099 27.1002 27.9933 27.1002 25C27.1002 18.8696 22.1306 13.9 16.0002 13.9C13.2487 13.9 10.7311 14.9011 8.79164 16.559Z" fill="#BC556E"/>
</g>
<path fill-rule="evenodd" clip-rule="evenodd" d="M16.5 45C14.5678 45 13 46.5721 13 48.4973C13 50.4279 14.5678 52 16.5 52C18.4322 52 20 50.4279 20 48.4973C20 46.5721 18.4322 45 16.5 45ZM16.5 50.2486C15.5339 50.2486 14.7473 49.4626 14.7473 48.4973C14.7473 47.5374 15.5339 46.7514 16.5 46.7514C17.4661 46.7514 18.2484 47.5374 18.2484 48.4973C18.2484 49.4626 17.4661 50.2486 16.5 50.2486Z" fill="#BC556E"/>
</svg>
