<svg width="55" height="55" viewBox="0 0 55 55" fill="none" xmlns="http://www.w3.org/2000/svg">
<path d="M46.9454 8.0546C41.7514 2.86043 34.8455 0 27.5 0C20.1545 0 13.2487 2.86054 8.0546 8.0546C2.86043 13.2486 0 20.1546 0 27.5C0 34.8454 2.86043 41.7513 8.0546 46.9454C13.2487 52.1396 20.1545 55 27.5 55C29.3657 55 31.2305 54.8119 33.0428 54.4412C33.4784 54.352 33.7592 53.9265 33.6701 53.4909C33.5809 53.0553 33.156 52.774 32.7198 52.8636C31.0136 53.2128 29.2573 53.3899 27.5 53.3899C13.2243 53.3897 1.61025 41.7757 1.61025 27.5C1.61025 13.2243 13.2243 1.61025 27.5 1.61025C41.7756 1.61025 53.3897 13.2244 53.3899 27.5C53.3899 37.7283 47.3481 47.0206 37.9979 51.1733C37.5914 51.3538 37.4083 51.8296 37.5888 52.2359C37.7694 52.6423 38.2453 52.8255 38.6514 52.6449C48.5828 48.2341 55 38.3642 55 27.5C55 20.1545 52.1395 13.2487 46.9454 8.0546Z" fill="#5585BC"/>
<path d="M27.7082 6.25C25.4072 6.25 23.1425 6.61241 20.977 7.32721C20.5534 7.46702 20.3232 7.92386 20.463 8.34761C20.603 8.77124 21.0597 9.00107 21.4834 8.86158C23.4851 8.20079 25.5795 7.86576 27.7081 7.86576C38.6492 7.86576 47.5506 16.767 47.5506 27.7082C47.5506 38.6494 38.6492 47.5506 27.7081 47.5506C16.767 47.5506 7.86576 38.6493 7.86576 27.7082C7.86576 21.1375 11.1121 15.0029 16.5499 11.2981C16.9187 11.0469 17.0139 10.5443 16.7627 10.1755C16.5115 9.80673 16.009 9.71166 15.6401 9.96272C9.76027 13.9689 6.25 20.6026 6.25 27.7083C6.25 39.5405 15.8762 49.1667 27.7083 49.1667C39.5406 49.1667 49.1667 39.5405 49.1667 27.7083C49.1667 15.8762 39.5405 6.25 27.7082 6.25Z" fill="#5585BC"/>
<path d="M21.0297 26.0055V26.0054H18.965L19.2897 21.399H24.6488C25.1594 21.399 25.4145 20.853 25.4145 20.283C25.4145 19.737 25.1593 19.167 24.6488 19.167H17.7586C17.4105 19.167 17.2482 19.4757 17.2018 19.9982L16.6682 26.4567C16.6451 26.6229 16.6217 26.8602 16.6217 27.0266C16.6217 27.6201 16.8538 28.0001 17.6657 28.0001H21.0297C22.7465 28.0001 23.7905 28.9736 23.7905 30.992V31.4431C23.7905 33.4852 22.7465 34.435 21.0065 34.435C19.4985 34.435 18.2922 33.6513 18.2922 32.298C18.2922 31.7281 18.0602 31.3006 17.0395 31.3006C16.2971 31.3006 15.833 31.5618 15.833 32.4642C15.833 34.6724 17.6891 36.667 21.053 36.667C23.9297 36.667 26.2497 35.2424 26.2497 31.4432V30.9921C26.2496 27.3353 23.976 26.0055 21.0297 26.0055Z" fill="#5585BC"/>
<path fill-rule="evenodd" clip-rule="evenodd" d="M27.917 24.4621C27.917 20.6155 30.1674 19.167 33.1137 19.167C36.0368 19.167 38.3337 20.6155 38.3337 24.4621V31.3719C38.3337 35.2185 36.0368 36.667 33.1137 36.667C30.1674 36.667 27.917 35.2185 27.917 31.3719V24.4621ZM33.1137 34.4349C34.8305 34.4349 35.8745 33.4615 35.8745 31.3717V24.462C35.8745 22.3726 34.8305 21.3989 33.1137 21.3989C31.3737 21.3989 30.3762 22.3725 30.3762 24.462V31.3717C30.3762 33.4614 31.3737 34.4349 33.1137 34.4349Z" fill="#5585BC"/>
</svg>
