<svg width="84" height="115" viewBox="0 0 84 115" fill="none" xmlns="http://www.w3.org/2000/svg">
<path fill-rule="evenodd" clip-rule="evenodd" d="M24.8183 57.5H36.2728C37.3271 57.5 38.1819 58.3582 38.1819 59.4167V74.75C38.1819 75.8085 37.3271 76.6667 36.2728 76.6667H24.8183C23.764 76.6667 22.9092 75.8085 22.9092 74.75V59.4167C22.9092 58.3582 23.764 57.5 24.8183 57.5ZM32.4546 67.0833H34.3637V61.3333H32.4546V67.0833ZM28.6365 61.3333V67.0833H26.7274V61.3333H28.6365ZM26.7274 70.9167V72.8333H34.3637V70.9167H26.7274Z" fill="#5556BC"/>
<path d="M45.8184 44.0834H49.6365V47.9167H45.8184V44.0834Z" fill="#5556BC"/>
<path d="M45.8184 36.4166H49.6365V40.25H45.8184V36.4166Z" fill="#5556BC"/>
<path d="M45.8184 28.75H49.6365V32.5833H45.8184V28.75Z" fill="#5556BC"/>
<path d="M45.8184 21.0834H49.6365V24.9167H45.8184V21.0834Z" fill="#5556BC"/>
<path d="M53.4541 36.4166H57.2723V47.9166H53.4541V36.4166Z" fill="#5556BC"/>
<path d="M53.4541 21.0834H57.2723V32.5834H53.4541V21.0834Z" fill="#5556BC"/>
<path fill-rule="evenodd" clip-rule="evenodd" d="M84 15.3333C84 17.4503 82.2904 19.1667 80.1818 19.1667H68.7273V47.123L81.1998 59.645C82.9988 61.44 84.0075 63.8845 84 66.432V111.167C84 113.284 82.2904 115 80.1818 115H51.5455C49.4369 115 47.7273 113.284 47.7273 111.167V103.308C43.2911 102.383 40.1058 98.4659 40.0909 93.9167V88.1667H21C17.8371 88.1667 15.2727 85.5921 15.2727 82.4167V19.1667H3.81818C1.70961 19.1667 0 17.4503 0 15.3333V3.83333C0 1.71639 1.70961 0 3.81818 0H80.1818C82.2904 0 84 1.71639 84 3.83333V15.3333ZM3.81818 3.83333V15.3333H15.2727V11.5H11.4545V7.66667H72.5455V11.5H68.7273V15.3333H80.1818V3.83333H3.81818ZM19.0909 82.4167V11.5H64.9091V67.0833H62.8089L55.2341 59.4803C53.7389 57.982 51.318 57.982 49.8237 59.4803L48.487 60.8214C46.6935 62.6164 45.6849 65.0544 45.6849 67.5971C45.6849 70.1399 46.6935 72.5778 48.487 74.3728L57.2727 83.2103V84.3333H21C19.9457 84.3333 19.0909 83.4751 19.0909 82.4167ZM80.1818 66.432C80.1874 64.9018 79.5815 63.4344 78.5002 62.3572L68.7273 52.5436V69C68.7273 70.0585 67.8725 70.9167 66.8182 70.9167H62.0072C61.5011 70.9167 61.0154 70.7145 60.6574 70.3551L52.5252 62.1897L51.1772 63.5317C49.8517 64.885 49.2598 66.7979 49.5888 68.6668C49.8042 69.8058 50.3579 70.8521 51.1772 71.67L60.5316 81.0615C60.8896 81.4209 61.0909 81.9085 61.0909 82.4167V88.1667C61.0909 91.3421 63.6553 93.9167 66.8182 93.9167V97.75C61.5486 97.7434 57.2793 93.4572 57.2727 88.1667H43.9091V93.9167C43.9128 96.6335 45.8023 98.9797 48.4469 99.5534C50.2413 99.8997 51.5408 101.474 51.5455 103.308V111.167H80.1818V66.432Z" fill="#5556BC"/>
<path fill-rule="evenodd" clip-rule="evenodd" d="M30.5455 19.1666C26.3284 19.1666 22.9092 22.5994 22.9092 26.8333C22.9166 28.1763 23.2802 29.4921 23.9607 30.6479C22.0786 33.8682 22.7815 37.9814 25.6255 40.3885C28.4687 42.7955 32.6262 42.7955 35.4693 40.3885C38.3133 37.9814 39.0162 33.8682 37.1341 30.6479C37.8137 29.4921 38.1754 28.1753 38.1819 26.8333C38.1819 22.5994 34.7627 19.1666 30.5455 19.1666ZM30.5455 23C32.6541 23 34.3637 24.7163 34.3637 26.8333C34.3637 28.9502 32.6541 30.6666 30.5455 30.6666C28.437 30.6666 26.7274 28.9502 26.7274 26.8333C26.7274 24.7163 28.437 23 30.5455 23ZM26.7274 34.5C26.7274 36.6169 28.437 38.3333 30.5455 38.3333C32.6541 38.3333 34.3637 36.6169 34.3637 34.5C34.3591 34.1659 34.3106 33.8336 34.2183 33.5126C31.9457 34.8294 29.1454 34.8294 26.8728 33.5126C26.7805 33.8336 26.732 34.1659 26.7274 34.5Z" fill="#5556BC"/>
</svg>
