<svg width="225" height="49" viewBox="0 0 225 49" fill="none" xmlns="http://www.w3.org/2000/svg">
<path fill-rule="evenodd" clip-rule="evenodd" d="M24.5 48C37.4787 48 48 37.4787 48 24.5C48 11.5213 37.4787 1 24.5 1C11.5213 1 1 11.5213 1 24.5C1 37.4787 11.5213 48 24.5 48Z" stroke="black" stroke-width="2"/>
<path fill-rule="evenodd" clip-rule="evenodd" d="M26.4816 28.1429L30.786 34H35L30.1538 27.4286C31.5987 26.8952 32.7074 26.0857 33.4799 25C34.2525 23.9143 34.6388 22.6191 34.6388 21.1143C34.6388 19.6476 34.2776 18.381 33.5552 17.3143C32.8328 16.2476 31.7943 15.4286 30.4398 14.8571C29.0853 14.2857 27.495 14 25.6689 14H17V34H20.913V28.1714H25.6689C26.0301 28.1714 26.301 28.1619 26.4816 28.1429ZM29.3712 18.1714C30.2542 18.8571 30.6957 19.8381 30.6957 21.1143C30.6957 22.3905 30.2542 23.3762 29.3712 24.0714C28.4883 24.7667 27.194 25.1143 25.4883 25.1143H20.913V17.1429H25.4883C27.194 17.1429 28.4883 17.4857 29.3712 18.1714Z" fill="black"/>
<path d="M76.051 31L73.486 27.295H73.334H70.655V31H67.577V17.7H73.334C74.512 17.7 75.5317 17.8963 76.393 18.289C77.267 18.6817 77.9383 19.239 78.407 19.961C78.8757 20.683 79.11 21.538 79.11 22.526C79.11 23.514 78.8693 24.369 78.388 25.091C77.9193 25.8003 77.248 26.345 76.374 26.725L79.357 31H76.051ZM75.994 22.526C75.994 21.7787 75.7533 21.2087 75.272 20.816C74.7907 20.4107 74.0877 20.208 73.163 20.208H70.655V24.844H73.163C74.0877 24.844 74.7907 24.6413 75.272 24.236C75.7533 23.8307 75.994 23.2607 75.994 22.526ZM87.4577 31.228C85.5577 31.228 84.0757 30.7023 83.0117 29.651C81.9603 28.5997 81.4347 27.0987 81.4347 25.148V17.7H84.5127V25.034C84.5127 27.4153 85.5007 28.606 87.4767 28.606C88.4393 28.606 89.174 28.321 89.6807 27.751C90.1873 27.1683 90.4407 26.2627 90.4407 25.034V17.7H93.4807V25.148C93.4807 27.0987 92.9487 28.5997 91.8847 29.651C90.8333 30.7023 89.3577 31.228 87.4577 31.228ZM106.288 24.084C107.048 24.3247 107.644 24.73 108.074 25.3C108.505 25.8573 108.72 26.5477 108.72 27.371C108.72 28.5363 108.264 29.4357 107.352 30.069C106.453 30.6897 105.136 31 103.4 31H96.5223V17.7H103.02C104.642 17.7 105.883 18.0103 106.744 18.631C107.618 19.2517 108.055 20.094 108.055 21.158C108.055 21.804 107.897 22.3803 107.58 22.887C107.276 23.3937 106.846 23.7927 106.288 24.084ZM99.5813 20.018V23.153H102.64C103.4 23.153 103.977 23.02 104.369 22.754C104.762 22.488 104.958 22.0953 104.958 21.576C104.958 21.0567 104.762 20.6703 104.369 20.417C103.977 20.151 103.4 20.018 102.64 20.018H99.5813ZM103.172 28.682C103.983 28.682 104.591 28.549 104.996 28.283C105.414 28.017 105.623 27.6053 105.623 27.048C105.623 25.946 104.806 25.395 103.172 25.395H99.5813V28.682H103.172ZM111.051 17.7H114.129V28.492H120.798V31H111.051V17.7ZM148 17.7L143.649 31H140.343L137.417 21.994L134.396 31H131.109L126.739 17.7H129.931L132.933 27.048L136.068 17.7H138.918L141.958 27.124L145.055 17.7H148ZM158.032 28.15H151.857L150.679 31H147.525L153.453 17.7H156.493L162.44 31H159.21L158.032 28.15ZM157.063 25.813L154.954 20.721L152.845 25.813H157.063ZM163.82 17.7H166.898V28.492H173.567V31H163.82V17.7ZM175.287 17.7H178.365V28.492H185.034V31H175.287V17.7ZM197.052 28.53V31H186.754V17.7H196.805V20.17H189.813V23.058H195.988V25.452H189.813V28.53H197.052ZM202.256 20.208H198V17.7H209.59V20.208H205.334V31H202.256V20.208Z" fill="black"/>
</svg>
