<svg width="36" height="28" viewBox="0 0 36 28" fill="none" xmlns="http://www.w3.org/2000/svg">
<path fill-rule="evenodd" clip-rule="evenodd" d="M36 3.31218C34.681 3.87228 33.2524 4.26005 31.7591 4.4297C33.2861 3.55453 34.4504 2.16772 35.0101 0.51433C33.5814 1.32487 32.0009 1.9146 30.3079 2.22966C28.9693 0.861704 27.0457 0 24.9252 0C20.8502 0 17.543 3.16676 17.543 7.06867C17.543 7.62608 17.6105 8.16195 17.7314 8.67898C11.5894 8.38277 6.15327 5.57415 2.50574 1.29256C1.86735 2.33468 1.50457 3.55453 1.50457 4.84978C1.50457 7.30025 2.81228 9.46797 4.78931 10.7282C3.58003 10.6986 2.4495 10.3728 1.45114 9.84497V9.93114C1.45114 13.3591 3.99906 16.2189 7.37099 16.8732C6.7551 17.0294 6.09702 17.1129 5.4277 17.1129C4.95524 17.1129 4.49402 17.0725 4.03281 16.989C4.97774 19.7977 7.70002 21.8361 10.9313 21.9007C8.40309 23.7938 5.21678 24.9194 1.75768 24.9194C1.16428 24.9194 0.582142 24.8871 0 24.8252C3.27349 26.834 7.15163 28 11.3251 28C24.9027 28 32.33 17.2287 32.33 7.88998L32.3075 6.97442C33.7586 5.97538 35.0101 4.73399 36 3.31218Z" fill="white"/>
</svg>
