<svg width="764" height="667" viewBox="0 0 764 667" fill="none" xmlns="http://www.w3.org/2000/svg" id="block-exchage__img" class="block-exchage__img-img">
	<g>
		<path id="exchage_exchage-r-5" opacity="0.0458519" fill-rule="evenodd" clip-rule="evenodd" d="M640.377 358.677C645.208 361.341 645.208 365.659 640.377 368.323L599.246 391.002C594.416 393.666 586.584 393.666 581.754 391.002L540.623 368.323C535.792 365.659 535.792 361.341 540.623 358.677L581.754 335.998C586.584 333.334 594.416 333.334 599.246 335.998L640.377 358.677Z" fill="#5F60B7"/>
		<path id="exchage_exchage-r-4" opacity="0.0446661" fill-rule="evenodd" clip-rule="evenodd" d="M135.26 348.206C141.58 351.682 141.58 357.318 135.26 360.794L81.4437 390.393C75.1235 393.869 64.8765 393.869 58.5563 390.393L4.74013 360.794C-1.58004 357.318 -1.58004 351.682 4.74013 348.206L58.5563 318.607C64.8765 315.131 75.1235 315.131 81.4437 318.607L135.26 348.206Z" fill="#5F60B7"/>
		<path id="exchage_exchage-r-3" opacity="0.0493397" fill-rule="evenodd" clip-rule="evenodd" d="M757.432 550.754C766.189 555.584 766.189 563.416 757.432 568.246L682.858 609.377C674.1 614.208 659.9 614.208 651.142 609.377L576.568 568.246C567.811 563.416 567.811 555.584 576.568 550.754L651.142 509.623C659.9 504.792 674.1 504.792 682.858 509.623L757.432 550.754Z" fill="#5F60B7"/>
		<path id="exchage_exchage-r-2" opacity="0.0505952" fill-rule="evenodd" clip-rule="evenodd" d="M310.531 611.533C316.49 614.828 316.49 620.172 310.531 623.467L259.79 651.528C253.831 654.824 244.169 654.824 238.21 651.528L187.469 623.467C181.51 620.172 181.51 614.828 187.469 611.533L238.21 583.472C244.169 580.176 253.831 580.176 259.79 583.472L310.531 611.533Z" fill="#6C6CC8"/>
		<path id="exchage_exchage-r-1" opacity="0.0505952" fill-rule="evenodd" clip-rule="evenodd" d="M340.531 271.533C346.49 274.828 346.49 280.172 340.531 283.467L289.79 311.528C283.831 314.824 274.169 314.824 268.21 311.528L217.469 283.467C211.51 280.172 211.51 274.828 217.469 271.533L268.21 243.472C274.169 240.176 283.831 240.176 289.79 243.472L340.531 271.533Z" fill="#6C6CC8"/>
		<g id="exchage_exchagePostament">
			<path id="exchage_exchagePostament2" fill-rule="evenodd" clip-rule="evenodd" d="M302.458 344.956C326.371 330.582 356.14 330.076 380.528 343.628L543.624 434.257L544.344 434.657C560.804 443.803 560.801 467.476 544.339 476.618L393.557 560.353C369.673 573.617 340.591 573.418 316.89 559.829L162.007 471.025C146.115 461.912 145.879 439.072 161.581 429.634L302.458 344.956Z" fill="url(#exchage_paint0_linear)"/>
			<g id="exchage_exchagePostament1">
				<path id="exchage_Mask" fill-rule="evenodd" clip-rule="evenodd" d="M302.458 334.956C326.371 320.582 356.14 320.076 380.528 333.628L544.344 424.657C560.804 433.803 560.801 457.476 544.339 466.618L393.557 550.353C369.673 563.617 340.591 563.418 316.89 549.829L162.007 461.025C146.115 451.912 145.879 429.072 161.581 419.634L302.458 334.956Z" fill="url(#exchage_paint1_linear)"/>
				<path id="exchage_Path 9" opacity="0.109468" fill-rule="evenodd" clip-rule="evenodd" d="M429 491.083L235.663 503.349L164 462C164 462 149 453 150 440C151 427 162 420 162 420L204 394L279 387.941L429 491.083Z" fill="url(#exchage_paint2_linear)"/>
				<path id="exchage_Mask_2" fill-rule="evenodd" clip-rule="evenodd" d="M534.465 432.433L381.512 347.218C357.136 333.637 327.362 334.112 303.432 348.464L172.233 427.149C170.039 428.464 168.218 430.32 166.943 432.538C162.815 439.72 165.291 448.889 172.473 453.017L316.941 536.054C340.626 549.667 369.706 549.898 393.604 536.661L534.433 458.658C536.883 457.301 538.905 455.284 540.268 452.837C544.3 445.6 541.702 436.465 534.465 432.433ZM304.46 350.179C327.777 336.196 356.787 335.733 380.538 348.965L533.492 434.18C539.764 437.675 542.015 445.592 538.521 451.864C537.339 453.985 535.587 455.732 533.464 456.909L392.635 534.912C369.35 547.809 341.015 547.584 317.938 534.32L173.47 451.283C167.245 447.705 165.099 439.759 168.677 433.534C169.782 431.612 171.36 430.004 173.262 428.864L304.46 350.179Z" fill="url(#exchage_paint3_linear)"/>
			</g>
		</g>
		<g id="exchage_block-exchage__img-phone">
			<g id="exchage_exchagePhone">
				<g id="exchage_exchagePhone11">
					<g id="exchage_Mask_3" filter="url(#exchage_filter0_i)">
						<path fill-rule="evenodd" clip-rule="evenodd" d="M260.296 56.995V376.995C260.963 395.662 267.963 408.995 281.296 416.995C294.63 424.995 336.963 449.662 408.296 490.995C418.296 495.995 427.63 495.662 432.296 492.995C439.296 488.995 445.296 484.77 445.296 467.995C445.296 456.811 445.296 341.478 445.296 121.995C445.296 99.995 437.63 84.995 420.296 74.995C402.963 64.995 361.296 40.995 295.296 2.99496C286.296 -2.00504 274.63 -0.338375 269.296 4.99496C263.963 10.3283 260.963 17.3283 260.296 25.995C259.63 34.6616 260.296 48.3027 260.296 56.995Z" fill="url(#exchage_paint4_linear)"/>
						<path fill-rule="evenodd" clip-rule="evenodd" d="M260.296 56.995V376.995C260.963 395.662 267.963 408.995 281.296 416.995C294.63 424.995 336.963 449.662 408.296 490.995C418.296 495.995 427.63 495.662 432.296 492.995C439.296 488.995 445.296 484.77 445.296 467.995C445.296 456.811 445.296 341.478 445.296 121.995C445.296 99.995 437.63 84.995 420.296 74.995C402.963 64.995 361.296 40.995 295.296 2.99496C286.296 -2.00504 274.63 -0.338375 269.296 4.99496C263.963 10.3283 260.963 17.3283 260.296 25.995C259.63 34.6616 260.296 48.3027 260.296 56.995Z" fill="url(#exchage_paint5_linear)"/>
					</g>
					<mask id="exchage_mask0" mask-type="alpha" maskUnits="userSpaceOnUse" x="260" y="0" width="186" height="495">
						<g id="exchage_Mask_4">
							<path fill-rule="evenodd" clip-rule="evenodd" d="M260.296 56.995V376.995C260.963 395.662 267.963 408.995 281.296 416.995C294.63 424.995 336.963 449.662 408.296 490.995C418.296 495.995 427.63 495.662 432.296 492.995C439.296 488.995 445.296 484.77 445.296 467.995C445.296 456.811 445.296 341.478 445.296 121.995C445.296 99.995 437.63 84.995 420.296 74.995C402.963 64.995 361.296 40.995 295.296 2.99496C286.296 -2.00504 274.63 -0.338375 269.296 4.99496C263.963 10.3283 260.963 17.3283 260.296 25.995C259.63 34.6616 260.296 48.3027 260.296 56.995Z" fill="white"/>
							<path fill-rule="evenodd" clip-rule="evenodd" d="M260.296 56.995V376.995C260.963 395.662 267.963 408.995 281.296 416.995C294.63 424.995 336.963 449.662 408.296 490.995C418.296 495.995 427.63 495.662 432.296 492.995C439.296 488.995 445.296 484.77 445.296 467.995C445.296 456.811 445.296 341.478 445.296 121.995C445.296 99.995 437.63 84.995 420.296 74.995C402.963 64.995 361.296 40.995 295.296 2.99496C286.296 -2.00504 274.63 -0.338375 269.296 4.99496C263.963 10.3283 260.963 17.3283 260.296 25.995C259.63 34.6616 260.296 48.3027 260.296 56.995Z" stroke="white"/>
						</g>
					</mask>
					<g mask="url(#exchage_mask0)">
						<path id="exchage_Path 18" d="M260.524 22.0965L260.067 21.8934C262.765 15.8242 266.158 12.4312 270.255 11.7484C274.312 11.0722 277.373 11.4123 279.417 12.7764L306.421 27.7786L401.428 82.783C412.129 89.4706 419.492 96.4995 423.515 103.875C426.273 108.931 427.949 115.359 428.546 123.176V479.995C428.546 484.745 426.838 488.161 423.424 490.209C420.038 492.241 415.318 492.916 409.268 492.243L409.323 491.746C415.274 492.408 419.887 491.749 423.167 489.781C426.421 487.828 428.046 484.578 428.046 479.995V146.742L428.047 123.195C427.455 115.463 425.797 109.103 423.076 104.115C419.099 96.8237 411.796 89.8526 401.171 83.2113L306.174 28.2135L279.157 13.203C277.219 11.9109 274.28 11.5844 270.337 12.2416C266.434 12.8921 263.16 16.1657 260.524 22.0965Z" fill="url(#exchage_paint6_linear)"/>
						<path id="exchage_Path 18_2" d="M260.526 21.0934L260.066 20.8965C262.086 16.1844 264.786 12.8098 268.168 10.7806C271.565 8.7421 275.308 8.40187 279.418 9.77639L306.421 24.7786L401.416 79.7755C408.775 83.7893 415.463 89.1404 421.482 95.8277C427.522 102.539 430.911 111.452 431.652 122.576V143.742V476.996C431.617 483.451 429.921 487.871 426.545 490.232C421.749 493.585 415.978 494.586 409.247 493.24L409.345 492.75C415.948 494.07 421.58 493.093 426.258 489.822C429.48 487.569 431.118 483.301 431.152 476.995V143.742L431.152 122.592C430.419 111.592 427.071 102.785 421.11 96.1622C415.129 89.5162 408.485 84.2006 401.171 80.2113L306.175 25.2135L279.217 10.2321C275.285 8.92133 271.694 9.24777 268.425 11.2093C265.14 13.1801 262.507 16.4721 260.526 21.0934Z" fill="url(#exchage_paint7_linear)"/>
					</g>
				</g>
				<g id="exchage_exchagePhone10">
					<path id="exchage_Mask_5" fill-rule="evenodd" clip-rule="evenodd" d="M439.796 214.338C441.729 213.585 443.296 214.571 443.296 216.54V242.011C443.296 243.98 441.729 245.789 439.796 246.052C437.863 246.314 436.296 245.017 436.296 243.155V219.073C436.296 217.211 437.863 215.091 439.796 214.338Z" fill="#BDBDD6"/>
					<path id="exchage_Mask_6" fill-rule="evenodd" clip-rule="evenodd" d="M440.796 214.333C442.729 213.594 444.296 214.562 444.296 216.495V241.495C444.296 243.428 442.729 245.204 440.796 245.461C438.863 245.718 437.296 244.445 437.296 242.618V218.981C437.296 217.153 438.863 215.073 440.796 214.333Z" fill="url(#exchage_paint8_linear)"/>
					<mask id="exchage_mask1" mask-type="alpha" maskUnits="userSpaceOnUse" x="437" y="214" width="8" height="32">
						<path id="exchage_Mask_7" fill-rule="evenodd" clip-rule="evenodd" d="M440.796 214.333C442.729 213.594 444.296 214.562 444.296 216.495V241.495C444.296 243.428 442.729 245.204 440.796 245.461C438.863 245.718 437.296 244.445 437.296 242.618V218.981C437.296 217.153 438.863 215.073 440.796 214.333Z" fill="white"/>
					</mask>
					<g mask="url(#exchage_mask1)">
						<path id="exchage_Rectangle" fill-rule="evenodd" clip-rule="evenodd" d="M441.796 215.333C443.177 214.594 444.296 215.562 444.296 217.495V242.495C444.296 244.428 443.177 246.204 441.796 246.461C440.415 246.718 439.296 245.445 439.296 243.618V219.981C439.296 218.153 440.415 216.073 441.796 215.333Z" fill="white"/>
					</g>
				</g>
				<g id="exchage_exchagePhone9">
					<path id="exchage_Mask_8" fill-rule="evenodd" clip-rule="evenodd" d="M439.796 177.338C441.729 176.585 443.296 177.571 443.296 179.54V205.011C443.296 206.98 441.729 208.789 439.796 209.052C437.863 209.314 436.296 208.017 436.296 206.155V182.073C436.296 180.211 437.863 178.091 439.796 177.338Z" fill="#BDBDD6"/>
					<path id="exchage_Mask_9" fill-rule="evenodd" clip-rule="evenodd" d="M440.796 177.333C442.729 176.594 444.296 177.562 444.296 179.495V204.495C444.296 206.428 442.729 208.204 440.796 208.461C438.863 208.718 437.296 207.445 437.296 205.618V181.981C437.296 180.153 438.863 178.073 440.796 177.333Z" fill="url(#exchage_paint9_linear)"/>
					<mask id="exchage_mask2" mask-type="alpha" maskUnits="userSpaceOnUse" x="437" y="177" width="8" height="32">
						<path id="exchage_Mask_10" fill-rule="evenodd" clip-rule="evenodd" d="M440.796 177.333C442.729 176.594 444.296 177.562 444.296 179.495V204.495C444.296 206.428 442.729 208.204 440.796 208.461C438.863 208.718 437.296 207.445 437.296 205.618V181.981C437.296 180.153 438.863 178.073 440.796 177.333Z" fill="white"/>
					</mask>
					<g mask="url(#exchage_mask2)">
						<path id="exchage_Rectangle_2" fill-rule="evenodd" clip-rule="evenodd" d="M441.796 178.333C443.177 177.594 444.296 178.562 444.296 180.495V205.495C444.296 207.428 443.177 209.204 441.796 209.461C440.415 209.718 439.296 208.445 439.296 206.618V182.981C439.296 181.153 440.415 179.073 441.796 178.333Z" fill="white"/>
					</g>
				</g>
				<path id="exchage_exchagePhone8" fill-rule="evenodd" clip-rule="evenodd" d="M440.124 147.967L442.609 146.814C443.066 146.601 443.437 146.877 443.437 147.429V161.762C443.437 162.314 443.066 162.934 442.609 163.146L440.296 163.995C439.839 164.207 439.296 163.547 439.296 162.995V149.352C439.296 148.8 439.667 148.18 440.124 147.967Z" fill="#C3C3D3"/>
				<g id="exchage_exchagePhone7">
					<path id="exchage_Mask_11" fill-rule="evenodd" clip-rule="evenodd" d="M439.796 148.121C440.624 147.745 441.296 148.238 441.296 149.223V161.958C441.296 162.943 440.624 163.847 439.796 163.978C438.967 164.109 438.296 163.461 438.296 162.53V150.489C438.296 149.558 438.967 148.498 439.796 148.121Z" fill="#C3C3D3"/>
					<path id="exchage_Mask_12" fill-rule="evenodd" clip-rule="evenodd" d="M440.796 148.121C441.624 147.745 442.296 148.238 442.296 149.223V161.958C442.296 162.943 441.624 163.847 440.796 163.978C439.967 164.109 439.296 163.461 439.296 162.53V150.489C439.296 149.558 439.967 148.498 440.796 148.121Z" fill="url(#exchage_paint10_linear)"/>
					<mask id="exchage_mask3" mask-type="alpha" maskUnits="userSpaceOnUse" x="439" y="147" width="4" height="17">
						<path id="exchage_Mask_13" fill-rule="evenodd" clip-rule="evenodd" d="M440.796 148.121C441.624 147.745 442.296 148.238 442.296 149.223V161.958C442.296 162.943 441.624 163.847 440.796 163.978C439.967 164.109 439.296 163.461 439.296 162.53V150.489C439.296 149.558 439.967 148.498 440.796 148.121Z" fill="white"/>
					</mask>
					<g mask="url(#exchage_mask3)">
						<path id="exchage_Rectangle_3" fill-rule="evenodd" clip-rule="evenodd" d="M440.796 148.121C441.624 147.745 442.296 148.238 442.296 149.223V161.958C442.296 162.943 441.624 163.847 440.796 163.978C439.967 164.109 439.296 163.461 439.296 162.53V150.489C439.296 149.558 439.967 148.498 440.796 148.121Z" fill="#F3F3F3"/>
					</g>
				</g>
				<g id="exchage_exchagePhone6">
					<path id="exchage_Mask_14" fill-rule="evenodd" clip-rule="evenodd" d="M326.523 55.2689C327.558 54.5449 327.369 52.4909 326.102 50.6813C324.834 48.8717 322.969 47.9916 321.935 48.7157C320.901 49.4398 321.09 51.4937 322.357 53.3033C323.624 55.113 325.489 55.993 326.523 55.2689Z" fill="#C2C3CA"/>
					<mask id="exchage_mask4" mask-type="alpha" maskUnits="userSpaceOnUse" x="320" y="47" width="9" height="10">
						<path id="exchage_Mask_15" fill-rule="evenodd" clip-rule="evenodd" d="M326.523 55.2689C327.558 54.5449 327.369 52.4909 326.102 50.6813C324.834 48.8717 322.969 47.9916 321.935 48.7157C320.901 49.4398 321.09 51.4937 322.357 53.3033C323.624 55.113 325.489 55.993 326.523 55.2689Z" fill="white"/>
					</mask>
					<g mask="url(#exchage_mask4)">
						<path id="exchage_Oval" fill-rule="evenodd" clip-rule="evenodd" d="M327.523 54.2689C328.558 53.5449 328.369 51.4909 327.102 49.6813C325.834 47.8717 323.969 46.9916 322.935 47.7157C321.901 48.4398 322.09 50.4937 323.357 52.3033C324.624 54.113 326.489 54.993 327.523 54.2689Z" fill="#D1D2DA"/>
						<path id="exchage_Oval_2" fill-rule="evenodd" clip-rule="evenodd" d="M326.376 52.6306C326.829 52.3139 326.682 51.3236 326.048 50.4188C325.415 49.514 324.534 49.0373 324.082 49.354C323.629 49.6708 323.776 50.6611 324.41 51.5659C325.043 52.4707 325.924 52.9474 326.376 52.6306Z" fill="#BABAD5"/>
					</g>
				</g>
				<path id="exchage_exchagePhone5" fill-rule="evenodd" clip-rule="evenodd" d="M266.296 32.9949C266.296 32.9949 266.296 22.9949 271.296 20.9949C275.296 18.9949 281.296 21.9949 281.296 21.9949L298.296 31.9949C298.296 31.9949 300.296 32.9949 300.296 35.9949C300.296 38.9949 301.296 47.9949 311.296 53.9949C321.296 59.9949 379.296 92.9949 379.296 92.9949C379.296 92.9949 386.296 95.9949 386.296 88.9949C386.296 81.9949 390.296 84.9949 390.296 84.9949L404.296 92.9949C404.296 92.9949 420.296 102.995 421.296 119.995C422.296 136.995 421.296 175.995 421.296 175.995V385.995V474.995C421.296 474.995 420.296 489.995 408.296 483.995C396.296 477.995 342.296 446.995 342.296 446.995L281.296 410.995C281.296 410.995 267.296 400.995 266.296 385.995C265.296 370.995 266.296 32.9949 266.296 32.9949Z" fill="white"/>
				<g id="exchage_exchagePhone1">
					<path id="exchage_exchagePhone4" fill-rule="evenodd" clip-rule="evenodd" d="M332.546 56.6169C332.546 58.1031 334.055 58.8478 334.055 58.8478L351.949 69.5098C351.949 69.5098 353.682 70.2133 353.682 68.7498C353.682 67.7498 353.296 66.9949 352.296 66.6346C350.296 65.6346 334.475 56.1349 334.475 56.1349C334.475 56.1349 332.546 55.6169 332.546 56.6169Z" fill="#C2C3CA"/>
					<mask id="exchage_mask5" mask-type="alpha" maskUnits="userSpaceOnUse" x="332" y="56" width="22" height="14">
						<path id="exchage_exchagePhone3" fill-rule="evenodd" clip-rule="evenodd" d="M332.546 56.6169C332.546 58.1031 334.055 58.8478 334.055 58.8478L351.949 69.5098C351.949 69.5098 353.682 70.2133 353.682 68.7498C353.682 67.7498 353.296 66.9949 352.296 66.6346C350.296 65.6346 334.475 56.1349 334.475 56.1349C334.475 56.1349 332.546 55.6169 332.546 56.6169Z" fill="white"/>
					</mask>
					<g mask="url(#exchage_mask5)">
						<path id="exchage_exchagePhone2" fill-rule="evenodd" clip-rule="evenodd" d="M332.546 55.6169C332.546 57.1031 334.055 57.8478 334.055 57.8478L351.949 68.5098C351.949 68.5098 353.682 69.2133 353.682 67.7498C353.682 66.7498 353.296 65.9949 352.296 65.6346C350.296 64.6346 334.475 55.1349 334.475 55.1349C334.475 55.1349 332.546 54.6169 332.546 55.6169Z" fill="#D1D2DA"/>
					</g>
				</g>
			</g>
			<path id="exchage_exchage-u" fill-rule="evenodd" clip-rule="evenodd" d="M317.692 187.773V166.057L322.261 175.49C322.484 175.951 322.786 176.307 323.103 176.488C323.42 176.669 323.72 176.656 323.944 176.45L324.654 175.792C324.877 175.585 325 175.211 325 174.736C325 174.261 324.878 173.746 324.654 173.285L316.841 157.125C316.617 156.662 316.318 156.308 316.001 156.128C315.682 155.945 315.384 155.958 315.16 156.166L307.346 163.411C307.123 163.618 307 163.993 307 164.469C307 164.943 307.123 165.458 307.346 165.92L308.055 167.387C308.278 167.848 308.575 168.201 308.892 168.382C309.209 168.563 309.491 168.54 309.714 168.333L314.308 164.049V185.817C314.308 186.795 314.871 187.938 315.524 188.31L316.528 188.883C317.181 189.255 317.699 188.705 317.699 187.727" fill="#E0E1ED"/>
			<path id="exchage_exchage-d" fill-rule="evenodd" clip-rule="evenodd" d="M360.308 184.227V205.943L355.739 196.51C355.516 196.049 355.214 195.693 354.897 195.512C354.58 195.331 354.28 195.344 354.056 195.55L353.346 196.208C353.123 196.415 353 196.789 353 197.264C353 197.739 353.122 198.254 353.346 198.715L361.159 214.875C361.383 215.338 361.682 215.692 361.999 215.872C362.318 216.055 362.616 216.042 362.84 215.834L370.654 208.589C370.877 208.382 371 208.007 371 207.531C371 207.057 370.877 206.542 370.654 206.08L369.945 204.613C369.722 204.152 369.425 203.799 369.108 203.618C368.791 203.437 368.509 203.46 368.286 203.667L363.692 207.951V186.183C363.692 185.205 363.129 184.062 362.476 183.69L361.472 183.117C360.819 182.745 360.301 183.295 360.301 184.273" fill="#E0E1ED"/>
			<g id="exchagePhoneBtn">
				<path id="exchage_Rectangle_4" fill-rule="evenodd" clip-rule="evenodd" d="M286.5 375.515L402.5 440.865C409.956 445.066 416 454.515 416 461.971C416 469.427 409.956 475.066 402.5 470.865L284.5 403.496C277.044 399.296 273 391.865 273 384.409C273 376.953 279.044 371.314 286.5 375.515Z" fill="#FFCE49"/>
				<path id="exchage_Exchange" fill-rule="evenodd" clip-rule="evenodd" d="M324.688 414.383V415.609L320 413.027V403.909L324.688 406.491V407.711L321.146 405.76V408.427L324.499 410.273V411.448L321.146 409.602V412.432L324.688 414.383ZM327.749 414.849L327.723 414.835L326.531 416.624L325.333 415.964L327.109 413.625L325.359 409.331L326.597 410.013L327.774 413.069L327.795 413.08L328.957 411.313L330.175 411.984L328.409 414.297L330.154 418.619L328.936 417.949L327.749 414.849ZM334.438 416.619L335.492 417.2C335.395 415.838 334.55 414.274 333.164 413.51C331.633 412.667 330.63 413.448 330.63 415.558C330.63 417.706 331.633 419.56 333.174 420.409C334.469 421.122 335.385 420.666 335.502 419.316L334.438 418.729C334.31 419.43 333.865 419.646 333.184 419.271C332.324 418.797 331.756 417.638 331.756 416.178C331.756 414.75 332.319 414.182 333.174 414.653C333.895 415.05 334.325 415.849 334.438 416.619ZM336.326 422.019V412.901L337.422 413.504V417.087L337.447 417.101C337.744 416.487 338.333 416.363 339.152 416.814C340.334 417.465 341.04 418.827 341.04 420.331V424.615L339.93 424.003V419.985C339.93 419.005 339.53 418.198 338.752 417.769C337.933 417.318 337.432 417.737 337.432 418.786V422.628L336.326 422.019ZM345.365 424.507C345.365 425.373 344.761 425.697 343.988 425.272C343.394 424.945 343.005 424.352 343.005 423.77C343.005 423.202 343.379 423.047 344.039 423.354L345.365 423.983V424.507ZM343.681 426.183C342.627 425.603 341.89 424.388 341.89 423.194C341.89 422.031 342.611 421.714 343.891 422.331L345.365 423.035V422.523C345.365 421.784 344.961 421.119 344.285 420.747C343.645 420.395 343.246 420.554 343.149 421.094L342.105 420.519C342.166 419.353 342.995 418.925 344.326 419.657C345.631 420.376 346.465 421.689 346.465 423.022V427.603L345.406 427.019V425.926L345.38 425.912C345.068 426.48 344.387 426.572 343.681 426.183ZM347.535 421.545V428.192L348.64 428.801V424.928C348.64 423.898 349.142 423.491 349.92 423.92C350.688 424.343 351.066 425.101 351.066 426.099V430.137L352.177 430.749V426.446C352.177 424.923 351.496 423.613 350.309 422.959C349.48 422.502 348.906 422.654 348.615 423.252L348.589 423.238V422.126L347.535 421.545ZM355.534 431.492C356.399 431.968 356.967 431.416 356.967 430.045C356.967 428.68 356.399 427.47 355.534 426.993C354.685 426.525 354.132 427.099 354.132 428.483C354.132 429.873 354.685 431.024 355.534 431.492ZM353.195 431.828C353.334 433.054 354.275 434.407 355.545 435.106C357.08 435.951 358.073 435.462 358.073 433.876V427.349L356.998 426.757V427.894L356.978 427.883C356.65 426.932 356.026 426.114 355.263 425.694C353.881 424.933 353.001 425.762 353.001 427.854C353.001 429.926 353.886 431.715 355.237 432.46C356.005 432.882 356.64 432.758 356.942 432.204L356.962 432.215V433.308C356.962 434.218 356.45 434.543 355.585 434.067C354.956 433.72 354.465 433.083 354.306 432.439L353.195 431.828ZM361.415 430.169C360.642 429.743 360.1 430.171 360.043 431.145L362.735 432.627C362.71 431.596 362.188 430.594 361.415 430.169ZM363.779 435.186L362.73 434.609C362.582 435.108 362.116 435.243 361.487 434.897C360.601 434.409 360.038 433.334 360.038 432.178V432.096L363.841 434.19V433.723C363.841 431.707 362.909 429.892 361.415 429.069C359.895 428.232 358.922 429.087 358.922 431.172C358.922 433.27 359.879 435.117 361.461 435.988C362.694 436.668 363.626 436.315 363.779 435.186Z" fill="black"/>
			</g>
			<g id="exchageCurrencyRUBL">
				<path id="exchage_Rectangle_5" opacity="0.04" fill-rule="evenodd" clip-rule="evenodd" d="M291.496 192.398L404.504 257.47C409.748 260.49 414 267.423 414 272.955V296.457C414 301.989 409.748 304.025 404.504 301.005L291.496 235.932C286.252 232.912 282 225.98 282 220.448V196.945C282 191.414 286.252 189.378 291.496 192.398Z" fill="#26272D"/>
				<path id="exchage_Rectangle_6" fill-rule="evenodd" clip-rule="evenodd" d="M286.496 195.398L399.504 260.47C404.748 263.49 409 270.423 409 275.955V298.354C409 303.885 404.748 305.921 399.504 302.901L286.496 237.829C281.252 234.809 277 227.876 277 222.344L277 199.945C277 194.414 281.252 192.378 286.496 195.398Z" fill="url(#exchage_paint11_linear)"/>
				<path id="exchage_Rectangle_7" fill-rule="evenodd" clip-rule="evenodd" d="M283.496 197.398L396.504 262.47C401.748 265.49 406 272.423 406 277.955V298.943C406 304.475 401.748 306.511 396.504 303.491L283.496 238.419C278.252 235.399 274 228.466 274 222.934V201.945C274 196.414 278.252 194.378 283.496 197.398Z" fill="url(#exchage_paint12_linear)"/>
				<g id="exchage_Combined Shape 3">
					<path id="exchage_Combined Shape" fill-rule="evenodd" clip-rule="evenodd" d="M281 217.265C281 222.569 284.806 228.766 289.5 231.105C294.194 233.444 298 231.04 298 225.735C298 220.431 294.194 214.234 289.5 211.895C284.806 209.556 281 211.96 281 217.265ZM297.306 225.39C297.306 230.261 293.811 232.469 289.5 230.321C285.189 228.173 281.694 222.482 281.694 217.61C281.694 212.739 285.189 210.531 289.5 212.679C293.811 214.827 297.306 220.518 297.306 225.39ZM291.681 226.311L290.187 223.271C290.125 223.247 290.031 223.204 289.906 223.141L288.256 222.319V224.604L286.898 223.928V216.087L289.906 217.586C290.539 217.901 291.091 218.288 291.561 218.746C292.031 219.205 292.391 219.705 292.642 220.248C292.892 220.791 293.018 221.35 293.018 221.925C293.018 222.515 292.884 222.956 292.615 223.248C292.347 223.54 291.963 223.666 291.462 223.626L293.143 227.04L291.681 226.311ZM291.19 219.861C291.496 220.282 291.65 220.743 291.65 221.244C291.65 221.744 291.496 222.054 291.19 222.174C290.884 222.294 290.435 222.207 289.843 221.912L288.256 221.121V217.996L289.843 218.787C290.435 219.081 290.884 219.44 291.19 219.861Z" fill="#282828"/>
				</g>
				<path id="exchage_Rectangle_8" opacity="0.273763" fill-rule="evenodd" clip-rule="evenodd" d="M351 251.335L393 275.185V279.55L351 255.699V251.335Z" fill="#653F0E"/>
				<path id="exchage_Rectangle Copy 37" opacity="0.273763" fill-rule="evenodd" clip-rule="evenodd" d="M358 264.636L393 284.851V289.215L358 269V264.636Z" fill="#653F0E"/>
			</g>
			<g id="exchageCurrencyS" style="opacity: 0;">
				<path id="exchage_Rectangle_9" opacity="0.0360863" fill-rule="evenodd" clip-rule="evenodd" d="M291.496 192.398L404.504 257.47C409.748 260.49 414 267.423 414 272.955V296.457C414 301.989 409.748 304.025 404.504 301.005L291.496 235.932C286.252 232.912 282 225.98 282 220.448V196.945C282 191.414 286.252 189.378 291.496 192.398Z" fill="#26272D"/>
				<path id="exchage_Rectangle_10" fill-rule="evenodd" clip-rule="evenodd" d="M286.496 195.398L399.504 260.47C404.748 263.49 409 270.423 409 275.955V298.354C409 303.885 404.748 305.921 399.504 302.901L286.496 237.829C281.252 234.809 277 227.876 277 222.344L277 199.945C277 194.414 281.252 192.378 286.496 195.398Z" fill="url(#exchage_paint13_linear)"/>
				<g id="exchage_Bitmap">
					<path id="exchage_Mask_16" fill-rule="evenodd" clip-rule="evenodd" d="M283.496 197.398L396.504 262.47C401.748 265.49 406 272.423 406 277.955V298.943C406 304.475 401.748 306.511 396.504 303.491L283.496 238.419C278.252 235.399 274 228.466 274 222.934V201.945C274 196.414 278.252 194.378 283.496 197.398Z" fill="#57B541"/>
					<mask id="exchage_mask6" mask-type="alpha" maskUnits="userSpaceOnUse" x="274" y="196" width="132" height="109">
						<path id="exchage_Mask_17" fill-rule="evenodd" clip-rule="evenodd" d="M283.496 197.398L396.504 262.47C401.748 265.49 406 272.423 406 277.955V298.943C406 304.475 401.748 306.511 396.504 303.491L283.496 238.419C278.252 235.399 274 228.466 274 222.934V201.945C274 196.414 278.252 194.378 283.496 197.398Z" fill="white"/>
					</mask>
					<g mask="url(#exchage_mask6)">
						<g id="exchage_flaticon1575804624-eps">
							<path id="exchage_Fill 1" fill-rule="evenodd" clip-rule="evenodd" d="M293.526 223.268C292.769 222.409 291.963 221.621 291.166 220.826C290.704 220.366 290.261 219.885 289.871 219.349C289.101 218.29 289.249 217.392 290.15 217.531C290.405 217.571 290.672 217.692 290.943 217.835C291.987 218.394 292.98 219.166 293.924 220.17C294.395 220.67 294.55 220.691 294.71 220.3C294.877 219.886 295.017 219.448 295.172 219.023C295.276 218.737 295.148 218.434 294.817 218.094C294.211 217.474 293.59 216.92 292.936 216.434C292.083 215.803 292.083 215.799 292.079 214.949C292.075 213.753 292.075 213.753 290.863 213.042C290.688 212.939 290.512 212.832 290.337 212.733C289.771 212.416 289.675 212.458 289.659 213.012C289.651 213.26 289.659 213.516 289.655 213.77C289.651 214.516 289.648 214.502 288.922 214.336C287.168 213.936 286.084 214.481 285.968 216.304C285.865 217.917 286.75 219.568 288.141 221.208C288.998 222.22 289.946 223.076 290.855 224.008C291.21 224.37 291.549 224.746 291.844 225.163C292.717 226.389 292.557 227.481 291.521 227.322C290.967 227.236 290.381 226.951 289.779 226.523C288.85 225.863 287.961 225.101 287.124 224.18C286.634 223.64 286.491 223.622 286.323 224.048C286.18 224.417 286.052 224.799 285.925 225.181C285.753 225.695 285.817 225.878 286.411 226.514C287.168 227.322 287.977 227.982 288.802 228.597C289.448 229.078 289.468 229.118 289.476 229.784C289.48 230.086 289.48 230.389 289.484 230.691C289.488 231.071 289.671 231.4 290.066 231.639C290.512 231.909 290.963 232.174 291.409 232.424C291.776 232.632 291.963 232.545 291.963 232.179C291.963 231.769 291.983 231.367 291.967 230.948C291.947 230.519 292.131 230.414 292.537 230.542C293.474 230.84 294.271 230.812 294.885 230.432C296.591 229.386 295.941 226.006 293.526 223.268Z" fill="white"/>
						</g>
					</g>
				</g>
				<path id="exchage_Rectangle_11" opacity="0.174619" fill-rule="evenodd" clip-rule="evenodd" d="M351 251.335L393 275.185V279.55L351 255.699V251.335Z" fill="#424242"/>
				<path id="exchage_Rectangle Copy 37_2" opacity="0.174619" fill-rule="evenodd" clip-rule="evenodd" d="M358 264.636L393 284.851V289.215L358 269V264.636Z" fill="#424242"/>
			</g>
			<g id="exchageCurrencyETH" style="opacity: 0;">
				<path id="exchage_Rectangle_12" opacity="0.0360863" fill-rule="evenodd" clip-rule="evenodd" d="M291.496 192.398L404.504 257.47C409.748 260.49 414 267.423 414 272.955V296.457C414 301.989 409.748 304.025 404.504 301.005L291.496 235.932C286.252 232.912 282 225.98 282 220.448V196.945C282 191.414 286.252 189.378 291.496 192.398Z" fill="#26272D"/>
				<path id="exchage_Rectangle_13" fill-rule="evenodd" clip-rule="evenodd" d="M286.496 195.398L399.504 260.47C404.748 263.49 409 270.423 409 275.955V298.354C409 303.885 404.748 305.921 399.504 302.901L286.496 237.829C281.252 234.809 277 227.876 277 222.344L277 199.945C277 194.414 281.252 192.378 286.496 195.398Z" fill="url(#exchage_paint14_linear)"/>
				<path id="exchage_Rectangle_14" fill-rule="evenodd" clip-rule="evenodd" d="M283.496 197.398L396.504 262.47C401.748 265.49 406 272.423 406 277.955V298.943C406 304.475 401.748 306.511 396.504 303.491L283.496 238.419C278.252 235.399 274 228.466 274 222.934V201.945C274 196.414 278.252 194.378 283.496 197.398Z" fill="url(#exchage_paint15_linear)"/>
				<g id="exchage_Combined Shape 3_2">
					<g id="exchage_flaticon1573168739-eps 2">
						<path id="exchage_flaticon1573168739-eps" fill-rule="evenodd" clip-rule="evenodd" d="M291.575 212.608L290.484 212L286 221.741L290.484 233.392L291.575 234L296 227.317L291.575 212.608ZM290.483 221.174L287.897 221.253L290.483 215.39V221.174ZM290.483 222.956V225.565L288.241 223.01L290.483 222.956ZM291.69 223.629L293.931 226.183L291.69 226.238V223.629ZM294.276 224.81L291.69 221.865V216.063L294.276 224.81ZM291.027 232.129L288.241 224.837L291.032 227.994L293.759 227.947L291.027 232.129Z" fill="white"/>
					</g>
				</g>
				<path id="exchage_Rectangle_15" opacity="0.273763" fill-rule="evenodd" clip-rule="evenodd" d="M351 251.335L393 275.185V279.55L351 255.699V251.335Z" fill="#123476"/>
				<path id="exchage_Rectangle Copy 37_3" opacity="0.273763" fill-rule="evenodd" clip-rule="evenodd" d="M358 264.636L393 284.851V289.215L358 269V264.636Z" fill="#123476"/>
			</g>
			<g id="exchageCurrencyBIT">
				<path id="exchage_Rectangle_16" opacity="0.0360863" fill-rule="evenodd" clip-rule="evenodd" d="M291.496 67.3976L404.504 132.47C409.748 135.49 414 142.423 414 147.955V171.457C414 176.989 409.748 179.025 404.504 176.005L291.496 110.932C286.252 107.912 282 100.98 282 95.448V71.9455C282 66.4137 286.252 64.3776 291.496 67.3976Z" fill="#26272D"/>
				<path id="exchage_Rectangle_17" fill-rule="evenodd" clip-rule="evenodd" d="M286.496 70.3976L399.504 135.47C404.748 138.49 409 145.423 409 150.955V173.354C409 178.885 404.748 180.921 399.504 177.901L286.496 112.829C281.252 109.809 277 102.876 277 97.3444L277 74.9455C277 69.4137 281.252 67.3776 286.496 70.3976Z" fill="url(#exchage_paint16_linear)"/>
				<path id="exchage_Rectangle_18" fill-rule="evenodd" clip-rule="evenodd" d="M283.496 72.3976L396.504 137.47C401.748 140.49 406 147.423 406 152.955V173.943C406 179.475 401.748 181.511 396.504 178.491L283.496 113.419C278.252 110.399 274 103.466 274 97.9343V76.9455C274 71.4137 278.252 69.3776 283.496 72.3976Z" fill="url(#exchage_paint17_linear)"/>
				<g id="exchage_Shape 2">
					<path id="exchage_Shape" fill-rule="evenodd" clip-rule="evenodd" d="M295.567 100.191C295.213 99.4468 294.679 98.758 293.966 98.1253C294.874 98.1437 295.274 97.4777 295.164 96.1274C295.128 95.6396 295.016 95.1683 294.83 94.7129C294.644 94.2573 294.393 93.8291 294.075 93.4275C293.758 93.0258 293.413 92.6569 293.041 92.3208C292.669 91.9846 292.242 91.6447 291.761 91.3015V88.636L290.352 87.7766V90.368C290.108 90.2192 289.736 89.9993 289.236 89.7084V87.0958L287.827 86.2363V88.9018C287.626 88.786 287.33 88.6092 286.939 88.3711L285 87.1773V88.912L286.015 89.5314C286.479 89.8142 286.75 90.2196 286.83 90.7474V93.783C286.891 93.8203 286.939 93.8537 286.976 93.883L286.83 93.7937V98.0455C286.781 98.3754 286.604 98.4474 286.299 98.2614L285.284 97.642L285 99.4046L286.83 100.521C286.946 100.591 287.113 100.696 287.333 100.833C287.553 100.97 287.717 101.072 287.827 101.139V103.836L289.236 104.696V102.031C289.492 102.194 289.864 102.425 290.352 102.722V105.377L291.761 106.236V103.539C292.261 103.816 292.705 104.034 293.092 104.193C293.479 104.351 293.85 104.456 294.204 104.506C294.557 104.556 294.853 104.53 295.091 104.428C295.329 104.327 295.525 104.133 295.681 103.847C295.836 103.561 295.936 103.18 295.978 102.706C296.058 101.774 295.92 100.936 295.567 100.191ZM289.83 92.164C290.011 92.2706 290.162 92.3586 290.281 92.4278C290.401 92.4971 290.563 92.6052 290.766 92.752C290.97 92.8988 291.141 93.0337 291.28 93.1565C291.419 93.2793 291.573 93.4355 291.74 93.6246C291.907 93.8138 292.04 94.0016 292.141 94.1879C292.241 94.3742 292.326 94.5854 292.395 94.8213C292.465 95.0573 292.5 95.3004 292.5 95.5507C292.5 95.7631 292.475 95.9414 292.425 96.0854C292.375 96.2294 292.3 96.3295 292.199 96.3859C292.099 96.4424 291.996 96.482 291.89 96.5045C291.784 96.5272 291.649 96.5149 291.485 96.4678C291.321 96.4207 291.177 96.3749 291.055 96.3305C290.932 96.2861 290.779 96.2136 290.595 96.1127C290.411 96.0118 290.272 95.9346 290.177 95.8806C290.082 95.8265 289.953 95.7476 289.788 95.6435C289.624 95.5395 289.528 95.4789 289.5 95.4619V91.9684C289.539 91.9922 289.649 92.0574 289.83 92.164ZM293.184 101.596C293.277 101.535 293.352 101.444 293.412 101.321C293.471 101.199 293.5 101.042 293.5 100.849C293.5 100.601 293.454 100.352 293.36 100.103C293.267 99.8534 293.153 99.6255 293.016 99.4181C292.88 99.211 292.701 98.9973 292.481 98.777C292.261 98.5565 292.058 98.3692 291.872 98.2144C291.686 98.0595 291.456 97.8887 291.184 97.7018C290.911 97.5145 290.697 97.3738 290.542 97.2792C290.387 97.1847 290.187 97.0659 289.942 96.9234C289.697 96.781 289.55 96.6945 289.5 96.6643V100.154C289.55 100.184 289.664 100.255 289.844 100.368C290.024 100.482 290.173 100.574 290.291 100.646C290.409 100.718 290.573 100.813 290.784 100.931C290.995 101.05 291.176 101.147 291.328 101.222C291.48 101.297 291.656 101.376 291.858 101.458C292.06 101.539 292.232 101.596 292.374 101.628C292.517 101.66 292.664 101.678 292.816 101.681C292.968 101.684 293.091 101.656 293.184 101.596Z" fill="white"/>
				</g>
				<path id="exchage_Rectangle_19" opacity="0.268438" fill-rule="evenodd" clip-rule="evenodd" d="M351 125L393 148.851V153.215L351 129.364V125Z" fill="#513220"/>
				<path id="exchage_Rectangle Copy 37_4" opacity="0.268438" fill-rule="evenodd" clip-rule="evenodd" d="M358 138.301L393 158.515V162.88L358 142.665V138.301Z" fill="#513220"/>
			</g>
			<g id="exchageCurrencyRU" style="opacity: 0;">
				<path id="exchage_Rectangle_20" opacity="0.0360863" fill-rule="evenodd" clip-rule="evenodd" d="M291.496 67.3976L404.504 132.47C409.748 135.49 414 142.423 414 147.955V171.457C414 176.989 409.748 179.025 404.504 176.005L291.496 110.932C286.252 107.912 282 100.98 282 95.448V71.9455C282 66.4137 286.252 64.3776 291.496 67.3976Z" fill="#26272D"/>
				<g id="exchage_Line">
					<path id="exchage_Mask_18" fill-rule="evenodd" clip-rule="evenodd" d="M286.496 70.3976L399.504 135.47C404.748 138.49 409 145.423 409 150.955V173.354C409 178.885 404.748 180.921 399.504 177.901L286.496 112.829C281.252 109.809 277 102.876 277 97.3444L277 74.9455C277 69.4137 281.252 67.3776 286.496 70.3976Z" fill="url(#exchage_paint18_linear)"/>
					<mask id="exchage_mask7" mask-type="alpha" maskUnits="userSpaceOnUse" x="277" y="69" width="132" height="111">
						<path id="exchage_Mask_19" fill-rule="evenodd" clip-rule="evenodd" d="M286.496 70.3976L399.504 135.47C404.748 138.49 409 145.423 409 150.955V173.354C409 178.885 404.748 180.921 399.504 177.901L286.496 112.829C281.252 109.809 277 102.876 277 97.3444L277 74.9455C277 69.4137 281.252 67.3776 286.496 70.3976Z" fill="white"/>
					</mask>
					<g mask="url(#exchage_mask7)">
					</g>
				</g>
				<g id="exchage_Bitmap_2">
					<path id="exchage_Mask_20" fill-rule="evenodd" clip-rule="evenodd" d="M283.496 72.3976L396.504 137.47C401.748 140.49 406 147.423 406 152.955V173.943C406 179.475 401.748 181.511 396.504 178.491L283.496 113.419C278.252 110.399 274 103.466 274 97.9343V76.9455C274 71.4137 278.252 69.3776 283.496 72.3976Z" fill="#6C5D9A"/>
					<mask id="exchage_mask8" mask-type="alpha" maskUnits="userSpaceOnUse" x="274" y="71" width="132" height="109">
						<path id="exchage_Mask_21" fill-rule="evenodd" clip-rule="evenodd" d="M283.496 72.3976L396.504 137.47C401.748 140.49 406 147.423 406 152.955V173.943C406 179.475 401.748 181.511 396.504 178.491L283.496 113.419C278.252 110.399 274 103.466 274 97.9343V76.9455C274 71.4137 278.252 69.3776 283.496 72.3976Z" fill="white"/>
					</mask>
					<g mask="url(#exchage_mask8)">
						<g id="exchage_flaticon1575804624-eps_2">
							<g id="exchage_Group 2 Copy 6">
								<g id="exchage_Combined Shape 4">
									<path id="exchage_Combined Shape_2" fill-rule="evenodd" clip-rule="evenodd" d="M287.737 96.5685V98.1944L286 97.094V99.5328L287.737 100.633V104.698L289.792 106V101.935L292.368 103.568V101.129L289.792 99.4963V97.9657L292.289 99.5481C293.248 100.156 294.084 100.471 294.795 100.493C295.506 100.516 296.052 100.244 296.431 99.6775C296.81 99.1113 297 98.2857 297 97.2008C297 96.1015 296.81 95.0321 296.431 93.9923C296.052 92.9525 295.506 91.9931 294.795 91.1142C294.084 90.2352 293.248 89.4919 292.289 88.8844L287.737 86V94.3597L286 93.2593V95.468L287.737 96.5685ZM294.234 97.6537C293.77 97.8738 293.09 97.7001 292.195 97.1326L289.792 95.6103V89.6574L292.195 91.1797C293.09 91.7472 293.77 92.4348 294.234 93.2425C294.697 94.0502 294.929 94.9323 294.929 95.8888C294.929 96.8452 294.697 97.4335 294.234 97.6537Z" fill="white"/>
								</g>
							</g>
						</g>
					</g>
				</g>
				<path id="exchage_Rectangle_21" opacity="0.133626" fill-rule="evenodd" clip-rule="evenodd" d="M351 126.335L393 150.186V154.55L351 130.699V126.335Z" fill="white"/>
				<path id="exchage_Rectangle Copy 37_5" opacity="0.133626" fill-rule="evenodd" clip-rule="evenodd" d="M358 139.636L393 159.851V164.215L358 144V139.636Z" fill="white"/>
			</g>
			<g id="exchageCurrencyBNB" style="opacity: 0;">
				<path id="exchage_Rectangle_22" opacity="0.0360863" fill-rule="evenodd" clip-rule="evenodd" d="M291.496 67.3976L404.504 132.47C409.748 135.49 414 142.423 414 147.955V171.457C414 176.989 409.748 179.025 404.504 176.005L291.496 110.932C286.252 107.912 282 100.98 282 95.448V71.9455C282 66.4137 286.252 64.3776 291.496 67.3976Z" fill="#26272D"/>
				<path id="exchage_Rectangle_23" fill-rule="evenodd" clip-rule="evenodd" d="M286.496 70.3976L399.504 135.47C404.748 138.49 409 145.423 409 150.955V173.354C409 178.885 404.748 180.921 399.504 177.901L286.496 112.829C281.252 109.809 277 102.876 277 97.3444L277 74.9455C277 69.4137 281.252 67.3776 286.496 70.3976Z" fill="url(#exchage_paint19_linear)"/>
				<path id="exchage_Rectangle_24" fill-rule="evenodd" clip-rule="evenodd" d="M283.496 72.3976L396.504 137.47C401.748 140.49 406 147.423 406 152.955V173.943C406 179.475 401.748 181.511 396.504 178.491L283.496 113.419C278.252 110.399 274 103.466 274 97.9343V76.9455C274 71.4137 278.252 69.3776 283.496 72.3976Z" fill="url(#exchage_paint20_linear)"/>
				<g id="exchage_Combined Shape 3_3">
					<g id="exchage_Mask 2">
						<g id="exchage_Mask 3">
							<path id="exchage_Mask_22" fill-rule="evenodd" clip-rule="evenodd" d="M295.375 96.9066L293.625 97.844L291 92.5L290.125 92.9687L288.375 93.906L286.625 90.3434L291 88L295.375 96.9066ZM296.25 98.6879L298 102.251L296.25 103.188L294.5 99.6253L296.25 98.6879ZM295.375 103.657L291 106L286.625 97.0934L288.375 96.156L291 101.5L291.875 101.031L293.625 100.094L295.375 103.657ZM284 91.7494L285.75 90.8121L287.5 94.3747L285.75 95.3121L284 91.7494ZM289.25 95.6874L291 94.75L292.75 98.3126L291 99.25L289.25 95.6874Z" fill="#FDB900"/>
						</g>
					</g>
				</g>
				<path id="exchage_Rectangle_25" opacity="0.160691" fill-rule="evenodd" clip-rule="evenodd" d="M351 126.335L393 150.186V154.55L351 130.699V126.335Z" fill="white"/>
				<path id="exchage_Rectangle Copy 37_6" opacity="0.160691" fill-rule="evenodd" clip-rule="evenodd" d="M358 139.636L393 159.851V164.215L358 144V139.636Z" fill="white"/>
			</g>
			<g id="exchageCurrencyRUBLmin" style="opacity: 0;">
				<path id="exchage_Oval_3" fill-rule="evenodd" clip-rule="evenodd" d="M291.5 234.969C298.404 237.981 304 234.17 304 226.455C304 218.74 298.404 210.044 291.5 207.031C284.596 204.019 279 207.83 279 215.545C279 223.26 284.596 231.956 291.5 234.969Z" fill="url(#exchage_paint21_linear)"/>
				<path id="exchage_Oval_4" fill-rule="evenodd" clip-rule="evenodd" d="M288.5 236.969C295.404 239.981 301 236.17 301 228.455C301 220.74 295.404 212.044 288.5 209.031C281.596 206.019 276 209.83 276 217.545C276 225.26 281.596 233.956 288.5 236.969Z" fill="url(#exchage_paint22_linear)"/>
				<g id="exchage_Shape 3">
					<g id="exchage_Combined Shape 6">
						<path id="exchage_Combined Shape_3" fill-rule="evenodd" clip-rule="evenodd" d="M288.741 225.494L290.893 229.936L293 231L290.577 226.013C291.299 226.072 291.854 225.888 292.24 225.462C292.626 225.035 292.819 224.391 292.819 223.529C292.819 222.689 292.639 221.872 292.278 221.079C291.916 220.286 291.397 219.554 290.72 218.885C290.043 218.216 289.247 217.65 288.334 217.189L284 215V226.454L285.957 227.443V224.104L288.334 225.305C288.515 225.397 288.651 225.46 288.741 225.494ZM290.186 220.513C290.627 221.129 290.848 221.802 290.848 222.533C290.848 223.264 290.627 223.717 290.186 223.892C289.744 224.067 289.097 223.94 288.244 223.509L285.957 222.354V217.788L288.244 218.944C289.097 219.374 289.744 219.898 290.186 220.513Z" fill="#282828"/>
					</g>
				</g>
			</g>
			<g id="exchageCurrencyBITmin" style="opacity: 0;">
				<path id="exchage_Oval_5" fill-rule="evenodd" clip-rule="evenodd" d="M378.5 159.969C385.404 162.981 391 159.17 391 151.455C391 143.74 385.404 135.044 378.5 132.031C371.596 129.019 366 132.83 366 140.545C366 148.26 371.596 156.956 378.5 159.969Z" fill="url(#exchage_paint23_linear)"/>
				<path id="exchage_Oval_6" fill-rule="evenodd" clip-rule="evenodd" d="M375.5 161.969C382.404 164.981 388 161.17 388 153.455C388 145.74 382.404 137.044 375.5 134.031C368.596 131.019 363 134.83 363 142.545C363 150.26 368.596 158.956 375.5 161.969Z" fill="url(#exchage_paint24_linear)"/>
				<g id="exchage_Shape 3_2">
					<path id="exchage_Shape_2" fill-rule="evenodd" clip-rule="evenodd" d="M378.724 150.768C378.499 150.247 378.16 149.765 377.705 149.322C378.284 149.335 378.538 148.869 378.468 147.924C378.445 147.582 378.374 147.252 378.256 146.934C378.137 146.615 377.977 146.315 377.775 146.034C377.573 145.753 377.354 145.494 377.117 145.259C376.881 145.024 376.609 144.786 376.302 144.546V142.68L375.406 142.078V143.892C375.25 143.788 375.014 143.634 374.696 143.43V141.602L373.799 141V142.866C373.671 142.785 373.483 142.661 373.234 142.494L372 141.659V142.873L372.646 143.307C372.941 143.505 373.114 143.788 373.164 144.158V146.283C373.203 146.309 373.234 146.332 373.258 146.353L373.164 146.29V149.266C373.133 149.497 373.021 149.548 372.827 149.418L372.181 148.984L372 150.218L373.164 150.999C373.238 151.049 373.345 151.121 373.485 151.217C373.624 151.314 373.729 151.385 373.799 151.432V153.32L374.696 153.922V152.056C374.859 152.17 375.095 152.332 375.406 152.54V154.398L376.302 155V153.112C376.621 153.306 376.903 153.459 377.149 153.569C377.396 153.68 377.632 153.754 377.857 153.788C378.082 153.824 378.27 153.805 378.421 153.734C378.573 153.663 378.698 153.527 378.797 153.327C378.896 153.127 378.959 152.861 378.986 152.529C379.037 151.877 378.949 151.29 378.724 150.768ZM375.074 145.149C375.189 145.224 375.285 145.286 375.361 145.334C375.437 145.383 375.54 145.458 375.669 145.561C375.799 145.664 375.908 145.758 375.996 145.844C376.085 145.93 376.183 146.039 376.289 146.172C376.395 146.304 376.48 146.436 376.544 146.566C376.608 146.697 376.662 146.844 376.706 147.009C376.751 147.175 376.773 147.345 376.773 147.52C376.773 147.669 376.757 147.794 376.725 147.894C376.693 147.995 376.645 148.065 376.581 148.105C376.518 148.144 376.452 148.172 376.385 148.188C376.317 148.204 376.231 148.195 376.127 148.162C376.022 148.129 375.931 148.097 375.853 148.066C375.775 148.035 375.677 147.984 375.56 147.913C375.443 147.843 375.355 147.789 375.294 147.751C375.234 147.713 375.152 147.658 375.047 147.585C374.943 147.512 374.881 147.47 374.864 147.458V145.012C374.888 145.029 374.958 145.075 375.074 145.149ZM377.208 151.751C377.267 151.709 377.315 151.645 377.353 151.56C377.39 151.474 377.409 151.364 377.409 151.229C377.409 151.055 377.38 150.881 377.32 150.707C377.261 150.532 377.188 150.372 377.101 150.227C377.014 150.082 376.901 149.933 376.761 149.778C376.621 149.624 376.491 149.493 376.373 149.385C376.255 149.276 376.109 149.157 375.935 149.026C375.761 148.895 375.625 148.796 375.527 148.73C375.428 148.664 375.301 148.581 375.145 148.481C374.989 148.381 374.895 148.321 374.864 148.3V150.742C374.895 150.763 374.968 150.813 375.083 150.892C375.197 150.972 375.292 151.037 375.367 151.087C375.442 151.137 375.546 151.204 375.681 151.287C375.815 151.369 375.93 151.437 376.027 151.49C376.124 151.543 376.236 151.598 376.364 151.655C376.492 151.712 376.602 151.752 376.693 151.774C376.784 151.797 376.877 151.809 376.974 151.811C377.071 151.813 377.149 151.793 377.208 151.751Z" fill="white"/>
				</g>
			</g>
			<g id="exchageCurrencyRUmin" style="opacity: 0;">
				<path id="exchage_Oval_7" fill-rule="evenodd" clip-rule="evenodd" d="M378.5 159.969C385.404 162.981 391 159.17 391 151.455C391 143.74 385.404 135.044 378.5 132.031C371.596 129.019 366 132.83 366 140.545C366 148.26 371.596 156.956 378.5 159.969Z" fill="url(#exchage_paint25_linear)"/>
				<path id="exchage_Oval_8" fill-rule="evenodd" clip-rule="evenodd" d="M375.5 161.969C382.404 164.981 388 161.17 388 153.455C388 145.74 382.404 137.044 375.5 134.031C368.596 131.019 363 134.83 363 142.545C363 150.26 368.596 158.956 375.5 161.969Z" fill="#6C5D9A"/>
				<g id="exchage_Combined Shape 5">
					<path id="exchage_Combined Shape_4" fill-rule="evenodd" clip-rule="evenodd" d="M373.421 148.398V149.536L372 148.766V150.473L373.421 151.243V154.089L375.102 155V152.155L377.211 153.297V151.59L375.102 150.447V149.376L377.146 150.484C377.93 150.909 378.614 151.129 379.196 151.145C379.778 151.161 380.224 150.971 380.534 150.574C380.845 150.178 381 149.6 381 148.841C381 148.071 380.845 147.322 380.534 146.595C380.224 145.867 379.778 145.195 379.196 144.58C378.614 143.965 377.93 143.444 377.146 143.019L373.421 141V146.852L372 146.082V147.628L373.421 148.398ZM378.737 149.158C378.357 149.312 377.801 149.19 377.068 148.793L375.102 147.727V143.56L377.068 144.626C377.801 145.023 378.357 145.504 378.737 146.07C379.116 146.635 379.306 147.253 379.306 147.922C379.306 148.592 379.116 149.003 378.737 149.158Z" fill="white"/>
				</g>
			</g>
			<g id="exchageCurrencyBNBmin" style="opacity: 0;">
				<path id="exchage_Oval_9" fill-rule="evenodd" clip-rule="evenodd" d="M378.5 159.969C385.404 162.981 391 159.17 391 151.455C391 143.74 385.404 135.044 378.5 132.031C371.596 129.019 366 132.83 366 140.545C366 148.26 371.596 156.956 378.5 159.969Z" fill="url(#exchage_paint26_linear)"/>
				<path id="exchage_Oval_10" fill-rule="evenodd" clip-rule="evenodd" d="M375.5 161.969C382.404 164.981 388 161.17 388 153.455C388 145.74 382.404 137.044 375.5 134.031C368.596 131.019 363 134.83 363 142.545C363 150.26 368.596 158.956 375.5 161.969Z" fill="url(#exchage_paint27_linear)"/>
				<g id="exchage_Mask 3_2">
					<path id="exchage_Mask_23" fill-rule="evenodd" clip-rule="evenodd" d="M378.75 147.927L377.25 148.656L375 144.5L374.25 144.865L372.75 145.594L371.25 142.823L375 141L378.75 147.927ZM379.5 149.313L381 152.084L379.5 152.813L378 150.042L379.5 149.313ZM378.75 153.177L375 155L371.25 148.073L372.75 147.344L375 151.5L375.75 151.135L377.25 150.406L378.75 153.177ZM369 143.916L370.5 143.187L372 145.958L370.5 146.687L369 143.916ZM373.5 146.979L375 146.25L376.5 149.021L375 149.75L373.5 146.979Z" fill="#FDB900"/>
				</g>
			</g>
			<g id="exchageCurrencySmin" style="opacity: 0;">
				<path id="exchage_Oval_11" fill-rule="evenodd" clip-rule="evenodd" d="M291.5 234.969C298.404 237.981 304 234.17 304 226.455C304 218.74 298.404 210.044 291.5 207.031C284.596 204.019 279 207.83 279 215.545C279 223.26 284.596 231.956 291.5 234.969Z" fill="url(#exchage_paint28_linear)"/>
				<path id="exchage_Oval_12" fill-rule="evenodd" clip-rule="evenodd" d="M288.5 236.969C295.404 239.981 301 236.17 301 228.455C301 220.74 295.404 212.044 288.5 209.031C281.596 206.019 276 209.83 276 217.545C276 225.26 281.596 233.956 288.5 236.969Z" fill="#57B541"/>
				<g id="exchage_Fill 2">
					<path id="exchage_Fill 1_2" fill-rule="evenodd" clip-rule="evenodd" d="M290.379 224.05C289.849 223.406 289.285 222.815 288.727 222.219C288.403 221.873 288.094 221.513 287.82 221.11C287.282 220.317 287.385 219.643 288.015 219.747C288.194 219.777 288.381 219.868 288.571 219.976C289.302 220.394 289.997 220.973 290.658 221.726C290.987 222.102 291.096 222.117 291.207 221.824C291.325 221.514 291.422 221.185 291.531 220.866C291.604 220.652 291.514 220.425 291.283 220.17C290.859 219.705 290.424 219.289 289.966 218.924C289.369 218.451 289.369 218.448 289.366 217.811C289.363 216.914 289.363 216.914 288.515 216.38C288.392 216.303 288.269 216.223 288.147 216.149C287.75 215.911 287.683 215.943 287.672 216.358C287.667 216.544 287.672 216.736 287.67 216.927C287.667 217.486 287.664 217.476 287.156 217.351C285.928 217.051 285.17 217.46 285.089 218.827C285.016 220.037 285.636 221.275 286.609 222.505C287.209 223.264 287.873 223.906 288.509 224.605C288.758 224.876 288.995 225.158 289.201 225.472C289.812 226.391 289.701 227.21 288.975 227.09C288.588 227.026 288.177 226.813 287.756 226.491C287.106 225.997 286.484 225.425 285.898 224.734C285.555 224.329 285.454 224.316 285.337 224.635C285.236 224.912 285.147 225.198 285.058 225.485C284.938 225.87 284.983 226.007 285.398 226.485C285.928 227.09 286.495 227.585 287.072 228.046C287.524 228.408 287.538 228.437 287.544 228.937C287.547 229.163 287.547 229.391 287.55 229.617C287.552 229.902 287.681 230.149 287.957 230.328C288.269 230.531 288.585 230.729 288.897 230.917C289.154 231.073 289.285 231.008 289.285 230.733C289.285 230.426 289.299 230.124 289.288 229.81C289.274 229.488 289.402 229.409 289.687 229.506C290.343 229.729 290.901 229.708 291.33 229.423C292.524 228.638 292.07 226.104 290.379 224.05Z" fill="white"/>
				</g>
			</g>
			<g id="exchageCurrencyETHmin" style="opacity: 0;">
				<path id="exchage_exchageCurrencyETHmin3" fill-rule="evenodd" clip-rule="evenodd" d="M291.5 234.969C298.404 237.981 304 234.17 304 226.455C304 218.74 298.404 210.044 291.5 207.031C284.596 204.019 279 207.83 279 215.545C279 223.26 284.596 231.956 291.5 234.969Z" fill="url(#exchage_paint29_linear)"/>
				<path id="exchage_exchageCurrencyETHmin2" fill-rule="evenodd" clip-rule="evenodd" d="M288.5 236.969C295.404 239.981 301 236.17 301 228.455C301 220.74 295.404 212.044 288.5 209.031C281.596 206.019 276 209.83 276 217.545C276 225.26 281.596 233.956 288.5 236.969Z" fill="url(#exchage_paint30_linear)"/>
				<g id="exchage_exchageCurrencyETHmin1">
					<g id="exchage_exchageCurrencyETHmin4">
						<path id="exchage_exchageCurrencyETHmin5" fill-rule="evenodd" clip-rule="evenodd" d="M288.46 214.498L287.587 214L284 221.97L287.587 231.502L288.46 232L292 226.532L288.46 214.498ZM287.586 221.506L285.517 221.571L287.586 216.774V221.506ZM287.586 222.964V225.098L285.793 223.009L287.586 222.964ZM288.552 223.514L290.345 225.604L288.552 225.649V223.514ZM290.621 224.481L288.552 222.071V217.325L290.621 224.481ZM288.021 230.469L285.793 224.503L288.025 227.086L290.207 227.048L288.021 230.469Z" fill="white"/>
					</g>
				</g>
			</g>
		</g>
	</g>
	<defs>
		<filter id="exchage_filter0_i" x="260" y="0" width="185.296" height="495.904" filterUnits="userSpaceOnUse" color-interpolation-filters="sRGB">
			<feFlood flood-opacity="0" result="BackgroundImageFix"/>
			<feBlend mode="normal" in="SourceGraphic" in2="BackgroundImageFix" result="shape"/>
			<feColorMatrix in="SourceAlpha" type="matrix" values="0 0 0 0 0 0 0 0 0 0 0 0 0 0 0 0 0 0 127 0" result="hardAlpha"/>
			<feOffset dy="1"/>
			<feGaussianBlur stdDeviation="8"/>
			<feComposite in2="hardAlpha" operator="arithmetic" k2="-1" k3="1"/>
			<feColorMatrix type="matrix" values="0 0 0 0 0.700838 0 0 0 0 0.700838 0 0 0 0 0.811311 0 0 0 1 0"/>
			<feBlend mode="normal" in2="shape" result="effect1_innerShadow"/>
		</filter>
		<linearGradient id="exchage_paint0_linear" x1="333.79" y1="248.137" x2="139.696" y2="491.687" gradientUnits="userSpaceOnUse">
			<stop stop-color="#F7F7FB"/>
			<stop offset="1" stop-color="#E0E0F4"/>
		</linearGradient>
		<linearGradient id="exchage_paint1_linear" x1="361.412" y1="223.231" x2="138.305" y2="412.829" gradientUnits="userSpaceOnUse">
			<stop stop-color="#F7F7FB"/>
			<stop offset="1" stop-color="#F7F7FC"/>
		</linearGradient>
		<linearGradient id="exchage_paint2_linear" x1="294.985" y1="394.011" x2="245.798" y2="491.45" gradientUnits="userSpaceOnUse">
			<stop stop-color="#260E89"/>
			<stop offset="1" stop-color="#EFEFFD"/>
		</linearGradient>
		<linearGradient id="exchage_paint3_linear" x1="350.797" y1="247.95" x2="158.732" y2="440.015" gradientUnits="userSpaceOnUse">
			<stop stop-color="white"/>
			<stop offset="1" stop-color="#E3E3F8"/>
		</linearGradient>
		<linearGradient id="exchage_paint4_linear" x1="375.323" y1="-261.483" x2="76.0772" y2="-193.165" gradientUnits="userSpaceOnUse">
			<stop stop-color="#E9E9F4"/>
			<stop offset="1" stop-color="#E0E0EB"/>
		</linearGradient>
		<linearGradient id="exchage_paint5_linear" x1="435.249" y1="64.4047" x2="412.214" y2="64.4047" gradientUnits="userSpaceOnUse">
			<stop stop-color="white" stop-opacity="0.789991"/>
			<stop offset="1" stop-color="#E4E4F6" stop-opacity="0.244974"/>
		</linearGradient>
		<linearGradient id="exchage_paint6_linear" x1="260.067" y1="11.4113" x2="260.067" y2="492.495" gradientUnits="userSpaceOnUse">
			<stop stop-color="#F5F6FA"/>
			<stop offset="1" stop-color="#CDCDDA"/>
		</linearGradient>
		<linearGradient id="exchage_paint7_linear" x1="260.066" y1="8.94897" x2="260.066" y2="493.819" gradientUnits="userSpaceOnUse">
			<stop stop-color="#F5F6FA"/>
			<stop offset="1" stop-color="#CDCDDA"/>
		</linearGradient>
		<linearGradient id="exchage_paint8_linear" x1="437.296" y1="214.085" x2="437.296" y2="245.494" gradientUnits="userSpaceOnUse">
			<stop stop-color="#EFEFF0"/>
			<stop offset="1" stop-color="#D0D0DD"/>
		</linearGradient>
		<linearGradient id="exchage_paint9_linear" x1="437.296" y1="177.085" x2="437.296" y2="208.494" gradientUnits="userSpaceOnUse">
			<stop stop-color="#EFEFF0"/>
			<stop offset="1" stop-color="#CECEDC"/>
		</linearGradient>
		<linearGradient id="exchage_paint10_linear" x1="439.296" y1="147.995" x2="439.296" y2="163.995" gradientUnits="userSpaceOnUse">
			<stop stop-color="#EFEFF0"/>
			<stop offset="1" stop-color="#E2E2E9"/>
		</linearGradient>
		<linearGradient id="exchage_paint11_linear" x1="214.418" y1="228.253" x2="287.021" y2="384.049" gradientUnits="userSpaceOnUse">
			<stop stop-color="#F3BD40"/>
			<stop offset="1" stop-color="#D59838"/>
		</linearGradient>
		<linearGradient id="exchage_paint12_linear" x1="492.619" y1="266.392" x2="390.705" y2="120.132" gradientUnits="userSpaceOnUse">
			<stop stop-color="#FFB149"/>
			<stop offset="1" stop-color="#FFCE49"/>
		</linearGradient>
		<linearGradient id="exchage_paint13_linear" x1="226.356" y1="209.495" x2="269.06" y2="359.89" gradientUnits="userSpaceOnUse">
			<stop stop-color="#5C9D4C"/>
			<stop offset="1" stop-color="#40872F"/>
		</linearGradient>
		<linearGradient id="exchage_paint14_linear" x1="226.356" y1="209.495" x2="269.06" y2="359.89" gradientUnits="userSpaceOnUse">
			<stop stop-color="#3C78D5"/>
			<stop offset="1" stop-color="#0D3279"/>
		</linearGradient>
		<linearGradient id="exchage_paint15_linear" x1="241.852" y1="205.251" x2="262.452" y2="309.341" gradientUnits="userSpaceOnUse">
			<stop stop-color="#4992FF"/>
			<stop offset="1" stop-color="#326CDE"/>
		</linearGradient>
		<linearGradient id="exchage_paint16_linear" x1="207.412" y1="100.417" x2="279.399" y2="256.124" gradientUnits="userSpaceOnUse">
			<stop stop-color="#EB7B2C"/>
			<stop offset="1" stop-color="#D17137"/>
		</linearGradient>
		<linearGradient id="exchage_paint17_linear" x1="254.514" y1="91.1613" x2="289.109" y2="204.414" gradientUnits="userSpaceOnUse">
			<stop stop-color="#FF8B1E"/>
			<stop offset="1" stop-color="#FF8944"/>
		</linearGradient>
		<linearGradient id="exchage_paint18_linear" x1="226.058" y1="109.234" x2="317.44" y2="270.751" gradientUnits="userSpaceOnUse">
			<stop stop-color="#50417F"/>
			<stop offset="1" stop-color="#4A4168"/>
		</linearGradient>
		<linearGradient id="exchage_paint19_linear" x1="226.356" y1="84.4948" x2="269.06" y2="234.89" gradientUnits="userSpaceOnUse">
			<stop stop-color="#313131"/>
			<stop offset="1" stop-color="#292929"/>
		</linearGradient>
		<linearGradient id="exchage_paint20_linear" x1="242.242" y1="80.6339" x2="262.754" y2="184.281" gradientUnits="userSpaceOnUse">
			<stop stop-color="#434343"/>
			<stop offset="1" stop-color="#404040"/>
		</linearGradient>
		<linearGradient id="exchage_paint21_linear" x1="269.754" y1="216.696" x2="291.571" y2="250.336" gradientUnits="userSpaceOnUse">
			<stop stop-color="#BF8418"/>
			<stop offset="1" stop-color="#946421"/>
		</linearGradient>
		<linearGradient id="exchage_paint22_linear" x1="326.988" y1="196.032" x2="275.493" y2="200.353" gradientUnits="userSpaceOnUse">
			<stop stop-color="#FF9249"/>
			<stop offset="1" stop-color="#FFCE49"/>
		</linearGradient>
		<linearGradient id="exchage_paint23_linear" x1="380.512" y1="131.512" x2="354.237" y2="150.093" gradientUnits="userSpaceOnUse">
			<stop stop-color="#EB7B2C"/>
			<stop offset="1" stop-color="#994873"/>
		</linearGradient>
		<linearGradient id="exchage_paint24_linear" x1="359.309" y1="138.555" x2="371.969" y2="167.043" gradientUnits="userSpaceOnUse">
			<stop stop-color="#FFA749"/>
			<stop offset="1" stop-color="#FF7F49"/>
		</linearGradient>
		<linearGradient id="exchage_paint25_linear" x1="356.352" y1="141.943" x2="384.734" y2="176.875" gradientUnits="userSpaceOnUse">
			<stop stop-color="#50417F"/>
			<stop offset="1" stop-color="#4A4168"/>
		</linearGradient>
		<linearGradient id="exchage_paint26_linear" x1="356.408" y1="135.214" x2="371.863" y2="173.116" gradientUnits="userSpaceOnUse">
			<stop stop-color="#313131"/>
			<stop offset="1" stop-color="#292929"/>
		</linearGradient>
		<linearGradient id="exchage_paint27_linear" x1="356.985" y1="135.654" x2="364.874" y2="163.057" gradientUnits="userSpaceOnUse">
			<stop stop-color="#434343"/>
			<stop offset="1" stop-color="#404040"/>
		</linearGradient>
		<linearGradient id="exchage_paint28_linear" x1="269.408" y1="210.214" x2="284.863" y2="248.116" gradientUnits="userSpaceOnUse">
			<stop stop-color="#5C9D4C"/>
			<stop offset="1" stop-color="#40872F"/>
		</linearGradient>
		<linearGradient id="exchage_paint29_linear" x1="269.408" y1="210.214" x2="284.863" y2="248.116" gradientUnits="userSpaceOnUse">
			<stop stop-color="#3C78D5"/>
			<stop offset="1" stop-color="#0D3279"/>
		</linearGradient>
		<linearGradient id="exchage_paint30_linear" x1="269.911" y1="210.549" x2="277.834" y2="238.069" gradientUnits="userSpaceOnUse">
			<stop stop-color="#4992FF"/>
			<stop offset="1" stop-color="#326CDE"/>
		</linearGradient>
	</defs>
</svg>
