<svg width="81" height="74" viewBox="0 0 81 74" fill="none" xmlns="http://www.w3.org/2000/svg">
<path fill-rule="evenodd" clip-rule="evenodd" d="M51.1304 34.4311C50.0589 35.5025 48.7958 36.3119 47.3759 36.8367C47.0087 36.9724 46.7893 37.3193 46.7933 37.6941C46.7933 37.6981 46.7929 37.7017 46.7931 37.7057L46.8997 42.2093L45.1078 44.0012C44.7463 44.3628 44.7605 44.9631 45.1396 45.3422L46.6165 46.8191L45.9748 47.4607C45.6134 47.8222 45.6275 48.4226 46.0066 48.8017L46.6793 49.4743L45.0786 51.075C44.7171 51.4365 44.7313 52.0369 45.1104 52.416L47.1925 54.4981L47.2357 56.3842L44.2881 59.3318L43.3182 58.3619L42.9302 41.972C42.9189 41.5007 42.5279 41.1096 42.0566 41.0984C41.5852 41.0873 41.2122 41.4602 41.2233 41.9317L41.571 56.6147L40.331 55.3747L39.9081 37.5428C39.908 37.5388 39.9076 37.5354 39.9074 37.5316C39.8939 37.1566 39.6579 36.7988 39.2837 36.6453C37.8378 36.0523 36.5352 35.182 35.4121 34.0589C30.976 29.6227 30.8089 22.5713 35.0398 18.3404C39.2708 14.1095 46.322 14.2764 50.7583 18.7127C55.1944 23.1489 55.3612 30.2002 51.1304 34.4311ZM33.667 16.9677C28.7142 21.9206 28.9097 30.175 34.1028 35.3681C35.2573 36.5226 36.5749 37.4488 38.0265 38.128L38.4439 55.7225C38.4499 55.974 38.5554 56.2175 38.7374 56.3995L43.6652 61.3273C44.0443 61.7064 44.6446 61.7206 45.0062 61.3591L48.8792 57.4861C49.0526 57.3127 49.1468 57.0742 49.1411 56.823L49.0798 54.1513C49.074 53.8996 48.9684 53.6557 48.7862 53.4735L47.1058 51.7931L48.7064 50.1925C49.0679 49.831 49.0537 49.2306 48.6746 48.8516L48.002 48.1789L48.6436 47.5373C49.005 47.1758 48.9909 46.5754 48.6118 46.1963L47.1349 44.7194L48.5435 43.3108C48.717 43.1373 48.8112 42.8985 48.8053 42.647L48.7043 38.3809C50.1259 37.7701 51.4015 36.9053 52.503 35.8038C57.4558 30.8509 57.2603 22.5965 52.0672 17.4034C46.8742 12.2104 38.6199 12.0149 33.667 16.9677Z" fill="#5556BC"/>
<path fill-rule="evenodd" clip-rule="evenodd" d="M43.636 21.8962C42.9999 22.5322 41.946 22.5131 41.2864 21.8535C40.6269 21.1939 40.6076 20.1399 41.2437 19.5039C41.8797 18.8679 42.9337 18.8871 43.5932 19.5466C44.2528 20.2062 44.2719 21.2602 43.636 21.8962ZM39.8733 18.1335C38.5086 19.4982 38.5498 21.7598 39.9649 23.1749C41.3801 24.5901 43.6417 24.6313 45.0064 23.2666C46.3711 21.9019 46.3299 19.6404 44.9147 18.2252C43.4995 16.81 41.238 16.7688 39.8733 18.1335Z" fill="#5556BC"/>
<path d="M7.29289 37.7071C7.68342 38.0976 8.31658 38.0976 8.70711 37.7071L15.0711 31.3431C15.4616 30.9526 15.4616 30.3195 15.0711 29.9289C14.6805 29.5384 14.0474 29.5384 13.6569 29.9289L8 35.5858L2.34315 29.9289C1.95262 29.5384 1.31946 29.5384 0.928932 29.9289C0.538408 30.3195 0.538408 30.9526 0.928932 31.3431L7.29289 37.7071ZM44 74C64.4345 74 81 57.4345 81 37H79C79 56.33 63.33 72 44 72V74ZM81 37C81 16.5655 64.4345 0 44 0V2C63.33 2 79 17.67 79 37H81ZM44 0C23.5655 0 7 16.5655 7 37H9C9 17.67 24.67 2 44 2V0Z" fill="#5556BC"/>
</svg>
