<svg width="82" height="68" viewBox="0 0 82 68" fill="none" xmlns="http://www.w3.org/2000/svg">
<path fill-rule="evenodd" clip-rule="evenodd" d="M27.4786 40.5693C26.6409 41.407 25.6525 42.0388 24.5406 42.4474C24.2531 42.553 24.0818 42.8245 24.0857 43.1183C24.0857 43.1214 24.0854 43.1242 24.0856 43.1274L24.1779 46.6574L22.777 48.0583C22.4943 48.341 22.5066 48.8115 22.8045 49.1093L23.9649 50.2698L23.4632 50.7714C23.1806 51.054 23.1929 51.5246 23.4907 51.8225L24.0193 52.351L22.7678 53.6025C22.4852 53.8851 22.4975 54.3557 22.7953 54.6535L24.4313 56.2894L24.4688 57.7678L22.1644 60.0723L21.4023 59.3102L21.0662 46.4636C21.0565 46.0942 20.7493 45.787 20.3798 45.7773C20.0104 45.7676 19.7188 46.0591 19.7284 46.4287L20.0295 57.9374L19.0552 56.9631L18.689 42.9863C18.6889 42.9832 18.6886 42.9805 18.6884 42.9775C18.6771 42.6836 18.4915 42.4027 18.1979 42.2816C17.0635 41.814 16.0409 41.1294 15.1584 40.2469C11.6729 36.7614 11.5282 31.2344 14.836 27.9266C18.1439 24.6188 23.6707 24.7634 27.1564 28.249C30.6418 31.7346 30.7864 37.2615 27.4786 40.5693ZM13.7574 26.8481C9.88517 30.7203 10.0545 37.1902 14.1348 41.2705C15.0419 42.1776 16.0764 42.9061 17.2154 43.4413L17.5768 57.2321C17.582 57.4292 17.6652 57.6203 17.8082 57.7633L21.68 61.6351C21.9779 61.933 22.4484 61.9453 22.7311 61.6626L25.7591 58.6346C25.8947 58.499 25.968 58.3124 25.963 58.1154L25.9098 56.0213C25.9048 55.8241 25.8215 55.6327 25.6784 55.4895L24.3581 54.1692L25.6095 52.9178C25.8921 52.6352 25.8798 52.1646 25.582 51.8668L25.0534 51.3383L25.555 50.8366C25.8376 50.554 25.8254 50.0834 25.5275 49.7856L24.3671 48.6252L25.4684 47.5239C25.6041 47.3882 25.6774 47.2012 25.6723 47.0041L25.5848 43.6603C26.6978 43.1844 27.6959 42.509 28.557 41.6478C32.4293 37.7756 32.26 31.3057 28.1797 27.2254C24.0995 23.1452 17.6296 22.9759 13.7574 26.8481Z" fill="#5556BC"/>
<path fill-rule="evenodd" clip-rule="evenodd" d="M21.611 30.7051C21.1137 31.2023 20.2877 31.1853 19.7694 30.667C19.2512 30.1488 19.2341 29.3227 19.7314 28.8254C20.2286 28.3282 21.0547 28.3453 21.5729 28.8635C22.0912 29.3817 22.1082 30.2078 21.611 30.7051ZM18.6546 27.7487C17.5877 28.8156 17.6244 30.5882 18.7363 31.7001C19.8482 32.8121 21.6208 32.8487 22.6878 31.7818C23.7547 30.7149 23.718 28.9423 22.6061 27.8303C21.4942 26.7184 19.7216 26.6817 18.6546 27.7487Z" fill="#5556BC"/>
<path fill-rule="evenodd" clip-rule="evenodd" d="M48.4158 21.0065C47.5781 21.8441 46.5937 22.4801 45.4899 22.8966C45.2044 23.0043 45.032 23.2746 45.0324 23.565C45.0324 23.5682 45.0321 23.5709 45.0322 23.5741L45.0834 27.0629L43.6825 28.4638C43.3998 28.7465 43.4066 29.2115 43.6977 29.5026L44.8318 30.6367L44.3301 31.1383C44.0475 31.4209 44.0543 31.886 44.3453 32.1771L44.8619 32.6936L43.6104 33.9451C43.3278 34.2277 43.3346 34.6928 43.6257 34.9838L45.2244 36.5826L45.2448 38.0437L42.9403 40.3482L42.1956 39.6035L42.0093 26.9067C42.0039 26.5416 41.7036 26.2413 41.3385 26.2359C40.9734 26.2306 40.6817 26.5221 40.6871 26.8874L40.854 38.2619L39.9018 37.3097L39.6986 23.4959C39.6985 23.4928 39.6982 23.4901 39.6981 23.4872C39.6903 23.1967 39.51 22.9211 39.2211 22.8048C38.1049 22.3554 37.1017 21.6902 36.2393 20.8278C32.8329 17.4214 32.7527 11.9589 36.0605 8.65114C39.3684 5.34329 44.8308 5.42342 48.2372 8.82986C51.6434 12.2362 51.7235 17.6987 48.4158 21.0065ZM35.0064 7.59711C31.1342 11.4693 31.228 17.8638 35.2156 21.8514C36.1021 22.7379 37.1166 23.4463 38.2366 23.9624L38.4372 37.5924C38.4401 37.7873 38.5201 37.9752 38.6599 38.115L42.4437 41.8988C42.7348 42.1899 43.1999 42.1967 43.4825 41.9141L46.5105 38.8861C46.6461 38.7505 46.7207 38.5651 46.7181 38.3704L46.6892 36.3008C46.6865 36.1058 46.6064 35.9175 46.4665 35.7776L45.1761 34.4873L46.4275 33.2359C46.7102 32.9533 46.7034 32.4882 46.4123 32.1971L45.8958 31.6806L46.3974 31.179C46.68 30.8964 46.6732 30.4313 46.3822 30.1402L45.2481 29.0062L46.3493 27.9049C46.485 27.7692 46.5597 27.5835 46.5568 27.3887L46.5084 24.0839C47.6142 23.6007 48.6085 22.9217 49.4697 22.0605C53.3419 18.1883 53.2481 11.7938 49.2605 7.80623C45.2731 3.81879 38.8786 3.7249 35.0064 7.59711Z" fill="#5556BC"/>
<path fill-rule="evenodd" clip-rule="evenodd" d="M42.5887 11.4386C42.0914 11.9359 41.275 11.9284 40.7685 11.422C40.2621 10.9155 40.2545 10.099 40.7518 9.60173C41.249 9.10449 42.0656 9.11198 42.572 9.61842C43.0785 10.1249 43.086 10.9414 42.5887 11.4386ZM39.6995 8.54947C38.6326 9.6164 38.6487 11.3685 39.7354 12.4551C40.822 13.5418 42.5741 13.5579 43.641 12.4909C44.7079 11.424 44.6918 9.67196 43.6052 8.58528C42.5185 7.49865 40.7665 7.48251 39.6995 8.54947Z" fill="#5556BC"/>
<path fill-rule="evenodd" clip-rule="evenodd" d="M66.4158 46.0065C65.5781 46.8441 64.5937 47.4801 63.4899 47.8966C63.2044 48.0043 63.032 48.2746 63.0324 48.565C63.0324 48.5682 63.0321 48.5709 63.0322 48.5741L63.0834 52.0629L61.6825 53.4638C61.3998 53.7465 61.4066 54.2115 61.6977 54.5026L62.8318 55.6367L62.3301 56.1383C62.0475 56.4209 62.0543 56.886 62.3453 57.1771L62.8619 57.6936L61.6104 58.9451C61.3278 59.2277 61.3346 59.6928 61.6257 59.9838L63.2244 61.5826L63.2448 63.0437L60.9403 65.3482L60.1956 64.6035L60.0093 51.9067C60.0039 51.5416 59.7036 51.2413 59.3385 51.2359C58.9734 51.2306 58.6817 51.5221 58.6871 51.8874L58.854 63.2619L57.9018 62.3097L57.6986 48.4959C57.6985 48.4928 57.6982 48.4901 57.6981 48.4872C57.6903 48.1967 57.51 47.9211 57.2211 47.8048C56.1049 47.3554 55.1017 46.6902 54.2393 45.8278C50.8329 42.4214 50.7527 36.9589 54.0605 33.6511C57.3684 30.3433 62.8308 30.4234 66.2372 33.8299C69.6434 37.2362 69.7235 42.6987 66.4158 46.0065ZM53.0064 32.5971C49.1342 36.4693 49.228 42.8638 53.2156 46.8514C54.1021 47.7379 55.1166 48.4463 56.2366 48.9624L56.4372 62.5924C56.4401 62.7873 56.5201 62.9752 56.6599 63.115L60.4437 66.8988C60.7348 67.1899 61.1999 67.1967 61.4825 66.9141L64.5105 63.8861C64.6461 63.7505 64.7207 63.5651 64.7181 63.3704L64.6892 61.3008C64.6865 61.1058 64.6064 60.9175 64.4665 60.7776L63.1761 59.4873L64.4275 58.2359C64.7102 57.9533 64.7034 57.4882 64.4123 57.1971L63.8958 56.6806L64.3974 56.179C64.68 55.8964 64.6732 55.4313 64.3822 55.1402L63.2481 54.0062L64.3493 52.9049C64.485 52.7692 64.5597 52.5835 64.5568 52.3887L64.5084 49.0839C65.6142 48.6007 66.6085 47.9217 67.4697 47.0605C71.3419 43.1883 71.2481 36.7938 67.2605 32.8062C63.2731 28.8188 56.8786 28.7249 53.0064 32.5971Z" fill="#5556BC"/>
<path fill-rule="evenodd" clip-rule="evenodd" d="M60.5887 36.4386C60.0914 36.9359 59.275 36.9284 58.7685 36.422C58.2621 35.9155 58.2545 35.099 58.7518 34.6017C59.249 34.1045 60.0656 34.112 60.572 34.6184C61.0785 35.1249 61.086 35.9414 60.5887 36.4386ZM57.6995 33.5495C56.6326 34.6164 56.6487 36.3685 57.7354 37.4551C58.822 38.5418 60.5741 38.5579 61.641 37.4909C62.7079 36.424 62.6918 34.672 61.6052 33.5853C60.5185 32.4987 58.7665 32.4825 57.6995 33.5495Z" fill="#5556BC"/>
</svg>
