<svg width="51" height="63" viewBox="0 0 51 63" fill="none" xmlns="http://www.w3.org/2000/svg">
<path fill-rule="evenodd" clip-rule="evenodd" d="M44.0438 23.4651V16.92C44.0438 7.58788 35.7242 0 25.5036 0C15.2758 0 6.95619 7.58788 6.95619 16.92V23.4651C3.01082 24.1491 0 27.6069 0 31.7705V54.5692C0 59.217 3.75846 63 8.37612 63H42.6239C47.2415 63 51 59.217 51 54.5692V31.7647C51 27.6069 47.9892 24.1491 44.0438 23.4651ZM9.27009 16.92C9.27009 8.87562 16.5552 2.3363 25.5036 2.3363C34.4506 2.3363 41.7299 8.87562 41.7299 16.92V23.3339H9.27009V16.92ZM48.6861 54.5692C48.6861 57.9307 45.9636 60.671 42.6239 60.671H8.37612C5.03784 60.671 2.32115 57.9307 2.32115 54.5692V31.7647C2.32115 28.4046 5.03784 25.6702 8.37612 25.6702H42.6239C45.9636 25.6702 48.6861 28.4046 48.6861 31.7647V54.5692Z" fill="#5556BC"/>
<path fill-rule="evenodd" clip-rule="evenodd" d="M26.6148 41.6071H24.3852C23.1149 41.6071 22.0815 40.7206 22.0815 39.631C22.0815 38.5413 23.115 37.6548 24.3852 37.6548H28.8444C29.4192 37.6548 29.8852 37.255 29.8852 36.7619C29.8852 36.2688 29.4192 35.869 28.8444 35.869H26.5408V33.8929C26.5408 33.3998 26.0748 33 25.5 33C24.9252 33 24.4592 33.3998 24.4592 33.8929V35.869H24.3852C21.9672 35.869 20 37.5567 20 39.631C20 41.7052 21.9672 43.3928 24.3852 43.3928H26.6149C27.8851 43.3928 28.9185 44.2793 28.9185 45.369C28.9185 46.4586 27.8851 47.3452 26.6149 47.3452H22.1556C21.5808 47.3452 21.1148 47.7449 21.1148 48.238C21.1148 48.7311 21.5808 49.1309 22.1556 49.1309H24.4592V51.1071C24.4592 51.6002 24.9252 52 25.5 52C26.0748 52 26.5408 51.6002 26.5408 51.1071V49.1309H26.6148C29.0328 49.1309 31 47.4433 31 45.369C31 43.2947 29.0328 41.6071 26.6148 41.6071Z" fill="#5556BC"/>
</svg>
