<svg width="73" height="72" viewBox="0 0 73 72" fill="none" xmlns="http://www.w3.org/2000/svg">
<path fill-rule="evenodd" clip-rule="evenodd" d="M35.9236 26.9347C35.0782 26.9347 34.1655 26.4357 33.354 25.5298C32.6509 24.7446 31.4024 24.6434 30.5659 25.3034C29.7292 25.9634 29.6214 27.1349 30.3245 27.9199C31.3824 29.1009 32.6263 29.9238 33.9447 30.3387V32.5061C33.9447 33.5318 34.8309 34.3633 35.9236 34.3633C37.0164 34.3633 37.9025 33.5318 37.9025 32.5061V30.3296C40.2058 29.5629 41.8604 27.4987 41.8604 25.0776C41.8604 22.0055 39.1971 19.5061 35.9236 19.5061C34.8324 19.5061 33.9447 18.673 33.9447 17.649C33.9447 16.625 34.8324 15.7919 35.9236 15.7919C36.6245 15.7919 37.3647 16.1274 38.0638 16.7626C38.8496 17.4759 40.1021 17.4564 40.8622 16.7195C41.6221 15.9824 41.6015 14.8066 40.8163 14.0933C39.812 13.1813 38.8071 12.6654 37.9025 12.3838V10.2204C37.9025 9.19472 37.0164 8.36328 35.9236 8.36328C34.8309 8.36328 33.9447 9.19472 33.9447 10.2204V12.397C31.6414 13.1636 29.9869 15.2278 29.9869 17.649C29.9869 20.7211 32.6501 23.2204 35.9236 23.2204C37.0148 23.2204 37.9025 24.0535 37.9025 25.0776C37.9025 26.1016 37.0148 26.9347 35.9236 26.9347Z" fill="#5556BC"/>
<path d="M35.9236 26.9347C35.0782 26.9347 34.1655 26.4357 33.354 25.5298C32.6509 24.7446 31.4024 24.6434 30.5659 25.3034C29.7292 25.9634 29.6214 27.1349 30.3245 27.9199C31.3824 29.1009 32.6263 29.9238 33.9447 30.3387V32.5061C33.9447 33.5318 34.8309 34.3633 35.9236 34.3633C37.0164 34.3633 37.9025 33.5318 37.9025 32.5061V30.3296C40.2058 29.5629 41.8604 27.4987 41.8604 25.0776C41.8604 22.0055 39.1971 19.5061 35.9236 19.5061C34.8324 19.5061 33.9447 18.673 33.9447 17.649C33.9447 16.625 34.8324 15.7919 35.9236 15.7919C36.6245 15.7919 37.3647 16.1274 38.0638 16.7626C38.8496 17.4759 40.1021 17.4564 40.8622 16.7195C41.6221 15.9824 41.6015 14.8066 40.8163 14.0933C39.812 13.1813 38.8071 12.6654 37.9025 12.3838V10.2204C37.9025 9.19472 37.0164 8.36328 35.9236 8.36328C34.8309 8.36328 33.9447 9.19472 33.9447 10.2204V12.397C31.6414 13.1636 29.9869 15.2278 29.9869 17.649C29.9869 20.7211 32.6501 23.2204 35.9236 23.2204C37.0148 23.2204 37.9025 24.0535 37.9025 25.0776C37.9025 26.1016 37.0148 26.9347 35.9236 26.9347" stroke="white" stroke-width="2"/>
<mask id="mask0" mask-type="alpha" maskUnits="userSpaceOnUse" x="1" y="20" width="71" height="52">
<path fill-rule="evenodd" clip-rule="evenodd" d="M1.00781 20.7275H71.3599V71.0003H1.00781V20.7275Z" fill="white"/>
</mask>
<g mask="url(#mask0)">
<path fill-rule="evenodd" clip-rule="evenodd" d="M68.6115 44.5494C68.6115 45.6502 68.1824 46.6853 67.4034 47.464L58.8255 56.0378C58.0578 56.8051 57.6177 57.867 57.6177 58.9513V59.5996H46.6239V51.5161C46.6239 50.4143 47.0526 49.3794 47.8319 48.6016L57.0489 39.389C58.0804 38.3579 59.7374 38.3116 60.8211 39.2835C60.829 39.2904 60.8368 39.2974 60.8448 39.3041C60.8761 39.3309 60.9055 39.3598 60.9352 39.3894C61.4544 39.908 61.7403 40.5975 61.7403 41.3311C61.7403 42.0647 61.4544 42.7543 60.9349 43.2732L54.1064 50.0985C53.5697 50.6349 53.5697 51.5046 54.1064 52.0411C54.6432 52.5775 55.513 52.5776 56.0499 52.0411L62.8782 45.2163C63.9167 44.1787 64.4888 42.7991 64.4888 41.3311C64.4888 39.9795 64.0026 38.7032 63.1146 37.6994V26.2218C63.1146 24.7071 64.3475 23.4747 65.863 23.4747C67.3785 23.4747 68.6115 24.7071 68.6115 26.2218V44.5494ZM43.8754 68.2531H60.3661V62.3468H43.8754V68.2531ZM65.863 20.7275C62.832 20.7275 60.3661 23.1923 60.3661 26.2218V36.0113C58.5406 35.5414 56.5261 36.0267 55.1054 37.4465L45.8892 46.6584C44.5906 47.9546 43.8754 49.6798 43.8754 51.5162V59.5996H42.5012C41.7423 59.5996 41.127 60.2146 41.127 60.9732V69.6267C41.127 70.3853 41.7423 71.0003 42.5012 71.0003H61.7403C62.4992 71.0003 63.1146 70.3853 63.1146 69.6267V60.9732C63.1146 60.2146 62.4992 59.5996 61.7403 59.5996H60.3661V58.9513C60.3661 58.5902 60.5129 58.2362 60.769 57.9803L69.347 49.4065C70.645 48.1089 71.3599 46.3839 71.3599 44.5494V26.2218C71.3599 23.1923 68.894 20.7275 65.863 20.7275Z" fill="#5556BC"/>
<path d="M67.4034 47.464L67.1206 47.1811L67.4034 47.464ZM58.8255 56.0378L58.5427 55.7549L58.8255 56.0378ZM57.6177 59.5996V59.9996H58.0177V59.5996H57.6177ZM46.6239 59.5996H46.2239V59.9996H46.6239V59.5996ZM47.8319 48.6016L48.1145 48.8847L48.1147 48.8845L47.8319 48.6016ZM57.0489 39.389L57.3316 39.6719L57.3317 39.6719L57.0489 39.389ZM60.8211 39.2835L60.554 39.5813L60.5574 39.5843L60.8211 39.2835ZM60.8448 39.3041L61.1047 39.0001L61.1028 38.9985L60.8448 39.3041ZM60.9352 39.3894L60.6524 39.6723L60.6525 39.6725L60.9352 39.3894ZM60.9349 43.2732L60.6522 42.9902L60.6521 42.9903L60.9349 43.2732ZM54.1064 50.0985L53.8236 49.8156L54.1064 50.0985ZM54.1064 52.0411L53.8236 52.324L53.8236 52.3241L54.1064 52.0411ZM56.0499 52.0411L56.3327 52.3241L56.3327 52.324L56.0499 52.0411ZM62.8782 45.2163L62.5955 44.9333L62.5954 44.9334L62.8782 45.2163ZM63.1146 37.6994H62.7146V37.8509L62.815 37.9644L63.1146 37.6994ZM43.8754 68.2531H43.4754V68.6531H43.8754V68.2531ZM60.3661 68.2531V68.6531H60.7661V68.2531H60.3661ZM60.3661 62.3468H60.7661V61.9468H60.3661V62.3468ZM43.8754 62.3468V61.9468H43.4754V62.3468H43.8754ZM60.3661 36.0113L60.2664 36.3986L60.7661 36.5273V36.0113H60.3661ZM55.1054 37.4465L54.8227 37.1636L54.8227 37.1636L55.1054 37.4465ZM45.8892 46.6584L46.1718 46.9415L46.172 46.9413L45.8892 46.6584ZM43.8754 59.5996V59.9996H44.2754V59.5996H43.8754ZM60.3661 59.5996H59.9661V59.9996H60.3661V59.5996ZM60.769 57.9803L61.0517 58.2633L61.0518 58.2632L60.769 57.9803ZM69.347 49.4065L69.6297 49.6894L69.6297 49.6894L69.347 49.4065ZM68.2115 44.5494C68.2115 45.544 67.8247 46.4774 67.1206 47.1811L67.6862 47.7469C68.5402 46.8932 69.0115 45.7564 69.0115 44.5494H68.2115ZM67.1206 47.1811L58.5427 55.7549L59.1082 56.3207L67.6862 47.7469L67.1206 47.1811ZM58.5427 55.7549C57.7001 56.5971 57.2177 57.7608 57.2177 58.9513H58.0177C58.0177 57.9732 58.4156 57.013 59.1082 56.3207L58.5427 55.7549ZM57.2177 58.9513V59.5996H58.0177V58.9513H57.2177ZM57.6177 59.1996H46.6239V59.9996H57.6177V59.1996ZM47.0239 59.5996V51.5161H46.2239V59.5996H47.0239ZM47.0239 51.5161C47.0239 50.5203 47.4105 49.5874 48.1145 48.8847L47.5494 48.3185C46.6948 49.1715 46.2239 50.3082 46.2239 51.5161H47.0239ZM48.1147 48.8845L57.3316 39.6719L56.7661 39.1061L47.5492 48.3187L48.1147 48.8845ZM57.3317 39.6719C58.2134 38.7905 59.629 38.7516 60.5541 39.5813L61.0882 38.9858C59.8458 37.8715 57.9474 37.9252 56.7661 39.1061L57.3317 39.6719ZM60.5574 39.5843C60.5613 39.5877 60.5749 39.5998 60.5867 39.6098L61.1028 38.9985C61.0986 38.995 61.0966 38.9931 61.0848 38.9828L60.5574 39.5843ZM60.5848 39.6082C60.6034 39.6241 60.6234 39.6433 60.6524 39.6723L61.218 39.1065C61.1876 39.0762 61.1488 39.0378 61.1047 39.0001L60.5848 39.6082ZM60.6525 39.6725C61.0966 40.116 61.3403 40.7037 61.3403 41.3311H62.1403C62.1403 40.4913 61.8121 39.6999 61.2178 39.1064L60.6525 39.6725ZM61.3403 41.3311C61.3403 41.9585 61.0966 42.5462 60.6522 42.9902L61.2176 43.5562C61.8121 42.9623 62.1403 42.171 62.1403 41.3311H61.3403ZM60.6521 42.9903L53.8236 49.8156L54.3892 50.3814L61.2177 43.5561L60.6521 42.9903ZM53.8236 49.8156C53.1306 50.5082 53.1307 51.6313 53.8236 52.324L54.3892 51.7583C54.0088 51.3779 54.0088 50.7615 54.3892 50.3814L53.8236 49.8156ZM53.8236 52.3241C54.5166 53.0165 55.6396 53.0167 56.3327 52.3241L55.7672 51.7582C55.3865 52.1386 54.7697 52.1385 54.3891 51.7582L53.8236 52.3241ZM56.3327 52.324L63.161 45.4992L62.5954 44.9334L55.7672 51.7582L56.3327 52.324ZM63.1609 45.4992C64.2745 44.3866 64.8888 42.9053 64.8888 41.3311H64.0888C64.0888 42.6929 63.5589 43.9707 62.5955 44.9333L63.1609 45.4992ZM64.8888 41.3311C64.8888 39.8818 64.3668 38.5112 63.4142 37.4344L62.815 37.9644C63.6384 38.8952 64.0888 40.0773 64.0888 41.3311H64.8888ZM63.5146 37.6994V26.2218H62.7146V37.6994H63.5146ZM63.5146 26.2218C63.5146 24.9281 64.5683 23.8747 65.863 23.8747V23.0747C64.1268 23.0747 62.7146 24.486 62.7146 26.2218H63.5146ZM65.863 23.8747C67.1578 23.8747 68.2115 24.9281 68.2115 26.2218H69.0115C69.0115 24.486 67.5992 23.0747 65.863 23.0747V23.8747ZM68.2115 26.2218V44.5494H69.0115V26.2218H68.2115ZM43.8754 68.6531H60.3661V67.8531H43.8754V68.6531ZM60.7661 68.2531V62.3468H59.9661V68.2531H60.7661ZM60.3661 61.9468H43.8754V62.7468H60.3661V61.9468ZM43.4754 62.3468V68.2531H44.2754V62.3468H43.4754ZM65.863 20.3275C62.6113 20.3275 59.9661 22.9712 59.9661 26.2218H60.7661C60.7661 23.4134 63.0528 21.1275 65.863 21.1275V20.3275ZM59.9661 26.2218V36.0113H60.7661V26.2218H59.9661ZM60.4658 35.6239C58.5084 35.12 56.3471 35.6401 54.8227 37.1636L55.3882 37.7294C56.7052 36.4132 58.5728 35.9627 60.2664 36.3986L60.4658 35.6239ZM54.8227 37.1636L45.6064 46.3755L46.172 46.9413L55.3882 37.7294L54.8227 37.1636ZM45.6066 46.3753C44.2327 47.7466 43.4754 49.5737 43.4754 51.5162H44.2754C44.2754 49.7859 44.9484 48.1626 46.1718 46.9415L45.6066 46.3753ZM43.4754 51.5162V59.5996H44.2754V51.5162H43.4754ZM43.8754 59.1996H42.5012V59.9996H43.8754V59.1996ZM42.5012 59.1996C41.5216 59.1996 40.727 59.9935 40.727 60.9732H41.527C41.527 60.4357 41.963 59.9996 42.5012 59.9996V59.1996ZM40.727 60.9732V69.6267H41.527V60.9732H40.727ZM40.727 69.6267C40.727 70.6064 41.5216 71.4003 42.5012 71.4003V70.6003C41.963 70.6003 41.527 70.1642 41.527 69.6267H40.727ZM42.5012 71.4003H61.7403V70.6003H42.5012V71.4003ZM61.7403 71.4003C62.7199 71.4003 63.5146 70.6064 63.5146 69.6267H62.7146C62.7146 70.1642 62.2785 70.6003 61.7403 70.6003V71.4003ZM63.5146 69.6267V60.9732H62.7146V69.6267H63.5146ZM63.5146 60.9732C63.5146 59.9935 62.7199 59.1996 61.7403 59.1996V59.9996C62.2785 59.9996 62.7146 60.4357 62.7146 60.9732H63.5146ZM61.7403 59.1996H60.3661V59.9996H61.7403V59.1996ZM60.7661 59.5996V58.9513H59.9661V59.5996H60.7661ZM60.7661 58.9513C60.7661 58.6965 60.8706 58.4443 61.0517 58.2633L60.4863 57.6973C60.1552 58.0281 59.9661 58.4838 59.9661 58.9513H60.7661ZM61.0518 58.2632L69.6297 49.6894L69.0642 49.1236L60.4863 57.6974L61.0518 58.2632ZM69.6297 49.6894C71.0028 48.3168 71.7599 46.4901 71.7599 44.5494H70.9599C70.9599 46.2778 70.2873 47.901 69.0642 49.1236L69.6297 49.6894ZM71.7599 44.5494V26.2218H70.9599V44.5494H71.7599ZM71.7599 26.2218C71.7599 22.9712 69.1147 20.3275 65.863 20.3275V21.1275C68.6733 21.1275 70.9599 23.4134 70.9599 26.2218H71.7599Z" fill="white"/>
<path fill-rule="evenodd" clip-rule="evenodd" d="M11.9938 68.2531H28.4845V62.3468H11.9938V68.2531ZM13.5345 56.0378L4.95653 47.4641C4.17748 46.6853 3.74845 45.6502 3.74845 44.5494V26.2218C3.74845 24.7071 4.98141 23.4747 6.4969 23.4747C8.0124 23.4747 9.24535 24.7071 9.24535 26.2218V37.6993C8.35733 38.7031 7.87113 39.9792 7.87113 41.3311C7.87113 42.7991 8.44322 44.1787 9.48158 45.2157L16.3527 52.0836C16.8895 52.62 17.7594 52.62 18.2963 52.0836C18.8329 51.5472 18.8329 50.6774 18.2963 50.1409L11.4247 43.2727C10.9056 42.7543 10.6196 42.0647 10.6196 41.3311C10.6196 40.5975 10.9056 39.908 11.4243 39.3896C11.4543 39.3598 11.4838 39.3309 11.515 39.3041L11.5387 39.2835C12.6222 38.3116 14.2794 38.358 15.3109 39.389L24.5285 48.6021C25.3072 49.3794 25.7359 50.4141 25.7359 51.516V59.5996H14.7421V58.9513C14.7423 57.867 14.3021 56.8051 13.5345 56.0378ZM29.8587 59.5996H28.4845V51.5162C28.4845 49.6798 27.7694 47.9546 26.4715 46.6591L17.2546 37.4465C15.8338 36.0264 13.8193 35.5412 11.9938 36.0113V26.2218C11.9938 23.1923 9.52789 20.7275 6.4969 20.7275C3.46591 20.7275 1 23.1923 1 26.2218V44.5494C1 46.3839 1.71487 48.1089 3.01297 49.4065L11.5909 57.9802C11.847 58.2362 11.9938 58.59 11.9938 58.9513V59.5996H10.6196C9.86073 59.5996 9.24535 60.2146 9.24535 60.9732V69.6267C9.24535 70.3853 9.86073 71.0003 10.6196 71.0003H29.8587C30.6176 71.0003 31.233 70.3853 31.233 69.6267V60.9732C31.233 60.2146 30.6176 59.5996 29.8587 59.5996Z" fill="#5556BC"/>
<path d="M11.9938 68.2531H11.5938V68.6531H11.9938V68.2531ZM28.4845 68.2531V68.6531H28.8845V68.2531H28.4845ZM28.4845 62.3468H28.8845V61.9468H28.4845V62.3468ZM11.9938 62.3468V61.9468H11.5938V62.3468H11.9938ZM13.5345 56.0378L13.8172 55.7549L13.8172 55.7549L13.5345 56.0378ZM4.95653 47.4641L4.67373 47.747L4.67376 47.747L4.95653 47.4641ZM9.24535 37.6993L9.54495 37.9643L9.64535 37.8508V37.6993H9.24535ZM9.48158 45.2157L9.76436 44.9328L9.76425 44.9327L9.48158 45.2157ZM16.3527 52.0836L16.0699 52.3665L16.07 52.3665L16.3527 52.0836ZM18.2963 52.0836L18.579 52.3666L18.5791 52.3665L18.2963 52.0836ZM18.2963 50.1409L18.5791 49.8581L18.5791 49.858L18.2963 50.1409ZM11.4247 43.2727L11.7075 42.9897L11.7074 42.9896L11.4247 43.2727ZM11.4243 39.3896L11.1422 39.106L11.1416 39.1066L11.4243 39.3896ZM11.515 39.3041L11.7756 39.6076L11.7779 39.6057L11.515 39.3041ZM11.5387 39.2835L11.8015 39.5851L11.8057 39.5813L11.5387 39.2835ZM15.3109 39.389L15.0281 39.6719L15.0281 39.6719L15.3109 39.389ZM24.5285 48.6021L24.2458 48.885L24.2459 48.8852L24.5285 48.6021ZM25.7359 59.5996V59.9996H26.1359V59.5996H25.7359ZM14.7421 59.5996H14.3421V59.9996H14.7421V59.5996ZM14.7421 58.9513L14.3421 58.9512V58.9513H14.7421ZM28.4845 59.5996H28.0845V59.9996H28.4845V59.5996ZM26.4715 46.6591L26.1888 46.942L26.189 46.9422L26.4715 46.6591ZM17.2546 37.4465L16.9718 37.7294L17.2546 37.4465ZM11.9938 36.0113H11.5938V36.5273L12.0935 36.3986L11.9938 36.0113ZM3.01297 49.4065L2.73018 49.6894L2.73019 49.6894L3.01297 49.4065ZM11.5909 57.9802L11.8737 57.6973L11.8737 57.6973L11.5909 57.9802ZM11.9938 59.5996V59.9996H12.3938V59.5996H11.9938ZM11.9938 68.6531H28.4845V67.8531H11.9938V68.6531ZM28.8845 68.2531V62.3468H28.0845V68.2531H28.8845ZM28.4845 61.9468H11.9938V62.7468H28.4845V61.9468ZM11.5938 62.3468V68.2531H12.3938V62.3468H11.5938ZM13.8172 55.7549L5.23931 47.1812L4.67376 47.747L13.2517 56.3207L13.8172 55.7549ZM5.23933 47.1812C4.53526 46.4774 4.14845 45.544 4.14845 44.5494H3.34845C3.34845 45.7564 3.8197 46.8932 4.67373 47.747L5.23933 47.1812ZM4.14845 44.5494V26.2218H3.34845V44.5494H4.14845ZM4.14845 26.2218C4.14845 24.9281 5.20214 23.8747 6.4969 23.8747V23.0747C4.76067 23.0747 3.34845 24.486 3.34845 26.2218H4.14845ZM6.4969 23.8747C7.79166 23.8747 8.84535 24.9281 8.84535 26.2218H9.64535C9.64535 24.486 8.23313 23.0747 6.4969 23.0747V23.8747ZM8.84535 26.2218V37.6993H9.64535V26.2218H8.84535ZM8.94576 37.4342C7.99311 38.5111 7.47113 39.8815 7.47113 41.3311H8.27113C8.27113 40.077 8.72155 38.895 9.54495 37.9643L8.94576 37.4342ZM7.47113 41.3311C7.47113 42.9052 8.08544 44.3867 9.19892 45.4987L9.76425 44.9327C8.801 43.9707 8.27113 42.6929 8.27113 41.3311H7.47113ZM9.19881 45.4986L16.0699 52.3665L16.6355 51.8007L9.76436 44.9328L9.19881 45.4986ZM16.07 52.3665C16.763 53.059 17.8859 53.0589 18.579 52.3666L18.0136 51.8006C17.6328 52.181 17.016 52.1809 16.6355 51.8006L16.07 52.3665ZM18.5791 52.3665C19.272 51.6739 19.272 50.5508 18.5791 49.8581L18.0135 50.4238C18.3939 50.8041 18.3938 51.4205 18.0135 51.8007L18.5791 52.3665ZM18.5791 49.858L11.7075 42.9897L11.142 43.5556L18.0135 50.4238L18.5791 49.858ZM11.7074 42.9896C11.2633 42.5462 11.0196 41.9585 11.0196 41.3311H10.2196C10.2196 42.171 10.5478 42.9623 11.1421 43.5557L11.7074 42.9896ZM11.0196 41.3311C11.0196 40.7037 11.2633 40.1159 11.7071 39.6725L11.1416 39.1066C10.5478 39.7 10.2196 40.4913 10.2196 41.3311H11.0196ZM11.7065 39.6731C11.7357 39.6441 11.7564 39.6241 11.7756 39.6076L11.2545 39.0007C11.2113 39.0377 11.1729 39.0755 11.1422 39.106L11.7065 39.6731ZM11.7779 39.6057L11.8015 39.5851L11.2758 38.982L11.2522 39.0026L11.7779 39.6057ZM11.8057 39.5813C12.7307 38.7517 14.1464 38.7906 15.0281 39.6719L15.5937 39.1061C14.4124 37.9254 12.5138 37.8715 11.2716 38.9858L11.8057 39.5813ZM15.0281 39.6719L24.2458 48.885L24.8113 48.3192L15.5937 39.1061L15.0281 39.6719ZM24.2459 48.8852C24.9493 49.5874 25.3359 50.5202 25.3359 51.516H26.1359C26.1359 50.3081 25.6651 49.1715 24.8111 48.319L24.2459 48.8852ZM25.3359 51.516V59.5996H26.1359V51.516H25.3359ZM25.7359 59.1996H14.7421V59.9996H25.7359V59.1996ZM15.1421 59.5996V58.9513H14.3421V59.5996H15.1421ZM15.1421 58.9513C15.1423 57.7608 14.6599 56.5971 13.8172 55.7549L13.2517 56.3207C13.9443 57.013 14.3422 57.9732 14.3421 58.9512L15.1421 58.9513ZM29.8587 59.1996H28.4845V59.9996H29.8587V59.1996ZM28.8845 59.5996V51.5162H28.0845V59.5996H28.8845ZM28.8845 51.5162C28.8845 49.5737 28.1272 47.7467 26.7541 46.376L26.189 46.9422C27.4115 48.1626 28.0845 49.7859 28.0845 51.5162H28.8845ZM26.7543 46.3762L17.5374 37.1636L16.9718 37.7294L26.1888 46.942L26.7543 46.3762ZM17.5374 37.1636C16.0129 35.6398 13.8515 35.1199 11.8941 35.6239L12.0935 36.3986C13.7872 35.9626 15.6548 36.413 16.9718 37.7294L17.5374 37.1636ZM12.3938 36.0113V26.2218H11.5938V36.0113H12.3938ZM12.3938 26.2218C12.3938 22.9712 9.74863 20.3275 6.4969 20.3275V21.1275C9.30716 21.1275 11.5938 23.4134 11.5938 26.2218H12.3938ZM6.4969 20.3275C3.24518 20.3275 0.6 22.9712 0.6 26.2218H1.4C1.4 23.4134 3.68664 21.1275 6.4969 21.1275V20.3275ZM0.6 26.2218V44.5494H1.4V26.2218H0.6ZM0.6 44.5494C0.6 46.4901 1.35708 48.3168 2.73018 49.6894L3.29576 49.1236C2.07267 47.901 1.4 46.2778 1.4 44.5494H0.6ZM2.73019 49.6894L11.3081 58.2631L11.8737 57.6973L3.29574 49.1236L2.73019 49.6894ZM11.3081 58.2631C11.4894 58.4443 11.5938 58.6964 11.5938 58.9513H12.3938C12.3938 58.4837 12.2047 58.0281 11.8737 57.6973L11.3081 58.2631ZM11.5938 58.9513V59.5996H12.3938V58.9513H11.5938ZM11.9938 59.1996H10.6196V59.9996H11.9938V59.1996ZM10.6196 59.1996C9.64002 59.1996 8.84535 59.9935 8.84535 60.9732H9.64535C9.64535 60.4357 10.0814 59.9996 10.6196 59.9996V59.1996ZM8.84535 60.9732V69.6267H9.64535V60.9732H8.84535ZM8.84535 69.6267C8.84535 70.6064 9.64002 71.4003 10.6196 71.4003V70.6003C10.0814 70.6003 9.64535 70.1642 9.64535 69.6267H8.84535ZM10.6196 71.4003H29.8587V70.6003H10.6196V71.4003ZM29.8587 71.4003C30.8383 71.4003 31.633 70.6064 31.633 69.6267H30.833C30.833 70.1642 30.3969 70.6003 29.8587 70.6003V71.4003ZM31.633 69.6267V60.9732H30.833V69.6267H31.633ZM31.633 60.9732C31.633 59.9935 30.8383 59.1996 29.8587 59.1996V59.9996C30.3969 59.9996 30.833 60.4357 30.833 60.9732H31.633Z" fill="white"/>
</g>
<path fill-rule="evenodd" clip-rule="evenodd" d="M36.1804 39.0121C26.3988 39.0121 18.441 31.095 18.441 21.3636C18.441 11.6323 26.3988 3.71515 36.1804 3.71515C45.962 3.71515 53.9197 11.6323 53.9197 21.3636C53.9197 31.095 45.962 39.0121 36.1804 39.0121ZM56.6488 21.3636C56.6488 10.1351 47.4667 1 36.1804 1C24.8941 1 15.7119 10.1351 15.7119 21.3636C15.7119 32.5921 24.8941 41.7273 36.1804 41.7273C47.4667 41.7273 56.6488 32.5921 56.6488 21.3636Z" fill="#5556BC"/>
<path d="M36.1804 38.6121C26.6178 38.6121 18.841 30.8722 18.841 21.3636H18.041C18.041 31.3179 26.1798 39.4121 36.1804 39.4121V38.6121ZM18.841 21.3636C18.841 11.8551 26.6178 4.11515 36.1804 4.11515V3.31515C26.1798 3.31515 18.041 11.4094 18.041 21.3636H18.841ZM36.1804 4.11515C45.743 4.11515 53.5197 11.8551 53.5197 21.3636H54.3197C54.3197 11.4094 46.181 3.31515 36.1804 3.31515V4.11515ZM53.5197 21.3636C53.5197 30.8722 45.743 38.6121 36.1804 38.6121V39.4121C46.181 39.4121 54.3197 31.3179 54.3197 21.3636H53.5197ZM57.0489 21.3636C57.0489 9.91228 47.6857 0.6 36.1804 0.6V1.4C47.2477 1.4 56.2488 10.358 56.2488 21.3636H57.0489ZM36.1804 0.6C24.6751 0.6 15.3119 9.91228 15.3119 21.3636H16.1119C16.1119 10.358 25.113 1.4 36.1804 1.4V0.6ZM15.3119 21.3636C15.3119 32.815 24.6751 42.1273 36.1804 42.1273V41.3273C25.113 41.3273 16.1119 32.3693 16.1119 21.3636H15.3119ZM36.1804 42.1273C47.6857 42.1273 57.0489 32.815 57.0489 21.3636H56.2488C56.2488 32.3693 47.2477 41.3273 36.1804 41.3273V42.1273Z" fill="white"/>
</svg>
