<?xml version="1.0" encoding="UTF-8"?><!DOCTYPE svg PUBLIC "-//W3C//DTD SVG 1.1//EN" "http://www.w3.org/Graphics/SVG/1.1/DTD/svg11.dtd"><svg xmlns="http://www.w3.org/2000/svg" xmlns:xlink="http://www.w3.org/1999/xlink"><symbol id="icon--cards" viewBox="0 0 109 89"><path fill-rule="evenodd" clip-rule="evenodd" d="M87.03 61.63H58.02c-1.088 0-1.813-.725-1.813-1.812V43.505c0-1.088.725-1.813 1.813-1.813h29.01c1.088 0 1.813.725 1.813 1.813v16.313c0 1.087-.725 1.812-1.813 1.812zm-1.813-16.313H59.833v12.688h25.384V45.317z" fill="#5556BC"/><path d="M9.066 38.067h14.505c1.088 0 1.813-.725 1.813-1.813 0-1.087-.725-1.812-1.813-1.812H9.066c-1.088 0-1.813.725-1.813 1.812 0 1.088.725 1.813 1.813 1.813zM30.823 38.067h14.505c1.088 0 1.813-.725 1.813-1.813 0-1.087-.725-1.812-1.813-1.812H30.823c-1.088 0-1.813.725-1.813 1.812 0 1.088.725 1.813 1.813 1.813zM9.066 45.317h23.57c1.088 0 1.814-.725 1.814-1.812 0-1.088-.726-1.813-1.814-1.813H9.066c-1.088 0-1.813.725-1.813 1.813 0 1.087.725 1.812 1.813 1.812zM45.328 41.692h-5.44c-1.088 0-1.813.725-1.813 1.812 0 1.088.725 1.813 1.813 1.813h5.44c1.087 0 1.813-.725 1.813-1.813 0-1.087-.725-1.812-1.813-1.812z" fill="#5556BC"/><path fill-rule="evenodd" clip-rule="evenodd" d="M107.156 19.216c-1.269-1.631-2.901-2.538-4.896-2.719l-4.351-.527V7.253c0-3.987-3.264-7.25-7.253-7.25H7.252C3.264.003 0 3.265 0 7.253V65.255c0 3.274 2.2 6.058 5.196 6.95-.092 3.667 2.683 6.85 6.408 7.189l83.767 9.425h.725c3.626 0 6.89-2.72 7.252-6.163l5.44-58.183c.181-1.813-.363-3.807-1.632-5.257zM3.626 12.691h90.657v10.875H3.626V12.691zm87.03-9.063H7.252a3.636 3.636 0 00-3.626 3.625v1.813h90.656V7.253a3.636 3.636 0 00-3.626-3.625zM3.626 65.255V27.191h90.657v38.064a3.636 3.636 0 01-3.627 3.625H7.253a3.636 3.636 0 01-3.627-3.625zm96.096 16.676l5.439-58.183c.182-.907-.181-1.994-.725-2.72-.544-.724-1.451-1.268-2.357-1.268l-4.17-.363v45.858c0 3.988-3.264 7.25-7.253 7.25H8.884c.181 1.632 1.45 3.082 3.264 3.263l83.585 9.426c1.994.18 3.808-1.27 3.989-3.263z" fill="#5556BC"/></symbol><symbol id="icon--crossroads"><path d="M31.141 37.59a1.371 1.371 0 001.935.017l5.518-5.422c.263-.256.406-.608.406-.984 0-.375-.151-.72-.406-.983l-5.518-5.422a1.373 1.373 0 00-1.935.016 1.387 1.387 0 00.016 1.943l3.121 3.07h-3.463a7.104 7.104 0 01-5.455-2.558L13.337 10.834A9.836 9.836 0 005.311 6.65H1.36C.606 6.651 0 7.267 0 8.027c0 .76.613 1.367 1.362 1.367H5.31a7.102 7.102 0 015.813 3.039l12.07 16.497c.017.024.032.04.048.064a9.791 9.791 0 007.58 3.59h3.464l-3.121 3.072a1.356 1.356 0 00-.024 1.935zM38.59 6.853L32.999 1.39a1.39 1.39 0 00-1.95.016 1.38 1.38 0 00.017 1.943l3.185 3.112h-3.49a9.9 9.9 0 00-7.64 3.583.444.444 0 00-.047.064l-2.28 3.096c-.448.608-.32 1.471.298 1.92a1.4 1.4 0 00.81.263c.425 0 .843-.192 1.108-.56l2.254-3.055a7.13 7.13 0 015.496-2.56h3.49l-3.185 3.112a1.366 1.366 0 00-.016 1.944c.273.272.626.407.987.407.345 0 .698-.127.963-.391l5.593-5.464c.265-.256.41-.607.41-.983s-.145-.728-.41-.984zM13.174 28.085l1.959-2.758c.44-.62.314-1.502-.291-1.96a1.316 1.316 0 00-1.888.303l-1.966 2.783c-.008.016-.016.024-.024.04-1.314 1.91-3.453 3.053-5.718 3.053H1.345C.598 29.546 0 30.175 0 30.95c0 .775.606 1.396 1.345 1.396h3.901c3.146 0 6.111-1.592 7.928-4.26z" fill="#5585BC"/></symbol><symbol id="icon--dots"><path fill-rule="evenodd" clip-rule="evenodd" d="M5.636 11C2.523 11 0 8.538 0 5.5S2.523 0 5.636 0c3.114 0 5.637 2.462 5.637 5.5S8.75 11 5.636 11zm26.303 0c-3.113 0-5.636-2.462-5.636-5.5S28.826 0 31.94 0s5.637 2.462 5.637 5.5-2.524 5.5-5.637 5.5zm24.424 0c-3.113 0-5.636-2.462-5.636-5.5S53.25 0 56.363 0C59.477 0 62 2.462 62 5.5S59.477 11 56.363 11z" fill="#5556BC"/></symbol><symbol id="icon--download"><path fill-rule="evenodd" clip-rule="evenodd" d="M0 11.003v2.947c0 .861.705 1.567 1.567 1.567l12.866.05c.862 0 1.567-.705 1.567-1.567v-2.953l-1.567-.004V14l-12.866-.05v-2.943L0 11.003zM8.85.618l-.004 6.344 2.284-2.314a.589.589 0 01.842 0l.355.36a.602.602 0 01.173.425.601.601 0 01-.173.425L8.42 9.825A.583.583 0 018 10a.583.583 0 01-.42-.175L3.673 5.858a.602.602 0 01-.173-.425c0-.16.061-.312.173-.425l.355-.36a.582.582 0 01.418-.176c.159 0 .3.063.411.176l2.297 2.34V.61c0-.331.282-.61.608-.61h.502c.326 0 .586.287.586.618z" fill="#000"/></symbol><symbol id="icon--pay-card"><path fill-rule="evenodd" clip-rule="evenodd" d="M13.886 32.998h6.41c.59 0 1.068.478 1.068 1.067V42.6c0 .589-.479 1.066-1.068 1.066h-6.41c-.59 0-1.068-.477-1.068-1.066v-8.534c0-.589.479-1.066 1.069-1.066zm4.273 5.334h1.069v-3.2h-1.069v3.2zm-2.136-3.2v3.2h-1.068v-3.2h1.068zm-1.068 5.333v1.067h4.272v-1.067h-4.272z" fill="#55BCA4"/><path d="M25.637 25.532h2.136v2.133h-2.136v-2.133zM25.637 21.265h2.136v2.133h-2.136v-2.133zM25.637 16.998h2.136v2.134h-2.136v-2.134zM25.637 12.732h2.136v2.133h-2.136v-2.133zM29.91 21.265h2.135v6.4H29.91v-6.4zM29.91 12.732h2.135v6.4H29.91v-6.4z" fill="#55BCA4"/><path fill-rule="evenodd" clip-rule="evenodd" d="M47 9.532a2.135 2.135 0 01-2.136 2.133h-6.41v15.559l6.98 6.968A5.3 5.3 0 0147 37.97v24.896A2.135 2.135 0 0144.864 65H28.84a2.135 2.135 0 01-2.137-2.134v-4.373a5.358 5.358 0 01-4.272-5.227v-3.2H11.75a3.202 3.202 0 01-3.205-3.2v-35.2H2.136A2.135 2.135 0 010 9.532v-6.4C0 1.954.957.999 2.136.999h42.728c1.18 0 2.136.955 2.136 2.133v6.4zm-44.864-6.4v6.4h6.41V7.399H6.408V5.265h34.182V7.4h-2.136v2.133h6.409v-6.4H2.136zm8.546 43.733V7.4h25.636v30.933h-1.175L30.905 34.1a2.144 2.144 0 00-3.027 0l-.748.746a5.32 5.32 0 000 7.542l4.915 4.918v.625H11.75c-.59 0-1.068-.478-1.068-1.067zm34.182-8.896a3.175 3.175 0 00-.941-2.267l-5.468-5.462V39.4c0 .589-.479 1.066-1.069 1.066h-2.692c-.283 0-.554-.112-.755-.312l-4.55-4.545-.754.747a3.262 3.262 0 00-.889 2.858c.12.634.43 1.216.889 1.672l5.234 5.226c.2.2.313.471.313.754v3.2c0 1.767 1.435 3.2 3.204 3.2v2.133a5.343 5.343 0 01-5.34-5.333h-7.478v3.2a3.215 3.215 0 002.54 3.137 2.135 2.135 0 011.733 2.09v4.373h16.023V37.97z" fill="#55BCA4"/><path fill-rule="evenodd" clip-rule="evenodd" d="M17.091 11.665a4.27 4.27 0 00-4.273 4.267c.005.747.208 1.48.589 2.123a4.262 4.262 0 00.931 5.42 4.277 4.277 0 005.508 0 4.262 4.262 0 00.932-5.42c.38-.643.582-1.376.586-2.123a4.27 4.27 0 00-4.273-4.267zm0 2.134c1.18 0 2.136.955 2.136 2.133a2.135 2.135 0 01-2.136 2.133 2.135 2.135 0 01-2.136-2.133c0-1.178.956-2.133 2.136-2.133zm-2.136 6.4c0 1.178.956 2.133 2.136 2.133 1.18 0 2.136-.955 2.136-2.133a2.09 2.09 0 00-.08-.55 4.116 4.116 0 01-4.11 0 2.086 2.086 0 00-.082.55z" fill="#55BCA4"/></symbol><symbol id="icon--score"><path fill-rule="evenodd" clip-rule="evenodd" d="M43.038 24.542h-7.11V1.956a.957.957 0 00-.593-.885.964.964 0 00-1.047.208l-2.722 2.71-2.721-2.71a.963.963 0 00-1.359 0L24.765 3.99l-2.721-2.711a.963.963 0 00-1.36 0l-2.72 2.711-2.722-2.711a.963.963 0 00-1.359 0L11.162 3.99 8.44 1.279a.963.963 0 00-1.36 0L4.362 3.99 1.638 1.279A.963.963 0 000 1.98v43.041C0 47.766 2.241 50 4.996 50h34.008c2.754 0 4.995-2.233 4.995-4.977V25.5a.959.959 0 00-.96-.957zM4.996 48.084a3.072 3.072 0 01-3.074-3.062V4.267L3.68 6.02a.963.963 0 001.359 0L7.76 3.31l2.722 2.711a.963.963 0 001.358 0l2.722-2.711 2.721 2.711a.963.963 0 001.36 0l2.72-2.711 2.722 2.711a.963.963 0 001.359 0l2.721-2.711 2.722 2.711a.963.963 0 001.358 0l1.761-1.754v21.247l.002.011v19.498c0 1.154.397 2.217 1.062 3.063H4.996zm34.007 0a3.072 3.072 0 003.075-3.062V26.456h-6.149v18.566a3.072 3.072 0 003.074 3.062z" fill="#BC556E"/><path d="M17.965 16.201c-.953 0-1.73-.661-1.73-1.474 0-.814.777-1.475 1.73-1.475.954 0 1.73.661 1.73 1.475 0 .528.43.957.96.957s.96-.429.96-.957c0-1.56-1.141-2.877-2.69-3.27v-.648a.959.959 0 00-.96-.957c-.53 0-.96.429-.96.957v.649c-1.549.392-2.69 1.709-2.69 3.269 0 1.868 1.637 3.388 3.65 3.388.954 0 1.73.662 1.73 1.475 0 .814-.776 1.475-1.73 1.475-.953 0-1.73-.661-1.73-1.475a.959.959 0 00-.96-.957c-.53 0-.96.429-.96.957 0 1.56 1.141 2.877 2.69 3.27v.78c0 .529.43.957.96.957s.96-.428.96-.957v-.78c1.549-.393 2.69-1.71 2.69-3.27 0-1.868-1.637-3.389-3.65-3.389zM27.616 16.202h-1.872c-.53 0-.96.428-.96.957 0 .528.43.957.96.957h1.872c.53 0 .961-.429.961-.957a.959.959 0 00-.96-.957zM10.186 16.202H8.313c-.53 0-.96.428-.96.957 0 .528.43.957.96.957h1.873c.53 0 .96-.429.96-.957a.959.959 0 00-.96-.957zM28.102 26.84h-15.22c-.53 0-.96.428-.96.956 0 .529.43.957.96.957h15.22c.53 0 .961-.428.961-.957a.959.959 0 00-.96-.957zM8.506 27.12a.97.97 0 00-.68-.28.962.962 0 00-.96.957.963.963 0 00.96.956.963.963 0 00.96-.957.962.962 0 00-.28-.677zM28.102 33.155h-15.22c-.53 0-.96.429-.96.957 0 .529.43.957.96.957h15.22c.53 0 .961-.428.961-.957a.959.959 0 00-.96-.957zM8.506 33.436a.97.97 0 00-.68-.28.962.962 0 00-.96.957.962.962 0 00.96.956.962.962 0 00.96-.957.962.962 0 00-.28-.676zM28.102 39.471h-15.22c-.53 0-.96.429-.96.958 0 .528.43.956.96.956h15.22c.53 0 .961-.428.961-.956a.959.959 0 00-.96-.958zM8.506 39.752a.97.97 0 00-.68-.28.963.963 0 00-.96.957.962.962 0 00.96.956.962.962 0 00.96-.957.963.963 0 00-.28-.676z" fill="#BC556E"/></symbol></svg>