<svg width="90" height="100" viewBox="0 0 90 100" fill="none" xmlns="http://www.w3.org/2000/svg">
<path fill-rule="evenodd" clip-rule="evenodd" d="M88.0334 48.047H73.4896V1.95328C73.4896 1.16343 73.0107 0.451128 72.2766 0.148785C71.542 -0.153755 70.6968 0.0138236 70.135 0.572027L64.5682 6.10484L59.0018 0.572222C58.2344 -0.190473 56.9901 -0.190473 56.2226 0.572222L50.6559 6.10503L45.0899 0.572222C44.3225 -0.190473 43.0782 -0.190473 42.3107 0.572222L36.7441 6.10503L31.1772 0.572222C30.4099 -0.190473 29.1656 -0.190473 28.3982 0.572222L22.8316 6.10503L17.2653 0.572222C16.498 -0.190473 15.2537 -0.190473 14.4861 0.572222L8.91951 6.10503L3.35307 0.572222C2.59043 -0.185786 1.35695 -0.189692 0.587632 0.56148C0.183614 0.956206 -0.0123029 1.48218 0.00125605 2.00464V89.8441C0.00125605 95.4441 4.58497 100 10.2192 100H79.7778H79.7788H79.7806C85.4148 100 89.9985 95.4441 89.9985 89.8441V50C89.9985 48.9212 89.1188 48.047 88.0334 48.047ZM10.2192 96.0937C6.75185 96.0937 3.93119 93.29 3.93119 89.8439V6.67105L7.53001 10.248C8.29737 11.0107 9.54165 11.0107 10.3092 10.248L15.8758 4.71519L21.4425 10.248C22.2098 11.0107 23.4541 11.0107 24.2217 10.248L29.7883 4.71519L35.3551 10.248C36.1225 11.0107 37.3668 11.0107 38.1341 10.248L43.7008 4.71519L49.2674 10.248C50.0348 11.0107 51.279 11.0107 52.0466 10.248L57.6132 4.71519L63.1799 10.248C63.9474 11.0107 65.1917 11.0107 65.9589 10.248L69.5606 6.66832V50C69.5606 50.0177 69.5628 50.0351 69.5634 50.0529V89.8439C69.5634 92.1998 70.3769 94.3689 71.7362 96.0937H10.2192ZM79.7804 96.0937C83.2475 96.0937 86.0684 93.29 86.0684 89.8439V51.9531H73.4923V89.8439C73.4923 93.29 76.3132 96.0937 79.7804 96.0937Z" fill="#5556BC"/>
<path d="M36.7454 31.0264C34.795 31.0264 33.2085 29.676 33.2085 28.0164C33.2085 26.3567 34.7952 25.0063 36.7454 25.0063C38.6957 25.0063 40.2823 26.3567 40.2823 28.0164C40.2823 29.0951 41.1621 29.9696 42.2474 29.9696C43.3327 29.9696 44.2124 29.0951 44.2124 28.0164C44.2124 24.8326 41.8771 22.1463 38.7104 21.3451V20.0221C38.7104 18.9434 37.8307 18.069 36.7454 18.069C35.6601 18.069 34.7803 18.9434 34.7803 20.0221V21.3451C31.6134 22.1463 29.2783 24.8328 29.2783 28.0164C29.2783 31.8299 32.6282 34.9324 36.7454 34.9324C38.6957 34.9324 40.2823 36.2828 40.2823 37.9426C40.2823 39.6024 38.6957 40.9526 36.7454 40.9526C34.795 40.9526 33.2085 39.6022 33.2085 37.9426C33.2085 36.8639 32.3287 35.9895 31.2434 35.9895C30.1581 35.9895 29.2783 36.8639 29.2783 37.9426C29.2783 41.1264 31.6136 43.8127 34.7803 44.6139V46.2076C34.7803 47.2864 35.6601 48.1608 36.7454 48.1608C37.8307 48.1608 38.7104 47.2864 38.7104 46.2076V44.6139C41.8773 43.8127 44.2124 41.1264 44.2124 37.9426C44.2124 34.1291 40.8626 31.0264 36.7454 31.0264Z" fill="#5556BC"/>
<path d="M56.4883 31.0266H52.6584C51.5731 31.0266 50.6934 31.901 50.6934 32.9797C50.6934 34.0584 51.5731 34.9329 52.6584 34.9329H56.4883C57.5736 34.9329 58.4534 34.0584 58.4534 32.9797C58.4534 31.901 57.5736 31.0266 56.4883 31.0266Z" fill="#5556BC"/>
<path d="M20.834 31.0266H17.0041C15.9188 31.0266 15.0391 31.901 15.0391 32.9797C15.0391 34.0584 15.9188 34.9329 17.0041 34.9329H20.834C21.9193 34.9329 22.7991 34.0584 22.7991 32.9797C22.7991 31.901 21.9193 31.0266 20.834 31.0266Z" fill="#5556BC"/>
<path d="M57.482 52.7357H26.3508C25.2655 52.7357 24.3857 53.6101 24.3857 54.6888C24.3857 55.7676 25.2655 56.642 26.3508 56.642H57.482C58.5673 56.642 59.447 55.7676 59.447 54.6888C59.4468 53.6101 58.5673 52.7357 57.482 52.7357Z" fill="#5556BC"/>
<path d="M17.3983 53.308C17.0328 52.9447 16.5258 52.7357 16.009 52.7357C15.4922 52.7357 14.9852 52.9447 14.6197 53.308C14.2542 53.6713 14.0439 54.1752 14.0439 54.6888C14.0439 55.2025 14.2542 55.7064 14.6197 56.0697C14.9852 56.433 15.4922 56.642 16.009 56.642C16.5258 56.642 17.0328 56.433 17.3983 56.0697C17.7638 55.7064 17.9741 55.2025 17.9741 54.6888C17.9741 54.1752 17.7638 53.6713 17.3983 53.308Z" fill="#5556BC"/>
<path d="M57.482 65.626H26.3508C25.2655 65.626 24.3857 66.5004 24.3857 67.5791C24.3857 68.6578 25.2655 69.5322 26.3508 69.5322H57.482C58.5673 69.5322 59.447 68.6578 59.447 67.5791C59.4468 66.5004 58.5673 65.626 57.482 65.626Z" fill="#5556BC"/>
<path d="M17.3983 66.1982C17.0328 65.835 16.5258 65.626 16.009 65.626C15.4922 65.626 14.9852 65.835 14.6197 66.1982C14.2542 66.5615 14.0439 67.0654 14.0439 67.5791C14.0439 68.0928 14.2542 68.5967 14.6197 68.96C14.9852 69.3232 15.4922 69.5322 16.009 69.5322C16.5258 69.5322 17.0328 69.3232 17.3983 68.96C17.7638 68.5967 17.9741 68.0928 17.9741 67.5791C17.9741 67.0654 17.7638 66.5615 17.3983 66.1982Z" fill="#5556BC"/>
<path d="M57.482 78.5162H26.3508C25.2655 78.5162 24.3857 79.3906 24.3857 80.4694C24.3857 81.5481 25.2655 82.4225 26.3508 82.4225H57.482C58.5673 82.4225 59.447 81.5481 59.447 80.4694C59.447 79.3906 58.5673 78.5162 57.482 78.5162Z" fill="#5556BC"/>
<path d="M17.3983 79.0885C17.0328 78.7252 16.5258 78.5162 16.009 78.5162C15.4922 78.5162 14.9852 78.7252 14.6197 79.0885C14.2542 79.4518 14.0439 79.9557 14.0439 80.4694C14.0439 80.983 14.2542 81.4869 14.6197 81.8502C14.9852 82.2135 15.4922 82.4225 16.009 82.4225C16.5258 82.4225 17.0328 82.2135 17.3983 81.8502C17.7638 81.4869 17.9741 80.983 17.9741 80.4694C17.9741 79.9557 17.7638 79.4518 17.3983 79.0885Z" fill="#5556BC"/>
</svg>
