<svg width="62" height="11" viewBox="0 0 62 11" fill="none" xmlns="http://www.w3.org/2000/svg">
<path fill-rule="evenodd" clip-rule="evenodd" d="M5.6362 11C2.5233 11 0 8.53779 0 5.50025C0 2.46221 2.5233 0 5.6362 0C8.74961 0 11.2729 2.46221 11.2729 5.50025C11.2729 8.53779 8.74961 11 5.6362 11ZM31.9394 11C28.826 11 26.3032 8.53779 26.3032 5.50025C26.3032 2.46221 28.8265 0 31.9394 0C35.0523 0 37.5756 2.46221 37.5756 5.50025C37.5756 8.53779 35.0523 11 31.9394 11ZM56.3633 11C53.2504 11 50.7271 8.53779 50.7271 5.50025C50.7271 2.46221 53.2504 0 56.3633 0C59.4767 0 62 2.46221 62 5.50025C62 8.53779 59.4767 11 56.3633 11Z" fill="#5556BC"/>
</svg>
