<svg width="109" height="89" viewBox="0 0 109 89" fill="none" xmlns="http://www.w3.org/2000/svg">
<path fill-rule="evenodd" clip-rule="evenodd" d="M87.03 61.6303H58.0201C56.9322 61.6303 56.2068 60.9051 56.207 59.8178V43.5046C56.207 42.4171 56.9322 41.6921 58.0201 41.6921H87.03C88.1179 41.6921 88.8431 42.4171 88.8431 43.5046V59.8178C88.8431 60.9053 88.1179 61.6303 87.03 61.6303ZM85.217 45.3171H59.8331V58.0051H85.217V45.3171Z" fill="#5556BC"/>
<path d="M9.06598 38.0668H23.5711C24.6589 38.0668 25.3841 37.3418 25.3841 36.2543C25.3841 35.1667 24.6589 34.4418 23.5711 34.4418H9.06598C7.97811 34.4418 7.25293 35.1667 7.25293 36.2543C7.25293 37.3418 7.97811 38.0668 9.06598 38.0668Z" fill="#5556BC"/>
<path d="M30.8228 38.0668H45.3279C46.4158 38.0668 47.1409 37.3418 47.1409 36.2543C47.1409 35.1667 46.4158 34.4418 45.3279 34.4418H30.8228C29.7349 34.4418 29.0098 35.1667 29.0098 36.2543C29.0098 37.3418 29.7349 38.0668 30.8228 38.0668Z" fill="#5556BC"/>
<path d="M9.06598 45.3171H32.6365C33.7244 45.3171 34.4496 44.5922 34.4496 43.5046C34.4496 42.4171 33.7244 41.6921 32.6365 41.6921H9.06598C7.97811 41.6921 7.25293 42.4171 7.25293 43.5046C7.25293 44.5922 7.97811 45.3171 9.06598 45.3171Z" fill="#5556BC"/>
<path d="M45.3276 41.6919H39.8882C38.8004 41.6919 38.0752 42.4169 38.0752 43.5044C38.0752 44.5919 38.8004 45.3169 39.8882 45.3169H45.3276C46.4155 45.3169 47.1407 44.5919 47.1407 43.5044C47.1407 42.4169 46.4155 41.6919 45.3276 41.6919Z" fill="#5556BC"/>
<path fill-rule="evenodd" clip-rule="evenodd" d="M107.156 19.2161C105.887 17.5848 104.255 16.6784 102.26 16.4972L97.9088 15.97V10.8781V7.25314C97.9088 3.26555 94.6451 0.00292969 90.6563 0.00292969H7.25243C3.26363 0.00271728 0 3.26534 0 7.25314V10.8783V25.379V65.2554C0 68.5293 2.20061 71.313 5.19567 72.2051C5.1043 75.8717 7.87945 79.0549 11.6041 79.3935L95.3705 88.8188H96.0957C99.722 88.8188 102.986 86.0999 103.348 82.6561L108.788 24.4726C108.969 22.6599 108.425 20.666 107.156 19.2161ZM3.62632 12.6908H94.2827V17.4036V23.5663H3.62632V12.6908ZM90.6561 3.62793H7.25243C5.25813 3.62793 3.62632 5.25924 3.62632 7.25314V9.06564H94.2824V7.25314C94.2824 5.25924 92.6506 3.62793 90.6561 3.62793ZM3.62632 65.2552V27.1913H94.2827V65.2552C94.2827 67.2491 92.6508 68.8804 90.6563 68.8804H7.43388H7.25264C5.25813 68.8804 3.62632 67.2491 3.62632 65.2552ZM99.7218 81.9309L105.161 23.7475C105.343 22.8411 104.98 21.7536 104.436 21.0286C103.892 20.3036 102.985 19.7599 102.079 19.7599L97.9086 19.3973V25.3788V65.2554C97.9086 69.243 94.6449 72.5056 90.6561 72.5056H8.88424C9.06549 74.137 10.3348 75.5871 12.1479 75.7683L95.733 85.1936C97.7273 85.3747 99.5406 83.9248 99.7218 81.9309Z" fill="#5556BC"/>
</svg>
