<svg width="76" height="72" viewBox="0 0 76 72" fill="none" xmlns="http://www.w3.org/2000/svg">
<path d="M60.6852 71.2064C61.2127 71.7355 61.8955 72 62.5937 72C63.2609 72 63.9436 71.751 64.4557 71.2375L75.2087 60.687C75.7207 60.189 76 59.5043 76 58.773C76 58.0416 75.7052 57.3724 75.2087 56.8589L64.4557 46.3084C63.4006 45.2814 61.7248 45.2969 60.6852 46.3395C59.6611 47.3977 59.6766 49.0783 60.7162 50.1209L66.7987 56.0964H60.049C55.9371 56.0964 52.0735 54.2758 49.4202 51.1168L25.9902 19.1385C22.4059 14.05 16.5561 11 10.3495 11H2.65333C1.17926 11 0 12.1982 0 13.6765C0 15.1548 1.19477 16.3375 2.65333 16.3375H10.3495C14.8338 16.3375 19.0698 18.5316 21.6766 22.2508L45.1997 54.3536C45.2307 54.4003 45.2617 54.4314 45.2928 54.4781C48.9547 58.913 54.3234 61.465 60.0645 61.465H66.8142L60.7317 67.4406C59.6611 68.4676 59.6456 70.1482 60.6852 71.2064Z" fill="#5556BC"/>
<path d="M75.2026 11.3919L64.3041 0.760849C63.2408 -0.266456 61.5521 -0.25089 60.5045 0.79198C59.4725 1.85042 59.4881 3.53146 60.5358 4.57433L66.7433 10.6292H59.9416C54.1718 10.6292 48.746 13.1663 45.0559 17.6024C45.0246 17.6336 44.9933 17.6803 44.9621 17.7269L40.5214 23.7507C39.6457 24.9336 39.8959 26.6147 41.0999 27.4863C41.5846 27.8288 42.1319 28 42.6792 28C43.5079 28 44.321 27.6264 44.837 26.9104L49.2308 20.9645C51.8889 17.7892 55.7823 15.9836 59.9416 15.9836H66.7433L60.5358 22.0385C59.4725 23.0658 59.4569 24.7624 60.5045 25.8209C61.0361 26.3501 61.7241 26.6147 62.4277 26.6147C63.1001 26.6147 63.7881 26.3657 64.3041 25.852L75.2026 15.2209C75.7185 14.7229 76 14.038 76 13.3064C76 12.5749 75.7185 11.89 75.2026 11.3919Z" fill="#5556BC"/>
<path d="M25.6725 52.7095L29.4889 47.3413C30.3472 46.1343 30.102 44.419 28.9218 43.5296C27.757 42.6402 26.1017 42.8943 25.2434 44.1172L21.4117 49.5331C21.3963 49.5648 21.381 49.5807 21.3657 49.6125C18.8061 53.3289 14.6372 55.5524 10.223 55.5524H2.6209C1.16484 55.5524 0 56.7753 0 58.2841C0 59.793 1.18017 61 2.6209 61H10.223C16.3538 61 22.132 57.903 25.6725 52.7095Z" fill="#5556BC"/>
</svg>
