<svg width="33" height="31" viewBox="0 0 33 31" fill="none" xmlns="http://www.w3.org/2000/svg">
<path fill-rule="evenodd" clip-rule="evenodd" d="M0.582755 14.8642L8.18663 17.9264L11.13 28.1384C11.3179 28.7926 12.0597 29.0343 12.5517 28.6002L16.79 24.8723C17.2343 24.4817 17.8669 24.4621 18.3315 24.826L25.9762 30.8145C26.5026 31.2271 27.2481 30.916 27.3802 30.2299L32.9806 1.16532C33.1246 0.416134 32.4419 -0.209767 31.7802 0.0666143L0.57423 13.0551C-0.196044 13.3755 -0.189581 14.5519 0.582755 14.8642ZM10.7126 15.8497L25.601 6.04433C25.8685 5.86889 26.144 6.25556 25.9142 6.48343L13.6264 18.6968C13.195 19.1266 12.9162 19.7019 12.8371 20.3262L12.419 23.6428C12.3635 24.0859 11.7819 24.1297 11.6673 23.7015L10.0577 17.653C9.87314 16.963 10.1418 16.2265 10.7126 15.8497Z" fill="white"/>
</svg>
