<svg width="986" height="673" viewBox="0 0 986 673" fill="none" xmlns="http://www.w3.org/2000/svg" id="top__img" class="top__img-img">
<g >
<path id="top__img-shadow1" fill-rule="evenodd" clip-rule="evenodd" d="M565.403 499.521L170.272 516.945L0.59668 422.475L510.896 395.732L565.403 499.521Z" fill="url(#paint0_linear)" style="opacity: 0;"/>
<path id="top__img-rec8" style="opacity: 0;" class="top__img-rec" opacity="0.35119" fill-rule="evenodd" clip-rule="evenodd" d="M224.343 423.677C229.219 426.341 229.219 430.659 224.343 433.323L182.828 456.002C177.952 458.666 170.048 458.666 165.172 456.002L123.657 433.323C118.781 430.659 118.781 426.341 123.657 423.677L165.172 400.998C170.048 398.334 177.952 398.334 182.828 400.998L224.343 423.677Z" fill="#5F60B7"/>
<path id="top__img-rec7" style="opacity: 0;" class="top__img-rec" opacity="0.5" fill-rule="evenodd" clip-rule="evenodd" d="M391.499 299.917C400.167 304.657 400.167 312.343 391.499 317.083L317.694 357.445C309.027 362.185 294.973 362.185 286.306 357.445L212.501 317.083C203.833 312.343 203.833 304.657 212.501 299.917L286.306 259.555C294.973 254.815 309.027 254.815 317.694 259.555L391.499 299.917Z" fill="#5F60B7"/>
<path id="top__img-rec6" style="opacity: 0;" class="top__img-rec" opacity="0.35119" fill-rule="evenodd" clip-rule="evenodd" d="M507.343 171.677C512.219 174.341 512.219 178.659 507.343 181.323L465.828 204.002C460.952 206.666 453.048 206.666 448.172 204.002L406.657 181.323C401.781 178.659 401.781 174.341 406.657 171.677L448.172 148.998C453.048 146.334 460.952 146.334 465.828 148.998L507.343 171.677Z" fill="#5F60B7"/>
<path id="top__img-rec5" style="opacity: 0;" class="top__img-rec" opacity="0.077474" fill-rule="evenodd" clip-rule="evenodd" d="M458.63 561.894C461.79 563.609 461.79 566.391 458.63 568.106L431.722 582.713C428.562 584.429 423.438 584.429 420.278 582.713L393.37 568.106C390.21 566.391 390.21 563.609 393.37 561.894L420.278 547.287C423.438 545.571 428.562 545.571 431.722 547.287L458.63 561.894Z" fill="#5F60B7"/>
<path id="top__img-rec4" style="opacity: 0;" class="top__img-rec" opacity="0.104097" fill-rule="evenodd" clip-rule="evenodd" d="M979.499 377.917C988.167 382.657 988.167 390.343 979.499 395.083L905.694 435.445C897.027 440.185 882.973 440.185 874.306 435.445L800.501 395.083C791.833 390.343 791.833 382.657 800.501 377.917L874.306 337.555C882.973 332.815 897.027 332.815 905.694 337.555L979.499 377.917Z" fill="#5F60B7"/>
<path id="top__img-rec3" style="opacity: 0;" class="top__img-rec" opacity="0.35119" fill-rule="evenodd" clip-rule="evenodd" d="M832.343 193.677C837.219 196.341 837.219 200.659 832.343 203.323L790.828 226.002C785.952 228.666 778.048 228.666 773.172 226.002L731.657 203.323C726.781 200.659 726.781 196.341 731.657 193.677L773.172 170.998C778.048 168.334 785.952 168.334 790.828 170.998L832.343 193.677Z" fill="#5F60B7"/>
<path id="top__img-rec2" style="opacity: 0;" class="top__img-rec" opacity="0.35119" fill-rule="evenodd" clip-rule="evenodd" d="M889.562 93.3121C892.813 95.0727 892.813 97.9273 889.562 99.6879L861.885 114.68C858.635 116.44 853.365 116.44 850.115 114.68L822.438 99.6879C819.187 97.9273 819.187 95.0727 822.438 93.3121L850.115 78.3205C853.365 76.5598 858.635 76.5598 861.885 78.3205L889.562 93.3121Z" fill="#5F60B7"/>
<path id="top__img-rec1" style="opacity: 0;" class="top__img-rec" opacity="0.077474" fill-rule="evenodd" clip-rule="evenodd" d="M845.343 560.677C850.219 563.341 850.219 567.659 845.343 570.323L803.828 593.002C798.952 595.666 791.048 595.666 786.172 593.002L744.657 570.323C739.781 567.659 739.781 563.341 744.657 560.677L786.172 537.998C791.048 535.334 798.952 535.334 803.828 537.998L845.343 560.677Z" fill="#5F60B7"/>
<g id="top__img-platform" style="opacity: 0;">
<path id="top__img-platform2" fill-rule="evenodd" clip-rule="evenodd" d="M533.458 351.481C557.371 337.107 587.14 336.601 611.528 350.153L774.624 440.782L775.344 441.182C791.804 450.328 791.801 474.001 775.339 483.142L624.557 566.878C600.673 580.142 571.591 579.943 547.89 566.354L393.007 477.549C377.115 468.437 376.879 445.597 392.581 436.159L533.458 351.481Z" fill="url(#paint1_linear)"/>
<g id="top__img-platform1">
<path id="top__img-platform4" fill-rule="evenodd" clip-rule="evenodd" d="M533.458 341.481C557.371 327.107 587.14 326.601 611.528 340.153L775.344 431.182C791.804 440.328 791.801 464.001 775.339 473.142L624.557 556.878C600.673 570.142 571.591 569.943 547.89 556.354L393.007 467.549C377.115 458.437 376.879 435.597 392.581 426.159L533.458 341.481Z" fill="url(#paint2_linear)"/>
<path id="top__img-shadow2" opacity="0.51237" fill-rule="evenodd" clip-rule="evenodd" d="M660 489.608L453.788 502.691L397 470C397 470 382 463 381 447C381 435 393 426 393 426L455 389L510 386.465L660 489.608Z" fill="#302F86" style="opacity: 0;"/>
<path id="top__img-platform3" fill-rule="evenodd" clip-rule="evenodd" d="M765.465 438.958L612.512 353.742C588.136 340.162 558.362 340.637 534.432 354.989L403.233 433.673C401.039 434.989 399.218 436.844 397.943 439.062C393.815 446.245 396.291 455.414 403.473 459.542L547.941 542.579C571.626 556.192 600.706 556.423 624.604 543.186L765.433 465.183C767.883 463.826 769.905 461.809 771.268 459.362C775.3 452.125 772.702 442.99 765.465 438.958ZM534.946 355.846C558.569 341.679 587.962 341.209 612.025 354.616L764.978 439.831C771.733 443.594 774.158 452.121 770.395 458.875C769.122 461.159 767.235 463.041 764.948 464.308L624.119 542.311C600.528 555.378 571.82 555.151 548.44 541.712L403.971 458.675C397.268 454.822 394.957 446.264 398.81 439.561C400 437.49 401.699 435.759 403.747 434.531L534.946 355.846Z" fill="#7475D9"/>
</g>
</g>
<g id="top__img-phone-block" style="opacity: 0;">
<g id="top__img-phone">
<g id="top__img-phone8">
<g id="Mask" filter="url(#filter0_i)">
<path fill-rule="evenodd" clip-rule="evenodd" d="M500.296 56.995V376.995C500.963 395.662 507.963 408.995 521.296 416.995C534.63 424.995 576.963 449.662 648.296 490.995C658.296 495.995 667.63 495.662 672.296 492.995C679.296 488.995 685.296 484.77 685.296 467.995C685.296 456.811 685.296 341.478 685.296 121.995C685.296 99.995 677.63 84.995 660.296 74.995C642.963 64.995 601.296 40.995 535.296 2.99496C526.296 -2.00504 514.63 -0.338375 509.296 4.99496C503.963 10.3283 500.963 17.3283 500.296 25.995C499.63 34.6616 500.296 48.3027 500.296 56.995Z" fill="url(#paint3_linear)"/>
<path fill-rule="evenodd" clip-rule="evenodd" d="M500.296 56.995V376.995C500.963 395.662 507.963 408.995 521.296 416.995C534.63 424.995 576.963 449.662 648.296 490.995C658.296 495.995 667.63 495.662 672.296 492.995C679.296 488.995 685.296 484.77 685.296 467.995C685.296 456.811 685.296 341.478 685.296 121.995C685.296 99.995 677.63 84.995 660.296 74.995C642.963 64.995 601.296 40.995 535.296 2.99496C526.296 -2.00504 514.63 -0.338375 509.296 4.99496C503.963 10.3283 500.963 17.3283 500.296 25.995C499.63 34.6616 500.296 48.3027 500.296 56.995Z" fill="url(#paint4_linear)"/>
</g>
<mask id="mask0" mask-type="alpha" maskUnits="userSpaceOnUse" x="500" y="0" width="186" height="495">
<g id="Mask_2">
<path fill-rule="evenodd" clip-rule="evenodd" d="M500.296 56.995V376.995C500.963 395.662 507.963 408.995 521.296 416.995C534.63 424.995 576.963 449.662 648.296 490.995C658.296 495.995 667.63 495.662 672.296 492.995C679.296 488.995 685.296 484.77 685.296 467.995C685.296 456.811 685.296 341.478 685.296 121.995C685.296 99.995 677.63 84.995 660.296 74.995C642.963 64.995 601.296 40.995 535.296 2.99496C526.296 -2.00504 514.63 -0.338375 509.296 4.99496C503.963 10.3283 500.963 17.3283 500.296 25.995C499.63 34.6616 500.296 48.3027 500.296 56.995Z" fill="white"/>
<path fill-rule="evenodd" clip-rule="evenodd" d="M500.296 56.995V376.995C500.963 395.662 507.963 408.995 521.296 416.995C534.63 424.995 576.963 449.662 648.296 490.995C658.296 495.995 667.63 495.662 672.296 492.995C679.296 488.995 685.296 484.77 685.296 467.995C685.296 456.811 685.296 341.478 685.296 121.995C685.296 99.995 677.63 84.995 660.296 74.995C642.963 64.995 601.296 40.995 535.296 2.99496C526.296 -2.00504 514.63 -0.338375 509.296 4.99496C503.963 10.3283 500.963 17.3283 500.296 25.995C499.63 34.6616 500.296 48.3027 500.296 56.995Z" stroke="white"/>
</g>
</mask>
<g mask="url(#mask0)">
<path id="Path 18" d="M500.524 22.0965L500.067 21.8934C502.765 15.8242 506.158 12.4312 510.255 11.7484C514.312 11.0722 517.373 11.4123 519.417 12.7764L546.421 27.7786L641.428 82.783C652.129 89.4706 659.492 96.4995 663.515 103.875C666.273 108.931 667.949 115.359 668.546 123.176V479.995C668.546 484.745 666.838 488.161 663.424 490.209C660.038 492.241 655.318 492.916 649.268 492.243L649.323 491.746C655.274 492.408 659.887 491.749 663.167 489.781C666.421 487.828 668.046 484.578 668.046 479.995V146.742L668.047 123.195C667.455 115.463 665.797 109.103 663.076 104.115C659.099 96.8237 651.796 89.8526 641.171 83.2113L546.174 28.2135L519.157 13.203C517.219 11.9109 514.28 11.5844 510.337 12.2416C506.434 12.8921 503.16 16.1657 500.524 22.0965Z" fill="url(#paint5_linear)"/>
<path id="Path 18_2" d="M500.526 21.0934L500.066 20.8965C502.086 16.1844 504.786 12.8098 508.168 10.7806C511.565 8.74213 515.308 8.4019 519.418 9.77642L546.421 24.7786L641.416 79.7755C648.775 83.7893 655.463 89.1404 661.482 95.8277C667.522 102.539 670.911 111.452 671.652 122.576V143.742V476.996C671.617 483.451 669.921 487.871 666.545 490.232C661.749 493.585 655.978 494.586 649.247 493.24L649.345 492.75C655.948 494.07 661.58 493.093 666.258 489.822C669.48 487.569 671.118 483.301 671.152 476.995V143.742L671.152 122.592C670.419 111.592 667.071 102.785 661.11 96.1622C655.129 89.5162 648.485 84.2006 641.171 80.2113L546.175 25.2135L519.217 10.2321C515.285 8.92136 511.694 9.2478 508.425 11.2093C505.14 13.1801 502.507 16.4722 500.526 21.0934Z" fill="url(#paint6_linear)"/>
</g>
</g>
<g id="top__img-phone7">
<path id="Mask_3" fill-rule="evenodd" clip-rule="evenodd" d="M679.796 214.338C681.729 213.585 683.296 214.571 683.296 216.54V242.011C683.296 243.98 681.729 245.789 679.796 246.051C677.863 246.314 676.296 245.017 676.296 243.155V219.073C676.296 217.211 677.863 215.091 679.796 214.338Z" fill="#BDBDD6"/>
<path id="Mask_4" fill-rule="evenodd" clip-rule="evenodd" d="M680.796 214.333C682.729 213.594 684.296 214.562 684.296 216.495V241.495C684.296 243.428 682.729 245.204 680.796 245.461C678.863 245.718 677.296 244.445 677.296 242.617V218.981C677.296 217.153 678.863 215.073 680.796 214.333Z" fill="url(#paint7_linear)"/>
<mask id="mask1" mask-type="alpha" maskUnits="userSpaceOnUse" x="677" y="214" width="8" height="32">
<path id="Mask_5" fill-rule="evenodd" clip-rule="evenodd" d="M680.796 214.333C682.729 213.594 684.296 214.562 684.296 216.495V241.495C684.296 243.428 682.729 245.204 680.796 245.461C678.863 245.718 677.296 244.445 677.296 242.617V218.981C677.296 217.153 678.863 215.073 680.796 214.333Z" fill="white"/>
</mask>
<g mask="url(#mask1)">
<path id="Rectangle" fill-rule="evenodd" clip-rule="evenodd" d="M681.796 215.333C683.177 214.594 684.296 215.562 684.296 217.495V242.495C684.296 244.428 683.177 246.204 681.796 246.461C680.415 246.718 679.296 245.445 679.296 243.617V219.981C679.296 218.153 680.415 216.073 681.796 215.333Z" fill="white"/>
</g>
</g>
<g id="top__img-phone6">
<path id="Mask_6" fill-rule="evenodd" clip-rule="evenodd" d="M679.796 177.338C681.729 176.585 683.296 177.571 683.296 179.54V205.011C683.296 206.98 681.729 208.789 679.796 209.051C677.863 209.314 676.296 208.017 676.296 206.155V182.073C676.296 180.211 677.863 178.091 679.796 177.338Z" fill="#BDBDD6"/>
<path id="Mask_7" fill-rule="evenodd" clip-rule="evenodd" d="M680.796 177.333C682.729 176.594 684.296 177.562 684.296 179.495V204.495C684.296 206.428 682.729 208.204 680.796 208.461C678.863 208.718 677.296 207.445 677.296 205.617V181.981C677.296 180.153 678.863 178.073 680.796 177.333Z" fill="url(#paint8_linear)"/>
<mask id="mask2" mask-type="alpha" maskUnits="userSpaceOnUse" x="677" y="177" width="8" height="32">
<path id="Mask_8" fill-rule="evenodd" clip-rule="evenodd" d="M680.796 177.333C682.729 176.594 684.296 177.562 684.296 179.495V204.495C684.296 206.428 682.729 208.204 680.796 208.461C678.863 208.718 677.296 207.445 677.296 205.617V181.981C677.296 180.153 678.863 178.073 680.796 177.333Z" fill="white"/>
</mask>
<g mask="url(#mask2)">
<path id="Rectangle_2" fill-rule="evenodd" clip-rule="evenodd" d="M681.796 178.333C683.177 177.594 684.296 178.562 684.296 180.495V205.495C684.296 207.428 683.177 209.204 681.796 209.461C680.415 209.718 679.296 208.445 679.296 206.617V182.981C679.296 181.153 680.415 179.073 681.796 178.333Z" fill="white"/>
</g>
</g>
<path id="top__img-phone5" fill-rule="evenodd" clip-rule="evenodd" d="M680.124 147.967L682.609 146.814C683.066 146.601 683.437 146.877 683.437 147.429V161.762C683.437 162.314 683.066 162.934 682.609 163.146L680.296 163.995C679.839 164.207 679.296 163.547 679.296 162.995V149.352C679.296 148.8 679.667 148.18 680.124 147.967Z" fill="#C3C3D3"/>
<g id="top__img-phone4">
<path id="Mask_9" fill-rule="evenodd" clip-rule="evenodd" d="M679.796 148.121C680.624 147.745 681.296 148.238 681.296 149.223V161.958C681.296 162.943 680.624 163.847 679.796 163.978C678.967 164.109 678.296 163.461 678.296 162.53V150.489C678.296 149.558 678.967 148.498 679.796 148.121Z" fill="#C3C3D3"/>
<path id="Mask_10" fill-rule="evenodd" clip-rule="evenodd" d="M680.796 148.121C681.624 147.745 682.296 148.238 682.296 149.223V161.958C682.296 162.943 681.624 163.847 680.796 163.978C679.967 164.109 679.296 163.461 679.296 162.53V150.489C679.296 149.558 679.967 148.498 680.796 148.121Z" fill="url(#paint9_linear)"/>
<mask id="mask3" mask-type="alpha" maskUnits="userSpaceOnUse" x="679" y="147" width="4" height="17">
<path id="Mask_11" fill-rule="evenodd" clip-rule="evenodd" d="M680.796 148.121C681.624 147.745 682.296 148.238 682.296 149.223V161.958C682.296 162.943 681.624 163.847 680.796 163.978C679.967 164.109 679.296 163.461 679.296 162.53V150.489C679.296 149.558 679.967 148.498 680.796 148.121Z" fill="white"/>
</mask>
<g mask="url(#mask3)">
<path id="Rectangle_3" fill-rule="evenodd" clip-rule="evenodd" d="M680.796 148.121C681.624 147.745 682.296 148.238 682.296 149.223V161.958C682.296 162.943 681.624 163.847 680.796 163.978C679.967 164.109 679.296 163.461 679.296 162.53V150.489C679.296 149.558 679.967 148.498 680.796 148.121Z" fill="#F3F3F3"/>
</g>
</g>
<g id="top__img-phone3">
<path id="Mask_12" fill-rule="evenodd" clip-rule="evenodd" d="M566.523 55.2689C567.558 54.5448 567.369 52.4909 566.102 50.6813C564.834 48.8716 562.969 47.9916 561.935 48.7157C560.901 49.4397 561.09 51.4937 562.357 53.3033C563.624 55.1129 565.489 55.993 566.523 55.2689Z" fill="#C2C3CA"/>
<mask id="mask4" mask-type="alpha" maskUnits="userSpaceOnUse" x="561" y="48" width="7" height="8">
<path id="Mask_13" fill-rule="evenodd" clip-rule="evenodd" d="M566.523 55.2689C567.558 54.5448 567.369 52.4909 566.102 50.6813C564.834 48.8716 562.969 47.9916 561.935 48.7157C560.901 49.4397 561.09 51.4937 562.357 53.3033C563.624 55.1129 565.489 55.993 566.523 55.2689Z" fill="white"/>
</mask>
<g mask="url(#mask4)">
<path id="Oval" fill-rule="evenodd" clip-rule="evenodd" d="M567.523 54.2689C568.558 53.5448 568.369 51.4909 567.102 49.6813C565.834 47.8716 563.969 46.9916 562.935 47.7157C561.901 48.4397 562.09 50.4937 563.357 52.3033C564.624 54.1129 566.489 54.993 567.523 54.2689Z" fill="#D1D2DA"/>
<path id="Oval_2" fill-rule="evenodd" clip-rule="evenodd" d="M566.376 52.6306C566.829 52.3138 566.682 51.3235 566.048 50.4187C565.415 49.5139 564.534 49.0372 564.082 49.354C563.629 49.6708 563.776 50.6611 564.41 51.5659C565.043 52.4707 565.924 52.9474 566.376 52.6306Z" fill="#BABAD5"/>
</g>
</g>
<path id="top__img-phone2" fill-rule="evenodd" clip-rule="evenodd" d="M506.296 32.995C506.296 32.995 506.296 22.995 511.296 20.995C515.296 18.995 521.296 21.995 521.296 21.995L538.296 31.995C538.296 31.995 540.296 32.995 540.296 35.995C540.296 38.995 541.296 47.995 551.296 53.995C561.296 59.995 619.296 92.995 619.296 92.995C619.296 92.995 626.296 95.995 626.296 88.995C626.296 81.995 630.296 84.995 630.296 84.995L644.296 92.995C644.296 92.995 660.296 102.995 661.296 119.995C662.296 136.995 661.296 175.995 661.296 175.995V385.995V474.995C661.296 474.995 660.296 489.995 648.296 483.995C636.296 477.995 582.296 446.995 582.296 446.995L521.296 410.995C521.296 410.995 507.296 400.995 506.296 385.995C505.296 370.995 506.296 32.995 506.296 32.995Z" fill="white"/>
<g id="top__img-phone1">
<path id="Mask_14" fill-rule="evenodd" clip-rule="evenodd" d="M572.546 56.6169C572.546 58.1031 574.055 58.8479 574.055 58.8479L591.949 69.5099C591.949 69.5099 593.682 70.2133 593.682 68.7498C593.682 67.7498 593.296 66.995 592.296 66.6346C590.296 65.6346 574.475 56.135 574.475 56.135C574.475 56.135 572.546 55.6169 572.546 56.6169Z" fill="#C2C3CA"/>
<mask id="mask5" mask-type="alpha" maskUnits="userSpaceOnUse" x="572" y="56" width="22" height="14">
<path id="Mask_15" fill-rule="evenodd" clip-rule="evenodd" d="M572.546 56.6169C572.546 58.1031 574.055 58.8479 574.055 58.8479L591.949 69.5099C591.949 69.5099 593.682 70.2133 593.682 68.7498C593.682 67.7498 593.296 66.995 592.296 66.6346C590.296 65.6346 574.475 56.135 574.475 56.135C574.475 56.135 572.546 55.6169 572.546 56.6169Z" fill="white"/>
</mask>
<g mask="url(#mask5)">
<path id="Path 17" fill-rule="evenodd" clip-rule="evenodd" d="M572.546 55.6169C572.546 57.1031 574.055 57.8479 574.055 57.8479L591.949 68.5099C591.949 68.5099 593.682 69.2133 593.682 67.7498C593.682 66.7498 593.296 65.995 592.296 65.6346C590.296 64.6346 574.475 55.135 574.475 55.135C574.475 55.135 572.546 54.6169 572.546 55.6169Z" fill="#D1D2DA"/>
</g>
</g>
</g>
<path id="top__img-up" fill-rule="evenodd" clip-rule="evenodd" d="M557.692 187.773V166.057L562.261 175.49C562.484 175.951 562.786 176.307 563.103 176.488C563.42 176.669 563.72 176.656 563.944 176.45L564.654 175.792C564.877 175.585 565 175.211 565 174.736C565 174.261 564.878 173.746 564.654 173.285L556.841 157.125C556.617 156.662 556.318 156.308 556.001 156.128C555.682 155.945 555.384 155.958 555.16 156.166L547.346 163.411C547.123 163.618 547 163.993 547 164.469C547 164.943 547.123 165.458 547.346 165.92L548.055 167.387C548.278 167.848 548.575 168.201 548.892 168.382C549.209 168.563 549.491 168.54 549.714 168.333L554.308 164.049V185.817C554.308 186.795 554.871 187.938 555.524 188.31L556.528 188.883C557.181 189.255 557.699 188.705 557.699 187.727" fill="#E0E1ED"/>
<path id="top__img-down" fill-rule="evenodd" clip-rule="evenodd" d="M600.308 184.227V205.943L595.739 196.51C595.516 196.049 595.214 195.693 594.897 195.512C594.58 195.331 594.28 195.344 594.056 195.55L593.346 196.208C593.123 196.415 593 196.789 593 197.264C593 197.739 593.122 198.254 593.346 198.715L601.159 214.875C601.383 215.338 601.682 215.692 601.999 215.872C602.318 216.055 602.616 216.042 602.84 215.834L610.654 208.589C610.877 208.382 611 208.007 611 207.531C611 207.057 610.877 206.542 610.654 206.08L609.945 204.613C609.722 204.152 609.425 203.799 609.108 203.618C608.791 203.437 608.509 203.46 608.286 203.667L603.692 207.951V186.183C603.692 185.205 603.129 184.062 602.476 183.69L601.472 183.117C600.819 182.745 600.301 183.295 600.301 184.273" fill="#E0E1ED"/>
<g id="top__img-btn">
<path id="Rectangle_4" fill-rule="evenodd" clip-rule="evenodd" d="M526.5 375.515L642.5 440.865C649.956 445.066 656 454.515 656 461.971C656 469.427 649.956 475.066 642.5 470.865L524.5 403.496C517.044 399.296 513 391.865 513 384.409C513 376.953 519.044 371.314 526.5 375.515Z" fill="#FFCE49"/>
<path id="Exchange" fill-rule="evenodd" clip-rule="evenodd" d="M564.688 414.383V415.609L560 413.027V403.909L564.688 406.491V407.711L561.146 405.76V408.427L564.499 410.273V411.448L561.146 409.602V412.432L564.688 414.383ZM567.749 414.849L567.723 414.835L566.531 416.624L565.333 415.964L567.109 413.625L565.359 409.331L566.597 410.013L567.774 413.069L567.795 413.08L568.957 411.313L570.175 411.984L568.409 414.297L570.154 418.619L568.936 417.949L567.749 414.849ZM574.438 416.619L575.492 417.2C575.395 415.838 574.55 414.274 573.164 413.51C571.633 412.667 570.63 413.448 570.63 415.558C570.63 417.706 571.633 419.56 573.174 420.409C574.469 421.122 575.385 420.666 575.502 419.316L574.438 418.729C574.31 419.43 573.865 419.646 573.184 419.271C572.324 418.797 571.756 417.638 571.756 416.178C571.756 414.75 572.319 414.182 573.174 414.653C573.895 415.05 574.325 415.849 574.438 416.619ZM576.326 422.019V412.901L577.422 413.504V417.087L577.447 417.101C577.744 416.487 578.333 416.363 579.152 416.814C580.334 417.465 581.04 418.827 581.04 420.331V424.615L579.93 424.003V419.985C579.93 419.005 579.53 418.198 578.752 417.769C577.933 417.318 577.432 417.737 577.432 418.786V422.628L576.326 422.019ZM585.365 424.507C585.365 425.373 584.761 425.697 583.988 425.272C583.394 424.945 583.005 424.352 583.005 423.77C583.005 423.202 583.379 423.047 584.039 423.354L585.365 423.983V424.507ZM583.681 426.183C582.627 425.603 581.89 424.388 581.89 423.194C581.89 422.031 582.611 421.714 583.891 422.331L585.365 423.035V422.523C585.365 421.784 584.961 421.119 584.285 420.747C583.645 420.395 583.246 420.554 583.149 421.094L582.105 420.519C582.166 419.353 582.995 418.925 584.326 419.657C585.631 420.376 586.465 421.689 586.465 423.022V427.603L585.406 427.019V425.926L585.38 425.912C585.068 426.48 584.387 426.572 583.681 426.183ZM587.535 421.545V428.192L588.64 428.801V424.928C588.64 423.898 589.142 423.491 589.92 423.92C590.688 424.343 591.066 425.101 591.066 426.099V430.137L592.177 430.749V426.446C592.177 424.923 591.496 423.613 590.309 422.959C589.48 422.502 588.906 422.654 588.615 423.252L588.589 423.238V422.126L587.535 421.545ZM595.534 431.492C596.399 431.968 596.967 431.416 596.967 430.045C596.967 428.68 596.399 427.47 595.534 426.993C594.685 426.525 594.132 427.099 594.132 428.483C594.132 429.873 594.685 431.024 595.534 431.492ZM593.195 431.828C593.334 433.054 594.275 434.407 595.545 435.106C597.08 435.951 598.073 435.462 598.073 433.876V427.349L596.998 426.757V427.894L596.978 427.883C596.65 426.932 596.026 426.114 595.263 425.694C593.881 424.933 593.001 425.762 593.001 427.854C593.001 429.926 593.886 431.715 595.237 432.46C596.005 432.882 596.64 432.758 596.942 432.204L596.962 432.215V433.308C596.962 434.218 596.45 434.543 595.585 434.067C594.956 433.72 594.465 433.083 594.306 432.439L593.195 431.828ZM601.415 430.169C600.642 429.743 600.1 430.171 600.043 431.145L602.735 432.627C602.71 431.596 602.188 430.594 601.415 430.169ZM603.779 435.186L602.73 434.609C602.582 435.108 602.116 435.243 601.487 434.897C600.601 434.409 600.038 433.334 600.038 432.178V432.096L603.841 434.19V433.723C603.841 431.707 602.909 429.892 601.415 429.069C599.895 428.232 598.922 429.087 598.922 431.172C598.922 433.27 599.879 435.117 601.461 435.988C602.694 436.668 603.626 436.315 603.779 435.186Z" fill="black"/>
</g>
<g id="topCurrencyRUBL" >
<path id="Rectangle_5" opacity="0.04" fill-rule="evenodd" clip-rule="evenodd" d="M531.496 193.398L644.504 258.47C649.748 261.49 654 268.423 654 273.955V297.457C654 302.989 649.748 305.025 644.504 302.005L531.496 236.932C526.252 233.912 522 226.98 522 221.448V197.945C522 192.414 526.252 190.378 531.496 193.398Z" fill="#26272D"/>
<path id="Rectangle_6" fill-rule="evenodd" clip-rule="evenodd" d="M526.496 196.398L639.504 261.47C644.748 264.49 649 271.423 649 276.955V299.354C649 304.885 644.748 306.921 639.504 303.901L526.496 238.829C521.252 235.809 517 228.876 517 223.344L517 200.945C517 195.414 521.252 193.378 526.496 196.398Z" fill="url(#paint10_linear)"/>
<path id="Rectangle_7" fill-rule="evenodd" clip-rule="evenodd" d="M523.496 198.398L636.504 263.47C641.748 266.49 646 273.423 646 278.955V299.943C646 305.475 641.748 307.511 636.504 304.491L523.496 239.419C518.252 236.399 514 229.466 514 223.934V202.945C514 197.414 518.252 195.378 523.496 198.398Z" fill="url(#paint11_linear)"/>
<g id="Combined Shape 3">
<path id="Combined Shape" fill-rule="evenodd" clip-rule="evenodd" d="M521 218.265C521 223.569 524.806 229.766 529.5 232.105C534.194 234.444 538 232.04 538 226.735C538 221.431 534.194 215.234 529.5 212.895C524.806 210.556 521 212.96 521 218.265ZM537.306 226.39C537.306 231.261 533.811 233.469 529.5 231.321C525.189 229.173 521.694 223.482 521.694 218.61C521.694 213.739 525.189 211.531 529.5 213.679C533.811 215.827 537.306 221.518 537.306 226.39ZM531.681 227.311L530.187 224.271C530.125 224.247 530.031 224.204 529.906 224.141L528.256 223.319V225.604L526.898 224.928V217.087L529.906 218.586C530.539 218.901 531.091 219.288 531.561 219.746C532.031 220.205 532.391 220.705 532.642 221.248C532.892 221.791 533.018 222.35 533.018 222.925C533.018 223.515 532.884 223.956 532.615 224.248C532.347 224.54 531.963 224.666 531.462 224.626L533.143 228.04L531.681 227.311ZM531.19 220.861C531.496 221.282 531.65 221.743 531.65 222.244C531.65 222.744 531.496 223.054 531.19 223.174C530.884 223.294 530.435 223.207 529.843 222.912L528.256 222.121V218.996L529.843 219.787C530.435 220.081 530.884 220.44 531.19 220.861Z" fill="#282828"/>
</g>
<path id="Rectangle_8" opacity="0.273763" fill-rule="evenodd" clip-rule="evenodd" d="M591 252.335L633 276.186V280.55L591 256.699V252.335Z" fill="#653F0E"/>
<path id="Rectangle Copy 37" opacity="0.273763" fill-rule="evenodd" clip-rule="evenodd" d="M598 265.636L633 285.851V290.215L598 270V265.636Z" fill="#653F0E"/>
</g>
<g id="topCurrencyS" style="opacity: 0;">
<path id="Rectangle_9" opacity="0.0360863" fill-rule="evenodd" clip-rule="evenodd" d="M531.496 193.398L644.504 258.47C649.748 261.49 654 268.423 654 273.955V297.457C654 302.989 649.748 305.025 644.504 302.005L531.496 236.932C526.252 233.912 522 226.98 522 221.448V197.945C522 192.414 526.252 190.378 531.496 193.398Z" fill="#26272D"/>
<path id="Rectangle_10" fill-rule="evenodd" clip-rule="evenodd" d="M526.496 196.398L639.504 261.47C644.748 264.49 649 271.423 649 276.955V299.354C649 304.885 644.748 306.921 639.504 303.901L526.496 238.829C521.252 235.809 517 228.876 517 223.344L517 200.945C517 195.414 521.252 193.378 526.496 196.398Z" fill="url(#paint12_linear)"/>
<g id="Bitmap">
<path id="Mask_16" fill-rule="evenodd" clip-rule="evenodd" d="M523.496 198.398L636.504 263.47C641.748 266.49 646 273.423 646 278.955V299.943C646 305.475 641.748 307.511 636.504 304.491L523.496 239.419C518.252 236.399 514 229.466 514 223.934V202.945C514 197.414 518.252 195.378 523.496 198.398Z" fill="#57B541"/>
<mask id="mask6" mask-type="alpha" maskUnits="userSpaceOnUse" x="514" y="197" width="132" height="109">
<path id="Mask_17" fill-rule="evenodd" clip-rule="evenodd" d="M523.496 198.398L636.504 263.47C641.748 266.49 646 273.423 646 278.955V299.943C646 305.475 641.748 307.511 636.504 304.491L523.496 239.419C518.252 236.399 514 229.466 514 223.934V202.945C514 197.414 518.252 195.378 523.496 198.398Z" fill="white"/>
</mask>
<g mask="url(#mask6)">
<g id="flaticon1575804624-eps">
<path id="Fill 1" fill-rule="evenodd" clip-rule="evenodd" d="M533.526 224.268C532.769 223.409 531.963 222.621 531.166 221.826C530.704 221.366 530.261 220.885 529.871 220.349C529.101 219.29 529.249 218.392 530.15 218.531C530.405 218.571 530.672 218.692 530.943 218.835C531.987 219.394 532.98 220.166 533.924 221.17C534.395 221.67 534.55 221.691 534.71 221.3C534.877 220.886 535.017 220.448 535.172 220.023C535.276 219.737 535.148 219.434 534.817 219.094C534.211 218.474 533.59 217.92 532.936 217.434C532.083 216.803 532.083 216.799 532.079 215.949C532.075 214.753 532.075 214.753 530.863 214.042C530.688 213.939 530.512 213.832 530.337 213.733C529.771 213.416 529.675 213.458 529.659 214.012C529.651 214.26 529.659 214.516 529.655 214.77C529.651 215.516 529.648 215.502 528.922 215.336C527.168 214.936 526.084 215.481 525.968 217.304C525.865 218.917 526.75 220.568 528.141 222.208C528.998 223.22 529.946 224.076 530.855 225.008C531.21 225.37 531.549 225.746 531.844 226.163C532.717 227.389 532.557 228.481 531.521 228.322C530.967 228.236 530.381 227.951 529.779 227.523C528.85 226.863 527.961 226.101 527.124 225.18C526.634 224.64 526.491 224.622 526.323 225.048C526.18 225.417 526.052 225.799 525.925 226.181C525.753 226.695 525.817 226.878 526.411 227.514C527.168 228.322 527.977 228.982 528.802 229.597C529.448 230.078 529.468 230.118 529.476 230.784C529.48 231.086 529.48 231.389 529.484 231.691C529.488 232.071 529.671 232.4 530.066 232.639C530.512 232.909 530.963 233.174 531.409 233.424C531.776 233.632 531.963 233.545 531.963 233.179C531.963 232.769 531.983 232.367 531.967 231.948C531.947 231.519 532.131 231.414 532.537 231.542C533.474 231.84 534.271 231.812 534.885 231.432C536.591 230.386 535.941 227.006 533.526 224.268Z" fill="white"/>
</g>
</g>
</g>
<path id="Rectangle_11" opacity="0.174619" fill-rule="evenodd" clip-rule="evenodd" d="M591 252.335L633 276.186V280.55L591 256.699V252.335Z" fill="#424242"/>
<path id="Rectangle Copy 37_2" opacity="0.174619" fill-rule="evenodd" clip-rule="evenodd" d="M598 265.636L633 285.851V290.215L598 270V265.636Z" fill="#424242"/>
</g>
<g id="topCurrencyETH" style="opacity: 0;">
<path id="Rectangle_12" opacity="0.0360863" fill-rule="evenodd" clip-rule="evenodd" d="M531.496 193.398L644.504 258.47C649.748 261.49 654 268.423 654 273.955V297.457C654 302.989 649.748 305.025 644.504 302.005L531.496 236.932C526.252 233.912 522 226.98 522 221.448V197.945C522 192.414 526.252 190.378 531.496 193.398Z" fill="#26272D"/>
<path id="Rectangle_13" fill-rule="evenodd" clip-rule="evenodd" d="M526.496 196.398L639.504 261.47C644.748 264.49 649 271.423 649 276.955V299.354C649 304.885 644.748 306.921 639.504 303.901L526.496 238.829C521.252 235.809 517 228.876 517 223.344L517 200.945C517 195.414 521.252 193.378 526.496 196.398Z" fill="url(#paint13_linear)"/>
<path id="Rectangle_14" fill-rule="evenodd" clip-rule="evenodd" d="M523.496 198.398L636.504 263.47C641.748 266.49 646 273.423 646 278.955V299.943C646 305.475 641.748 307.511 636.504 304.491L523.496 239.419C518.252 236.399 514 229.466 514 223.934V202.945C514 197.414 518.252 195.378 523.496 198.398Z" fill="url(#paint14_linear)"/>
<g id="Combined Shape 3_2">
<g id="flaticon1573168739-eps 2">
<path id="flaticon1573168739-eps" fill-rule="evenodd" clip-rule="evenodd" d="M531.575 213.608L530.484 213L526 222.741L530.484 234.392L531.575 235L536 228.317L531.575 213.608ZM530.483 222.174L527.897 222.253L530.483 216.39V222.174ZM530.483 223.956V226.565L528.241 224.01L530.483 223.956ZM531.69 224.629L533.931 227.183L531.69 227.238V224.629ZM534.276 225.81L531.69 222.865V217.063L534.276 225.81ZM531.027 233.129L528.241 225.837L531.032 228.994L533.759 228.947L531.027 233.129Z" fill="white"/>
</g>
</g>
<path id="Rectangle_15" opacity="0.273763" fill-rule="evenodd" clip-rule="evenodd" d="M591 252.335L633 276.186V280.55L591 256.699V252.335Z" fill="#123476"/>
<path id="Rectangle Copy 37_3" opacity="0.273763" fill-rule="evenodd" clip-rule="evenodd" d="M598 265.636L633 285.851V290.215L598 270V265.636Z" fill="#123476"/>
</g>
<g id="topCurrencyBIT" >
<path id="Rectangle_16" opacity="0.0360863" fill-rule="evenodd" clip-rule="evenodd" d="M531.496 68.3976L644.504 133.47C649.748 136.49 654 143.423 654 148.955V172.457C654 177.989 649.748 180.025 644.504 177.005L531.496 111.932C526.252 108.912 522 101.98 522 96.448V72.9455C522 67.4137 526.252 65.3776 531.496 68.3976Z" fill="#26272D"/>
<path id="Rectangle_17" fill-rule="evenodd" clip-rule="evenodd" d="M526.496 71.3976L639.504 136.47C644.748 139.49 649 146.423 649 151.955V174.354C649 179.885 644.748 181.921 639.504 178.901L526.496 113.829C521.252 110.809 517 103.876 517 98.3444L517 75.9455C517 70.4137 521.252 68.3776 526.496 71.3976Z" fill="url(#paint15_linear)"/>
<path id="Rectangle_18" fill-rule="evenodd" clip-rule="evenodd" d="M523.496 73.3976L636.504 138.47C641.748 141.49 646 148.423 646 153.955V174.943C646 180.475 641.748 182.511 636.504 179.491L523.496 114.419C518.252 111.399 514 104.466 514 98.9343V77.9455C514 72.4137 518.252 70.3776 523.496 73.3976Z" fill="url(#paint16_linear)"/>
<g id="Shape 2">
<path id="Shape" fill-rule="evenodd" clip-rule="evenodd" d="M535.567 101.191C535.213 100.447 534.679 99.7581 533.966 99.1253C534.874 99.1438 535.274 98.4778 535.164 97.1274C535.128 96.6396 535.016 96.1684 534.83 95.7129C534.644 95.2573 534.393 94.8291 534.075 94.4275C533.758 94.0258 533.413 93.6569 533.041 93.3208C532.669 92.9846 532.242 92.6447 531.761 92.3015V89.636L530.352 88.7767V91.3681C530.108 91.2192 529.736 90.9993 529.236 90.7084V88.0958L527.827 87.2364V89.9018C527.626 89.7861 527.33 89.6092 526.939 89.3711L525 88.1773V89.912L526.015 90.5314C526.479 90.8142 526.75 91.2196 526.83 91.7474V94.7831C526.891 94.8203 526.939 94.8537 526.976 94.8831L526.83 94.7937V99.0456C526.781 99.3754 526.604 99.4474 526.299 99.2614L525.284 98.642L525 100.405L526.83 101.521C526.946 101.592 527.113 101.696 527.333 101.833C527.553 101.97 527.717 102.072 527.827 102.139V104.836L529.236 105.696V103.031C529.492 103.194 529.864 103.425 530.352 103.722V106.377L531.761 107.236V104.539C532.261 104.816 532.705 105.034 533.092 105.193C533.479 105.351 533.85 105.456 534.204 105.506C534.557 105.556 534.853 105.53 535.091 105.428C535.329 105.327 535.525 105.133 535.681 104.847C535.836 104.561 535.936 104.18 535.978 103.706C536.058 102.774 535.92 101.936 535.567 101.191ZM529.83 93.164C530.011 93.2706 530.162 93.3586 530.281 93.4278C530.401 93.4972 530.563 93.6052 530.766 93.7521C530.97 93.8989 531.141 94.0338 531.28 94.1566C531.419 94.2794 531.573 94.4355 531.74 94.6246C531.907 94.8139 532.04 95.0016 532.141 95.1879C532.241 95.3743 532.326 95.5855 532.395 95.8213C532.465 96.0573 532.5 96.3004 532.5 96.5507C532.5 96.7632 532.475 96.9414 532.425 97.0854C532.375 97.2294 532.3 97.3295 532.199 97.386C532.099 97.4425 531.996 97.482 531.89 97.5046C531.784 97.5272 531.649 97.515 531.485 97.4678C531.321 97.4207 531.177 97.3749 531.055 97.3305C530.932 97.2861 530.779 97.2136 530.595 97.1127C530.411 97.0119 530.272 96.9346 530.177 96.8806C530.082 96.8266 529.953 96.7476 529.788 96.6435C529.624 96.5395 529.528 96.4789 529.5 96.4619V92.9684C529.539 92.9922 529.649 93.0574 529.83 93.164ZM533.184 102.596C533.277 102.535 533.352 102.444 533.412 102.321C533.471 102.199 533.5 102.042 533.5 101.849C533.5 101.601 533.454 101.352 533.36 101.103C533.267 100.853 533.153 100.625 533.016 100.418C532.88 100.211 532.701 99.9973 532.481 99.7771C532.261 99.5565 532.058 99.3692 531.872 99.2144C531.686 99.0595 531.456 98.8887 531.184 98.7018C530.911 98.5145 530.697 98.3738 530.542 98.2793C530.387 98.1847 530.187 98.066 529.942 97.9234C529.697 97.781 529.55 97.6945 529.5 97.6643V101.154C529.55 101.184 529.664 101.256 529.844 101.368C530.024 101.482 530.173 101.574 530.291 101.646C530.409 101.718 530.573 101.813 530.784 101.931C530.995 102.05 531.176 102.147 531.328 102.222C531.48 102.297 531.656 102.376 531.858 102.458C532.06 102.539 532.232 102.596 532.374 102.628C532.517 102.66 532.664 102.678 532.816 102.681C532.968 102.684 533.091 102.656 533.184 102.596Z" fill="white"/>
</g>
<path id="Rectangle_19" opacity="0.268438" fill-rule="evenodd" clip-rule="evenodd" d="M591 126L633 149.851V154.215L591 130.364V126Z" fill="#513220"/>
<path id="Rectangle Copy 37_4" opacity="0.268438" fill-rule="evenodd" clip-rule="evenodd" d="M598 139.301L633 159.515V163.88L598 143.665V139.301Z" fill="#513220"/>
</g>
<g id="topCurrencyRU" style="opacity: 0;">
<path id="Rectangle_20" opacity="0.0360863" fill-rule="evenodd" clip-rule="evenodd" d="M531.496 68.3976L644.504 133.47C649.748 136.49 654 143.423 654 148.955V172.457C654 177.989 649.748 180.025 644.504 177.005L531.496 111.932C526.252 108.912 522 101.98 522 96.448V72.9455C522 67.4137 526.252 65.3776 531.496 68.3976Z" fill="#26272D"/>
<g id="Line">
<path id="Mask_18" fill-rule="evenodd" clip-rule="evenodd" d="M526.496 71.3976L639.504 136.47C644.748 139.49 649 146.423 649 151.955V174.354C649 179.885 644.748 181.921 639.504 178.901L526.496 113.829C521.252 110.809 517 103.876 517 98.3444L517 75.9455C517 70.4137 521.252 68.3776 526.496 71.3976Z" fill="url(#paint17_linear)"/>
<mask id="mask7" mask-type="alpha" maskUnits="userSpaceOnUse" x="517" y="70" width="132" height="111">
<path id="Mask_19" fill-rule="evenodd" clip-rule="evenodd" d="M526.496 71.3976L639.504 136.47C644.748 139.49 649 146.423 649 151.955V174.354C649 179.885 644.748 181.921 639.504 178.901L526.496 113.829C521.252 110.809 517 103.876 517 98.3444L517 75.9455C517 70.4137 521.252 68.3776 526.496 71.3976Z" fill="white"/>
</mask>
<g mask="url(#mask7)">
</g>
</g>
<g id="Bitmap_2">
<path id="Mask_20" fill-rule="evenodd" clip-rule="evenodd" d="M523.496 73.3976L636.504 138.47C641.748 141.49 646 148.423 646 153.955V174.943C646 180.475 641.748 182.511 636.504 179.491L523.496 114.419C518.252 111.399 514 104.466 514 98.9343V77.9455C514 72.4137 518.252 70.3776 523.496 73.3976Z" fill="#6C5D9A"/>
<mask id="mask8" mask-type="alpha" maskUnits="userSpaceOnUse" x="514" y="72" width="132" height="109">
<path id="Mask_21" fill-rule="evenodd" clip-rule="evenodd" d="M523.496 73.3976L636.504 138.47C641.748 141.49 646 148.423 646 153.955V174.943C646 180.475 641.748 182.511 636.504 179.491L523.496 114.419C518.252 111.399 514 104.466 514 98.9343V77.9455C514 72.4137 518.252 70.3776 523.496 73.3976Z" fill="white"/>
</mask>
<g mask="url(#mask8)">
<g id="flaticon1575804624-eps_2">
<g id="Group 2 Copy 6">
<g id="Combined Shape 4">
<path id="Combined Shape_2" fill-rule="evenodd" clip-rule="evenodd" d="M527.737 97.5685V99.1944L526 98.094V100.533L527.737 101.633V105.698L529.792 107V102.935L532.368 104.568V102.129L529.792 100.496V98.9657L532.289 100.548C533.248 101.156 534.084 101.471 534.795 101.493C535.506 101.516 536.052 101.244 536.431 100.677C536.81 100.111 537 99.2857 537 98.2008C537 97.1015 536.81 96.0321 536.431 94.9923C536.052 93.9525 535.506 92.9931 534.795 92.1142C534.084 91.2352 533.248 90.4919 532.289 89.8844L527.737 87V95.3597L526 94.2593V96.468L527.737 97.5685ZM534.234 98.6537C533.77 98.8738 533.09 98.7001 532.195 98.1326L529.792 96.6103V90.6574L532.195 92.1797C533.09 92.7472 533.77 93.4348 534.234 94.2425C534.697 95.0502 534.929 95.9323 534.929 96.8888C534.929 97.8452 534.697 98.4335 534.234 98.6537Z" fill="white"/>
</g>
</g>
</g>
</g>
</g>
<path id="Rectangle_21" opacity="0.133626" fill-rule="evenodd" clip-rule="evenodd" d="M591 127.335L633 151.186V155.55L591 131.699V127.335Z" fill="white"/>
<path id="Rectangle Copy 37_5" opacity="0.133626" fill-rule="evenodd" clip-rule="evenodd" d="M598 140.636L633 160.851V165.215L598 145V140.636Z" fill="white"/>
</g>
<g id="topCurrencyBNB" style="opacity: 0;">
<path id="Rectangle_22" opacity="0.0360863" fill-rule="evenodd" clip-rule="evenodd" d="M531.496 68.3976L644.504 133.47C649.748 136.49 654 143.423 654 148.955V172.457C654 177.989 649.748 180.025 644.504 177.005L531.496 111.932C526.252 108.912 522 101.98 522 96.448V72.9455C522 67.4137 526.252 65.3776 531.496 68.3976Z" fill="#26272D"/>
<path id="Rectangle_23" fill-rule="evenodd" clip-rule="evenodd" d="M526.496 71.3976L639.504 136.47C644.748 139.49 649 146.423 649 151.955V174.354C649 179.885 644.748 181.921 639.504 178.901L526.496 113.829C521.252 110.809 517 103.876 517 98.3444L517 75.9455C517 70.4137 521.252 68.3776 526.496 71.3976Z" fill="url(#paint18_linear)"/>
<path id="Rectangle_24" fill-rule="evenodd" clip-rule="evenodd" d="M523.496 73.3976L636.504 138.47C641.748 141.49 646 148.423 646 153.955V174.943C646 180.475 641.748 182.511 636.504 179.491L523.496 114.419C518.252 111.399 514 104.466 514 98.9343V77.9455C514 72.4137 518.252 70.3776 523.496 73.3976Z" fill="url(#paint19_linear)"/>
<g id="Combined Shape 3_3">
<g id="Mask 2">
<g id="Mask 3">
<path id="Mask_22" fill-rule="evenodd" clip-rule="evenodd" d="M535.375 97.9066L533.625 98.844L531 93.5L530.125 93.9687L528.375 94.906L526.625 91.3434L531 89L535.375 97.9066ZM536.25 99.6879L538 103.251L536.25 104.188L534.5 100.625L536.25 99.6879ZM535.375 104.657L531 107L526.625 98.0934L528.375 97.156L531 102.5L531.875 102.031L533.625 101.094L535.375 104.657ZM524 92.7494L525.75 91.8121L527.5 95.3747L525.75 96.3121L524 92.7494ZM529.25 96.6874L531 95.75L532.75 99.3126L531 100.25L529.25 96.6874Z" fill="#FDB900"/>
</g>
</g>
</g>
<path id="Rectangle_25" opacity="0.160691" fill-rule="evenodd" clip-rule="evenodd" d="M591 127.335L633 151.186V155.55L591 131.699V127.335Z" fill="white"/>
<path id="Rectangle Copy 37_6" opacity="0.160691" fill-rule="evenodd" clip-rule="evenodd" d="M598 140.636L633 160.851V165.215L598 145V140.636Z" fill="white"/>
</g>
<g id="topCurrencyRUBLmin" style="opacity: 0;">
<path id="Oval_3" fill-rule="evenodd" clip-rule="evenodd" d="M531.5 235.969C538.404 238.981 544 235.17 544 227.455C544 219.74 538.404 211.044 531.5 208.031C524.596 205.019 519 208.83 519 216.545C519 224.26 524.596 232.956 531.5 235.969Z" fill="url(#paint20_linear)"/>
<path id="Oval_4" fill-rule="evenodd" clip-rule="evenodd" d="M528.5 237.969C535.404 240.981 541 237.17 541 229.455C541 221.74 535.404 213.044 528.5 210.031C521.596 207.019 516 210.83 516 218.545C516 226.26 521.596 234.956 528.5 237.969Z" fill="url(#paint21_linear)"/>
<g id="Shape 3">
<g id="Combined Shape 6">
<path id="Combined Shape_3" fill-rule="evenodd" clip-rule="evenodd" d="M528.741 226.494L530.893 230.936L533 232L530.577 227.013C531.299 227.072 531.854 226.888 532.24 226.462C532.626 226.035 532.819 225.391 532.819 224.529C532.819 223.689 532.639 222.872 532.278 222.079C531.916 221.286 531.397 220.554 530.72 219.885C530.043 219.216 529.247 218.65 528.334 218.189L524 216V227.454L525.957 228.443V225.104L528.334 226.305C528.515 226.397 528.651 226.46 528.741 226.494ZM530.186 221.513C530.627 222.129 530.848 222.802 530.848 223.533C530.848 224.264 530.627 224.717 530.186 224.892C529.744 225.067 529.097 224.94 528.244 224.509L525.957 223.354V218.788L528.244 219.944C529.097 220.374 529.744 220.898 530.186 221.513Z" fill="#282828"/>
</g>
</g>
</g>
<g id="topCurrencyBITmin" style="opacity: 0;">
<path id="Oval_5" fill-rule="evenodd" clip-rule="evenodd" d="M618.5 160.969C625.404 163.981 631 160.17 631 152.455C631 144.74 625.404 136.044 618.5 133.031C611.596 130.019 606 133.83 606 141.545C606 149.26 611.596 157.956 618.5 160.969Z" fill="url(#paint22_linear)"/>
<path id="Oval_6" fill-rule="evenodd" clip-rule="evenodd" d="M615.5 162.969C622.404 165.981 628 162.17 628 154.455C628 146.74 622.404 138.044 615.5 135.031C608.596 132.019 603 135.83 603 143.545C603 151.26 608.596 159.956 615.5 162.969Z" fill="url(#paint23_linear)"/>
<g id="Shape 3_2">
<path id="Shape_2" fill-rule="evenodd" clip-rule="evenodd" d="M618.724 151.768C618.499 151.247 618.16 150.765 617.705 150.322C618.284 150.335 618.538 149.869 618.468 148.924C618.445 148.582 618.374 148.252 618.256 147.934C618.137 147.615 617.977 147.315 617.775 147.034C617.573 146.753 617.354 146.494 617.117 146.259C616.881 146.024 616.609 145.786 616.302 145.546V143.68L615.406 143.078V144.892C615.25 144.788 615.014 144.634 614.696 144.43V142.602L613.799 142V143.866C613.671 143.785 613.483 143.661 613.234 143.494L612 142.659V143.873L612.646 144.307C612.941 144.505 613.114 144.788 613.164 145.158V147.283C613.203 147.309 613.234 147.332 613.258 147.353L613.164 147.29V150.266C613.133 150.497 613.021 150.548 612.827 150.418L612.181 149.984L612 151.218L613.164 151.999C613.238 152.049 613.345 152.121 613.485 152.217C613.624 152.314 613.729 152.385 613.799 152.432V154.32L614.696 154.922V153.056C614.859 153.17 615.095 153.332 615.406 153.54V155.398L616.302 156V154.112C616.621 154.306 616.903 154.459 617.149 154.569C617.396 154.68 617.632 154.754 617.857 154.788C618.082 154.824 618.27 154.805 618.421 154.734C618.573 154.663 618.698 154.527 618.797 154.327C618.896 154.127 618.959 153.861 618.986 153.529C619.037 152.877 618.949 152.29 618.724 151.768ZM615.074 146.149C615.189 146.224 615.285 146.286 615.361 146.334C615.437 146.383 615.54 146.458 615.669 146.561C615.799 146.664 615.908 146.758 615.996 146.844C616.085 146.93 616.183 147.039 616.289 147.172C616.395 147.304 616.48 147.436 616.544 147.566C616.608 147.697 616.662 147.844 616.706 148.009C616.751 148.175 616.773 148.345 616.773 148.52C616.773 148.669 616.757 148.794 616.725 148.894C616.693 148.995 616.645 149.065 616.581 149.105C616.518 149.144 616.452 149.172 616.385 149.188C616.317 149.204 616.231 149.195 616.127 149.162C616.022 149.129 615.931 149.097 615.853 149.066C615.775 149.035 615.677 148.984 615.56 148.913C615.443 148.843 615.355 148.789 615.294 148.751C615.234 148.713 615.152 148.658 615.047 148.585C614.943 148.512 614.881 148.47 614.864 148.458V146.012C614.888 146.029 614.958 146.075 615.074 146.149ZM617.208 152.751C617.267 152.709 617.315 152.645 617.353 152.56C617.39 152.474 617.409 152.364 617.409 152.229C617.409 152.055 617.38 151.881 617.32 151.707C617.261 151.532 617.188 151.372 617.101 151.227C617.014 151.082 616.901 150.933 616.761 150.778C616.621 150.624 616.491 150.493 616.373 150.385C616.255 150.276 616.109 150.157 615.935 150.026C615.761 149.895 615.625 149.796 615.527 149.73C615.428 149.664 615.301 149.581 615.145 149.481C614.989 149.381 614.895 149.321 614.864 149.3V151.742C614.895 151.763 614.968 151.813 615.083 151.892C615.197 151.972 615.292 152.037 615.367 152.087C615.442 152.137 615.546 152.204 615.681 152.287C615.815 152.369 615.93 152.437 616.027 152.49C616.124 152.543 616.236 152.598 616.364 152.655C616.492 152.712 616.602 152.752 616.693 152.774C616.784 152.797 616.877 152.809 616.974 152.811C617.071 152.813 617.149 152.793 617.208 152.751Z" fill="white"/>
</g>
</g>
<g id="topCurrencyRUmin" style="opacity: 0;">
<path id="Oval_7" fill-rule="evenodd" clip-rule="evenodd" d="M618.5 160.969C625.404 163.981 631 160.17 631 152.455C631 144.74 625.404 136.044 618.5 133.031C611.596 130.019 606 133.83 606 141.545C606 149.26 611.596 157.956 618.5 160.969Z" fill="url(#paint24_linear)"/>
<path id="Oval_8" fill-rule="evenodd" clip-rule="evenodd" d="M615.5 162.969C622.404 165.981 628 162.17 628 154.455C628 146.74 622.404 138.044 615.5 135.031C608.596 132.019 603 135.83 603 143.545C603 151.26 608.596 159.956 615.5 162.969Z" fill="#6C5D9A"/>
<g id="Combined Shape 5">
<path id="Combined Shape_4" fill-rule="evenodd" clip-rule="evenodd" d="M613.421 149.398V150.536L612 149.766V151.473L613.421 152.243V155.089L615.102 156V153.155L617.211 154.297V152.59L615.102 151.447V150.376L617.146 151.484C617.93 151.909 618.614 152.129 619.196 152.145C619.778 152.161 620.224 151.971 620.534 151.574C620.845 151.178 621 150.6 621 149.841C621 149.071 620.845 148.322 620.534 147.595C620.224 146.867 619.778 146.195 619.196 145.58C618.614 144.965 617.93 144.444 617.146 144.019L613.421 142V147.852L612 147.082V148.628L613.421 149.398ZM618.737 150.158C618.357 150.312 617.801 150.19 617.068 149.793L615.102 148.727V144.56L617.068 145.626C617.801 146.023 618.357 146.504 618.737 147.07C619.116 147.635 619.306 148.253 619.306 148.922C619.306 149.592 619.116 150.003 618.737 150.158Z" fill="white"/>
</g>
</g>
<g id="topCurrencyBNBmin" style="opacity: 0;">
<path id="Oval_9" fill-rule="evenodd" clip-rule="evenodd" d="M618.5 160.969C625.404 163.981 631 160.17 631 152.455C631 144.74 625.404 136.044 618.5 133.031C611.596 130.019 606 133.83 606 141.545C606 149.26 611.596 157.956 618.5 160.969Z" fill="url(#paint25_linear)"/>
<path id="Oval_10" fill-rule="evenodd" clip-rule="evenodd" d="M615.5 162.969C622.404 165.981 628 162.17 628 154.455C628 146.74 622.404 138.044 615.5 135.031C608.596 132.019 603 135.83 603 143.545C603 151.26 608.596 159.956 615.5 162.969Z" fill="url(#paint26_linear)"/>
<g id="Mask 3_2">
<path id="Mask_23" fill-rule="evenodd" clip-rule="evenodd" d="M618.75 148.927L617.25 149.656L615 145.5L614.25 145.865L612.75 146.594L611.25 143.823L615 142L618.75 148.927ZM619.5 150.313L621 153.084L619.5 153.813L618 151.042L619.5 150.313ZM618.75 154.177L615 156L611.25 149.073L612.75 148.344L615 152.5L615.75 152.135L617.25 151.406L618.75 154.177ZM609 144.916L610.5 144.187L612 146.958L610.5 147.687L609 144.916ZM613.5 147.979L615 147.25L616.5 150.021L615 150.75L613.5 147.979Z" fill="#FDB900"/>
</g>
</g>
<g id="topCurrencySmin" style="opacity: 0;">
<path id="Oval_11" fill-rule="evenodd" clip-rule="evenodd" d="M531.5 235.969C538.404 238.981 544 235.17 544 227.455C544 219.74 538.404 211.044 531.5 208.031C524.596 205.019 519 208.83 519 216.545C519 224.26 524.596 232.956 531.5 235.969Z" fill="url(#paint27_linear)"/>
<path id="Oval_12" fill-rule="evenodd" clip-rule="evenodd" d="M528.5 237.969C535.404 240.981 541 237.17 541 229.455C541 221.74 535.404 213.044 528.5 210.031C521.596 207.019 516 210.83 516 218.545C516 226.26 521.596 234.956 528.5 237.969Z" fill="#57B541"/>
<g id="Fill 2">
<path id="Fill 1_2" fill-rule="evenodd" clip-rule="evenodd" d="M530.379 225.05C529.849 224.406 529.285 223.815 528.727 223.219C528.403 222.873 528.094 222.513 527.82 222.11C527.282 221.317 527.385 220.643 528.015 220.747C528.194 220.777 528.381 220.868 528.571 220.976C529.302 221.394 529.997 221.973 530.658 222.726C530.987 223.102 531.096 223.117 531.207 222.824C531.325 222.514 531.422 222.185 531.531 221.866C531.604 221.652 531.514 221.425 531.283 221.17C530.859 220.705 530.424 220.289 529.966 219.924C529.369 219.451 529.369 219.448 529.366 218.811C529.363 217.914 529.363 217.914 528.515 217.38C528.392 217.303 528.269 217.223 528.147 217.149C527.75 216.911 527.683 216.943 527.672 217.358C527.667 217.544 527.672 217.736 527.67 217.927C527.667 218.486 527.664 218.476 527.156 218.351C525.928 218.051 525.17 218.46 525.089 219.827C525.016 221.037 525.636 222.275 526.609 223.505C527.209 224.264 527.873 224.906 528.509 225.605C528.758 225.876 528.995 226.158 529.201 226.472C529.812 227.391 529.701 228.21 528.975 228.09C528.588 228.026 528.177 227.813 527.756 227.491C527.106 226.997 526.484 226.425 525.898 225.734C525.555 225.329 525.454 225.316 525.337 225.635C525.236 225.912 525.147 226.198 525.058 226.485C524.938 226.87 524.983 227.007 525.398 227.485C525.928 228.09 526.495 228.585 527.072 229.046C527.524 229.408 527.538 229.437 527.544 229.937C527.547 230.163 527.547 230.391 527.55 230.617C527.552 230.902 527.681 231.149 527.957 231.328C528.269 231.531 528.585 231.729 528.897 231.917C529.154 232.073 529.285 232.008 529.285 231.733C529.285 231.426 529.299 231.124 529.288 230.81C529.274 230.488 529.402 230.409 529.687 230.506C530.343 230.729 530.901 230.708 531.33 230.423C532.524 229.638 532.07 227.104 530.379 225.05Z" fill="white"/>
</g>
</g>
<g id="topCurrencyETHmin" style="opacity: 0;">
<path id="topCurrencyETHmin3" fill-rule="evenodd" clip-rule="evenodd" d="M531.5 235.969C538.404 238.981 544 235.17 544 227.455C544 219.74 538.404 211.044 531.5 208.031C524.596 205.019 519 208.83 519 216.545C519 224.26 524.596 232.956 531.5 235.969Z" fill="url(#paint28_linear)"/>
<path id="topCurrencyETHmin2" fill-rule="evenodd" clip-rule="evenodd" d="M528.5 237.969C535.404 240.981 541 237.17 541 229.455C541 221.74 535.404 213.044 528.5 210.031C521.596 207.019 516 210.83 516 218.545C516 226.26 521.596 234.956 528.5 237.969Z" fill="url(#paint29_linear)"/>
<g id="topCurrencyETHmin1">
<g id="topCurrencyETHmin4">
<path id="flaticon1573168739-eps_2" fill-rule="evenodd" clip-rule="evenodd" d="M528.46 215.498L527.587 215L524 222.97L527.587 232.502L528.46 233L532 227.532L528.46 215.498ZM527.586 222.506L525.517 222.571L527.586 217.774V222.506ZM527.586 223.964V226.098L525.793 224.009L527.586 223.964ZM528.552 224.514L530.345 226.604L528.552 226.649V224.514ZM530.621 225.481L528.552 223.071V218.325L530.621 225.481ZM528.021 231.469L525.793 225.503L528.025 228.086L530.207 228.048L528.021 231.469Z" fill="white"/>
</g>
</g>
</g>
</g>
</g>
<defs>
<filter id="filter0_i" x="500" y="0" width="185.296" height="495.904" filterUnits="userSpaceOnUse" color-interpolation-filters="sRGB">
<feFlood flood-opacity="0" result="BackgroundImageFix"/>
<feBlend mode="normal" in="SourceGraphic" in2="BackgroundImageFix" result="shape"/>
<feColorMatrix in="SourceAlpha" type="matrix" values="0 0 0 0 0 0 0 0 0 0 0 0 0 0 0 0 0 0 127 0" result="hardAlpha"/>
<feOffset dy="1"/>
<feGaussianBlur stdDeviation="8"/>
<feComposite in2="hardAlpha" operator="arithmetic" k2="-1" k3="1"/>
<feColorMatrix type="matrix" values="0 0 0 0 0.700838 0 0 0 0 0.700838 0 0 0 0 0.811311 0 0 0 1 0"/>
<feBlend mode="normal" in2="shape" result="effect1_innerShadow"/>
</filter>
<linearGradient id="paint0_linear" x1="289.327" y1="509.835" x2="333.169" y2="365.625" gradientUnits="userSpaceOnUse">
<stop stop-color="#4F50AF"/>
<stop offset="1" stop-color="#444398"/>
</linearGradient>
<linearGradient id="paint1_linear" x1="581.604" y1="246.128" x2="371" y2="456.733" gradientUnits="userSpaceOnUse">
<stop stop-color="#5F60B7"/>
<stop offset="1" stop-color="#2E2D84"/>
</linearGradient>
<linearGradient id="paint2_linear" x1="581.604" y1="236.128" x2="371" y2="446.733" gradientUnits="userSpaceOnUse">
<stop stop-color="#5354BD"/>
<stop offset="1" stop-color="#5F60B7"/>
</linearGradient>
<linearGradient id="paint3_linear" x1="615.323" y1="-261.483" x2="316.077" y2="-193.165" gradientUnits="userSpaceOnUse">
<stop stop-color="#E9E9F4"/>
<stop offset="1" stop-color="#E0E0EB"/>
</linearGradient>
<linearGradient id="paint4_linear" x1="675.249" y1="64.4047" x2="652.214" y2="64.4047" gradientUnits="userSpaceOnUse">
<stop stop-color="white" stop-opacity="0.789991"/>
<stop offset="1" stop-color="#E4E4F6" stop-opacity="0.244974"/>
</linearGradient>
<linearGradient id="paint5_linear" x1="500.067" y1="11.4113" x2="500.067" y2="492.495" gradientUnits="userSpaceOnUse">
<stop stop-color="#F5F6FA"/>
<stop offset="1" stop-color="#CDCDDA"/>
</linearGradient>
<linearGradient id="paint6_linear" x1="500.066" y1="8.94901" x2="500.066" y2="493.819" gradientUnits="userSpaceOnUse">
<stop stop-color="#F5F6FA"/>
<stop offset="1" stop-color="#CDCDDA"/>
</linearGradient>
<linearGradient id="paint7_linear" x1="677.296" y1="214.085" x2="677.296" y2="245.494" gradientUnits="userSpaceOnUse">
<stop stop-color="#EFEFF0"/>
<stop offset="1" stop-color="#D0D0DD"/>
</linearGradient>
<linearGradient id="paint8_linear" x1="677.296" y1="177.085" x2="677.296" y2="208.494" gradientUnits="userSpaceOnUse">
<stop stop-color="#EFEFF0"/>
<stop offset="1" stop-color="#CECEDC"/>
</linearGradient>
<linearGradient id="paint9_linear" x1="679.296" y1="147.995" x2="679.296" y2="163.995" gradientUnits="userSpaceOnUse">
<stop stop-color="#EFEFF0"/>
<stop offset="1" stop-color="#E2E2E9"/>
</linearGradient>
<linearGradient id="paint10_linear" x1="454.418" y1="229.253" x2="527.021" y2="385.049" gradientUnits="userSpaceOnUse">
<stop stop-color="#F3BD40"/>
<stop offset="1" stop-color="#D59838"/>
</linearGradient>
<linearGradient id="paint11_linear" x1="732.619" y1="267.392" x2="630.705" y2="121.132" gradientUnits="userSpaceOnUse">
<stop stop-color="#FFB149"/>
<stop offset="1" stop-color="#FFCE49"/>
</linearGradient>
<linearGradient id="paint12_linear" x1="466.356" y1="210.495" x2="509.06" y2="360.89" gradientUnits="userSpaceOnUse">
<stop stop-color="#5C9D4C"/>
<stop offset="1" stop-color="#40872F"/>
</linearGradient>
<linearGradient id="paint13_linear" x1="466.356" y1="210.495" x2="509.06" y2="360.89" gradientUnits="userSpaceOnUse">
<stop stop-color="#3C78D5"/>
<stop offset="1" stop-color="#0D3279"/>
</linearGradient>
<linearGradient id="paint14_linear" x1="481.852" y1="206.251" x2="502.452" y2="310.341" gradientUnits="userSpaceOnUse">
<stop stop-color="#4992FF"/>
<stop offset="1" stop-color="#326CDE"/>
</linearGradient>
<linearGradient id="paint15_linear" x1="447.412" y1="101.417" x2="519.399" y2="257.124" gradientUnits="userSpaceOnUse">
<stop stop-color="#EB7B2C"/>
<stop offset="1" stop-color="#D17137"/>
</linearGradient>
<linearGradient id="paint16_linear" x1="494.514" y1="92.1613" x2="529.109" y2="205.414" gradientUnits="userSpaceOnUse">
<stop stop-color="#FF8B1E"/>
<stop offset="1" stop-color="#FF8944"/>
</linearGradient>
<linearGradient id="paint17_linear" x1="466.058" y1="110.234" x2="557.44" y2="271.751" gradientUnits="userSpaceOnUse">
<stop stop-color="#50417F"/>
<stop offset="1" stop-color="#4A4168"/>
</linearGradient>
<linearGradient id="paint18_linear" x1="466.356" y1="85.4948" x2="509.06" y2="235.89" gradientUnits="userSpaceOnUse">
<stop stop-color="#313131"/>
<stop offset="1" stop-color="#292929"/>
</linearGradient>
<linearGradient id="paint19_linear" x1="482.242" y1="81.6339" x2="502.754" y2="185.281" gradientUnits="userSpaceOnUse">
<stop stop-color="#434343"/>
<stop offset="1" stop-color="#404040"/>
</linearGradient>
<linearGradient id="paint20_linear" x1="509.754" y1="217.696" x2="531.571" y2="251.336" gradientUnits="userSpaceOnUse">
<stop stop-color="#BF8418"/>
<stop offset="1" stop-color="#946421"/>
</linearGradient>
<linearGradient id="paint21_linear" x1="566.988" y1="197.032" x2="515.493" y2="201.353" gradientUnits="userSpaceOnUse">
<stop stop-color="#FF9249"/>
<stop offset="1" stop-color="#FFCE49"/>
</linearGradient>
<linearGradient id="paint22_linear" x1="620.512" y1="132.512" x2="594.237" y2="151.093" gradientUnits="userSpaceOnUse">
<stop stop-color="#EB7B2C"/>
<stop offset="1" stop-color="#994873"/>
</linearGradient>
<linearGradient id="paint23_linear" x1="599.309" y1="139.555" x2="611.969" y2="168.043" gradientUnits="userSpaceOnUse">
<stop stop-color="#FFA749"/>
<stop offset="1" stop-color="#FF7F49"/>
</linearGradient>
<linearGradient id="paint24_linear" x1="596.352" y1="142.943" x2="624.734" y2="177.875" gradientUnits="userSpaceOnUse">
<stop stop-color="#50417F"/>
<stop offset="1" stop-color="#4A4168"/>
</linearGradient>
<linearGradient id="paint25_linear" x1="596.408" y1="136.214" x2="611.863" y2="174.116" gradientUnits="userSpaceOnUse">
<stop stop-color="#313131"/>
<stop offset="1" stop-color="#292929"/>
</linearGradient>
<linearGradient id="paint26_linear" x1="596.985" y1="136.654" x2="604.874" y2="164.057" gradientUnits="userSpaceOnUse">
<stop stop-color="#434343"/>
<stop offset="1" stop-color="#404040"/>
</linearGradient>
<linearGradient id="paint27_linear" x1="509.408" y1="211.214" x2="524.863" y2="249.116" gradientUnits="userSpaceOnUse">
<stop stop-color="#5C9D4C"/>
<stop offset="1" stop-color="#40872F"/>
</linearGradient>
<linearGradient id="paint28_linear" x1="509.408" y1="211.214" x2="524.863" y2="249.116" gradientUnits="userSpaceOnUse">
<stop stop-color="#3C78D5"/>
<stop offset="1" stop-color="#0D3279"/>
</linearGradient>
<linearGradient id="paint29_linear" x1="509.911" y1="211.549" x2="517.834" y2="239.069" gradientUnits="userSpaceOnUse">
<stop stop-color="#4992FF"/>
<stop offset="1" stop-color="#326CDE"/>
</linearGradient>
</defs>
</svg>
