<svg width="155" height="465" viewBox="0 0 155 465" fill="none" xmlns="http://www.w3.org/2000/svg" id="top__img-key" class="top__img-key">
<g >
<g id="top__img-key4">
<g id="top__img-key_Rectangle">
<path id="top__img-key_Mask" fill-rule="evenodd" clip-rule="evenodd" d="M56.9991 226.831L54.2656 228.529L58.2656 439.811L62.6105 458L73.4999 464.424H76.6105L113.596 429.92V419.035L107.921 405.606V386.714L112.886 378.285V361.888L105.793 339.949V321.916L96.571 305.675L97.9898 291.018L104.374 286.805L107.468 292.711L115.014 288.37V270.767L111.776 265.064L90.9991 255L85.9991 247L60.9991 234L56.9991 226.831Z" fill="url(#top__img-key_paint0_linear)"/>
<mask id="top__img-key_mask0" mask-type="alpha" maskUnits="userSpaceOnUse" x="54" y="226" width="62" height="239">
<path id="top__img-key_Mask_2" fill-rule="evenodd" clip-rule="evenodd" d="M56.9991 226.831L54.2656 228.529L58.2656 439.811L62.6105 458L73.4999 464.424H76.6105L113.596 429.92V419.035L107.921 405.606V386.714L112.886 378.285V361.888L105.793 339.949V321.916L96.571 305.675L97.9898 291.018L104.374 286.805L107.468 292.711L115.014 288.37V270.767L111.776 265.064L90.9991 255L85.9991 247L60.9991 234L56.9991 226.831Z" fill="white"/>
</mask>
<g mask="url(#top__img-key_mask0)">
</g>
</g>
<g id="top__img-key_Path 2 + Path 2 Mask">
<g id="top__img-key_Mask_3" filter="url(#top__img-key_filter0_i)">
<path fill-rule="evenodd" clip-rule="evenodd" d="M54.2656 228.529V441.811L58.5218 456.177L73.4999 464.424L109.596 429.92V421.035L103.921 407.606V388.714L108.886 380.285V363.888L101.793 341.949V323.916L92.571 307.675L93.9898 293.018L100.374 288.805L107.468 292.711L111.014 290.37V272.767L108.057 267.558L87.2057 258L82.3707 249.22L58.5218 237L54.2656 228.529Z" fill="url(#top__img-key_paint1_linear)"/>
</g>
<mask id="top__img-key_mask1" mask-type="alpha" maskUnits="userSpaceOnUse" x="54" y="228" width="58" height="237">
<path id="top__img-key_Mask_4" fill-rule="evenodd" clip-rule="evenodd" d="M54.2656 228.529V441.811L58.5218 456.177L73.4999 464.424L109.596 429.92V421.035L103.921 407.606V388.714L108.886 380.285V363.888L101.793 341.949V323.916L92.571 307.675L93.9898 293.018L100.374 288.805L107.468 292.711L111.014 290.37V272.767L108.057 267.558L87.2057 258L82.3707 249.22L58.5218 237L54.2656 228.529Z" fill="white"/>
</mask>
<g mask="url(#top__img-key_mask1)">
<g id="top__img-key_Combined Shape" filter="url(#top__img-key_filter1_di)">
<mask id="top__img-key_path-5-inside-1" fill="white">
<path fill-rule="evenodd" clip-rule="evenodd" d="M63.6113 260.327L68.6113 262.804C69.1636 263.078 69.6113 263.748 69.6113 264.3V445.3C69.6113 445.852 69.1636 446.078 68.6113 445.804L63.6113 443.327C63.059 443.053 62.6113 442.384 62.6113 441.831V260.831C62.6113 260.279 63.059 260.053 63.6113 260.327ZM78 268.116L83 270.594C83.5523 270.867 84 271.537 84 272.089V434.249C84 434.451 84.0746 434.709 84.1415 434.941C84.1511 434.974 84.1606 435.007 84.1696 435.039C84.2581 435.35 84 435.563 83.7377 435.78C83.6524 435.85 83.5667 435.921 83.4923 435.995L79.0077 440.491C78.7044 440.795 78.2365 440.873 77.9017 440.604C77.4443 440.236 77 439.732 77 439.354V268.621C77 268.068 77.4477 267.843 78 268.116ZM93.1358 320.38C93.0487 320.136 92.8733 319.906 92.6149 319.886C92.2538 319.858 92 320.089 92 320.505V425.971C92 426.34 92.1998 426.761 92.497 427.082C92.7611 427.366 93.194 427.311 93.4975 427.069L97.624 423.774C97.8616 423.584 98 423.296 98 422.992V419.016L97.0933 407.777V388.53C97.0933 388.445 97.1041 388.36 97.1254 388.278L98.9679 381.185C98.9892 381.103 99 381.018 99 380.933V364.783C99 364.359 98.7364 363.866 98.3642 363.536C98.1534 363.349 97.956 363.133 97.8787 362.862L95.5383 354.65C95.5129 354.561 95.5 354.469 95.5 354.376V327.173C95.5 327.059 95.4803 326.945 95.4417 326.837L93.1358 320.38Z"/>
</mask>
<path fill-rule="evenodd" clip-rule="evenodd" d="M63.6113 260.327L68.6113 262.804C69.1636 263.078 69.6113 263.748 69.6113 264.3V445.3C69.6113 445.852 69.1636 446.078 68.6113 445.804L63.6113 443.327C63.059 443.053 62.6113 442.384 62.6113 441.831V260.831C62.6113 260.279 63.059 260.053 63.6113 260.327ZM78 268.116L83 270.594C83.5523 270.867 84 271.537 84 272.089V434.249C84 434.451 84.0746 434.709 84.1415 434.941C84.1511 434.974 84.1606 435.007 84.1696 435.039C84.2581 435.35 84 435.563 83.7377 435.78C83.6524 435.85 83.5667 435.921 83.4923 435.995L79.0077 440.491C78.7044 440.795 78.2365 440.873 77.9017 440.604C77.4443 440.236 77 439.732 77 439.354V268.621C77 268.068 77.4477 267.843 78 268.116ZM93.1358 320.38C93.0487 320.136 92.8733 319.906 92.6149 319.886C92.2538 319.858 92 320.089 92 320.505V425.971C92 426.34 92.1998 426.761 92.497 427.082C92.7611 427.366 93.194 427.311 93.4975 427.069L97.624 423.774C97.8616 423.584 98 423.296 98 422.992V419.016L97.0933 407.777V388.53C97.0933 388.445 97.1041 388.36 97.1254 388.278L98.9679 381.185C98.9892 381.103 99 381.018 99 380.933V364.783C99 364.359 98.7364 363.866 98.3642 363.536C98.1534 363.349 97.956 363.133 97.8787 362.862L95.5383 354.65C95.5129 354.561 95.5 354.469 95.5 354.376V327.173C95.5 327.059 95.4803 326.945 95.4417 326.837L93.1358 320.38Z" fill="#79FFDF"/>
<path d="M68.6113 262.804L69.0553 261.908L68.6113 262.804ZM63.6113 260.327L64.0553 259.431V259.431L63.6113 260.327ZM68.6113 445.804L68.1673 446.7H68.1674L68.6113 445.804ZM63.6113 443.327L64.0553 442.431H64.0553L63.6113 443.327ZM83 270.594L83.444 269.698L83 270.594ZM78 268.116L78.444 267.22L78 268.116ZM84.1415 434.941L85.1022 434.663H85.1022L84.1415 434.941ZM84.1696 435.039L83.2076 435.312L83.2076 435.312L84.1696 435.039ZM83.7377 435.78L84.374 436.551L84.374 436.551L83.7377 435.78ZM83.4923 435.995L82.7843 435.289L83.4923 435.995ZM79.0077 440.491L78.2998 439.785H78.2998L79.0077 440.491ZM77.9017 440.604L78.5284 439.824H78.5284L77.9017 440.604ZM92.6149 319.886L92.5373 320.883H92.5373L92.6149 319.886ZM93.1358 320.38L94.0776 320.044L94.0776 320.044L93.1358 320.38ZM92.497 427.082L91.7637 427.761L92.497 427.082ZM93.4975 427.069L92.8735 426.288H92.8735L93.4975 427.069ZM97.624 423.774L98.248 424.555H98.248L97.624 423.774ZM98 419.016H99V418.975L98.9968 418.935L98 419.016ZM97.0933 407.777H96.0933V407.818L96.0965 407.858L97.0933 407.777ZM97.1254 388.278L98.0933 388.53L98.0933 388.53L97.1254 388.278ZM98.9679 381.185L99.9358 381.436V381.436L98.9679 381.185ZM98.3642 363.536L99.0277 362.788L99.0277 362.788L98.3642 363.536ZM97.8787 362.862L96.917 363.136V363.136L97.8787 362.862ZM95.5383 354.65L96.5 354.376V354.376L95.5383 354.65ZM95.4417 326.837L96.3835 326.501L96.3835 326.501L95.4417 326.837ZM69.0553 261.908L64.0553 259.431L63.1673 261.223L68.1673 263.7L69.0553 261.908ZM70.6113 264.3C70.6113 263.772 70.4062 263.275 70.1497 262.892C69.8893 262.502 69.5144 262.136 69.0553 261.908L68.1673 263.7C68.2606 263.747 68.3856 263.852 68.4872 264.003C68.5926 264.161 68.6113 264.276 68.6113 264.3H70.6113ZM70.6113 445.3V264.3H68.6113V445.3H70.6113ZM68.1674 446.7C68.6164 446.923 69.2135 447.035 69.7689 446.755C70.3671 446.453 70.6113 445.854 70.6113 445.3H68.6113C68.6113 445.304 68.6105 445.254 68.651 445.178C68.6946 445.097 68.7695 445.019 68.868 444.969C69.0614 444.871 69.1586 444.959 69.0553 444.908L68.1674 446.7ZM63.1673 444.223L68.1673 446.7L69.0553 444.908L64.0553 442.431L63.1673 444.223ZM61.6113 441.831C61.6113 442.359 61.8165 442.856 62.0729 443.239C62.3333 443.629 62.7083 443.995 63.1674 444.223L64.0553 442.431C63.9621 442.385 63.837 442.28 63.7355 442.128C63.63 441.97 63.6113 441.855 63.6113 441.831H61.6113ZM61.6113 260.831V441.831H63.6113V260.831H61.6113ZM64.0553 259.431C63.6063 259.208 63.0091 259.096 62.4538 259.377C61.8555 259.678 61.6113 260.277 61.6113 260.831H63.6113C63.6113 260.827 63.6122 260.877 63.5716 260.953C63.5281 261.034 63.4532 261.112 63.3547 261.162C63.1612 261.26 63.0641 261.172 63.1673 261.223L64.0553 259.431ZM83.444 269.698L78.444 267.22L77.556 269.012L82.556 271.49L83.444 269.698ZM85 272.089C85 271.561 84.7949 271.065 84.5384 270.681C84.278 270.292 83.903 269.925 83.444 269.698L82.556 271.49C82.6492 271.536 82.7743 271.641 82.8758 271.793C82.9813 271.951 83 272.065 83 272.089H85ZM85 434.249V272.089H83V434.249H85ZM85.1022 434.663C85.0672 434.542 85.0402 434.448 85.0208 434.362C85.0002 434.272 85 434.241 85 434.249H83C83 434.624 83.1279 435.035 83.1809 435.219L85.1022 434.663ZM85.1316 434.766C85.1218 434.731 85.1116 434.696 85.1022 434.663L83.1809 435.219C83.1906 435.252 83.1994 435.283 83.2076 435.312L85.1316 434.766ZM84.374 436.551C84.4778 436.465 84.7192 436.275 84.8955 436.031C85.109 435.736 85.281 435.292 85.1316 434.766L83.2076 435.312C83.1842 435.229 83.179 435.128 83.2031 435.026C83.2251 434.932 83.2629 434.876 83.2749 434.859C83.2854 434.844 83.2834 434.851 83.2491 434.883C83.214 434.915 83.1714 434.951 83.1014 435.008L84.374 436.551ZM84.2002 436.702C84.2343 436.667 84.281 436.628 84.374 436.551L83.1014 435.008C83.0238 435.072 82.8991 435.174 82.7843 435.289L84.2002 436.702ZM79.7157 441.197L84.2002 436.702L82.7843 435.289L78.2998 439.785L79.7157 441.197ZM77.275 441.383C78.0964 442.043 79.1377 441.777 79.7157 441.197L78.2998 439.785C78.2964 439.788 78.307 439.774 78.3464 439.77C78.3678 439.767 78.3981 439.767 78.4336 439.777C78.4703 439.787 78.5033 439.804 78.5284 439.824L77.275 441.383ZM76 439.354C76 439.887 76.2859 440.331 76.4861 440.592C76.7155 440.89 77.0028 441.164 77.275 441.383L78.5284 439.824C78.3432 439.675 78.1797 439.513 78.0726 439.374C78.0195 439.305 77.9942 439.259 77.9852 439.239C77.9741 439.215 78 439.259 78 439.354H76ZM76 268.621V439.354H78V268.621H76ZM78.444 267.22C77.9949 266.998 77.3978 266.886 76.8425 267.166C76.2442 267.468 76 268.066 76 268.621H78C78 268.616 78.0009 268.666 77.9603 268.742C77.9167 268.824 77.8419 268.902 77.7433 268.952C77.5499 269.049 77.4528 268.961 77.556 269.012L78.444 267.22ZM92.5373 320.883C92.3692 320.87 92.2608 320.786 92.2186 320.742C92.1839 320.706 92.185 320.691 92.1941 320.717L94.0776 320.044C93.9486 319.683 93.5562 318.956 92.6926 318.889L92.5373 320.883ZM93 320.505C93 320.498 92.9985 320.619 92.8711 320.744C92.7386 320.873 92.5916 320.887 92.5373 320.883L92.6926 318.889C92.2771 318.857 91.8226 318.972 91.473 319.314C91.1284 319.651 91 320.095 91 320.505H93ZM93 425.971V320.505H91V425.971H93ZM93.2303 426.402C93.0494 426.206 93 426.017 93 425.971H91C91 426.663 91.3502 427.315 91.7637 427.761L93.2303 426.402ZM92.8735 426.288C92.8735 426.288 92.8737 426.287 92.8744 426.287C92.8751 426.287 92.8769 426.286 92.8804 426.284C92.8862 426.282 92.9042 426.276 92.9354 426.274C92.9674 426.273 93.0168 426.276 93.0751 426.298C93.1358 426.321 93.1899 426.358 93.2303 426.402L91.7637 427.761C92.5243 428.582 93.5928 428.273 94.1215 427.85L92.8735 426.288ZM97 422.992L92.8735 426.288L94.1215 427.85L98.248 424.555L97 422.992ZM97 422.992H97L98.248 424.555C98.7233 424.176 99 423.601 99 422.992H97ZM97 419.016V422.992H99V419.016H97ZM96.0965 407.858L97.0032 419.096L98.9968 418.935L98.09 407.697L96.0965 407.858ZM96.0933 388.53V407.777H98.0933V388.53H96.0933ZM96.1575 388.027C96.1148 388.191 96.0933 388.36 96.0933 388.53H98.0933L98.0933 388.53L96.1575 388.027ZM98 380.933L96.1575 388.027L98.0933 388.53L99.9358 381.436L98 380.933ZM98 380.933V380.933L99.9358 381.436C99.9784 381.272 100 381.103 100 380.933H98ZM98 364.783V380.933H100V364.783H98ZM97.7008 364.284C97.9221 364.481 98 364.72 98 364.783H100C100 363.998 99.5507 363.252 99.0277 362.788L97.7008 364.284ZM96.917 363.136C97.0761 363.694 97.4587 364.07 97.7008 364.284L99.0277 362.788C98.9464 362.716 98.8962 362.663 98.865 362.622C98.8355 362.584 98.8363 362.573 98.8404 362.588L96.917 363.136ZM94.5766 354.925L96.917 363.136L98.8404 362.588L96.5 354.376L94.5766 354.925ZM94.5 354.376C94.5 354.562 94.5258 354.746 94.5766 354.925L96.5 354.376H94.5ZM94.5 327.173V354.376H96.5V327.173H94.5ZM94.5 327.173L94.5 327.173H96.5C96.5 326.944 96.4606 326.716 96.3835 326.501L94.5 327.173ZM92.1941 320.717L94.5 327.173L96.3835 326.501L94.0776 320.044L92.1941 320.717Z" fill="#76FFDE" mask="url(#top__img-key_path-5-inside-1)"/>
</g>
</g>
</g>
</g>
<g id="top__img-key1">
<g id="top__img-key_Rectangle_2">
<path id="top__img-key_Mask_5" fill-rule="evenodd" clip-rule="evenodd" d="M25.1828 0.83136L21 3L4.61133 14.6443V140.016L25.1828 181L31.9608 183.796L36 182L36.8887 95.894L39.9888 92.0122L69.1968 105.601L75.332 100.66L75 28.3772L25.1828 0.83136Z" fill="url(#top__img-key_paint2_linear)"/>
<mask id="top__img-key_mask2" mask-type="alpha" maskUnits="userSpaceOnUse" x="4" y="0" width="72" height="184">
<path id="top__img-key_Mask_6" fill-rule="evenodd" clip-rule="evenodd" d="M25.1828 0.83136L21 3L4.61133 14.6443V140.016L25.1828 181L31.9608 183.796L36 182L36.8887 95.894L39.9888 92.0122L69.1968 105.601L75.332 100.66L75 28.3772L25.1828 0.83136Z" fill="white"/>
</mask>
<g mask="url(#top__img-key_mask2)">
</g>
</g>
<g id="top__img-key_Path 2 + Path 2 Mask_2">
<g id="top__img-key_Mask_7" filter="url(#top__img-key_filter2_i)">
<path fill-rule="evenodd" clip-rule="evenodd" d="M21.1828 2.83136L0.611328 16.6443V142.016L21.1828 179.963L32 184V96L36.1378 91.6014L64 106.382L71.6642 101.801V30.745L21.1828 2.83136Z" fill="url(#top__img-key_paint3_linear)"/>
</g>
<mask id="top__img-key_mask3" mask-type="alpha" maskUnits="userSpaceOnUse" x="0" y="2" width="72" height="182">
<path id="top__img-key_Mask_8" fill-rule="evenodd" clip-rule="evenodd" d="M21.1828 2.83136L0.611328 16.6443V142.016L21.1828 179.963L32 184V96L36.1378 91.6014L64 106.382L71.6642 101.801V30.745L21.1828 2.83136Z" fill="white"/>
</mask>
<g mask="url(#top__img-key_mask3)">
<g id="top__img-key_Combined Shape_2" filter="url(#top__img-key_filter3_d)">
<path fill-rule="evenodd" clip-rule="evenodd" d="M61 35.7544L22 15C21.4477 14.7066 21 14.9165 21 15.4688V19.4688C21 20.0211 21.4477 20.7066 22 21L61 41.7544C61.5523 42.0478 62 41.8379 62 41.2856V37.2856C62 36.7333 61.5523 36.0478 61 35.7544ZM9 26.1325L61 53.7544C61.5523 54.0478 62 54.7333 62 55.2856V59.2856C62 59.8379 61.5523 60.0478 61 59.7544L9 32.1325C8.44772 31.8392 8 31.1536 8 30.6013V26.6013C8 26.0491 8.44772 25.8392 9 26.1325ZM9 43.1325L61 70.7544C61.5523 71.0478 62 71.7333 62 72.2856V76.2856C62 76.8379 61.5523 77.0478 61 76.7544L9 49.1325C8.44772 48.8392 8 48.1536 8 47.6013V43.6013C8 43.0491 8.44772 42.8392 9 43.1325ZM61 88.7544L9 61.1325C8.44772 60.8392 8 61.0491 8 61.6013V65.6013C8 66.1536 8.44772 66.8392 9 67.1325L61 94.7544C61.5523 95.0478 62 94.8379 62 94.2856V90.2856C62 89.7333 61.5523 89.0478 61 88.7544ZM9 78.1325L23 85.4688C23.5523 85.7622 24 86.4477 24 87V91C24 91.5523 23.5523 91.7622 23 91.4688L9 84.1325C8.44772 83.8392 8 83.1536 8 82.6013V78.6013C8 78.0491 8.44772 77.8392 9 78.1325ZM23 102.469L9 95.1325C8.44772 94.8392 8 95.0491 8 95.6013V99.6013C8 100.154 8.44772 100.839 9 101.133L23 108.469C23.5523 108.762 24 108.552 24 108V104C24 103.448 23.5523 102.762 23 102.469ZM9 112.133L23 119.469C23.5523 119.762 24 120.448 24 121V125C24 125.552 23.5523 125.762 23 125.469L9 118.133C8.44772 117.839 8 117.154 8 116.601V112.601C8 112.049 8.44772 111.839 9 112.133ZM23 136.469L9 129.133C8.44772 128.839 8 129.049 8 129.601V133.601C8 134.154 8.44772 134.839 9 135.133L23 142.469C23.5523 142.762 24 142.552 24 142V138C24 137.448 23.5523 136.762 23 136.469ZM14 147L23 151.469C23.5523 151.762 24 152.448 24 153V157C24 157.552 23.5523 157.762 23 157.469L14 153C13.4477 152.707 13 152.021 13 151.469V147.469C13 146.917 13.4477 146.707 14 147Z" fill="#414064"/>
</g>
</g>
</g>
</g>
<g id="top__img-key2">
<g id="top__img-key_Rectangle_3">
<path id="top__img-key_Mask_9" fill-rule="evenodd" clip-rule="evenodd" d="M73.7153 31.2084L74 103L73 107L43 92L39 93L36 97L36 188L50.1729 191.072L57.2665 201.847V234.195L81 246L87 256L107 264L110.697 261.923L106.922 255.274V227.656L111.887 231.57L116 228.729L115 134L110 124L86 112L81 101L81.0442 31.061L77.3595 29.0236L73.7153 31.2084Z" fill="url(#top__img-key_paint4_linear)"/>
<mask id="top__img-key_mask4" mask-type="alpha" maskUnits="userSpaceOnUse" x="36" y="29" width="80" height="235">
<path id="top__img-key_Mask_10" fill-rule="evenodd" clip-rule="evenodd" d="M73.7153 31.2084L74 103L73 107L43 92L39 93L36 97L36 188L50.1729 191.072L57.2665 201.847V234.195L81 246L87 256L107 264L110.697 261.923L106.922 255.274V227.656L111.887 231.57L116 228.729L115 134L110 124L86 112L81 101L81.0442 31.061L77.3595 29.0236L73.7153 31.2084Z" fill="white"/>
</mask>
<g mask="url(#top__img-key_mask4)">
</g>
</g>
<g id="top__img-key_Path 2 + Path 2 Mask_3">
<g id="top__img-key_Mask_11" filter="url(#top__img-key_filter4_i)">
<path fill-rule="evenodd" clip-rule="evenodd" d="M74 101L67 107L39 93L35 97L35.0381 186.94L46.1729 193.072L53.2665 203.847V226.206L57 235L82 247L86 256L107.239 264.877L102.922 257.274V232.907L107.887 229.63L111.76 231.763L112 135L107 126L83 114L78 103L78.4383 33.7157L73.6996 31.2117L74 101Z" fill="url(#top__img-key_paint5_linear)"/>
</g>
<mask id="top__img-key_mask5" mask-type="alpha" maskUnits="userSpaceOnUse" x="35" y="31" width="77" height="234">
<path id="top__img-key_Mask_12" fill-rule="evenodd" clip-rule="evenodd" d="M74 101L67 107L39 93L35 97L35.0381 186.94L46.1729 193.072L53.2665 203.847V226.206L57 235L82 247L86 256L107.239 264.877L102.922 257.274V232.907L107.887 229.63L111.76 231.763L112 135L107 126L83 114L78 103L78.4383 33.7157L73.6996 31.2117L74 101Z" fill="white"/>
</mask>
<g mask="url(#top__img-key_mask5)">
</g>
</g>
<g id="top__img-key_Group 21">
<g id="top__img-key_Path 5">
<path id="top__img-key_Mask_13" fill-rule="evenodd" clip-rule="evenodd" d="M90.9545 160.397L90.9532 160.351C90.9332 159.78 90.92 159.18 90.912 158.515C90.8746 155.274 88.8671 151.656 86.3416 150.28C81.0759 147.41 77.0024 143.288 73.5219 137.309L73.4922 137.259C72.3569 135.392 70.6445 134.581 69.5088 135.372L69.4791 135.394C65.9986 138.075 61.9251 138.337 56.6595 136.218C54.1342 135.201 52.1265 136.917 52.0891 140.123C52.0814 140.776 52.0678 141.363 52.0478 141.92L52.0458 142.024C51.9434 148.83 51.8162 157.3 54.0518 166.102C55.281 170.942 57.1427 175.525 59.5847 179.725C62.3661 184.507 66.0091 188.984 70.4124 193.03C70.5557 193.161 70.7045 193.283 70.8562 193.394C71.07 193.55 71.2853 193.679 71.5005 193.781C71.7157 193.883 71.9313 193.958 72.1448 194.005C72.2964 194.038 72.4464 194.057 72.5904 194.061C76.9884 194.181 80.6276 193.153 83.4064 191.005C85.8475 189.118 87.7092 186.298 88.9395 182.622C91.1834 175.919 91.0566 167.313 90.9545 160.397Z" fill="#BC9B5B"/>
<g id="top__img-key_Mask_14" filter="url(#top__img-key_filter5_d)">
<path fill-rule="evenodd" clip-rule="evenodd" d="M87.9627 160.534L87.9616 160.495C87.9452 160.011 87.9344 159.502 87.9278 158.939C87.8971 156.192 86.2499 153.126 84.1777 151.96C79.8572 149.528 76.5148 146.035 73.659 140.967L73.6346 140.925C72.7031 139.343 71.298 138.655 70.3662 139.326L70.3418 139.344C67.486 141.617 64.1437 141.839 59.8231 140.043C57.7511 139.181 56.1038 140.635 56.0731 143.352C56.0668 143.905 56.0556 144.403 56.0393 144.875L56.0376 144.963C55.9535 150.731 55.8492 157.909 57.6835 165.368C58.6921 169.47 60.2196 173.354 62.2234 176.913C64.5055 180.966 67.4946 184.76 71.1076 188.188C71.2252 188.3 71.3473 188.403 71.4718 188.497C71.6472 188.629 71.8238 188.739 72.0004 188.825C72.177 188.912 72.3539 188.975 72.5291 189.015C72.6535 189.043 72.7765 189.059 72.8947 189.062C76.5033 189.164 79.4893 188.293 81.7694 186.473C83.7723 184.874 85.2998 182.484 86.3093 179.369C88.1505 173.688 88.0464 166.395 87.9627 160.534Z" fill="#F13C0D"/>
</g>
<mask id="top__img-key_mask6" mask-type="alpha" maskUnits="userSpaceOnUse" x="56" y="139" width="32" height="51">
<path id="top__img-key_Mask_15" fill-rule="evenodd" clip-rule="evenodd" d="M87.9627 160.534L87.9616 160.495C87.9452 160.011 87.9344 159.502 87.9278 158.939C87.8971 156.192 86.2499 153.126 84.1777 151.96C79.8572 149.528 76.5148 146.035 73.659 140.967L73.6346 140.925C72.7031 139.343 71.298 138.655 70.3662 139.326L70.3418 139.344C67.486 141.617 64.1437 141.839 59.8231 140.043C57.7511 139.181 56.1038 140.635 56.0731 143.352C56.0668 143.905 56.0556 144.403 56.0393 144.875L56.0376 144.963C55.9535 150.731 55.8492 157.909 57.6835 165.368C58.6921 169.47 60.2196 173.354 62.2234 176.913C64.5055 180.966 67.4946 184.76 71.1076 188.188C71.2252 188.3 71.3473 188.403 71.4718 188.497C71.6472 188.629 71.8238 188.739 72.0004 188.825C72.177 188.912 72.3539 188.975 72.5291 189.015C72.6535 189.043 72.7765 189.059 72.8947 189.062C76.5033 189.164 79.4893 188.293 81.7694 186.473C83.7723 184.874 85.2998 182.484 86.3093 179.369C88.1505 173.688 88.0464 166.395 87.9627 160.534Z" fill="white"/>
</mask>
<g mask="url(#top__img-key_mask6)">
<path id="top__img-key_Combined Shape_3" fill-rule="evenodd" clip-rule="evenodd" d="M76 151.393L68 147.663V157.011L59.875 153.158L60 162L68 165.667V175.035L76 178.714V169.333L84 173V164.598L76 160.804V151.393Z" fill="white"/>
</g>
</g>
</g>
</g>
<g id="top__img-key3">
<g id="top__img-key_Rectangle_4">
<path id="top__img-key_Mask_16" fill-rule="evenodd" clip-rule="evenodd" d="M84 32L80.5 34.3017V104.021L123 123L114.887 228.63L136 241L150.611 231.895L154.611 229.316V95.936L134.04 59.7061L84 32Z" fill="url(#top__img-key_paint6_linear)"/>
<mask id="top__img-key_mask7" mask-type="alpha" maskUnits="userSpaceOnUse" x="80" y="32" width="75" height="209">
<path id="top__img-key_Mask_17" fill-rule="evenodd" clip-rule="evenodd" d="M84 32L80.5 34.3017V104.021L123 123L114.887 228.63L136 241L150.611 231.895L154.611 229.316V95.936L134.04 59.7061L84 32Z" fill="white"/>
</mask>
<g mask="url(#top__img-key_mask7)">
</g>
</g>
<g id="top__img-key_Path 2 + Path 2 Mask_4">
<g id="top__img-key_Mask_18" filter="url(#top__img-key_filter6_i)">
<path fill-rule="evenodd" clip-rule="evenodd" d="M80.4805 104L84.8364 112.766L109.501 124.897L115.001 136.416L114.725 232.743L133.588 243.129L150.612 231.895V97.936L130.041 61.7061L80.4805 34.3018L80.4805 104Z" fill="url(#top__img-key_paint7_linear)"/>
</g>
<mask id="top__img-key_mask8" mask-type="alpha" maskUnits="userSpaceOnUse" x="80" y="34" width="71" height="210">
<path id="top__img-key_Mask_19" fill-rule="evenodd" clip-rule="evenodd" d="M80.4805 104L84.8364 112.766L109.501 124.897L115.001 136.416L114.725 232.743L133.588 243.129L150.612 231.895V97.936L130.041 61.7061L80.4805 34.3018L80.4805 104Z" fill="white"/>
</mask>
<g mask="url(#top__img-key_mask8)">
<g id="top__img-key_Combined Shape Copy" filter="url(#top__img-key_filter7_di)">
<mask id="top__img-key_path-24-inside-2" fill="white">
<path fill-rule="evenodd" clip-rule="evenodd" d="M129 70L90 49.2456C89.4477 48.9522 89 49.1621 89 49.7144V53.7144C89 54.2667 89.4477 54.9522 90 55.2456L129 76C129.552 76.2934 130 76.0835 130 75.5312V71.5312C130 70.9789 129.552 70.2934 129 70ZM89 66.2651L140 92C140.552 92.2934 141 92.9789 141 93.5312V97.5312C141 98.0835 140.552 98.2934 140 98L89 72.2651C88.4477 71.9718 88 71.2862 88 70.7339V66.7339C88 66.1817 88.4477 65.9718 89 66.2651ZM89 83.2651L140 109C140.552 109.293 141 109.979 141 110.531V114.531C141 115.084 140.552 115.293 140 115L89 89.2651C88.4477 88.9718 88 88.2862 88 87.7339V83.7339C88 83.1817 88.4477 82.9718 89 83.2651ZM140 127L89 101.265C88.4477 100.972 88 101.182 88 101.734V105.734C88 106.286 88.4477 106.972 89 107.265L137.377 131.676C138.229 132.107 138.051 133.371 137.118 133.573C135.066 134.017 141 132.98 141 132.531V128.531C141 127.979 140.552 127.293 140 127ZM125 138.664L139 146C139.552 146.293 140 146.979 140 147.531V151.531C140 152.084 139.552 152.293 139 152L125 144.664C124.448 144.37 124 143.685 124 143.133V139.133C124 138.58 124.448 138.37 125 138.664ZM139 163L125 155.664C124.448 155.37 124 155.58 124 156.133V160.133C124 160.685 124.448 161.37 125 161.664L139 169C139.552 169.293 140 169.084 140 168.531V164.531C140 163.979 139.552 163.293 139 163ZM125 172.664L139 180C139.552 180.293 140 180.979 140 181.531V185.531C140 186.084 139.552 186.293 139 186L125 178.664C124.448 178.37 124 177.685 124 177.133V173.133C124 172.58 124.448 172.37 125 172.664ZM139 197L125 189.664C124.448 189.37 124 189.58 124 190.133V194.133C124 194.685 124.448 195.37 125 195.664L139 203C139.552 203.293 140 203.084 140 202.531V198.531C140 197.979 139.552 197.293 139 197ZM125 206.531L134 211C134.552 211.293 135 211.979 135 212.531V216.531C135 217.083 134.552 217.293 134 217L125 212.531C124.448 212.238 124 211.552 124 211V207C124 206.448 124.448 206.238 125 206.531Z"/>
</mask>
<path fill-rule="evenodd" clip-rule="evenodd" d="M129 70L90 49.2456C89.4477 48.9522 89 49.1621 89 49.7144V53.7144C89 54.2667 89.4477 54.9522 90 55.2456L129 76C129.552 76.2934 130 76.0835 130 75.5312V71.5312C130 70.9789 129.552 70.2934 129 70ZM89 66.2651L140 92C140.552 92.2934 141 92.9789 141 93.5312V97.5312C141 98.0835 140.552 98.2934 140 98L89 72.2651C88.4477 71.9718 88 71.2862 88 70.7339V66.7339C88 66.1817 88.4477 65.9718 89 66.2651ZM89 83.2651L140 109C140.552 109.293 141 109.979 141 110.531V114.531C141 115.084 140.552 115.293 140 115L89 89.2651C88.4477 88.9718 88 88.2862 88 87.7339V83.7339C88 83.1817 88.4477 82.9718 89 83.2651ZM140 127L89 101.265C88.4477 100.972 88 101.182 88 101.734V105.734C88 106.286 88.4477 106.972 89 107.265L137.377 131.676C138.229 132.107 138.051 133.371 137.118 133.573C135.066 134.017 141 132.98 141 132.531V128.531C141 127.979 140.552 127.293 140 127ZM125 138.664L139 146C139.552 146.293 140 146.979 140 147.531V151.531C140 152.084 139.552 152.293 139 152L125 144.664C124.448 144.37 124 143.685 124 143.133V139.133C124 138.58 124.448 138.37 125 138.664ZM139 163L125 155.664C124.448 155.37 124 155.58 124 156.133V160.133C124 160.685 124.448 161.37 125 161.664L139 169C139.552 169.293 140 169.084 140 168.531V164.531C140 163.979 139.552 163.293 139 163ZM125 172.664L139 180C139.552 180.293 140 180.979 140 181.531V185.531C140 186.084 139.552 186.293 139 186L125 178.664C124.448 178.37 124 177.685 124 177.133V173.133C124 172.58 124.448 172.37 125 172.664ZM139 197L125 189.664C124.448 189.37 124 189.58 124 190.133V194.133C124 194.685 124.448 195.37 125 195.664L139 203C139.552 203.293 140 203.084 140 202.531V198.531C140 197.979 139.552 197.293 139 197ZM125 206.531L134 211C134.552 211.293 135 211.979 135 212.531V216.531C135 217.083 134.552 217.293 134 217L125 212.531C124.448 212.238 124 211.552 124 211V207C124 206.448 124.448 206.238 125 206.531Z" fill="#79FFDF"/>
<path d="M90 49.2456L90.4698 48.3628L90.4691 48.3625L90 49.2456ZM129 70L128.53 70.8828L128.531 70.8832L129 70ZM90 55.2456L90.4698 54.3628L90.4691 54.3625L90 55.2456ZM129 76L128.53 76.8828L128.531 76.8832L129 76ZM140 92L140.469 91.1169L140.46 91.112L140.451 91.1073L140 92ZM89 66.2651L88.5309 67.1483L88.5401 67.1532L88.5495 67.1579L89 66.2651ZM140 98L140.469 97.1169L140.46 97.112L140.451 97.1073L140 98ZM89 72.2651L88.5309 73.1483L88.5401 73.1532L88.5495 73.1579L89 72.2651ZM140 109L140.469 108.117L140.46 108.112L140.451 108.107L140 109ZM89 83.2651L88.5309 84.1483L88.5401 84.1532L88.5495 84.1579L89 83.2651ZM140 115L140.469 114.117L140.46 114.112L140.451 114.107L140 115ZM89 89.2651L88.5309 90.1483L88.5401 90.1532L88.5495 90.1579L89 89.2651ZM89 101.265L88.5309 102.148L88.5401 102.153L88.5495 102.158L89 101.265ZM140 127L140.469 126.117L140.46 126.112L140.451 126.107L140 127ZM89 107.265L88.5309 108.148L88.5401 108.153L88.5495 108.158L89 107.265ZM137.377 131.676L136.927 132.569H136.927L137.377 131.676ZM137.118 133.573L137.329 134.55L137.118 133.573ZM139 146L139.469 145.117L139.464 145.114L139 146ZM125 138.664L124.531 139.547L124.536 139.55L125 138.664ZM139 152L139.469 151.117L139.464 151.114L139 152ZM125 144.664L124.531 145.547L124.536 145.55L125 144.664ZM125 155.664L124.531 156.547L124.536 156.55L125 155.664ZM139 163L139.469 162.117L139.464 162.114L139 163ZM125 161.664L124.531 162.547L124.536 162.55L125 161.664ZM139 169L139.469 168.117L139.464 168.114L139 169ZM139 180L139.469 179.117L139.464 179.114L139 180ZM125 172.664L124.531 173.547L124.536 173.55L125 172.664ZM139 186L139.469 185.117L139.464 185.114L139 186ZM125 178.664L124.531 179.547L124.536 179.55L125 178.664ZM125 189.664L124.531 190.547L124.536 190.55L125 189.664ZM139 197L139.469 196.117L139.464 196.114L139 197ZM125 195.664L124.531 196.547L124.536 196.55L125 195.664ZM139 203L139.469 202.117L139.464 202.114L139 203ZM134 211L134.469 210.117L134.457 210.11L134.445 210.104L134 211ZM125 206.531L124.531 207.414L124.543 207.421L124.555 207.427L125 206.531ZM134 217L134.469 216.117L134.457 216.11L134.445 216.104L134 217ZM125 212.531L124.531 213.414L124.543 213.421L124.555 213.427L125 212.531ZM89.5302 50.1284L128.53 70.8828L129.47 69.1172L90.4698 48.3628L89.5302 50.1284ZM90 49.7144C90 49.709 90.0011 49.764 89.9565 49.8458C89.9081 49.9344 89.825 50.0178 89.7174 50.0683C89.5111 50.165 89.4145 50.0669 89.5309 50.1287L90.4691 48.3625C90.0332 48.1309 89.4366 47.9911 88.8684 48.2574C88.2458 48.5493 88 49.1614 88 49.7144H90ZM90 53.7144V49.7144H88V53.7144H90ZM90.4691 54.3625C90.3674 54.3084 90.2358 54.192 90.1302 54.0303C90.0201 53.8617 90 53.7405 90 53.7144H88C88 54.2405 88.2038 54.7382 88.4556 55.1239C88.7119 55.5164 89.0804 55.8894 89.5309 56.1287L90.4691 54.3625ZM129.47 75.1172L90.4698 54.3628L89.5302 56.1284L128.53 76.8828L129.47 75.1172ZM129 75.5312C129 75.5366 128.999 75.4816 129.044 75.3998C129.092 75.3112 129.175 75.2278 129.283 75.1773C129.489 75.0806 129.585 75.1787 129.469 75.1169L128.531 76.8832C128.967 77.1147 129.563 77.2545 130.132 76.9882C130.754 76.6963 131 76.0843 131 75.5312H129ZM129 71.5312V75.5312H131V71.5312H129ZM128.531 70.8832C128.633 70.9372 128.764 71.0536 128.87 71.2153C128.98 71.3839 129 71.5051 129 71.5312H131C131 71.0051 130.796 70.5074 130.544 70.1217C130.288 69.7293 129.92 69.3562 129.469 69.1169L128.531 70.8832ZM140.451 91.1073L89.4505 65.3724L88.5495 67.1579L139.549 92.8928L140.451 91.1073ZM142 93.5312C142 93.0051 141.796 92.5074 141.544 92.1217C141.288 91.7293 140.92 91.3562 140.469 91.1169L139.531 92.8832C139.633 92.9372 139.764 93.0536 139.87 93.2153C139.98 93.3839 140 93.5051 140 93.5312H142ZM142 97.5312V93.5312H140V97.5312H142ZM139.531 98.8832C139.967 99.1147 140.563 99.2546 141.132 98.9882C141.754 98.6963 142 98.0843 142 97.5312H140C140 97.5366 139.999 97.4816 140.044 97.3998C140.092 97.3112 140.175 97.2278 140.283 97.1773C140.489 97.0806 140.585 97.1787 140.469 97.1169L139.531 98.8832ZM88.5495 73.1579L139.549 98.8928L140.451 97.1073L89.4505 71.3724L88.5495 73.1579ZM87 70.7339C87 71.2601 87.2038 71.7578 87.4556 72.1434C87.7119 72.5359 88.0804 72.909 88.5309 73.1483L89.4691 71.382C89.3674 71.3279 89.2358 71.2115 89.1302 71.0498C89.0201 70.8813 89 70.7601 89 70.7339H87ZM87 66.7339V70.7339H89V66.7339H87ZM89.4691 65.382C89.0332 65.1504 88.4366 65.0106 87.8684 65.277C87.2458 65.5689 87 66.1809 87 66.7339H89C89 66.7286 89.0011 66.7835 88.9565 66.8653C88.9081 66.954 88.825 67.0374 88.7174 67.0879C88.5111 67.1845 88.4145 67.0865 88.5309 67.1483L89.4691 65.382ZM140.451 108.107L89.4505 82.3724L88.5495 84.1579L139.549 109.893L140.451 108.107ZM142 110.531C142 110.005 141.796 109.507 141.544 109.122C141.288 108.729 140.92 108.356 140.469 108.117L139.531 109.883C139.633 109.937 139.764 110.054 139.87 110.215C139.98 110.384 140 110.505 140 110.531H142ZM142 114.531V110.531H140V114.531H142ZM139.531 115.883C139.967 116.115 140.563 116.255 141.132 115.988C141.754 115.696 142 115.084 142 114.531H140C140 114.537 139.999 114.482 140.044 114.4C140.092 114.311 140.175 114.228 140.283 114.177C140.489 114.081 140.585 114.179 140.469 114.117L139.531 115.883ZM88.5495 90.1579L139.549 115.893L140.451 114.107L89.4505 88.3724L88.5495 90.1579ZM87 87.7339C87 88.2601 87.2038 88.7578 87.4556 89.1434C87.7119 89.5359 88.0804 89.909 88.5309 90.1483L89.4691 88.382C89.3674 88.3279 89.2358 88.2116 89.1302 88.0498C89.0201 87.8813 89 87.7601 89 87.7339H87ZM87 83.7339V87.7339H89V83.7339H87ZM89.4691 82.382C89.0332 82.1504 88.4366 82.0106 87.8684 82.277C87.2458 82.5689 87 83.1809 87 83.7339H89C89 83.7286 89.0011 83.7835 88.9565 83.8653C88.9081 83.954 88.825 84.0374 88.7174 84.0879C88.5111 84.1845 88.4145 84.0865 88.5309 84.1483L89.4691 82.382ZM88.5495 102.158L139.549 127.893L140.451 126.107L89.4505 100.372L88.5495 102.158ZM89 101.734C89 101.729 89.0011 101.784 88.9565 101.865C88.9081 101.954 88.825 102.037 88.7174 102.088C88.5111 102.185 88.4145 102.086 88.5309 102.148L89.4691 100.382C89.0332 100.15 88.4366 100.011 87.8684 100.277C87.2458 100.569 87 101.181 87 101.734H89ZM89 105.734V101.734H87V105.734H89ZM89.4691 106.382C89.3674 106.328 89.2358 106.212 89.1302 106.05C89.0201 105.881 89 105.76 89 105.734H87C87 106.26 87.2038 106.758 87.4556 107.143C87.7119 107.536 88.0804 107.909 88.5309 108.148L89.4691 106.382ZM137.828 130.784L89.4505 106.372L88.5495 108.158L136.927 132.569L137.828 130.784ZM137.329 134.55C139.142 134.157 139.559 131.657 137.828 130.784L136.927 132.569C136.938 132.575 136.939 132.578 136.936 132.574C136.933 132.571 136.93 132.567 136.928 132.563C136.926 132.559 136.926 132.558 136.927 132.56C136.927 132.562 136.927 132.567 136.926 132.573C136.926 132.579 136.924 132.584 136.922 132.588C136.92 132.592 136.919 132.593 136.92 132.593C136.92 132.592 136.922 132.591 136.923 132.59C136.924 132.589 136.92 132.592 136.906 132.595L137.329 134.55ZM140 132.531C140 132.262 140.111 132.072 140.179 131.98C140.247 131.889 140.312 131.838 140.335 131.821C140.38 131.787 140.396 131.785 140.343 131.809C140.246 131.852 140.074 131.913 139.824 131.986C139.336 132.129 138.687 132.28 138.082 132.408C137.478 132.536 136.948 132.634 136.705 132.672C136.638 132.683 136.619 132.684 136.63 132.683C136.633 132.683 136.654 132.681 136.683 132.681C136.698 132.681 136.726 132.681 136.763 132.683C136.787 132.685 136.874 132.691 136.981 132.724C137.034 132.74 137.143 132.778 137.262 132.862C137.384 132.947 137.582 133.13 137.658 133.443C137.736 133.765 137.638 134.03 137.552 134.179C137.472 134.318 137.378 134.403 137.333 134.442C137.241 134.52 137.156 134.561 137.134 134.572C137.1 134.589 137.072 134.6 137.058 134.606C137 134.628 136.97 134.632 137.058 134.611C137.116 134.597 137.205 134.577 137.329 134.55L136.906 132.595C136.774 132.624 136.669 132.648 136.589 132.667C136.538 132.679 136.425 132.706 136.333 132.742C136.315 132.749 136.283 132.762 136.246 132.78C136.222 132.792 136.135 132.835 136.042 132.914C135.996 132.953 135.901 133.039 135.821 133.178C135.734 133.328 135.636 133.593 135.715 133.916C135.791 134.229 135.99 134.412 136.111 134.498C136.231 134.582 136.341 134.62 136.394 134.636C136.503 134.67 136.593 134.676 136.62 134.678C136.659 134.681 136.691 134.681 136.71 134.681C136.748 134.68 136.781 134.678 136.799 134.676C136.866 134.671 136.946 134.659 137.013 134.648C137.305 134.603 137.874 134.497 138.497 134.365C139.119 134.233 139.825 134.069 140.386 133.905C140.66 133.825 140.935 133.735 141.156 133.637C141.26 133.59 141.402 133.521 141.533 133.423C141.598 133.373 141.697 133.291 141.787 133.169C141.877 133.048 142 132.829 142 132.531H140ZM140 128.531V132.531H142V128.531H140ZM139.531 127.883C139.633 127.937 139.764 128.054 139.87 128.215C139.98 128.384 140 128.505 140 128.531H142C142 128.005 141.796 127.507 141.544 127.122C141.288 126.729 140.92 126.356 140.469 126.117L139.531 127.883ZM139.464 145.114L125.464 137.778L124.536 139.55L138.536 146.886L139.464 145.114ZM141 147.531C141 147.005 140.796 146.507 140.544 146.122C140.288 145.729 139.92 145.356 139.469 145.117L138.531 146.883C138.633 146.937 138.764 147.054 138.87 147.215C138.98 147.384 139 147.505 139 147.531H141ZM141 151.531V147.531H139V151.531H141ZM138.531 152.883C138.967 153.115 139.563 153.255 140.132 152.988C140.754 152.696 141 152.084 141 151.531H139C139 151.537 138.999 151.482 139.044 151.4C139.092 151.311 139.175 151.228 139.283 151.177C139.489 151.081 139.585 151.179 139.469 151.117L138.531 152.883ZM124.536 145.55L138.536 152.886L139.464 151.114L125.464 143.778L124.536 145.55ZM123 143.133C123 143.659 123.204 144.156 123.456 144.542C123.712 144.935 124.08 145.308 124.531 145.547L125.469 143.781C125.367 143.727 125.236 143.61 125.13 143.448C125.02 143.28 125 143.159 125 143.133H123ZM123 139.133V143.133H125V139.133H123ZM125.469 137.781C125.033 137.549 124.437 137.409 123.868 137.676C123.246 137.968 123 138.58 123 139.133H125C125 139.127 125.001 139.182 124.956 139.264C124.908 139.353 124.825 139.436 124.717 139.486C124.511 139.583 124.415 139.485 124.531 139.547L125.469 137.781ZM124.536 156.55L138.536 163.886L139.464 162.114L125.464 154.778L124.536 156.55ZM125 156.133C125 156.127 125.001 156.182 124.956 156.264C124.908 156.353 124.825 156.436 124.717 156.486C124.511 156.583 124.415 156.485 124.531 156.547L125.469 154.781C125.033 154.549 124.437 154.409 123.868 154.676C123.246 154.968 123 155.58 123 156.133H125ZM125 160.133V156.133H123V160.133H125ZM125.469 160.781C125.367 160.727 125.236 160.61 125.13 160.448C125.02 160.28 125 160.159 125 160.133H123C123 160.659 123.204 161.156 123.456 161.542C123.712 161.935 124.08 162.308 124.531 162.547L125.469 160.781ZM139.464 168.114L125.464 160.778L124.536 162.55L138.536 169.886L139.464 168.114ZM139 168.531C139 168.537 138.999 168.482 139.044 168.4C139.092 168.311 139.175 168.228 139.283 168.177C139.489 168.081 139.585 168.179 139.469 168.117L138.531 169.883C138.967 170.115 139.563 170.255 140.132 169.988C140.754 169.696 141 169.084 141 168.531H139ZM139 164.531V168.531H141V164.531H139ZM138.531 163.883C138.633 163.937 138.764 164.054 138.87 164.215C138.98 164.384 139 164.505 139 164.531H141C141 164.005 140.796 163.507 140.544 163.122C140.288 162.729 139.92 162.356 139.469 162.117L138.531 163.883ZM139.464 179.114L125.464 171.778L124.536 173.55L138.536 180.886L139.464 179.114ZM141 181.531C141 181.005 140.796 180.507 140.544 180.122C140.288 179.729 139.92 179.356 139.469 179.117L138.531 180.883C138.633 180.937 138.764 181.054 138.87 181.215C138.98 181.384 139 181.505 139 181.531H141ZM141 185.531V181.531H139V185.531H141ZM138.531 186.883C138.967 187.115 139.563 187.255 140.132 186.988C140.754 186.696 141 186.084 141 185.531H139C139 185.537 138.999 185.482 139.044 185.4C139.092 185.311 139.175 185.228 139.283 185.177C139.489 185.081 139.585 185.179 139.469 185.117L138.531 186.883ZM124.536 179.55L138.536 186.886L139.464 185.114L125.464 177.778L124.536 179.55ZM123 177.133C123 177.659 123.204 178.156 123.456 178.542C123.712 178.935 124.08 179.308 124.531 179.547L125.469 177.781C125.367 177.727 125.236 177.61 125.13 177.448C125.02 177.28 125 177.159 125 177.133H123ZM123 173.133V177.133H125V173.133H123ZM125.469 171.781C125.033 171.549 124.437 171.409 123.868 171.676C123.246 171.968 123 172.58 123 173.133H125C125 173.127 125.001 173.182 124.956 173.264C124.908 173.353 124.825 173.436 124.717 173.486C124.511 173.583 124.415 173.485 124.531 173.547L125.469 171.781ZM124.536 190.55L138.536 197.886L139.464 196.114L125.464 188.778L124.536 190.55ZM125 190.133C125 190.127 125.001 190.182 124.956 190.264C124.908 190.353 124.825 190.436 124.717 190.486C124.511 190.583 124.415 190.485 124.531 190.547L125.469 188.781C125.033 188.549 124.437 188.409 123.868 188.676C123.246 188.968 123 189.58 123 190.133H125ZM125 194.133V190.133H123V194.133H125ZM125.469 194.781C125.367 194.727 125.236 194.61 125.13 194.448C125.02 194.28 125 194.159 125 194.133H123C123 194.659 123.204 195.156 123.456 195.542C123.712 195.935 124.08 196.308 124.531 196.547L125.469 194.781ZM139.464 202.114L125.464 194.778L124.536 196.55L138.536 203.886L139.464 202.114ZM139 202.531C139 202.537 138.999 202.482 139.044 202.4C139.092 202.311 139.175 202.228 139.283 202.177C139.489 202.081 139.585 202.179 139.469 202.117L138.531 203.883C138.967 204.115 139.563 204.255 140.132 203.988C140.754 203.696 141 203.084 141 202.531H139ZM139 198.531V202.531H141V198.531H139ZM138.531 197.883C138.633 197.937 138.764 198.054 138.87 198.215C138.98 198.384 139 198.505 139 198.531H141C141 198.005 140.796 197.507 140.544 197.122C140.288 196.729 139.92 196.356 139.469 196.117L138.531 197.883ZM134.445 210.104L125.445 205.636L124.555 207.427L133.555 211.896L134.445 210.104ZM136 212.531C136 212.005 135.796 211.507 135.544 211.122C135.288 210.729 134.92 210.356 134.469 210.117L133.531 211.883C133.633 211.937 133.764 212.054 133.87 212.215C133.98 212.384 134 212.505 134 212.531H136ZM136 216.531V212.531H134V216.531H136ZM133.531 217.883C133.967 218.115 134.563 218.255 135.132 217.988C135.754 217.696 136 217.084 136 216.531H134C134 216.537 133.999 216.482 134.044 216.4C134.092 216.311 134.175 216.228 134.283 216.177C134.489 216.081 134.585 216.179 134.469 216.117L133.531 217.883ZM124.555 213.427L133.555 217.896L134.445 216.104L125.445 211.636L124.555 213.427ZM123 211C123 211.526 123.204 212.024 123.456 212.41C123.712 212.802 124.08 213.175 124.531 213.414L125.469 211.648C125.367 211.594 125.236 211.478 125.13 211.316C125.02 211.147 125 211.026 125 211H123ZM123 207V211H125V207H123ZM125.469 205.648C125.033 205.417 124.437 205.277 123.868 205.543C123.246 205.835 123 206.447 123 207H125C125 206.995 125.001 207.05 124.956 207.131C124.908 207.22 124.825 207.303 124.717 207.354C124.511 207.451 124.415 207.353 124.531 207.414L125.469 205.648Z" fill="#76FFDE" mask="url(#top__img-key_path-24-inside-2)"/>
</g>
</g>
</g>
</g>
</g>
<defs>
<filter id="top__img-key_filter0_i" x="54.2656" y="228.529" width="56.7488" height="235.895" filterUnits="userSpaceOnUse" color-interpolation-filters="sRGB">
<feFlood flood-opacity="0" result="BackgroundImageFix"/>
<feBlend mode="normal" in="SourceGraphic" in2="BackgroundImageFix" result="shape"/>
<feColorMatrix in="SourceAlpha" type="matrix" values="0 0 0 0 0 0 0 0 0 0 0 0 0 0 0 0 0 0 127 0" result="hardAlpha"/>
<feOffset dx="-1" dy="1"/>
<feComposite in2="hardAlpha" operator="arithmetic" k2="-1" k3="1"/>
<feColorMatrix type="matrix" values="0 0 0 0 0.968627 0 0 0 0 0.856361 0 0 0 0 0.435294 0 0 0 0.79122 0"/>
<feBlend mode="normal" in2="shape" result="effect1_innerShadow"/>
</filter>
<filter id="top__img-key_filter1_di" x="51.6113" y="249.211" width="58.3887" height="207.71" filterUnits="userSpaceOnUse" color-interpolation-filters="sRGB">
<feFlood flood-opacity="0" result="BackgroundImageFix"/>
<feColorMatrix in="SourceAlpha" type="matrix" values="0 0 0 0 0 0 0 0 0 0 0 0 0 0 0 0 0 0 127 0"/>
<feOffset/>
<feGaussianBlur stdDeviation="5.5"/>
<feColorMatrix type="matrix" values="0 0 0 0 0.470588 0 0 0 0 0.992157 0 0 0 0 0.866667 0 0 0 0.49216 0"/>
<feBlend mode="normal" in2="BackgroundImageFix" result="effect1_dropShadow"/>
<feBlend mode="normal" in="SourceGraphic" in2="effect1_dropShadow" result="shape"/>
<feColorMatrix in="SourceAlpha" type="matrix" values="0 0 0 0 0 0 0 0 0 0 0 0 0 0 0 0 0 0 127 0" result="hardAlpha"/>
<feOffset/>
<feGaussianBlur stdDeviation="1.5"/>
<feComposite in2="hardAlpha" operator="arithmetic" k2="-1" k3="1"/>
<feColorMatrix type="matrix" values="0 0 0 0 0 0 0 0 0 0 0 0 0 0 0 0 0 0 0.5 0"/>
<feBlend mode="normal" in2="shape" result="effect2_innerShadow"/>
</filter>
<filter id="top__img-key_filter2_i" x="0.611328" y="2.83136" width="71.0529" height="181.169" filterUnits="userSpaceOnUse" color-interpolation-filters="sRGB">
<feFlood flood-opacity="0" result="BackgroundImageFix"/>
<feBlend mode="normal" in="SourceGraphic" in2="BackgroundImageFix" result="shape"/>
<feColorMatrix in="SourceAlpha" type="matrix" values="0 0 0 0 0 0 0 0 0 0 0 0 0 0 0 0 0 0 127 0" result="hardAlpha"/>
<feOffset dx="-1" dy="1"/>
<feComposite in2="hardAlpha" operator="arithmetic" k2="-1" k3="1"/>
<feColorMatrix type="matrix" values="0 0 0 0 0.968627 0 0 0 0 0.856361 0 0 0 0 0.435294 0 0 0 0.79122 0"/>
<feBlend mode="normal" in2="shape" result="effect1_innerShadow"/>
</filter>
<filter id="top__img-key_filter3_d" x="8" y="14.8674" width="54" height="143.734" filterUnits="userSpaceOnUse" color-interpolation-filters="sRGB">
<feFlood flood-opacity="0" result="BackgroundImageFix"/>
<feColorMatrix in="SourceAlpha" type="matrix" values="0 0 0 0 0 0 0 0 0 0 0 0 0 0 0 0 0 0 127 0"/>
<feOffset dy="1"/>
<feColorMatrix type="matrix" values="0 0 0 0 1 0 0 0 0 1 0 0 0 0 1 0 0 0 0.349896 0"/>
<feBlend mode="normal" in2="BackgroundImageFix" result="effect1_dropShadow"/>
<feBlend mode="normal" in="SourceGraphic" in2="effect1_dropShadow" result="shape"/>
</filter>
<filter id="top__img-key_filter4_i" x="35" y="31.2117" width="77" height="233.665" filterUnits="userSpaceOnUse" color-interpolation-filters="sRGB">
<feFlood flood-opacity="0" result="BackgroundImageFix"/>
<feBlend mode="normal" in="SourceGraphic" in2="BackgroundImageFix" result="shape"/>
<feColorMatrix in="SourceAlpha" type="matrix" values="0 0 0 0 0 0 0 0 0 0 0 0 0 0 0 0 0 0 127 0" result="hardAlpha"/>
<feOffset dx="-1" dy="1"/>
<feComposite in2="hardAlpha" operator="arithmetic" k2="-1" k3="1"/>
<feColorMatrix type="matrix" values="0 0 0 0 0.968627 0 0 0 0 0.856361 0 0 0 0 0.435294 0 0 0 0.79122 0"/>
<feBlend mode="normal" in2="shape" result="effect1_innerShadow"/>
</filter>
<filter id="top__img-key_filter5_d" x="56" y="139.07" width="32" height="51" filterUnits="userSpaceOnUse" color-interpolation-filters="sRGB">
<feFlood flood-opacity="0" result="BackgroundImageFix"/>
<feColorMatrix in="SourceAlpha" type="matrix" values="0 0 0 0 0 0 0 0 0 0 0 0 0 0 0 0 0 0 127 0"/>
<feOffset dy="1"/>
<feColorMatrix type="matrix" values="0 0 0 0 0.854902 0 0 0 0 0.796078 0 0 0 0 0.415686 0 0 0 1 0"/>
<feBlend mode="normal" in2="BackgroundImageFix" result="effect1_dropShadow"/>
<feBlend mode="normal" in="SourceGraphic" in2="effect1_dropShadow" result="shape"/>
</filter>
<filter id="top__img-key_filter6_i" x="80.4805" y="34.3018" width="70.1318" height="208.827" filterUnits="userSpaceOnUse" color-interpolation-filters="sRGB">
<feFlood flood-opacity="0" result="BackgroundImageFix"/>
<feBlend mode="normal" in="SourceGraphic" in2="BackgroundImageFix" result="shape"/>
<feColorMatrix in="SourceAlpha" type="matrix" values="0 0 0 0 0 0 0 0 0 0 0 0 0 0 0 0 0 0 127 0" result="hardAlpha"/>
<feOffset dx="-1" dy="1"/>
<feComposite in2="hardAlpha" operator="arithmetic" k2="-1" k3="1"/>
<feColorMatrix type="matrix" values="0 0 0 0 0.968627 0 0 0 0 0.856361 0 0 0 0 0.435294 0 0 0 0.79122 0"/>
<feBlend mode="normal" in2="shape" result="effect1_innerShadow"/>
</filter>
<filter id="top__img-key_filter7_di" x="77" y="38.113" width="75" height="190.02" filterUnits="userSpaceOnUse" color-interpolation-filters="sRGB">
<feFlood flood-opacity="0" result="BackgroundImageFix"/>
<feColorMatrix in="SourceAlpha" type="matrix" values="0 0 0 0 0 0 0 0 0 0 0 0 0 0 0 0 0 0 127 0"/>
<feOffset/>
<feGaussianBlur stdDeviation="5.5"/>
<feColorMatrix type="matrix" values="0 0 0 0 0.470588 0 0 0 0 0.992157 0 0 0 0 0.866667 0 0 0 0.49216 0"/>
<feBlend mode="normal" in2="BackgroundImageFix" result="effect1_dropShadow"/>
<feBlend mode="normal" in="SourceGraphic" in2="effect1_dropShadow" result="shape"/>
<feColorMatrix in="SourceAlpha" type="matrix" values="0 0 0 0 0 0 0 0 0 0 0 0 0 0 0 0 0 0 127 0" result="hardAlpha"/>
<feOffset/>
<feGaussianBlur stdDeviation="1.5"/>
<feComposite in2="hardAlpha" operator="arithmetic" k2="-1" k3="1"/>
<feColorMatrix type="matrix" values="0 0 0 0 0 0 0 0 0 0 0 0 0 0 0 0 0 0 0.5 0"/>
<feBlend mode="normal" in2="shape" result="effect2_innerShadow"/>
</filter>
<linearGradient id="top__img-key_paint0_linear" x1="54.2656" y1="226.831" x2="54.2656" y2="464.424" gradientUnits="userSpaceOnUse">
<stop stop-color="#CDB352"/>
<stop offset="1" stop-color="#573A1E"/>
</linearGradient>
<linearGradient id="top__img-key_paint1_linear" x1="-18.3479" y1="97.2803" x2="217.089" y2="235.638" gradientUnits="userSpaceOnUse">
<stop stop-color="#E2C87A"/>
<stop offset="1" stop-color="#AB713D"/>
</linearGradient>
<linearGradient id="top__img-key_paint2_linear" x1="4.61133" y1="0.83136" x2="4.61133" y2="183.796" gradientUnits="userSpaceOnUse">
<stop stop-color="#CDB352"/>
<stop offset="1" stop-color="#573A1E"/>
</linearGradient>
<linearGradient id="top__img-key_paint3_linear" x1="-51.7141" y1="48.1235" x2="138.216" y2="416.525" gradientUnits="userSpaceOnUse">
<stop stop-color="#E2C87A"/>
<stop offset="1" stop-color="#AB713D"/>
</linearGradient>
<linearGradient id="top__img-key_paint4_linear" x1="36" y1="29.0236" x2="36" y2="264" gradientUnits="userSpaceOnUse">
<stop stop-color="#CDB352"/>
<stop offset="1" stop-color="#573A1E"/>
</linearGradient>
<linearGradient id="top__img-key_paint5_linear" x1="2.23186" y1="50.6759" x2="113.055" y2="456.455" gradientUnits="userSpaceOnUse">
<stop stop-color="#E2C87A"/>
<stop offset="1" stop-color="#AB713D"/>
</linearGradient>
<linearGradient id="top__img-key_paint6_linear" x1="80.5" y1="32" x2="80.5" y2="241" gradientUnits="userSpaceOnUse">
<stop stop-color="#CDB352"/>
<stop offset="1" stop-color="#573A1E"/>
</linearGradient>
<linearGradient id="top__img-key_paint7_linear" x1="42.2516" y1="2.73627" x2="-119.636" y2="378.639" gradientUnits="userSpaceOnUse">
<stop stop-color="#E2C87A"/>
<stop offset="1" stop-color="#AB713D"/>
</linearGradient>
</defs>
</svg>
