<svg width="18" height="18" viewBox="0 0 18 18" fill="none" xmlns="http://www.w3.org/2000/svg">
<rect x="2" y="2" width="14" height="14" rx="7" fill="black"/>
<path d="M8.76318 7.98242L7.27539 8.25098C7.22526 7.95378 7.11068 7.72998 6.93164 7.57959C6.75618 7.4292 6.52702 7.354 6.24414 7.354C5.86816 7.354 5.56738 7.4847 5.3418 7.74609C5.11979 8.00391 5.00879 8.43717 5.00879 9.0459C5.00879 9.72266 5.12158 10.2007 5.34717 10.48C5.57633 10.7593 5.88249 10.8989 6.26562 10.8989C6.55208 10.8989 6.78662 10.8184 6.96924 10.6572C7.15186 10.4925 7.28076 10.2114 7.35596 9.81396L8.83838 10.0664C8.68441 10.7467 8.389 11.2606 7.95215 11.6079C7.5153 11.9552 6.92985 12.1289 6.1958 12.1289C5.36149 12.1289 4.69548 11.8657 4.19775 11.3394C3.70361 10.813 3.45654 10.0843 3.45654 9.15332C3.45654 8.21159 3.7054 7.47933 4.20312 6.95654C4.70085 6.43018 5.37402 6.16699 6.22266 6.16699C6.91732 6.16699 7.46875 6.31738 7.87695 6.61816C8.28874 6.91536 8.58415 7.37012 8.76318 7.98242ZM8.86824 6.2959H10.4742L11.8385 10.3457L13.1705 6.2959H14.7335L12.7193 11.7852L12.3595 12.7788C12.227 13.1118 12.0999 13.366 11.9781 13.5415C11.8599 13.717 11.7221 13.8584 11.5645 13.9658C11.4106 14.0768 11.219 14.1628 10.9898 14.2236C10.7642 14.2845 10.5082 14.3149 10.2218 14.3149C9.93172 14.3149 9.64705 14.2845 9.36775 14.2236L9.23348 13.042C9.4698 13.0885 9.68286 13.1118 9.87264 13.1118C10.2235 13.1118 10.4832 13.008 10.6514 12.8003C10.8197 12.5962 10.9486 12.3348 11.0382 12.0161L8.86824 6.2959Z" fill="white"/>
</svg>
