<svg width="18" height="18" viewBox="0 0 18 18" fill="none" xmlns="http://www.w3.org/2000/svg">
<g clip-path="url(#clip0_177_1114)">
<path d="M14.668 4.14429L13.6353 15.713L8.9933 16.9999L4.36411 15.7148L3.33252 4.14429H14.668Z" fill="#264DE4"/>
<path d="M12.7509 14.9763L13.6334 5.09033H9V16.0162L12.7509 14.9763Z" fill="#2965F1"/>
<path d="M5.69727 9.38184L5.82445 10.8009H9.00008V9.38184H5.69727Z" fill="#EBEBEB"/>
<path d="M9.00027 6.50952H8.99536H5.44189L5.57089 7.92862H9.00027V6.50952Z" fill="#EBEBEB"/>
<path d="M9.0004 14.5438V13.0674L8.99418 13.069L7.41375 12.6423L7.31272 11.5105H6.54475H5.88818L6.087 13.7387L8.99387 14.5456L9.0004 14.5438Z" fill="#EBEBEB"/>
<path d="M6 1H7.71875V1.71875H6.71875V2.4375H7.71875V3.15625H6V1Z" fill="black"/>
<path d="M8.0625 1H9.78125V1.625H8.78125V1.75H9.78125V3.1875H8.0625V2.53125H9.0625V2.40625H8.0625V1Z" fill="black"/>
<path d="M10.125 1H11.8438V1.625H10.8438V1.75H11.8438V3.1875H10.125V2.53125H11.125V2.40625H10.125V1Z" fill="black"/>
<path d="M10.7426 10.8008L10.5778 12.6413L8.99512 13.0685V14.5448L11.9043 13.7386L11.9256 13.4988L12.2591 9.76283L12.2937 9.38177L12.5499 6.50952H8.99512V7.92862H10.9947L10.8656 9.38177H8.99512V10.8008H10.7426Z" fill="white"/>
</g>
<defs>
<clipPath id="clip0_177_1114">
<rect width="11.3354" height="16" fill="white" transform="translate(3.33252 1)"/>
</clipPath>
</defs>
</svg>
