<svg width="18" height="18" viewBox="0 0 18 18" fill="none" xmlns="http://www.w3.org/2000/svg">
<g clip-path="url(#clip0_182_1239)">
<path d="M10.9589 16.5123L11.1123 13.956L11.5359 13.2329C11.5359 13.2329 10.5718 13.6273 8.95769 13.6273C7.34356 13.6273 6.39404 13.2402 6.39404 13.2402L6.86879 14.029L7.03673 16.5123C7.03673 16.7786 7.91472 16.9944 8.99783 16.9944C10.0809 16.9944 10.9589 16.7786 10.9589 16.5123Z" fill="#D34A47"/>
<path d="M10.475 4.5746L10.797 3.30181L12.5802 1.42546L12.1102 1.02515L10.2223 3.02393L9.84842 4.54458C9.57752 4.53542 9.2948 4.53053 9.00395 4.53053C7.01565 4.53053 5.40381 4.75713 5.40381 5.0366C5.40381 5.31609 7.01565 5.54266 9.00395 5.54266C10.9922 5.54266 12.604 5.31609 12.604 5.0366C12.604 4.8308 11.7299 4.65367 10.475 4.5746Z" fill="#D34A47"/>
<path d="M10.2875 5.28743C10.2875 5.28743 10.2177 5.30307 10.0126 5.30394C9.80738 5.30479 9.66168 5.30261 9.60365 5.24975C9.58804 5.23556 9.57951 5.20738 9.57959 5.1883C9.57976 5.15197 9.60554 5.13057 9.63839 5.11717L9.66946 5.16591C9.65594 5.17057 9.64823 5.17608 9.6482 5.18196C9.64809 5.20955 9.85801 5.22844 10.0186 5.2264C10.1792 5.22442 10.3732 5.21119 10.3734 5.184C10.3734 5.17577 10.3587 5.16803 10.3332 5.16192L10.3641 5.11353C10.4057 5.12644 10.442 5.15141 10.442 5.1946C10.4416 5.26804 10.3481 5.27921 10.2875 5.28743Z" fill="white"/>
<path d="M12.5765 1.42917C12.6213 1.37738 12.5533 1.24491 12.4245 1.13334C12.2957 1.02182 12.1549 0.973365 12.11 1.02515C12.0651 1.07694 12.1332 1.20941 12.262 1.32093C12.3908 1.43247 12.5316 1.48098 12.5765 1.42917Z" fill="#D34A47"/>
<path d="M10.8734 10.2683C10.8311 9.86169 11.7627 9.2728 11.5236 9.25394C11.0089 9.28337 10.7528 9.85713 10.4938 10.4581C10.3989 10.6783 10.0742 11.6174 9.8612 11.5018C9.64828 11.3863 10.1372 10.614 10.2743 10.1554C10.1162 10.2713 9.53622 10.7219 9.38677 10.2999C9.14649 10.504 8.63304 10.6146 8.69097 10.0785C8.56314 10.3049 8.27624 10.6211 7.93187 10.4897C7.47963 10.3172 8.19392 8.87664 8.37153 8.94932C8.54917 9.02197 8.33569 9.35014 8.27977 9.47757C8.1568 9.75803 8.01475 10.1106 8.10965 10.1828C8.27222 10.3064 8.71463 9.715 8.72446 9.702C8.80721 9.59268 9.04294 8.87752 9.23293 8.95964C9.42292 9.04176 8.75904 9.98601 9.00726 10.1734C9.05733 10.2112 9.26216 10.1501 9.38677 10.0153C9.46739 9.92806 9.43966 9.7349 9.70841 9.094C9.97716 8.45312 10.2167 7.65499 10.401 7.71579C10.5853 7.77657 10.4334 8.18621 10.3673 8.33892C10.057 9.05564 9.52045 10.2397 9.77348 10.1501C10.0265 10.0605 10.1583 10.0552 10.406 9.76526C10.6538 9.47531 10.6424 8.99771 10.8075 9.00786C10.9727 9.01804 10.945 9.17117 10.905 9.28778C11.0675 9.10177 11.6754 8.71003 11.8222 9.09801C11.9961 9.55735 10.9524 10.2208 11.2126 10.187C11.4663 10.154 11.8774 9.89369 12.0529 9.65699L12.5359 5.31421C12.5359 5.31421 12.0498 5.71647 8.95743 5.71647C5.86499 5.71647 5.4292 5.32258 5.4292 5.32258L5.84045 9.28651C6.05874 8.6661 6.5771 7.4112 7.39417 7.45332C7.76585 7.47248 8.26202 8.18816 7.837 8.21241C7.6571 8.22265 7.63884 7.85518 7.42581 7.80122C7.27208 7.76227 7.05806 7.88724 6.91974 8.02265C6.6439 8.29261 6.05063 9.35774 6.12902 9.88877C6.22889 10.5658 7.06323 9.65352 7.20441 9.38268C7.30383 9.19189 7.37099 8.62663 7.58844 8.68594C7.80591 8.74525 7.56947 9.3286 7.41184 9.84436C7.23477 10.4235 7.14168 11.0344 6.91974 10.9641C6.69778 10.8939 7.05933 10.1463 7.04625 10.0153C6.83762 10.2077 6.45328 10.695 5.96158 10.4539L6.21699 12.9154C6.21699 12.9154 6.8958 13.4518 8.94066 13.4518C10.9855 13.4518 11.6895 12.9238 11.6895 12.9238L12.0066 10.0727C11.7471 10.3254 10.9259 10.7741 10.8734 10.2683Z" fill="#D34A47"/>
</g>
<defs>
<clipPath id="clip0_182_1239">
<rect width="7.23675" height="16" fill="white" transform="translate(5.38184 1)"/>
</clipPath>
</defs>
</svg>
