<svg width="18" height="18" viewBox="0 0 18 18" fill="none" xmlns="http://www.w3.org/2000/svg">
<path d="M11.4961 11.4639C11.9601 11.4159 12.3121 11.0159 12.2961 10.5359C12.2801 10.0559 11.8801 9.67193 11.4001 9.67193H11.3681C10.8721 9.68793 10.4881 10.1039 10.5041 10.5999C10.5201 10.8399 10.6161 11.0479 10.7601 11.1919C10.2161 12.2639 9.38412 13.0479 8.13612 13.7039C7.28812 14.1519 6.40812 14.3119 5.52812 14.1999C4.80812 14.1039 4.24812 13.7839 3.89612 13.2559C3.38412 12.4719 3.33612 11.6239 3.76812 10.7759C4.07212 10.1679 4.55212 9.71993 4.85612 9.49593C4.79212 9.28793 4.69612 8.93593 4.64812 8.67993C2.32812 10.3599 2.56812 12.6319 3.27212 13.7039C3.80012 14.5039 4.87212 14.9999 6.05612 14.9999C6.37612 14.9999 6.69612 14.9679 7.01612 14.8879C9.06412 14.4879 10.6161 13.2719 11.4961 11.4639V11.4639Z" fill="#764ABC"/>
<path d="M14.3123 9.47999C13.0963 8.05599 11.3043 7.27199 9.25631 7.27199H9.00031C8.85631 6.98399 8.55231 6.79199 8.21631 6.79199H8.18431C7.68831 6.80799 7.30431 7.22399 7.32031 7.71999C7.33631 8.19999 7.73631 8.58399 8.21631 8.58399H8.24831C8.60031 8.56799 8.90431 8.34399 9.03231 8.03999H9.32031C10.5363 8.03999 11.6883 8.39199 12.7283 9.07999C13.5283 9.60799 14.1043 10.296 14.4243 11.128C14.6963 11.8 14.6803 12.456 14.3923 13.016C13.9443 13.864 13.1923 14.328 12.2003 14.328C11.5603 14.328 10.9523 14.136 10.6323 13.992C10.4563 14.152 10.1363 14.408 9.91231 14.568C10.6003 14.888 11.3043 15.064 11.9763 15.064C13.5123 15.064 14.6483 14.216 15.0803 13.368C15.5443 12.44 15.5123 10.84 14.3123 9.47999Z" fill="#764ABC"/>
<path d="M6.18436 11.7359C6.20036 12.2159 6.60035 12.5999 7.08035 12.5999H7.11236C7.60835 12.5839 7.99235 12.1679 7.97635 11.6719C7.96035 11.1919 7.56035 10.8079 7.08035 10.8079H7.04835C7.01635 10.8079 6.96835 10.8079 6.93635 10.8239C6.28035 9.73593 6.00835 8.55193 6.10435 7.27193C6.16835 6.31193 6.48835 5.47993 7.04835 4.79193C7.51235 4.19993 8.40835 3.91193 9.01635 3.89593C10.7124 3.86393 11.4324 5.97593 11.4804 6.82393C11.6884 6.87193 12.0404 6.98393 12.2804 7.06393C12.0884 4.47193 10.4884 3.12793 8.95235 3.12793C7.51235 3.12793 6.18435 4.16793 5.65635 5.70393C4.92035 7.75193 5.40035 9.71993 6.29635 11.2719C6.21635 11.3839 6.16836 11.5599 6.18436 11.7359V11.7359Z" fill="#764ABC"/>
</svg>
