<svg width="18" height="18" viewBox="0 0 18 18" fill="none" xmlns="http://www.w3.org/2000/svg">
<path d="M8.99978 10.4759C9.68893 10.4759 10.2476 9.91721 10.2476 9.22805C10.2476 8.5389 9.68893 7.98022 8.99978 7.98022C8.31062 7.98022 7.75195 8.5389 7.75195 9.22805C7.75195 9.91721 8.31062 10.4759 8.99978 10.4759Z" fill="#61DAFB"/>
<path d="M8.99985 11.7844C12.6978 11.7844 15.6955 10.6398 15.6955 9.22791C15.6955 7.81598 12.6978 6.67139 8.99985 6.67139C5.30194 6.67139 2.3042 7.81598 2.3042 9.22791C2.3042 10.6398 5.30194 11.7844 8.99985 11.7844Z" stroke="#61DAFB"/>
<path d="M6.78601 10.5062C8.63496 13.7087 11.1251 15.7326 12.3479 15.0266C13.5706 14.3206 13.063 11.1522 11.214 7.94973C9.36508 4.74725 6.87496 2.72342 5.6522 3.42938C4.42943 4.13535 4.93706 7.30377 6.78601 10.5062Z" stroke="#61DAFB"/>
<path d="M6.78567 7.94985C4.93672 11.1523 4.42909 14.3207 5.65186 15.0267C6.87462 15.7327 9.36474 13.7088 11.2137 10.5064C13.0627 7.30389 13.5703 4.13547 12.3475 3.4295C11.1247 2.72354 8.63463 4.74737 6.78567 7.94985Z" stroke="#61DAFB"/>
</svg>
