<svg width="18" height="18" viewBox="0 0 18 18" fill="none" xmlns="http://www.w3.org/2000/svg">
<g clip-path="url(#clip0_177_1115)">
<path d="M4.36411 15.7148L3.33252 4.14429H14.668L13.6353 15.713L8.9933 16.9999L4.36411 15.7148Z" fill="#E44D26"/>
<path d="M9 16.0162L12.7509 14.9763L13.6334 5.09033H9V16.0162Z" fill="#F16529"/>
<path d="M8.99978 9.38177H7.12197L6.99228 7.92862H8.99978V6.50952H8.99487H5.44141L5.47537 6.89024L5.82416 10.8008H8.99978V9.38177Z" fill="#EBEBEB"/>
<path d="M8.99991 13.0674L8.9937 13.069L7.41326 12.6423L7.31223 11.5105H6.54426H5.8877L6.08651 13.7387L8.99338 14.5456L8.99991 14.5438V13.0674Z" fill="#EBEBEB"/>
<path d="M4.38672 1H5.10787V1.7125H5.76756V1H6.48875V3.15762H5.76759V2.43512H5.10791V3.15762H4.38675V1H4.38672Z" fill="black"/>
<path d="M7.43712 1.7155H6.80225V1H8.7935V1.7155H8.15834V3.15762H7.43715V1.7155H7.43712Z" fill="black"/>
<path d="M9.10986 1H9.86183L10.3244 1.75813L10.7865 1H11.5387V3.15762H10.8206V2.08819L10.3244 2.85534H10.312L9.81549 2.08819V3.15762H9.10986V1V1Z" fill="black"/>
<path d="M11.8975 1H12.6188V2.44444H13.633V3.15762H11.8975V1Z" fill="black"/>
<path d="M8.99512 9.38184V10.8009H10.7426L10.5778 12.6413L8.99512 13.0685V14.5449L11.9043 13.7386L11.9256 13.4989L12.2591 9.7629L12.2937 9.38184H11.9113H8.99512Z" fill="white"/>
<path d="M8.99512 6.50952V7.3909V7.92515V7.92862H12.4183H12.4229L12.4513 7.60965L12.516 6.89024L12.5499 6.50952H8.99512Z" fill="white"/>
</g>
<defs>
<clipPath id="clip0_177_1115">
<rect width="16" height="16" fill="white" transform="translate(1 1)"/>
</clipPath>
</defs>
</svg>
