<svg width="32" height="32" viewBox="0 0 32 32" fill="none" xmlns="http://www.w3.org/2000/svg">
<path d="M20.7352 5.44207L20.8682 2.26907L23.5882 2.10107L23.7102 5.33107C23.7122 5.38283 23.6955 5.43358 23.6632 5.47407C23.6457 5.49603 23.6239 5.51425 23.5992 5.52764C23.5745 5.54103 23.5474 5.54932 23.5194 5.55203C23.4914 5.55473 23.4632 5.55179 23.4363 5.54338C23.4095 5.53497 23.3847 5.52127 23.3632 5.50307L22.3132 4.68307L21.0702 5.61707C21.048 5.6344 21.0226 5.64713 20.9954 5.65451C20.9682 5.66189 20.9398 5.66377 20.9118 5.66004C20.8839 5.65632 20.857 5.64706 20.8327 5.63282C20.8084 5.61857 20.7871 5.59962 20.7702 5.57707C20.7432 5.53751 20.7309 5.48977 20.7352 5.44207Z" fill="white"/>
<path d="M20.8679 2.26795L20.7349 5.44195C20.7328 5.49062 20.748 5.53845 20.7779 5.57695C20.7948 5.59949 20.816 5.61844 20.8403 5.63269C20.8646 5.64694 20.8915 5.65619 20.9195 5.65992C20.9474 5.66364 20.9758 5.66176 21.003 5.65438C21.0302 5.647 21.0556 5.63428 21.0779 5.61695L22.3209 4.68295L23.3709 5.50295C23.3923 5.52114 23.4171 5.53485 23.444 5.54326C23.4708 5.55166 23.499 5.5546 23.527 5.5519C23.555 5.54919 23.5821 5.5409 23.6068 5.52751C23.6315 5.51412 23.6533 5.49591 23.6709 5.47395C23.7032 5.43346 23.7198 5.38271 23.7179 5.33095L23.5879 2.09995L25.1539 1.99995C25.3395 1.9876 25.5258 2.01199 25.702 2.07172C25.8783 2.13146 26.041 2.22537 26.1809 2.34807C26.3207 2.47077 26.4351 2.61986 26.5172 2.7868C26.5994 2.95374 26.6479 3.13525 26.6599 3.32095C26.6599 3.34961 26.6599 3.37861 26.6599 3.40795V28.5919C26.6583 28.9661 26.5085 29.3244 26.2432 29.5883C25.978 29.8522 25.619 30.0002 25.2449 29.9999H25.1789L6.23085 29.1559C5.87597 29.1414 5.53955 28.9939 5.28849 28.7426C5.03743 28.4914 4.89012 28.1548 4.87585 27.7999L3.99985 4.68995C3.98723 4.32137 4.11931 3.96248 4.36785 3.69002C4.61639 3.41756 4.96167 3.25315 5.32985 3.23195L20.8669 2.26895L20.8679 2.26795Z" fill="#FF4785"/>
<path d="M17.2528 12.5539C17.2528 13.1009 20.9728 12.8389 21.4728 12.4539C21.4728 8.72392 19.4548 6.76392 15.7588 6.76392C12.0628 6.76392 9.99276 8.75392 9.99276 11.7399C9.99276 16.9399 17.0698 17.0399 17.0698 19.8759C17.093 20.0471 17.0767 20.2214 17.0219 20.3852C16.9671 20.5491 16.8753 20.6982 16.7537 20.8209C16.6321 20.9437 16.4839 21.0368 16.3206 21.0932C16.1573 21.1495 15.9832 21.1676 15.8118 21.1459C14.6848 21.1459 14.2388 20.5739 14.2918 18.6339C14.2918 18.2129 9.99176 18.0809 9.86176 18.6339C9.52776 23.3339 12.4828 24.6939 15.8618 24.6939C19.1378 24.6939 21.7068 22.9609 21.7068 19.8259C21.7068 14.2529 14.5248 14.4029 14.5248 11.6409C14.5097 11.4645 14.5346 11.287 14.5975 11.1215C14.6604 10.9561 14.7598 10.8069 14.8882 10.685C15.0166 10.5631 15.1708 10.4717 15.3393 10.4175C15.5078 10.3633 15.6864 10.3477 15.8618 10.3719C16.3878 10.3719 17.3318 10.4639 17.2528 12.5539Z" fill="white"/>
</svg>
