<?xml version="1.0" encoding="UTF-8"?><!DOCTYPE svg PUBLIC "-//W3C//DTD SVG 1.1//EN" "http://www.w3.org/Graphics/SVG/1.1/DTD/svg11.dtd"><svg xmlns="http://www.w3.org/2000/svg" xmlns:xlink="http://www.w3.org/1999/xlink"><defs><clipPath id="clip0_206_1042"><rect fill="#fff"/></clipPath><clipPath id="icon_fl_clip0_62_108"><path fill="#fff" transform="translate(3 3)" d="M0 0h18v18H0z"/></clipPath><clipPath id="icon_telegram_clip0_62_107"><path fill="#fff" transform="translate(2 2)" d="M0 0h20v20H0z"/></clipPath></defs><symbol id="icon-arrow-right" viewBox="0 0 16 16"><path fill-rule="evenodd" clip-rule="evenodd" d="M8 16L0 8l8-8 1.413 1.413-5.58 5.605H16v1.964H3.832l5.581 5.605L8 16z"/></symbol><symbol id="icon-close" viewBox="0 0 96 96"><g clip-path="url(#clip0_206_1042)"><path d="M76 25.64L70.36 20 48 42.36 25.64 20 20 25.64 42.36 48 20 70.36 25.64 76 48 53.64 70.36 76 76 70.36 53.64 48 76 25.64z"/></g></symbol><symbol id="icon-fl" viewBox="0 0 24 24"><g clip-path="url(#icon_fl_clip0_62_108)"><path d="M3 9.61c0-2.314 0-3.47.45-4.355A4.131 4.131 0 015.256 3.45C6.139 3 7.296 3 9.61 3h4.78c2.314 0 3.47 0 4.355.45a4.132 4.132 0 011.805 1.806c.45.883.45 2.04.45 4.354v4.78c0 2.314 0 3.47-.45 4.354a4.132 4.132 0 01-1.806 1.806c-.883.45-2.04.45-4.354.45H9.61c-2.314 0-3.47 0-4.355-.45a4.132 4.132 0 01-1.805-1.806C3 17.861 3 16.704 3 14.39V9.61z"/><path fill-rule="evenodd" clip-rule="evenodd" d="M11.897 8.54a.735.735 0 00-.05-.203.282.282 0 00-.077-.11.157.157 0 00-.098-.033H8.144a.51.51 0 00-.342.118c-.093.08-.14.208-.14.386v7.135a.175.175 0 00.041.116.306.306 0 00.132.083c.082.026.165.043.25.051.134.014.268.02.402.018a2.53 2.53 0 00.346-.018c.085-.008.169-.026.25-.051a.28.28 0 00.132-.083.188.188 0 00.038-.115v-2.908h2.258c.036 0 .07-.011.1-.033.034-.031.06-.07.076-.113a.78.78 0 00.05-.2 3.174 3.174 0 000-.639.685.685 0 00-.05-.198.257.257 0 00-.077-.103.167.167 0 00-.099-.03H9.252V9.503h2.419a.149.149 0 00.099-.036.315.315 0 00.077-.11.687.687 0 00.05-.197c.01-.101.015-.204.014-.307a2.72 2.72 0 00-.014-.314zm5.19 6.578a.732.732 0 00-.054-.202.253.253 0 00-.092-.11.237.237 0 00-.127-.033h-2.085V8.391a.154.154 0 00-.047-.11.353.353 0 00-.156-.08 1.798 1.798 0 00-.291-.048 4.783 4.783 0 00-.458-.018 3.984 3.984 0 00-.423.018c-.1.008-.198.024-.295.049a.35.35 0 00-.156.079.157.157 0 00-.047.11v7.204c0 .179.054.308.163.388a.67.67 0 00.404.119h3.39a.221.221 0 00.128-.037.272.272 0 00.092-.12.824.824 0 00.053-.207 2.56 2.56 0 000-.617v-.003z" fill="#fff"/></g></symbol><symbol id="icon-github" viewBox="0 0 24 24"><path d="M12 2A10 10 0 002 12c0 4.42 2.87 8.17 6.84 9.5.5.08.66-.23.66-.5v-1.69c-2.77.6-3.36-1.34-3.36-1.34-.46-1.16-1.11-1.47-1.11-1.47-.91-.62.07-.6.07-.6 1 .07 1.53 1.03 1.53 1.03.87 1.52 2.34 1.07 2.91.83.09-.65.35-1.09.63-1.34-2.22-.25-4.55-1.11-4.55-4.92 0-1.11.38-2 1.03-2.71-.1-.25-.45-1.29.1-2.64 0 0 .84-.27 2.75 1.02.79-.22 1.65-.33 2.5-.33.85 0 1.71.11 2.5.33 1.91-1.29 2.75-1.02 2.75-1.02.55 1.35.2 2.39.1 2.64.65.71 1.03 1.6 1.03 2.71 0 3.82-2.34 4.66-4.57 4.91.36.31.69.92.69 1.85V21c0 .27.16.59.67.5C19.14 20.16 22 16.42 22 12A10 10 0 0012 2z"/></symbol><symbol id="icon-link" viewBox="0 0 14 14"><path d="M10.5 11.083h-7a.585.585 0 01-.583-.583v-7c0-.32.262-.583.583-.583h2.917c.32 0 .583-.263.583-.584a.585.585 0 00-.583-.583h-3.5c-.648 0-1.167.525-1.167 1.167v8.166a1.17 1.17 0 001.167 1.167h8.166a1.17 1.17 0 001.167-1.167v-3.5A.585.585 0 0011.667 7a.585.585 0 00-.584.583V10.5c0 .32-.262.583-.583.583zm-2.333-8.75c0 .321.262.584.583.584h1.51L4.936 8.242a.58.58 0 10.823.823l5.325-5.326V5.25c0 .32.263.583.584.583.32 0 .583-.262.583-.583V2.333a.585.585 0 00-.583-.583H8.75a.585.585 0 00-.583.583z"/></symbol><symbol id="icon-linkedin" viewBox="0 0 24 24"><path d="M19 3a2 2 0 012 2v14a2 2 0 01-2 2H5a2 2 0 01-2-2V5a2 2 0 012-2h14zm-.5 15.5v-5.3a3.26 3.26 0 00-3.26-3.26c-.85 0-1.84.52-2.32 1.3v-1.11h-2.79v8.37h2.79v-4.93c0-.77.62-1.4 1.39-1.4a1.4 1.4 0 011.4 1.4v4.93h2.79zM6.88 8.56a1.68 1.68 0 001.68-1.68c0-.93-.75-1.69-1.68-1.69a1.69 1.69 0 00-1.69 1.69c0 .93.76 1.68 1.69 1.68zm1.39 9.94v-8.37H5.5v8.37h2.77z"/></symbol><symbol id="icon-telegram" viewBox="0 0 24 24"><g clip-path="url(#icon_telegram_clip0_62_107)"><path d="M12 22c5.523 0 10-4.477 10-10S17.523 2 12 2 2 6.477 2 12s4.477 10 10 10z"/><path fill-rule="evenodd" clip-rule="evenodd" d="M6.526 11.895a476.79 476.79 0 015.832-2.513c2.777-1.155 3.354-1.355 3.73-1.362.083-.001.268.02.388.116a.421.421 0 01.142.271c.014.078.03.255.017.394-.15 1.581-.802 5.418-1.133 7.19-.14.749-.416 1-.683 1.025-.581.053-1.022-.384-1.585-.753-.88-.577-1.377-.936-2.231-1.499-.988-.65-.348-1.008.215-1.593.147-.153 2.706-2.48 2.756-2.691.006-.026.012-.125-.047-.177-.058-.052-.145-.034-.207-.02-.088.02-1.494.95-4.218 2.788-.4.274-.76.408-1.084.4-.358-.007-1.044-.201-1.555-.367-.626-.204-1.124-.311-1.08-.657.022-.18.27-.364.743-.552z" fill="#fff"/></g></symbol></svg>