<svg width="32" height="32" viewBox="0 0 32 32" fill="none" xmlns="http://www.w3.org/2000/svg">
<g clip-path="url(#clip0_64_238)">
<path d="M26.875 4H5.125C4.50368 4 4 4.50368 4 5.125V26.875C4 27.4963 4.50368 28 5.125 28H26.875C27.4963 28 28 27.4963 28 26.875V5.125C28 4.50368 27.4963 4 26.875 4Z" fill="#3178C6"/>
<path fill-rule="evenodd" clip-rule="evenodd" d="M17.9242 22.6503V25.2801C18.3502 25.4991 18.8541 25.6636 19.4359 25.7731C20.0176 25.8828 20.6308 25.9375 21.2754 25.9375C21.9035 25.9375 22.5003 25.8773 23.0656 25.7568C23.6311 25.6362 24.1266 25.4376 24.5528 25.1609C24.9788 24.8841 25.3161 24.5226 25.5648 24.076C25.8132 23.6296 25.9375 23.0776 25.9375 22.4201C25.9375 21.9435 25.8664 21.5257 25.7245 21.1669C25.5824 20.808 25.3776 20.4889 25.1099 20.2095C24.8423 19.93 24.5213 19.6794 24.1473 19.4575C23.773 19.2356 23.3511 19.026 22.8812 18.8288C22.5371 18.6864 22.2285 18.548 21.9554 18.4138C21.6823 18.2796 21.4501 18.1426 21.259 18.0029C21.0678 17.8632 20.9203 17.7153 20.8165 17.5591C20.7127 17.403 20.6608 17.2263 20.6608 17.029C20.6608 16.8482 20.7072 16.6852 20.8001 16.5401C20.893 16.3949 21.0241 16.2702 21.1934 16.1661C21.3627 16.062 21.5703 15.9812 21.8161 15.9237C22.0619 15.8662 22.335 15.8374 22.6355 15.8374C22.8541 15.8374 23.0847 15.8538 23.3279 15.8867C23.5709 15.9196 23.8154 15.9703 24.0612 16.0388C24.307 16.1072 24.5459 16.1935 24.7782 16.2976C25.0103 16.4017 25.2246 16.5222 25.4213 16.6592V14.202C25.0225 14.0486 24.5869 13.9349 24.1144 13.8609C23.6419 13.787 23.0999 13.75 22.488 13.75C21.8653 13.75 21.2753 13.8171 20.7182 13.9513C20.161 14.0856 19.6708 14.2951 19.2474 14.58C18.8241 14.8649 18.4895 15.2279 18.2437 15.6689C17.9979 16.11 17.875 16.6373 17.875 17.2509C17.875 18.0344 18.1003 18.7028 18.551 19.2561C19.0016 19.8095 19.6858 20.2779 20.6035 20.6615C20.964 20.8094 21.2999 20.9546 21.6113 21.097C21.9226 21.2395 22.1917 21.3874 22.4184 21.5408C22.645 21.6942 22.8239 21.8613 22.9549 22.0421C23.0862 22.2229 23.1516 22.4283 23.1516 22.6585C23.1516 22.8284 23.1108 22.9859 23.0288 23.131C22.9469 23.2761 22.8226 23.4021 22.656 23.509C22.4894 23.6159 22.2818 23.6995 22.0332 23.7597C21.7847 23.8199 21.4938 23.8501 21.1606 23.8501C20.5925 23.8501 20.0299 23.7501 19.4727 23.5501C18.9156 23.3502 18.3994 23.0502 17.9242 22.6503ZM13.5067 16.1039H16.9375V13.9375H7.375V16.1039H10.789V25.75H13.5067V16.1039Z" fill="white"/>
</g>
<defs>
<clipPath id="clip0_64_238">
<rect width="24" height="24" fill="white" transform="translate(4 4)"/>
</clipPath>
</defs>
</svg>
