<svg width="32" height="32" viewBox="0 0 32 32" fill="none" xmlns="http://www.w3.org/2000/svg">
<path d="M4 28V4H28V28H4Z" fill="#FFD600"/>
<path d="M19.6922 21.9647C20.1535 22.7141 20.6548 23.4321 21.7168 23.4321C22.6088 23.4321 23.0768 22.9887 23.0768 22.3754C23.0768 21.6414 22.5928 21.3807 21.6115 20.9534L21.0735 20.7241C19.5208 20.0654 18.4882 19.2401 18.4882 17.4967C18.4882 15.8901 19.7182 14.6674 21.6402 14.6674C23.0088 14.6674 23.9922 15.1414 24.7015 16.3827L23.0255 17.4541C22.6568 16.7954 22.2582 16.5361 21.6402 16.5361C21.0095 16.5361 20.6102 16.9341 20.6102 17.4541C20.6102 18.0967 21.0102 18.3567 21.9335 18.7547L22.4715 18.9841C24.3015 19.7634 25.3335 20.5594 25.3335 22.3487C25.3335 24.2767 23.8108 25.3334 21.7668 25.3334C19.7675 25.3334 18.6322 24.3301 18.0002 23.0881L19.6922 21.9647ZM11.9682 22.0194C12.3055 22.6234 12.8182 23.0881 13.5555 23.0881C14.2608 23.0881 14.6668 22.8094 14.6668 21.7261V14.6667H16.8888V22.0674C16.8888 24.3121 15.5868 25.3334 13.6855 25.3334C11.9675 25.3334 10.7275 24.1694 10.2222 23.0881L11.9682 22.0194Z" fill="#000001"/>
</svg>
