<svg width="18" height="18" viewBox="0 0 18 18" fill="none" xmlns="http://www.w3.org/2000/svg">
<g clip-path="url(#clip0_195_1311)">
<path d="M4.26848 7.9883C3.8018 8.20783 2.5666 9.19605 2.3287 9.48885C2.08163 9.78164 2.00846 9.32416 2.26464 8.56473C2.46589 7.95169 2.97835 7.11903 3.83841 6.40537C4.34161 5.99362 5.44878 5.39891 6.12584 5.05118C6.26311 4.97796 8.03817 4.22769 9.6211 3.85255C9.75838 3.81594 9.45642 4.08129 9.41065 4.22769C9.17274 4.92307 4.42396 7.90592 4.42396 7.90592L4.26848 7.9883Z" fill="black"/>
<path d="M10.9572 16.3786C11.0395 16.8727 10.9664 16.9093 10.454 16.9733C9.94158 17.0374 9.56644 16.8452 9.42921 16.7172C9.29193 16.589 9.26453 16.3054 9.40176 16.0492C9.48415 15.8845 9.56649 15.8296 9.61226 15.6283C9.65799 15.4362 9.6946 15.3904 9.73117 15.3172C9.76774 15.2531 9.77694 15.1891 9.78606 14.7408C9.79523 14.2924 9.78606 13.4506 9.83184 13.0938C9.87761 12.7278 11.4605 13.2585 11.4605 13.2585C11.4605 13.2585 11.0854 14.1918 10.9847 14.4205C10.8841 14.6493 10.8932 15.0884 10.8932 15.18C10.8932 15.2715 10.8567 15.4544 10.8292 15.4636C10.8017 15.4727 10.9207 15.7106 10.8657 15.8479C10.8291 15.976 10.9481 16.3054 10.9572 16.3786Z" fill="black"/>
<path d="M11.5609 2.38855C11.506 2.04086 11.5609 1.35456 11.6341 1.24482C11.8629 0.933692 13.0706 0.897126 13.3268 1.2631C13.4366 1.42778 13.4275 1.81208 13.4092 2.05915C13.3909 2.30617 13.3268 2.83686 13.3177 3.01075C13.3085 3.13887 11.9818 3.34012 11.689 2.99243C11.6066 2.90097 11.5609 2.38855 11.5609 2.38855Z" fill="black"/>
<path d="M14.2508 15.4912C14.8089 15.8938 15.239 15.967 15.5226 16.1134C15.8062 16.2598 15.7331 16.5434 15.2573 16.6258C14.873 16.6989 14.2691 16.5525 13.8665 16.5525C13.4639 16.5525 12.5672 16.5983 12.3293 16.4336C12.0548 16.2415 12.1737 15.8846 12.1737 15.8846C12.247 15.6834 12.4299 15.235 12.375 14.869C12.3201 14.503 12.2469 14.3017 12.1097 13.9632C11.9725 13.6246 11.8718 12.792 11.9999 12.7463C12.1281 12.7005 12.0914 12.7463 12.2561 12.7828C12.4208 12.8194 12.6038 12.8743 12.9607 12.8743C13.3175 12.8743 13.7109 12.8194 13.8482 12.792C13.9855 12.7645 14.0952 12.737 14.0495 13.0207C14.0037 13.3043 13.8665 13.835 13.8573 14.2468C13.8482 14.6585 13.8482 15.1343 13.8757 15.2167C13.9031 15.299 14.1044 15.3905 14.2508 15.4912Z" fill="black"/>
<path d="M12.2929 3.30355C11.2865 4.17282 9.33754 4.41068 6.44624 5.52696C5.70508 5.8106 3.72873 6.66154 3.25293 7.54909C4.85414 6.62497 5.4489 7.89678 5.57697 9.20519C5.69587 10.4313 6.30896 11.0718 7.88272 11.0351C9.50226 10.9986 9.99635 11.941 10.4447 13.0481C11.3139 8.81173 12.7047 7.98828 13.6013 7.26546C15.5045 5.71909 13.1622 2.99243 12.2929 3.30355Z" fill="#88CE02"/>
<path d="M12.2928 3.30347C9.87724 4.14524 7.4891 4.3557 4.68014 6.08503C4.01221 6.49677 2.60313 7.43001 2.32861 9.21427C3.35335 8.07966 5.72317 6.65233 8.62368 5.7465C10.0877 5.28898 11.1582 4.98706 12.4575 4.48381C12.366 3.89818 12.366 3.66944 12.2928 3.30347Z" fill="#88CE02"/>
<path d="M15.3761 8.31773C15.3761 8.31773 15.2022 8.91249 14.8545 9.10466C14.8545 9.10466 14.5983 9.19616 14.086 8.91253C13.9396 8.83019 13.8298 8.54656 13.8389 8.45501C13.8481 8.23539 13.9853 8.13477 13.9853 8.13477C13.9853 8.13477 14.1317 7.8877 14.3055 7.89687C14.4794 7.90599 14.7722 7.93343 14.8637 7.85109C14.946 7.75959 15.3944 8.01577 15.3761 8.31773Z" fill="black"/>
<path d="M11.6432 2.56239C11.6432 2.56239 11.6066 3.02908 11.5426 3.32183C11.5334 3.37677 11.259 3.40417 11.0576 3.48656C11.4419 4.58452 13.7568 4.57535 14.0588 4.03554C13.9124 3.93491 13.6196 3.77935 13.4824 3.72446C13.3451 3.66952 13.3543 3.67868 13.3451 3.4225C13.336 3.16627 13.3176 2.69051 13.2993 2.56239C13.281 2.43428 11.8628 2.43428 11.6432 2.56239Z" fill="black"/>
<path d="M11.7346 2.56241C11.7346 2.56241 11.7346 2.82775 11.7072 3.08394C11.698 3.20289 11.6889 3.27607 11.6706 3.36757C11.6614 3.42251 11.9817 3.64204 12.0732 4.12701C12.5124 5.10602 13.528 4.62109 13.9489 4.15445C13.8025 4.05379 13.5646 3.91655 13.2901 3.80676C13.1529 3.75183 13.2169 3.63292 13.2078 3.37674C13.1986 3.12055 13.162 2.74537 13.1437 2.60814C13.1254 2.4709 11.9542 2.43429 11.7346 2.56241Z" fill="#EFEFEF"/>
<path d="M11.643 2.56239C11.643 2.56239 11.6338 2.72712 11.6064 2.91925C11.7254 3.03815 11.8809 3.20288 11.9999 3.30355C12.0822 3.37677 12.2835 3.36761 12.4665 3.36761C12.6312 3.36761 12.7776 3.38589 12.8417 3.34932C12.9881 3.2761 13.1985 3.09314 13.3175 2.95586C13.3084 2.79118 13.2992 2.63562 13.2901 2.56239C13.2808 2.43428 11.8626 2.43428 11.643 2.56239Z" fill="black"/>
<path d="M12.4759 3.25765C12.366 3.25765 12.2379 3.24853 12.1373 3.2302C12.0915 3.22108 12.0458 3.19363 12.0092 3.17531C11.9451 3.12953 11.8811 3.07468 11.8079 3.01974C11.6615 2.90996 11.6524 2.8459 11.6524 2.8185C11.7164 2.24203 11.634 1.7571 11.634 1.7571C11.634 1.7571 11.57 1.51004 11.9177 1.44598C12.2654 1.38192 12.4758 1.3728 12.4758 1.3728C12.4758 1.3728 12.6954 1.3728 13.034 1.44598C13.3816 1.51004 13.3176 1.7571 13.3176 1.7571C13.3176 1.7571 13.2353 2.24203 13.2993 2.8185C13.2993 2.8459 13.2902 2.90996 13.1437 3.01974C13.0156 3.11125 12.915 3.21187 12.8144 3.2302C12.7137 3.24853 12.5856 3.25765 12.4759 3.25765Z" fill="black"/>
<path d="M12.4756 1.13501C11.8717 1.13501 11.7527 1.29969 11.5789 1.4827C11.5423 1.52843 11.5697 1.80294 11.6338 2.38853H11.7162C11.7162 2.38853 11.6612 2.22381 11.6704 2.03168C11.6795 1.83955 11.7162 1.84872 11.6887 1.80294C11.6521 1.748 11.5789 1.6565 11.7436 1.56504C11.9083 1.47354 12.1645 1.63822 12.4756 1.64738C12.7867 1.63822 13.052 1.47354 13.2167 1.56504C13.3814 1.6565 13.3082 1.748 13.2716 1.80294C13.235 1.85784 13.2808 1.83951 13.2899 2.03168C13.299 2.22381 13.2441 2.38853 13.2441 2.38853H13.3265C13.3814 1.80294 13.418 1.54676 13.3905 1.50098C13.235 1.29969 13.0795 1.14413 12.4756 1.13501Z" fill="black"/>
<path d="M15.3763 8.3451C15.3763 8.3451 15.2024 8.90325 14.8639 9.09537C14.7907 9.05881 14.7998 9.00391 14.7358 8.92153C14.7174 8.89413 14.6534 8.87575 14.626 8.84835C14.5985 8.82091 14.6077 8.77513 14.5619 8.73857C14.5253 8.70196 14.4979 8.7294 14.4613 8.70195C14.4247 8.66539 14.4155 8.61961 14.3881 8.59221C14.3697 8.57388 14.2966 8.56477 14.2783 8.54644C14.2325 8.50066 13.83 8.41832 13.8483 8.32682C13.8848 8.18954 13.958 8.08892 13.958 8.08892C13.958 8.08892 14.1319 7.83273 14.3057 7.84185C14.4795 7.85101 14.6443 7.88763 14.7358 7.80528C14.8364 7.71374 15.4037 8.05231 15.3763 8.3451Z" fill="black"/>
<path d="M14.187 4.30088C14.187 4.30088 14.7634 4.1636 15.1569 4.53878C15.5504 4.92308 15.5229 5.39884 15.404 5.69164C15.5046 5.81059 15.6876 6.13995 15.5504 6.53341C16.1542 7.04578 15.8889 7.83271 15.3491 8.35424C15.3491 8.35424 15.221 7.87844 14.7086 7.85099C14.7269 7.66803 14.2328 7.52159 14.4615 7.04578C14.1138 6.96344 14.123 6.72554 14.0681 6.43279C14.0223 6.13995 14.187 4.30088 14.187 4.30088Z" fill="black"/>
<path d="M13.9765 4.55695C13.9765 4.55695 14.6444 4.21842 15.0379 4.60272C15.4313 4.98702 15.3214 5.40789 15.2025 5.70068C15.3032 5.81959 15.5411 6.1582 15.3947 6.56074C15.3672 6.65225 15.1659 6.65225 15.0195 6.89015C15.3855 6.67965 15.6142 6.73459 15.6966 6.99989C15.8247 7.41164 15.541 7.90573 15.294 8.18024C15.294 8.17107 15.2848 8.16191 15.2848 8.15279C15.2483 8.29007 15.2025 8.55537 14.928 8.84817C14.7907 8.99457 14.681 8.97628 14.5254 8.93967C14.3424 8.8939 14.2784 8.81151 14.0222 8.67432C13.8758 8.59198 13.9581 8.49132 13.9581 8.40898C13.9581 8.39069 13.9764 8.3632 14.0039 8.32664C14.0222 8.28086 14.0771 8.20773 14.1594 8.12534C14.1594 8.12534 14.2784 7.96066 14.4523 7.96978C14.6261 7.97895 14.8091 7.94238 14.8548 7.89661C14.8548 7.57636 14.4889 7.5672 14.6169 7.01822C14.6261 6.99077 14.6719 6.945 14.8182 6.92671C14.5986 6.88094 14.498 6.87178 14.3424 6.72542C14.2326 6.6248 14.1503 6.49668 14.1228 6.332C14.068 6.04837 13.9765 4.55695 13.9765 4.55695Z" fill="#EFEFEF"/>
<path d="M12.0457 3.98068C11.9908 3.90745 11.7072 3.54148 11.1673 3.39508C11.0118 3.34931 10.9111 3.47742 10.7556 3.56893C10.7098 3.54148 10.5086 3.44998 10.3988 3.51399C10.289 3.578 10.2158 3.64211 10.106 3.68783C10.051 3.66039 9.90468 3.66039 9.78573 3.70612C9.66678 3.74273 9.48377 3.82507 9.30992 4.06297C9.20014 4.45643 11.2497 4.16359 11.2497 4.16359L12.0457 3.98068Z" fill="black"/>
<path d="M12.0642 3.98051C11.7714 3.87984 11.8172 3.54132 11.1675 3.48642C11.0394 3.47726 10.9571 3.57788 10.8656 3.64194C10.9113 3.68772 10.9571 3.76089 10.9845 3.83407C10.9022 3.74261 10.7558 3.62361 10.6093 3.59617C10.4721 3.56877 10.3806 3.66939 10.2342 3.74261C10.2616 3.77001 10.2891 3.81579 10.3257 3.87072C10.1975 3.78838 10.1061 3.76094 9.93223 3.82495C9.81328 3.86152 9.58454 3.96218 9.4107 4.20925C9.30091 4.60271 11.259 4.16348 11.259 4.16348L12.0642 3.98051Z" fill="#88CE02"/>
<path d="M13.7842 4.1269C13.7842 4.1269 13.7842 4.02624 13.7751 3.93478C13.7751 3.91649 13.7019 3.87072 13.7019 3.85244L13.6836 3.83411C13.6836 3.83411 13.83 3.75177 13.9398 3.79754C14.0587 3.83411 14.1227 3.98967 14.1227 3.98967C14.3332 3.91649 14.3515 3.99883 14.4521 4.10862C14.6718 4.06285 14.6992 4.14519 14.8364 4.34652C14.8364 4.34652 14.6718 4.31908 14.3515 4.37393C14.0404 4.41966 13.7842 4.11774 13.7842 4.1269Z" fill="black"/>
<path d="M13.7478 4.0813C13.7478 4.0813 13.8027 4.03552 13.7843 4.02636C13.885 3.97147 14.0222 3.90745 14.0863 4.0813C14.2967 4.00808 14.3242 4.10874 14.4248 4.21858C14.681 4.09962 14.6993 4.24598 14.7176 4.31004C14.6353 4.31004 14.5164 4.3192 14.3516 4.33748C14.0406 4.38326 13.7386 4.07213 13.7478 4.0813Z" fill="#88CE02"/>
<path d="M10.6366 3.85254C10.6366 3.85254 11.1581 4.0355 11.5973 4.00806C12.0365 3.97149 12.7868 3.93488 13.1893 4.17278C13.1893 4.17278 13.6011 4.02634 13.9854 4.12701C14.3697 4.22763 15.0742 4.88644 14.8638 5.58182C14.8455 5.6276 14.7265 5.70077 14.5893 5.74655C14.5893 5.74655 14.6625 6.05763 14.5344 6.31381C14.4063 6.56088 14.1227 7.03668 14.1135 7.69545C14.1044 7.80524 14.0861 8.03397 14.0678 8.14376C13.3541 8.11636 12.2561 7.85097 11.1764 7.86929C11.1856 7.75039 11.1947 7.67717 11.2039 7.55821H11.2313C11.1764 7.25626 11.1581 7.10069 11.1032 6.87196C10.7555 6.65238 10.3895 6.3962 10.0784 5.91123C9.77647 5.42626 10.6366 3.85254 10.6366 3.85254Z" fill="black"/>
<path d="M14.1684 8.79346C14.1684 8.79346 14.7357 10.8247 14.0678 11.6757C14.0678 11.6757 14.1684 12.0691 13.9397 12.49C13.9031 12.673 13.8573 12.8377 13.8299 13.0207C13.7109 13.7801 13.5096 14.1003 13.4547 15.3173L12.9057 15.3081C12.9057 15.3081 12.8416 14.4298 12.6495 13.9631C12.5398 13.6978 12.1096 13.3409 12.128 12.9841C12.1463 12.7096 12.2012 12.4809 12.6679 12.1148C12.7044 11.5842 12.1737 11.0809 12.2561 9.10454L14.1684 8.79346Z" fill="black"/>
<path d="M14.0038 8.71094C14.1502 9.64422 14.4888 11.0259 13.8757 11.7029C13.9031 11.831 13.9215 12.014 13.8848 12.2244C13.8666 12.3342 13.83 12.4532 13.7842 12.5812C13.6927 12.8009 13.6561 13.1211 13.6287 13.3132C13.5097 14.0727 13.5097 14.1093 13.4548 15.3262L12.9058 15.3171C12.9058 15.3171 12.8417 14.4387 12.6496 13.9721C12.5399 13.7067 12.3111 13.478 12.2928 13.1212C12.2745 12.8467 12.4666 12.2977 12.9242 12.316C12.8967 11.2089 12.3843 11.4284 12.2471 9.12268L14.0038 8.71094Z" fill="#EFEFEF"/>
<path d="M10.6365 3.85254C10.6365 3.85254 10.8378 3.9166 11.0574 3.93488C11.277 3.95316 11.5149 3.93488 11.7253 3.92572C12.1645 3.88915 12.7867 3.84338 13.1985 4.08128C13.1985 4.08128 13.4272 4.00806 13.6743 4.02634C13.7841 4.0355 13.8939 4.12701 14.022 4.16362C14.4245 4.26424 14.8088 4.93217 14.635 5.53609C14.6167 5.58187 14.4886 5.53609 14.3422 5.58187C14.3696 5.70998 14.3879 6.00278 14.2415 6.31386C14.086 6.62498 13.8847 7.02756 13.9212 7.79616C12.9605 7.75039 12.5305 7.68637 11.5789 7.6406C11.4965 7.30203 11.4416 6.9635 11.4325 6.78966C11.5606 6.7256 11.6337 6.67075 11.7344 6.56092C11.46 6.6067 11.3501 6.58837 11.1854 6.49686C11.0207 6.40536 10.7279 6.11256 10.5815 5.92044C10.5633 5.90211 10.4626 6.20402 10.2339 6.21323C10.1515 6.09428 10.4992 5.75571 10.4351 5.62764C10.2064 5.16096 10.6365 3.85254 10.6365 3.85254Z" fill="#EFEFEF"/>
<path d="M14.0769 7.95168C14.0769 7.95168 14.0952 8.28109 14.0952 8.36343C14.0952 8.45494 14.1684 8.7294 14.1775 8.85752C14.0769 9.03136 13.6377 9.42483 12.8417 9.57122C12.0548 9.7359 11.0117 8.50071 11.0117 8.50071C11.0392 8.38176 11.1307 8.03402 11.1947 7.85106C11.2039 7.83278 11.2222 7.787 11.2222 7.76872C11.3046 7.64977 14.0769 7.95168 14.0769 7.95168Z" fill="black"/>
<path d="M13.8756 7.97922C13.8756 8.20795 13.9122 8.37268 13.9397 8.51908C13.9854 8.78443 14.0586 8.95827 14.0586 9.13211C14.0586 9.66277 13.3632 9.57126 12.7776 9.58959C11.9907 9.75432 11.3228 8.51908 11.3228 8.51908C11.3776 8.30862 11.4143 8.07076 11.4966 7.86943C11.5057 7.75964 11.524 7.62241 11.5332 7.55835C12.6495 7.55835 13.4363 7.62241 13.8939 7.66809C13.9122 7.76876 13.8939 7.9426 13.8756 7.97922Z" fill="#EFEFEF"/>
<path d="M12.9973 9.15935C12.9973 9.15935 12.5124 8.07967 11.0575 8.39996C10.7099 9.37897 10.2432 10.5044 10.5452 11.7213C10.2432 12.1331 9.89551 12.3619 9.89551 13.1213C9.89551 13.8807 9.93212 14.0088 9.93212 14.0088L11.0026 14.0637C11.0026 14.0637 11.3503 13.6154 11.4876 13.1305C11.5242 12.9932 11.5608 12.7462 11.5333 12.4625C11.5699 12.4076 11.7255 12.2796 11.7438 12.0325C11.7438 12.0325 12.2653 11.758 12.5673 11.0901C12.851 10.4861 12.7777 9.96456 12.9973 9.15935Z" fill="black"/>
<path d="M12.9971 9.15938C12.9697 9.05875 12.6037 8.07058 11.2495 8.36333C10.4535 10.4861 10.7463 11.3645 10.8652 11.7488C10.3254 12.435 10.0784 12.5814 10.1882 13.9722H10.9019C11.2313 13.4506 11.3045 13.2585 11.3228 12.5723C11.3228 12.5448 11.2221 12.6272 11.1489 12.7187C11.2039 12.435 11.3594 12.3801 11.4783 12.2063C11.5332 12.1331 11.5789 12.0233 11.5789 11.8769C12.2194 11.4468 12.4573 10.907 12.5946 10.3488C12.7044 9.96459 12.8325 9.33322 12.9971 9.15938Z" fill="#EFEFEF"/>
<path d="M10.7373 7.68628C10.7373 7.68628 10.9843 7.6954 11.2039 7.76862C11.4144 7.8418 11.4144 7.88753 11.4967 7.97908C11.5791 8.07062 11.7804 8.20781 11.7438 8.34505C11.7255 8.41827 11.6797 8.43655 11.6157 8.50061C11.5882 8.52806 11.3869 8.74763 11.3412 8.77508C11.3137 8.79336 11.2771 8.82085 11.2497 8.83913C11.2223 8.85742 11.1399 8.91236 11.1124 8.93064C11.0209 8.97641 10.9569 9.00386 10.8562 8.9947C10.8562 8.9947 10.6275 8.98553 10.4811 8.83002C10.4811 8.83002 10.4628 8.75679 10.4994 8.72023C10.4994 8.72023 10.3072 8.5555 10.2523 8.44571C10.1974 8.33597 10.1974 8.18041 10.234 8.09807C10.2523 8.01564 10.6091 7.7869 10.7373 7.68628Z" fill="black"/>
<path d="M10.9659 16.589L10.9385 16.8178C10.9385 16.8178 10.8561 16.9184 10.2431 16.9093C9.62089 16.9001 9.45621 16.708 9.40131 16.6073L9.36475 16.3694C9.36475 16.3694 9.4837 16.1956 9.51114 16.1956C9.71244 16.2138 10.3987 16.4884 10.8745 16.5615C10.9201 16.5615 10.9293 16.5798 10.9659 16.589Z" fill="black"/>
<path d="M12.2929 16.1223C12.2929 16.223 12.2837 16.223 12.2837 16.3236C12.3935 16.406 12.668 16.4517 13.1895 16.4425C13.949 16.4242 14.6535 16.6713 15.5136 16.5249L15.5227 16.3602L15.4404 16.3511L12.3935 16.104L12.2929 16.1223Z" fill="black"/>
<path d="M12.9607 16.4427C13.034 16.4427 13.1071 16.4427 13.1895 16.4427C13.6836 16.4244 14.1502 16.5342 14.6535 16.5616C14.9188 16.5525 15.2482 16.4884 15.2208 16.2963L12.6222 16.0767C12.4666 16.2505 12.5856 16.3969 12.9607 16.4427Z" fill="black"/>
<path d="M9.97808 12.5906C10.0604 12.6455 10.6186 12.9749 11.5244 12.9291C11.5061 13.1029 11.5152 13.4415 11.1126 14.0362C10.9114 14.329 10.7375 14.8414 10.7009 15.4911C10.7101 15.6375 10.7924 15.7656 10.6826 15.9577C10.7192 16.0766 10.8656 16.3145 10.9388 16.4609C11.012 16.6074 11.0486 16.7721 10.5636 16.7812C10.0695 16.7903 9.27349 16.7354 9.38332 16.3512C9.43826 16.1499 9.59378 15.9394 9.6121 15.8571C9.63039 15.7747 9.63039 15.5277 9.7859 15.363C9.92318 14.9055 9.87741 14.4663 9.85001 14.0546C9.80423 13.6245 9.79507 12.9383 9.97808 12.5906Z" fill="black"/>
<path d="M10.8287 5.13354C11.4784 4.26427 10.9294 3.56894 9.88634 3.77935C9.46543 3.86169 9.04456 4.15453 9.01707 4.68518C8.87984 4.70347 8.56876 4.72175 8.4132 5.28906C8.29429 5.72825 8.23024 5.81059 8.01974 6.03017C7.8825 6.18573 8.0289 6.50597 8.12952 6.73475C8.46809 7.52164 9.51116 7.59481 10.2157 8.18957C10.4536 8.12551 10.7006 7.86021 10.7738 7.68636C10.1791 6.98178 10.3072 6.70731 10.0693 6.34134C10.3255 6.24979 10.9111 5.89298 10.8287 5.13354Z" fill="black"/>
<path d="M10.7005 5.07852C10.7371 5.02358 10.8012 4.90467 10.8286 4.8589C10.8378 4.84973 10.9384 5.02358 10.9476 5.01446C11.1946 4.61183 11.2587 4.02624 10.975 3.97135C10.9109 3.96218 10.792 3.93478 10.6914 3.89813C10.5084 3.83407 10.3437 3.83407 10.0509 3.88901C9.6483 3.96218 9.24572 4.25498 9.24572 4.67589C9.24572 4.70334 9.52931 4.78568 9.61169 5.12425C9.47441 4.93207 9.23651 4.72162 8.95288 4.90463C8.65092 5.09676 8.80648 5.53595 8.4039 5.99342C8.26662 6.14899 8.28495 6.332 8.4313 6.69797C8.6692 7.27444 9.79465 7.58552 10.4077 8.1345C10.5541 8.07044 10.6547 7.92404 10.7279 7.81426C10.3162 7.38423 10.1515 6.9816 10.0326 6.6888C9.88616 6.35028 9.72143 6.15815 9.40119 5.90188C9.56592 5.96593 9.69403 6.02999 9.76716 6.08488C9.8495 6.13978 9.96845 6.14894 10.0783 6.11233C10.4718 5.97519 10.6823 5.42616 10.7005 5.07852Z" fill="#EFEFEF"/>
<path d="M14.681 5.2249C14.6536 5.57259 14.3974 5.39875 14.2601 5.33469C13.9856 5.21574 13.7111 5.1334 13.3909 5.1334C13.0706 5.1334 12.6589 5.16085 12.3021 5.25235C11.808 5.38958 11.6615 5.38047 11.442 5.27063C11.2224 5.15168 10.8381 4.85889 10.8381 4.85889C10.8381 4.85889 10.829 4.95039 10.9205 5.06934C11.0394 5.21574 11.3048 5.39875 11.6616 5.51765C11.8354 5.57259 11.9727 5.53594 12.1283 5.49937C12.9426 5.29808 13.8027 5.26147 14.5255 5.70066C14.5621 5.71895 14.6902 5.66405 14.7451 5.58171C14.8182 5.46281 14.681 5.2249 14.681 5.2249Z" fill="black"/>
<path d="M10.5176 8.71094C10.5908 8.75671 10.6823 8.78416 10.7829 8.8665C10.7829 8.8665 10.7005 8.8665 10.664 8.82993C10.6182 8.80249 10.5267 8.72015 10.5176 8.71094Z" fill="#001423"/>
<path d="M13.1621 1.45535C13.1347 1.37301 12.9333 1.22656 12.4667 1.22656C11.9635 1.22656 11.8171 1.38212 11.808 1.46446C11.808 1.49191 11.7714 1.78475 11.7622 1.90366C11.7622 1.90366 11.7622 2.05006 11.7713 2.26963C11.7805 2.41603 11.8171 2.49837 11.8354 2.69054C11.8537 2.89179 11.9086 3.0199 12.0092 3.18463C12.055 3.21203 12.0916 3.23952 12.1373 3.24869C12.3204 3.28525 12.6406 3.29442 12.8144 3.24869C12.9151 3.22124 13.0432 3.04739 13.0706 2.89183C13.1072 2.6997 13.1438 2.56243 13.153 2.44352C13.1712 2.32461 13.1804 2.05922 13.1895 1.986C13.217 1.78475 13.1712 1.47363 13.1621 1.45535Z" fill="#EFEFEF"/>
<path d="M12.2011 12.7644C12.2011 12.7644 12.6861 12.9749 13.8847 12.7919C13.8847 12.7919 13.5462 14.4937 13.7018 15.3446C13.7018 15.3446 13.8573 15.5642 15.0102 15.9851C15.0102 15.9851 15.5225 16.1132 15.5043 16.3695C15.5043 16.3695 15.5225 16.4244 14.9004 16.406C14.2782 16.3877 13.6926 16.2779 13.2808 16.2779C12.8691 16.2779 12.4299 16.2962 12.3567 16.1773C12.2744 16.0675 12.375 15.7838 12.494 15.6191C12.6221 15.4453 12.5855 15.3171 12.5763 15.0061C12.5488 14.1918 11.9266 13.35 12.2011 12.7644Z" fill="black"/>
<path d="M12.1004 12.92C12.0363 13.0115 12.1095 13.3591 12.201 13.6977C12.2925 14.0362 12.4939 14.2376 12.5396 14.7957C12.5853 15.3447 12.5945 15.4179 12.4389 15.7381C12.2834 16.0583 12.2376 16.3511 12.7774 16.3603C13.3173 16.3694 13.6101 16.3511 14.1591 16.4335C14.7081 16.5158 14.9002 16.5433 15.2022 16.4976C15.5042 16.4518 15.5682 16.3511 15.4401 16.2597C15.312 16.1681 14.7813 16.0675 14.5526 15.8845C14.3329 15.7198 13.7108 15.4453 13.7017 15.3721C13.6742 15.125 13.665 14.2284 13.7108 13.9356C13.7566 13.6427 13.8206 13.2219 13.8389 13.1121C13.8572 13.0023 13.9487 12.8925 13.7931 12.9291C13.6376 12.9656 13.052 13.048 12.6128 13.0206C12.1736 12.9932 12.1279 12.8925 12.1004 12.92Z" fill="#88CE02"/>
<path opacity="0.3" d="M12.4116 15.7473C12.5672 15.8205 12.7959 15.8754 12.9698 15.8754C12.9698 15.8754 12.9057 16.1774 13.0063 16.3604C13.107 16.5434 12.2744 16.4336 12.2744 16.4336L12.2378 15.7839L12.4116 15.7473Z" fill="black"/>
<path opacity="0.3" d="M14.8363 16.5341C14.9827 16.4883 15.0834 16.3236 14.9644 16.1681C14.8363 16.0126 14.7265 15.9851 14.8912 15.976C15.0559 15.9668 15.6598 16.3328 15.6598 16.3328L15.3487 16.6164L14.8363 16.5341Z" fill="black"/>
<path opacity="0.3" d="M12.073 13.2769C12.2834 13.3501 12.6037 13.3684 12.8782 13.3592C13.1526 13.3501 13.5644 13.3134 13.8298 13.222C14.0951 13.1305 13.9853 13.3226 13.9853 13.3226L13.8389 13.4599C13.8389 13.4599 13.4912 13.5971 12.924 13.588C12.256 13.5788 12.0547 13.5056 12.0547 13.5056L12.073 13.2769Z" fill="black"/>
<path opacity="0.3" d="M12.0913 13.7344C12.3018 13.8077 12.622 13.8259 12.8965 13.8168C13.171 13.8077 13.537 13.8077 13.8024 13.707C13.9121 13.6704 13.8481 13.8259 13.8481 13.8259L13.8024 13.9083C13.8024 13.9083 13.4455 14.0364 12.8874 14.0272C12.2194 14.0181 12.1005 13.9631 12.1005 13.9631L12.0913 13.7344Z" fill="black"/>
<path d="M11.4878 7.32031C11.4878 7.38437 12.2015 7.74118 12.5949 7.8144C12.9884 7.88758 13.8119 7.8144 13.9399 7.78695L13.9216 7.91507C13.9216 7.91507 12.9426 8.06147 12.1923 7.86017C11.442 7.65888 11.5244 7.61311 11.5244 7.61311L11.4878 7.32031Z" fill="black"/>
<path d="M9.95947 15.125C10.0693 15.18 10.4627 15.2806 10.7189 15.2257C10.7555 15.2165 10.7189 14.5943 10.8196 14.3107C10.966 13.9172 11.2039 13.597 11.3136 12.9017C10.9293 12.8651 10.4902 12.7644 10.2614 12.6912C9.96864 13.5879 10.0693 14.3564 9.95947 15.125Z" fill="#EFEFEF"/>
<path d="M10.5726 15.7015C10.6367 15.7197 10.6824 15.7929 10.7008 15.7472C10.7373 15.6649 10.6367 15.5093 10.6275 15.3996C10.6275 15.3904 10.6275 15.3996 10.6275 15.3904C10.5452 15.3172 9.98706 15.308 10.0237 15.3446C9.95961 15.4636 9.85899 15.4453 9.82242 15.6832C9.80414 15.8021 9.95054 15.7015 10.0877 15.6923C9.8407 15.857 9.55707 16.0675 9.5113 16.2504C9.4564 16.5066 9.54791 16.5799 9.82242 16.7171C10.0603 16.772 10.344 16.7812 10.5635 16.772C10.8106 16.7262 10.8564 16.6073 10.7831 16.4426C10.6733 16.1956 10.6001 15.8753 10.5726 15.7015Z" fill="#EFEFEF"/>
<path d="M10.6731 3.81592C10.9751 3.98976 11.396 3.94403 11.5515 3.93487C11.5881 3.93487 11.9541 3.87081 11.9724 3.87993C12.009 3.88909 12.009 3.91654 12.009 3.91654C12.009 3.91654 11.8717 3.98972 11.5607 4.008C11.2679 4.02628 10.9202 4.008 10.728 3.91654C10.4993 3.81592 10.6731 3.81592 10.6731 3.81592Z" fill="black"/>
<path d="M13.7842 3.98982C13.8391 4.02639 14.1959 4.16367 14.3515 4.32835C14.4887 4.47479 14.4155 4.46563 14.388 4.42902C14.3515 4.38324 14.0678 4.19111 13.958 4.14538C13.8482 4.09966 13.7109 4.01727 13.7109 3.99899C13.7109 3.9807 13.7842 3.98982 13.7842 3.98982Z" fill="black"/>
<path d="M10.6275 7.78693C10.8929 7.76865 11.1674 7.83271 11.3412 8.01567C11.4327 8.10717 11.5791 8.2078 11.5609 8.2993C11.5609 8.32675 11.5059 8.39997 11.4602 8.45486C11.4328 8.49143 11.3504 8.57377 11.323 8.60126C11.2864 8.62871 11.1583 8.72938 11.1308 8.74766C11.1034 8.76599 11.0668 8.81176 11.0393 8.82088C10.9479 8.86666 10.8472 8.83004 10.7557 8.78431C10.6642 8.73854 10.774 8.72938 10.6733 8.6562C10.4263 8.48236 10.2891 8.36336 10.3897 8.02483C10.3988 7.96078 10.4995 7.88756 10.6275 7.78693Z" fill="#EFEFEF"/>
<path opacity="0.4" d="M8.29431 5.69156C7.47082 6.02096 5.37547 7.06408 4.78076 7.38432C5.27485 7.6954 5.50359 8.44567 5.57681 9.20511C5.58593 9.27833 5.59509 9.34239 5.60426 9.41556C5.61337 9.47962 5.62254 9.52535 5.63166 9.55284C5.63166 9.562 5.63166 9.58029 5.64082 9.58941C6.18068 8.11631 8.11126 6.56083 8.18448 6.44188C8.22104 6.38698 8.1387 6.14908 8.26682 5.92039C8.43154 5.6275 8.75183 5.49939 8.29431 5.69156Z" fill="black"/>
<path opacity="0.4" d="M10.2526 12.5997C10.6735 11.7579 10.6827 10.9527 10.6735 10.0102C10.6735 9.61678 10.9571 9.05864 10.8108 9.2142C10.2617 9.82719 8.88015 10.9801 7.88281 11.0442C9.28273 10.9984 9.83171 11.703 10.2526 12.5997Z" fill="black"/>
<path d="M3.97559 8.16213C4.49712 7.78699 7.19634 6.35051 7.84599 6.14917C8.49559 5.93872 8.2943 5.69165 8.2943 5.69165C8.2943 5.69165 5.65914 6.82622 4.08537 7.80528" fill="black"/>
<path opacity="0.4" d="M11.6617 5.5179C11.4512 5.43556 11.2865 5.68262 11.3414 5.92053C11.3964 6.15843 11.8904 6.42373 11.863 7.293C11.8447 8.00671 11.6891 8.29946 11.6891 8.29946L11.3414 7.86031C11.3414 7.86031 11.2865 6.87209 11.1676 6.72569C11.0487 6.57929 10.6735 6.31395 10.5271 6.17671C10.3807 6.03943 10.6918 5.85647 10.6735 5.60024C10.6552 5.35322 10.8291 4.85913 10.8291 4.85913L11.6617 5.5179Z" fill="black"/>
<path opacity="0.4" d="M12.9332 9.41553C12.9149 10.1017 13.0704 11.1174 13.1344 11.6024C13.1985 12.0873 13.2808 12.1239 13.1344 12.3435C12.988 12.554 12.7959 12.9017 12.7959 12.9017L12.1646 12.8467C12.1646 12.8467 12.6678 12.2062 12.6952 12.0873C12.7226 11.9684 12.439 11.0626 12.439 11.0626L12.9332 9.41553Z" fill="black"/>
<path opacity="0.4" d="M11.7163 3.01072C11.8444 3.29431 11.9999 3.42242 12.247 3.50481C12.3934 3.5597 12.9698 3.63292 13.1986 3.37669C13.2992 3.25774 13.2351 2.9375 13.2351 2.9375L12.7136 3.35837L12.0091 3.2303L11.9267 3.01984L11.7163 3.01072Z" fill="black"/>
<path d="M11.7714 3.64209C12.0093 3.79765 12.6041 3.94405 12.7688 3.9715C12.9334 4.00806 13.1988 3.79765 13.3269 3.74276C13.4642 3.6787 13.7021 3.64209 13.9766 3.88916C14.004 3.9166 13.9125 4.03555 13.9125 4.03555C13.9033 4.02639 13.8484 4.02639 13.7752 3.98978C13.702 3.95321 13.638 3.92572 13.5282 3.93489C13.0707 3.98978 12.9975 4.14534 12.5949 4.05379C12.1923 3.96224 12.0917 3.88911 11.6982 3.90739" fill="#88CE02"/>
<path d="M11.7714 3.64209C12.0093 3.79765 12.6041 3.94405 12.7688 3.9715C12.9334 4.00806 13.1988 3.79765 13.3269 3.74276C13.4642 3.6787 13.7021 3.64209 13.9766 3.88916C14.004 3.9166 13.9125 4.03555 13.9125 4.03555C13.9033 4.02639 13.8484 4.02639 13.7752 3.98978C13.702 3.95321 13.638 3.92572 13.5282 3.93489C13.0707 3.98978 12.9975 4.14534 12.5949 4.05379C12.1923 3.96224 12.0917 3.88911 11.6982 3.90739" stroke="black" stroke-width="1.586" stroke-linejoin="round"/>
<path d="M11.6891 3.66943C11.9911 3.79755 12.5766 3.93478 12.7413 3.97139C12.906 4.008 13.1714 3.84328 13.2995 3.76094C13.5283 3.61454 13.821 3.73349 13.9583 3.88905C14.0497 3.98968 14.0864 4.05373 14.0864 4.08118C14.0864 4.11775 13.9766 4.08118 13.9766 4.08118C13.9126 4.05373 13.8393 4.04461 13.7845 4.00796C13.7113 3.97139 13.638 3.9165 13.5283 3.92562C13.0708 3.98056 12.9793 4.13607 12.5859 4.04457C12.1924 3.95307 12.0918 3.87073 11.6709 3.89813" fill="#88CE02"/>
<path d="M10.2706 12.2154C10.2523 12.1972 10.2889 12.1789 10.2706 12.1789C10.1517 12.1789 9.98695 12.0874 9.8954 11.9593C9.50198 11.392 8.92551 11.0169 7.88244 11.0443C6.31779 11.0809 5.69559 10.4404 5.57668 9.21436C5.51263 8.54643 5.32962 7.89678 4.95448 7.53076L4.73486 7.66804C5.15573 8.03401 5.29301 8.62877 5.38451 9.4431C5.53091 10.6692 6.51908 11.2365 7.67198 11.2548C8.87061 11.273 9.30064 11.5201 9.74896 12.124C9.89535 12.3162 10.0601 12.3802 10.1881 12.4077L10.2706 12.2154Z" fill="black"/>
<path opacity="0.4" d="M14.5163 6.33203C14.5438 6.46927 14.6169 6.73461 14.7633 6.86268C14.8274 6.92674 14.8366 6.94502 14.7817 6.94502C14.7267 6.94502 14.3241 6.92674 14.3241 6.92674L14.2144 6.73461L14.5163 6.33203Z" fill="black"/>
</g>
<defs>
<clipPath id="clip0_195_1311">
<rect width="13.7912" height="16" fill="white" transform="translate(2.10449 1)"/>
</clipPath>
</defs>
</svg>
