<svg width="18" height="18" viewBox="0 0 18 18" fill="none" xmlns="http://www.w3.org/2000/svg">
<g clip-path="url(#clip0_178_1148)">
<path d="M14.4082 9.83792C13.8838 9.84085 13.4297 9.96683 13.0488 10.1543C12.9082 9.87601 12.7675 9.63284 12.7441 9.4512C12.7177 9.24027 12.6855 9.11136 12.7177 8.85941C12.75 8.60745 12.8965 8.25003 12.8965 8.22073C12.8935 8.19437 12.8642 8.06546 12.5625 8.06253C12.2607 8.0596 12 8.12112 11.9707 8.20023C11.9414 8.27933 11.8828 8.46097 11.8447 8.64847C11.792 8.92386 11.2412 9.89945 10.9277 10.4121C10.8252 10.2129 10.7373 10.0371 10.7197 9.89652C10.6933 9.68558 10.6611 9.55667 10.6933 9.30472C10.7256 9.05277 10.872 8.69534 10.872 8.66605C10.8691 8.63968 10.8398 8.51077 10.5381 8.50784C10.2363 8.50491 9.97556 8.56644 9.94626 8.64554C9.91696 8.72464 9.88474 8.91214 9.82028 9.09378C9.75876 9.27542 9.02634 10.9043 8.83591 11.3291C8.73923 11.5459 8.65427 11.7188 8.59274 11.836C8.53122 11.9532 8.58981 11.8448 8.58395 11.8565C8.53122 11.9561 8.50192 12.0118 8.50192 12.0118V12.0147C8.46091 12.0879 8.41696 12.1582 8.39645 12.1582C8.38181 12.1582 8.35251 11.9619 8.40231 11.6924C8.51071 11.127 8.77438 10.2451 8.77145 10.2129C8.77145 10.1983 8.82126 10.043 8.60153 9.9639C8.38767 9.8848 8.31149 10.0166 8.29392 10.0166C8.27634 10.0166 8.26169 10.0635 8.26169 10.0635C8.26169 10.0635 8.49899 9.07034 7.80759 9.07034C7.37399 9.07034 6.77634 9.54202 6.48044 9.97269C6.29294 10.0752 5.8945 10.292 5.47263 10.5235C5.31149 10.6114 5.1445 10.7051 4.9863 10.7901L4.95407 10.7549C4.11618 9.86136 2.56638 9.22855 2.63083 8.02737C2.65427 7.59085 2.80661 6.43948 5.60739 5.04495C7.90134 3.90237 9.73825 4.21585 10.0576 4.91312C10.5117 5.90921 9.07614 7.76077 6.69138 8.02737C5.78317 8.12991 5.30563 7.77835 5.18552 7.64652C5.05954 7.50882 5.04196 7.50296 4.99509 7.52933C4.91892 7.57034 4.96579 7.69339 4.99509 7.76663C5.0654 7.9512 5.35837 8.27933 5.85642 8.44339C6.29294 8.58695 7.35935 8.66605 8.64841 8.168C10.0927 7.60843 11.2207 6.0557 10.8896 4.75784C10.5527 3.43655 8.3613 3.00296 6.29001 3.73831C5.05661 4.17777 3.72067 4.86331 2.75974 5.76273C1.61716 6.82913 1.43552 7.76077 1.51169 8.14749C1.77829 9.52737 3.67966 10.4268 4.44138 11.0918C4.40329 11.1123 4.36813 11.1328 4.33591 11.1504C3.95505 11.3379 2.50485 12.0967 2.14157 12.8994C1.73142 13.8076 2.20603 14.461 2.52243 14.5489C3.50095 14.8213 4.5029 14.3321 5.04489 13.5264C5.58395 12.7207 5.5195 11.6748 5.27048 11.1973L5.26169 11.1797L5.56052 11.0039C5.75388 10.8897 5.94431 10.7842 6.1113 10.6934C6.01755 10.9483 5.95017 11.25 5.91501 11.6895C5.87399 12.2051 6.08493 12.8731 6.36325 13.1368C6.4863 13.251 6.63278 13.2539 6.7236 13.2539C7.04587 13.2539 7.19235 12.9873 7.35349 12.668C7.5527 12.2784 7.72849 11.8272 7.72849 11.8272C7.72849 11.8272 7.50876 13.0489 8.10935 13.0489C8.32907 13.0489 8.5488 12.7647 8.64841 12.6182V12.6211C8.64841 12.6211 8.65427 12.6123 8.66599 12.5918C8.68942 12.5567 8.70114 12.5362 8.70114 12.5362V12.5303C8.78903 12.378 8.98532 12.0293 9.27829 11.4522C9.65622 10.708 10.0195 9.7764 10.0195 9.7764C10.0195 9.7764 10.0547 10.0049 10.1631 10.3799C10.2275 10.6026 10.3681 10.8457 10.4765 11.083C10.3886 11.2061 10.3359 11.2764 10.3359 11.2764L10.3388 11.2793C10.2685 11.3731 10.1894 11.4727 10.1074 11.5723C9.80856 11.9297 9.45114 12.3369 9.40427 12.4541C9.3486 12.5918 9.36032 12.6944 9.46872 12.7764C9.54782 12.835 9.68845 12.8467 9.83786 12.835C10.1074 12.8174 10.2949 12.75 10.3886 12.709C10.5351 12.6563 10.7021 12.5772 10.8633 12.46C11.1562 12.2432 11.3349 11.9356 11.3174 11.5254C11.3086 11.2998 11.2353 11.0772 11.1445 10.8662C11.1709 10.8282 11.1972 10.7901 11.2236 10.7491C11.6865 10.0723 12.0439 9.32816 12.0439 9.32816C12.0439 9.32816 12.0791 9.55667 12.1875 9.93167C12.2431 10.1221 12.3545 10.3301 12.4541 10.5352C12.0205 10.8897 11.748 11.2998 11.6543 11.5694C11.4814 12.0674 11.6162 12.293 11.8711 12.3457C11.9853 12.3692 12.1494 12.3164 12.2724 12.2637C12.4248 12.2139 12.6093 12.1289 12.7793 12.003C13.0722 11.7862 13.3535 11.4844 13.3388 11.0772C13.33 10.8897 13.2802 10.7051 13.2129 10.5293C13.582 10.377 14.0595 10.2891 14.666 10.3623C15.9697 10.5147 16.2275 11.3291 16.1777 11.669C16.1279 12.0088 15.8554 12.1963 15.7646 12.2549C15.6738 12.3106 15.6445 12.3311 15.6533 12.3721C15.665 12.4336 15.706 12.4307 15.7851 12.419C15.8935 12.4014 16.4707 12.1407 16.4941 11.5137C16.5293 10.708 15.7646 9.82913 14.4082 9.83792V9.83792ZM4.35349 13.2276C3.92282 13.6993 3.31638 13.878 3.05856 13.7256C2.78024 13.5645 2.88864 12.8701 3.41892 12.3692C3.74118 12.0645 4.16013 11.7832 4.43552 11.6104C4.49704 11.5723 4.59079 11.5166 4.70212 11.4493C4.7197 11.4375 4.73142 11.4317 4.73142 11.4317C4.75192 11.42 4.77536 11.4053 4.7988 11.3907C4.99509 12.1055 4.80759 12.7325 4.35349 13.2276V13.2276ZM7.5029 11.086C7.35349 11.4522 7.03708 12.3926 6.84665 12.3399C6.68259 12.2959 6.58298 11.584 6.81442 10.8809C6.93161 10.5264 7.18063 10.1045 7.32712 9.94046C7.56442 9.67679 7.82224 9.5889 7.88669 9.6973C7.96286 9.83792 7.59665 10.8575 7.5029 11.086ZM10.1015 12.3282C10.0371 12.3604 9.97849 12.3838 9.95212 12.3662C9.93161 12.3545 9.97849 12.3106 9.97849 12.3106C9.97849 12.3106 10.3037 11.9619 10.4326 11.8008C10.5058 11.7071 10.5937 11.5987 10.6875 11.4756V11.5108C10.6875 11.9326 10.2832 12.2139 10.1015 12.3282V12.3282ZM12.1054 11.8711C12.0586 11.836 12.0644 11.7276 12.2226 11.3877C12.2841 11.253 12.4248 11.0274 12.6679 10.8135C12.6972 10.9014 12.7148 10.9864 12.7119 11.0655C12.709 11.5928 12.334 11.7891 12.1054 11.8711Z" fill="#CF649A"/>
</g>
<defs>
<clipPath id="clip0_178_1148">
<rect width="15" height="11.25" fill="white" transform="translate(1.5 3.375)"/>
</clipPath>
</defs>
</svg>
