<svg width="18" height="18" viewBox="0 0 18 18" fill="none" xmlns="http://www.w3.org/2000/svg">
<g clip-path="url(#clip0_175_1046)">
<path d="M6.66683 15.9999C7.95483 15.9999 9.00016 14.9546 9.00016 13.6666V11.3333H6.66683C5.37883 11.3333 4.3335 12.3786 4.3335 13.6666C4.3335 14.9546 5.37883 15.9999 6.66683 15.9999Z" fill="#0ACF83"/>
<path d="M4.3335 9.00008C4.3335 7.71208 5.37883 6.66675 6.66683 6.66675H9.00016V11.3334H6.66683C5.37883 11.3334 4.3335 10.2881 4.3335 9.00008Z" fill="#A259FF"/>
<path d="M4.3335 4.33333C4.3335 3.04533 5.37883 2 6.66683 2H9.00016V6.66667H6.66683C5.37883 6.66667 4.3335 5.62133 4.3335 4.33333Z" fill="#F24E1E"/>
<path d="M9 2H11.3333C12.6213 2 13.6667 3.04533 13.6667 4.33333C13.6667 5.62133 12.6213 6.66667 11.3333 6.66667H9V2Z" fill="#FF7262"/>
<path d="M13.6667 9.00008C13.6667 10.2881 12.6213 11.3334 11.3333 11.3334C10.0453 11.3334 9 10.2881 9 9.00008C9 7.71208 10.0453 6.66675 11.3333 6.66675C12.6213 6.66675 13.6667 7.71208 13.6667 9.00008Z" fill="#1ABCFE"/>
</g>
<defs>
<clipPath id="clip0_175_1046">
<rect width="9.3352" height="14" fill="white" transform="translate(4.33252 2)"/>
</clipPath>
</defs>
</svg>
