<svg width="25" height="28" viewBox="0 0 25 28" fill="none" xmlns="http://www.w3.org/2000/svg">
<path d="M4.19922 22H1.88477V7.72266H9.94141V9.69531H4.19922V14.1582H9.58008V16.1406H4.19922V22Z" fill="#25323D"/>
<path d="M23.3406 14.7246C23.3406 17.0814 22.6863 18.8848 21.3777 20.1348C20.0691 21.3783 18.1844 22 15.7234 22H11.7293V7.72266H16.1434C18.4155 7.72266 20.1831 8.33464 21.4461 9.55859C22.7091 10.7826 23.3406 12.5046 23.3406 14.7246ZM20.8797 14.8027C20.8797 11.3848 19.2814 9.67578 16.0848 9.67578H14.0633V20.0371H15.7234C19.1609 20.0371 20.8797 18.2923 20.8797 14.8027Z" fill="#5D87A8"/>
</svg>
