<svg width="184" height="28" viewBox="0 0 184 28" fill="none" xmlns="http://www.w3.org/2000/svg">
<path d="M4.19922 22H1.88477V7.72266H9.94141V9.69531H4.19922V14.1582H9.58008V16.1406H4.19922V22ZM16.9637 11.0039C17.4259 11.0039 17.8068 11.0365 18.1062 11.1016L17.8816 13.2402C17.5561 13.1621 17.2176 13.123 16.866 13.123C15.948 13.123 15.2026 13.4225 14.6297 14.0215C14.0633 14.6204 13.7801 15.3984 13.7801 16.3555V22H11.4852V11.1992H13.282L13.5848 13.1035H13.702C14.06 12.459 14.5255 11.9479 15.0984 11.5703C15.6779 11.1927 16.2996 11.0039 16.9637 11.0039ZM28.898 16.5801C28.898 18.3444 28.4456 19.7214 27.5406 20.7109C26.6357 21.7005 25.3759 22.1953 23.7613 22.1953C22.7522 22.1953 21.8603 21.9674 21.0855 21.5117C20.3108 21.056 19.7151 20.4017 19.2984 19.5488C18.8818 18.696 18.6734 17.7064 18.6734 16.5801C18.6734 14.8288 19.1227 13.4616 20.0211 12.4785C20.9195 11.4954 22.1858 11.0039 23.8199 11.0039C25.3824 11.0039 26.6194 11.5085 27.5309 12.5176C28.4423 13.5202 28.898 14.8743 28.898 16.5801ZM21.0367 16.5801C21.0367 19.0736 21.9579 20.3203 23.8004 20.3203C25.6233 20.3203 26.5348 19.0736 26.5348 16.5801C26.5348 14.1126 25.6168 12.8789 23.7809 12.8789C22.8173 12.8789 22.1174 13.1979 21.6812 13.8359C21.2516 14.474 21.0367 15.3887 21.0367 16.5801ZM40.2465 22H37.9418V15.3594C37.9418 14.526 37.7725 13.9043 37.434 13.4941C37.102 13.084 36.5714 12.8789 35.8422 12.8789C34.8721 12.8789 34.1625 13.1654 33.7133 13.7383C33.2641 14.3112 33.0395 15.2715 33.0395 16.6191V22H30.7445V11.1992H32.5414L32.8637 12.6152H32.9809C33.3064 12.1009 33.7686 11.7038 34.3676 11.4238C34.9665 11.1439 35.6306 11.0039 36.3598 11.0039C38.9509 11.0039 40.2465 12.3223 40.2465 14.959V22ZM46.6633 20.3398C47.2232 20.3398 47.7831 20.252 48.343 20.0762V21.8047C48.0891 21.9154 47.7603 22.0065 47.3566 22.0781C46.9595 22.1562 46.5461 22.1953 46.1164 22.1953C43.9419 22.1953 42.8547 21.0495 42.8547 18.7578V12.9375H41.3801V11.9219L42.9621 11.082L43.7434 8.79688H45.1594V11.1992H48.2355V12.9375H45.1594V18.7188C45.1594 19.2721 45.2961 19.6823 45.5695 19.9492C45.8495 20.2096 46.2141 20.3398 46.6633 20.3398ZM62.4266 22H54.3504V7.72266H62.4266V9.69531H56.6844V13.582H62.0652V15.5352H56.6844V20.0176H62.4266V22ZM73.9801 22H71.6754V15.3594C71.6754 14.526 71.5061 13.9043 71.1676 13.4941C70.8355 13.084 70.3049 12.8789 69.5758 12.8789C68.6057 12.8789 67.8961 13.1654 67.4469 13.7383C66.9977 14.3112 66.773 15.2715 66.773 16.6191V22H64.4781V11.1992H66.275L66.5973 12.6152H66.7145C67.04 12.1009 67.5022 11.7038 68.1012 11.4238C68.7001 11.1439 69.3642 11.0039 70.0934 11.0039C72.6845 11.0039 73.9801 12.3223 73.9801 14.959V22ZM80.016 22.1953C78.6684 22.1953 77.6169 21.707 76.8617 20.7305C76.1065 19.7539 75.7289 18.3835 75.7289 16.6191C75.7289 14.8483 76.1098 13.4714 76.8715 12.4883C77.6397 11.4987 78.7009 11.0039 80.0551 11.0039C81.4743 11.0039 82.5551 11.528 83.2973 12.5762H83.4145C83.3038 11.8014 83.2484 11.1895 83.2484 10.7402V6.80469H85.5531V22H83.7562L83.3559 20.584H83.2484C82.5128 21.6582 81.4353 22.1953 80.016 22.1953ZM80.6312 20.3398C81.5753 20.3398 82.2621 20.0762 82.6918 19.5488C83.1215 19.015 83.3428 18.1523 83.3559 16.9609V16.6387C83.3559 15.278 83.1345 14.3112 82.6918 13.7383C82.2491 13.1654 81.5557 12.8789 80.6117 12.8789C79.8044 12.8789 79.1827 13.2077 78.7465 13.8652C78.3103 14.5163 78.0922 15.4473 78.0922 16.6582C78.0922 17.8561 78.3038 18.7708 78.727 19.4023C79.1501 20.0273 79.7849 20.3398 80.6312 20.3398Z" fill="#25323D"/>
<path d="M104.285 14.7246C104.285 17.0814 103.631 18.8848 102.322 20.1348C101.014 21.3783 99.1289 22 96.668 22H92.6738V7.72266H97.0879C99.36 7.72266 101.128 8.33464 102.391 9.55859C103.654 10.7826 104.285 12.5046 104.285 14.7246ZM101.824 14.8027C101.824 11.3848 100.226 9.67578 97.0293 9.67578H95.0078V20.0371H96.668C100.105 20.0371 101.824 18.2923 101.824 14.8027ZM111.034 22.1953C109.354 22.1953 108.039 21.707 107.089 20.7305C106.145 19.7474 105.673 18.3965 105.673 16.6777C105.673 14.9134 106.112 13.5267 106.991 12.5176C107.87 11.5085 109.078 11.0039 110.614 11.0039C112.04 11.0039 113.166 11.4368 113.993 12.3027C114.82 13.1686 115.233 14.36 115.233 15.877V17.1172H108.036C108.068 18.1654 108.352 18.9727 108.886 19.5391C109.419 20.099 110.171 20.3789 111.141 20.3789C111.779 20.3789 112.372 20.3203 112.919 20.2031C113.472 20.0794 114.065 19.8776 114.696 19.5977V21.4629C114.136 21.7298 113.57 21.9186 112.997 22.0293C112.424 22.14 111.77 22.1953 111.034 22.1953ZM110.614 12.7422C109.885 12.7422 109.299 12.9733 108.856 13.4355C108.42 13.8978 108.16 14.5716 108.075 15.457H112.977C112.964 14.5651 112.749 13.8913 112.333 13.4355C111.916 12.9733 111.343 12.7422 110.614 12.7422ZM119.502 22L115.4 11.1992H117.822L120.019 17.4785C120.397 18.5332 120.625 19.3861 120.703 20.0371H120.781C120.839 19.5684 121.067 18.7155 121.464 17.4785L123.662 11.1992H126.103L121.982 22H119.502ZM131.661 22.1953C129.981 22.1953 128.666 21.707 127.715 20.7305C126.771 19.7474 126.299 18.3965 126.299 16.6777C126.299 14.9134 126.739 13.5267 127.618 12.5176C128.496 11.5085 129.704 11.0039 131.241 11.0039C132.666 11.0039 133.793 11.4368 134.62 12.3027C135.446 13.1686 135.86 14.36 135.86 15.877V17.1172H128.662C128.695 18.1654 128.978 18.9727 129.512 19.5391C130.046 20.099 130.798 20.3789 131.768 20.3789C132.406 20.3789 132.998 20.3203 133.545 20.2031C134.099 20.0794 134.691 19.8776 135.323 19.5977V21.4629C134.763 21.7298 134.196 21.9186 133.623 22.0293C133.051 22.14 132.396 22.1953 131.661 22.1953ZM131.241 12.7422C130.511 12.7422 129.926 12.9733 129.483 13.4355C129.047 13.8978 128.786 14.5716 128.702 15.457H133.604C133.591 14.5651 133.376 13.8913 132.959 13.4355C132.543 12.9733 131.97 12.7422 131.241 12.7422ZM139.962 22H137.667V6.80469H139.962V22ZM152.033 16.5801C152.033 18.3444 151.581 19.7214 150.676 20.7109C149.771 21.7005 148.511 22.1953 146.896 22.1953C145.887 22.1953 144.995 21.9674 144.221 21.5117C143.446 21.056 142.85 20.4017 142.434 19.5488C142.017 18.696 141.809 17.7064 141.809 16.5801C141.809 14.8288 142.258 13.4616 143.156 12.4785C144.055 11.4954 145.321 11.0039 146.955 11.0039C148.518 11.0039 149.755 11.5085 150.666 12.5176C151.577 13.5202 152.033 14.8743 152.033 16.5801ZM144.172 16.5801C144.172 19.0736 145.093 20.3203 146.936 20.3203C148.758 20.3203 149.67 19.0736 149.67 16.5801C149.67 14.1126 148.752 12.8789 146.916 12.8789C145.952 12.8789 145.253 13.1979 144.816 13.8359C144.387 14.474 144.172 15.3887 144.172 16.5801ZM159.358 22.1953C157.991 22.1953 156.93 21.7038 156.175 20.7207H156.038C156.129 21.6322 156.175 22.1855 156.175 22.3809V26.8047H153.88V11.1992H155.735C155.787 11.401 155.895 11.8828 156.057 12.6445H156.175C156.891 11.5508 157.965 11.0039 159.397 11.0039C160.745 11.0039 161.793 11.4922 162.542 12.4688C163.297 13.4453 163.675 14.8158 163.675 16.5801C163.675 18.3444 163.29 19.7214 162.522 20.7109C161.761 21.7005 160.706 22.1953 159.358 22.1953ZM158.802 12.8789C157.89 12.8789 157.223 13.1458 156.8 13.6797C156.383 14.2135 156.175 15.0664 156.175 16.2383V16.5801C156.175 17.8952 156.383 18.849 156.8 19.4414C157.216 20.0273 157.897 20.3203 158.841 20.3203C159.635 20.3203 160.247 19.9948 160.677 19.3438C161.106 18.6927 161.321 17.765 161.321 16.5605C161.321 15.3496 161.106 14.4349 160.677 13.8164C160.253 13.1914 159.628 12.8789 158.802 12.8789ZM170.257 22.1953C168.578 22.1953 167.263 21.707 166.312 20.7305C165.368 19.7474 164.896 18.3965 164.896 16.6777C164.896 14.9134 165.336 13.5267 166.214 12.5176C167.093 11.5085 168.301 11.0039 169.837 11.0039C171.263 11.0039 172.39 11.4368 173.216 12.3027C174.043 13.1686 174.457 14.36 174.457 15.877V17.1172H167.259C167.292 18.1654 167.575 18.9727 168.109 19.5391C168.643 20.099 169.395 20.3789 170.365 20.3789C171.003 20.3789 171.595 20.3203 172.142 20.2031C172.696 20.0794 173.288 19.8776 173.92 19.5977V21.4629C173.36 21.7298 172.793 21.9186 172.22 22.0293C171.647 22.14 170.993 22.1953 170.257 22.1953ZM169.837 12.7422C169.108 12.7422 168.522 12.9733 168.08 13.4355C167.643 13.8978 167.383 14.5716 167.298 15.457H172.201C172.188 14.5651 171.973 13.8913 171.556 13.4355C171.14 12.9733 170.567 12.7422 169.837 12.7422ZM181.743 11.0039C182.205 11.0039 182.586 11.0365 182.885 11.1016L182.661 13.2402C182.335 13.1621 181.996 13.123 181.645 13.123C180.727 13.123 179.982 13.4225 179.409 14.0215C178.842 14.6204 178.559 15.3984 178.559 16.3555V22H176.264V11.1992H178.061L178.364 13.1035H178.481C178.839 12.459 179.304 11.9479 179.877 11.5703C180.457 11.1927 181.079 11.0039 181.743 11.0039Z" fill="#5D87A8"/>
</svg>
