<?xml version="1.0" standalone="no"?>
<!DOCTYPE svg PUBLIC "-//W3C//DTD SVG 20010904//EN"
 "http://www.w3.org/TR/2001/REC-SVG-20010904/DTD/svg10.dtd">
<svg version="1.0" xmlns="http://www.w3.org/2000/svg"
 width="700.000000pt" height="700.000000pt" viewBox="0 0 700.000000 700.000000"
 preserveAspectRatio="xMidYMid meet">
<metadata>
Created by potrace 1.14, written by Peter Selinger 2001-2017
</metadata>
<g transform="translate(0.000000,700.000000) scale(0.100000,-0.100000)"
fill="#000000" stroke="none">
<path d="M850 3285 l0 -1785 285 0 285 0 0 730 0 730 675 0 675 0 0 250 0 250
-672 2 -673 3 0 555 0 555 718 3 717 2 0 245 0 245 -1005 0 -1005 0 0 -1785z"/>
<path d="M3310 3284 l0 -1786 623 5 c669 5 751 10 983 62 230 52 439 138 610
251 110 74 266 222 349 333 80 106 172 284 219 421 163 484 148 1134 -38 1568
-183 427 -554 735 -1032 856 -252 64 -436 76 -1166 76 l-548 0 0 -1786z m1357
1280 c257 -38 438 -120 592 -268 85 -82 144 -162 194 -261 180 -361 195 -994
33 -1392 -54 -132 -119 -227 -225 -333 -136 -135 -278 -213 -480 -266 -162
-42 -297 -54 -607 -54 l-284 0 0 1295 0 1295 336 0 c252 0 363 -4 441 -16z"/>
</g>
</svg>
