<svg width="111" height="20" viewBox="0 0 111 20" fill="none" xmlns="http://www.w3.org/2000/svg">
<path d="M9.15483 4.63778C9.09801 4.06487 8.85417 3.61979 8.4233 3.30256C7.99242 2.98532 7.40767 2.8267 6.66903 2.8267C6.16714 2.8267 5.74337 2.89773 5.39773 3.03977C5.05208 3.17708 4.78693 3.36884 4.60227 3.61506C4.42235 3.86127 4.33239 4.14062 4.33239 4.45312C4.32292 4.71354 4.37737 4.94081 4.49574 5.13494C4.61884 5.32907 4.78693 5.49716 5 5.6392C5.21307 5.77651 5.45928 5.89725 5.73864 6.00142C6.01799 6.10085 6.31629 6.18608 6.63352 6.2571L7.94034 6.5696C8.57481 6.71165 9.1572 6.90104 9.6875 7.13778C10.2178 7.37453 10.6771 7.66572 11.0653 8.01136C11.4536 8.35701 11.7543 8.7642 11.9673 9.23295C12.1851 9.7017 12.2964 10.2391 12.3011 10.8452C12.2964 11.7353 12.0691 12.5071 11.6193 13.1605C11.1742 13.8092 10.5303 14.3134 9.6875 14.6733C8.84943 15.0284 7.83854 15.206 6.65483 15.206C5.48059 15.206 4.45786 15.026 3.58665 14.6662C2.72017 14.3063 2.04309 13.7737 1.5554 13.0682C1.07244 12.358 0.819129 11.4796 0.795455 10.4332H3.77131C3.80445 10.9209 3.94413 11.3281 4.19034 11.6548C4.44129 11.9768 4.77509 12.2206 5.19176 12.3864C5.61316 12.5473 6.08902 12.6278 6.61932 12.6278C7.14015 12.6278 7.59233 12.5521 7.97585 12.4006C8.36411 12.2491 8.66477 12.0384 8.87784 11.7685C9.09091 11.4986 9.19744 11.1884 9.19744 10.8381C9.19744 10.5114 9.10038 10.2367 8.90625 10.0142C8.71686 9.79167 8.4375 9.60227 8.06818 9.44602C7.7036 9.28977 7.25616 9.14773 6.72585 9.01989L5.14205 8.62216C3.91572 8.32386 2.94744 7.85748 2.23722 7.22301C1.52699 6.58854 1.17424 5.7339 1.17898 4.65909C1.17424 3.77841 1.40862 3.009 1.8821 2.35085C2.36032 1.69271 3.0161 1.17898 3.84943 0.809659C4.68277 0.44034 5.62973 0.255681 6.69034 0.255681C7.76989 0.255681 8.71212 0.44034 9.51705 0.809659C10.3267 1.17898 10.9564 1.69271 11.4062 2.35085C11.8561 3.009 12.0881 3.77131 12.1023 4.63778H9.15483ZM20.1154 4.09091V6.36364H13.5458V4.09091H20.1154ZM15.0373 1.47727H18.0629V11.6477C18.0629 11.9271 18.1055 12.1449 18.1907 12.3011C18.2759 12.4527 18.3943 12.5592 18.5458 12.6207C18.7021 12.6823 18.882 12.7131 19.0856 12.7131C19.2276 12.7131 19.3697 12.7012 19.5117 12.6776C19.6538 12.6491 19.7627 12.6278 19.8384 12.6136L20.3143 14.8651C20.1628 14.9124 19.9497 14.9669 19.6751 15.0284C19.4004 15.0947 19.0666 15.1349 18.6737 15.1491C17.9445 15.1776 17.3053 15.0805 16.756 14.858C16.2115 14.6354 15.7878 14.2898 15.4847 13.821C15.1817 13.3523 15.0326 12.7604 15.0373 12.0455V1.47727ZM25.1971 15.206C24.5011 15.206 23.8808 15.0852 23.3363 14.8438C22.7918 14.5975 22.3609 14.2353 22.0437 13.7571C21.7312 13.2741 21.5749 12.6728 21.5749 11.9531C21.5749 11.3471 21.6862 10.8381 21.9087 10.4261C22.1313 10.0142 22.4343 9.68277 22.8178 9.43182C23.2013 9.18087 23.637 8.99148 24.1246 8.86364C24.6171 8.7358 25.1332 8.64583 25.6729 8.59375C26.3074 8.52746 26.8188 8.46591 27.207 8.40909C27.5953 8.34754 27.877 8.25758 28.0522 8.1392C28.2274 8.02083 28.315 7.84564 28.315 7.61364V7.57102C28.315 7.12121 28.1729 6.7732 27.8888 6.52699C27.6095 6.28078 27.2118 6.15767 26.6957 6.15767C26.1512 6.15767 25.7179 6.27841 25.396 6.51989C25.074 6.75663 24.8609 7.05492 24.7567 7.41477L21.9585 7.1875C22.1005 6.52462 22.3799 5.9517 22.7965 5.46875C23.2132 4.98106 23.7506 4.60701 24.4087 4.34659C25.0716 4.08144 25.8387 3.94886 26.7099 3.94886C27.3159 3.94886 27.896 4.01989 28.4499 4.16193C29.0086 4.30398 29.5034 4.52415 29.9343 4.82244C30.3699 5.12074 30.7132 5.50426 30.9641 5.97301C31.2151 6.43703 31.3406 6.99337 31.3406 7.64205V15H28.4712V13.4872H28.386C28.2108 13.8281 27.9764 14.1288 27.6829 14.3892C27.3893 14.6449 27.0366 14.8461 26.6246 14.9929C26.2127 15.1349 25.7369 15.206 25.1971 15.206ZM26.0636 13.1179C26.5086 13.1179 26.9016 13.0303 27.2425 12.8551C27.5835 12.6752 27.851 12.4337 28.0451 12.1307C28.2392 11.8277 28.3363 11.4844 28.3363 11.1009V9.94318C28.2416 10.0047 28.1114 10.0616 27.9457 10.1136C27.7847 10.161 27.6024 10.206 27.3988 10.2486C27.1952 10.2865 26.9916 10.322 26.788 10.3551C26.5844 10.3835 26.3997 10.4096 26.234 10.4332C25.8789 10.4853 25.5688 10.5682 25.3036 10.6818C25.0385 10.7955 24.8325 10.9493 24.6857 11.1435C24.5389 11.3329 24.4656 11.5696 24.4656 11.8537C24.4656 12.2656 24.6147 12.5805 24.913 12.7983C25.216 13.0114 25.5996 13.1179 26.0636 13.1179ZM33.6879 15V4.09091H36.6211V5.99432H36.7347C36.9336 5.31723 37.2674 4.80587 37.7362 4.46023C38.2049 4.10985 38.7447 3.93466 39.3555 3.93466C39.507 3.93466 39.6703 3.94413 39.8455 3.96307C40.0207 3.98201 40.1746 4.00805 40.3072 4.04119V6.72585C40.1651 6.68324 39.9686 6.64536 39.7177 6.61222C39.4667 6.57907 39.2371 6.5625 39.0288 6.5625C38.5837 6.5625 38.186 6.65956 37.8356 6.85369C37.4899 7.04309 37.2153 7.30824 37.0117 7.64915C36.8129 7.99006 36.7134 8.38305 36.7134 8.82812V15H33.6879ZM41.8714 15V4.09091H44.8047V5.99432H44.9183C45.1172 5.31723 45.451 4.80587 45.9197 4.46023C46.3885 4.10985 46.9283 3.93466 47.5391 3.93466C47.6906 3.93466 47.8539 3.94413 48.0291 3.96307C48.2043 3.98201 48.3582 4.00805 48.4908 4.04119V6.72585C48.3487 6.68324 48.1522 6.64536 47.9013 6.61222C47.6503 6.57907 47.4207 6.5625 47.2124 6.5625C46.7673 6.5625 46.3696 6.65956 46.0192 6.85369C45.6735 7.04309 45.3989 7.30824 45.1953 7.64915C44.9964 7.99006 44.897 8.38305 44.897 8.82812V15H41.8714ZM52.255 19.0909C51.8714 19.0909 51.5116 19.0601 51.1754 18.9986C50.844 18.9418 50.5694 18.8684 50.3516 18.7784L51.0334 16.5199C51.3885 16.6288 51.7081 16.688 51.9922 16.6974C52.281 16.7069 52.5296 16.6406 52.7379 16.4986C52.951 16.3565 53.1238 16.1151 53.2564 15.7741L53.4339 15.3125L49.5206 4.09091H52.7024L54.9609 12.1023H55.0746L57.3544 4.09091H60.5575L56.3175 16.179C56.1139 16.7661 55.8369 17.2775 55.4865 17.7131C55.1409 18.1534 54.7029 18.492 54.1726 18.7287C53.6423 18.9702 53.0031 19.0909 52.255 19.0909Z" fill="#A5C19E"/>
<path d="M70.0533 4.63778C69.9964 4.06487 69.7526 3.61979 69.3217 3.30256C68.8909 2.98532 68.3061 2.8267 67.5675 2.8267C67.0656 2.8267 66.6418 2.89773 66.2962 3.03977C65.9505 3.17708 65.6854 3.36884 65.5007 3.61506C65.3208 3.86127 65.2308 4.14062 65.2308 4.45312C65.2214 4.71354 65.2758 4.94081 65.3942 5.13494C65.5173 5.32907 65.6854 5.49716 65.8984 5.6392C66.1115 5.77651 66.3577 5.89725 66.6371 6.00142C66.9164 6.10085 67.2147 6.18608 67.532 6.2571L68.8388 6.5696C69.4732 6.71165 70.0556 6.90104 70.5859 7.13778C71.1162 7.37453 71.5755 7.66572 71.9638 8.01136C72.352 8.35701 72.6527 8.7642 72.8658 9.23295C73.0836 9.7017 73.1948 10.2391 73.1996 10.8452C73.1948 11.7353 72.9676 12.5071 72.5178 13.1605C72.0727 13.8092 71.4287 14.3134 70.5859 14.6733C69.7479 15.0284 68.737 15.206 67.5533 15.206C66.379 15.206 65.3563 15.026 64.4851 14.6662C63.6186 14.3063 62.9415 13.7737 62.4538 13.0682C61.9709 12.358 61.7176 11.4796 61.6939 10.4332H64.6697C64.7029 10.9209 64.8426 11.3281 65.0888 11.6548C65.3397 11.9768 65.6735 12.2206 66.0902 12.3864C66.5116 12.5473 66.9875 12.6278 67.5178 12.6278C68.0386 12.6278 68.4908 12.5521 68.8743 12.4006C69.2625 12.2491 69.5632 12.0384 69.7763 11.7685C69.9893 11.4986 70.0959 11.1884 70.0959 10.8381C70.0959 10.5114 69.9988 10.2367 69.8047 10.0142C69.6153 9.79167 69.3359 9.60227 68.9666 9.44602C68.602 9.28977 68.1546 9.14773 67.6243 9.01989L66.0405 8.62216C64.8142 8.32386 63.8459 7.85748 63.1357 7.22301C62.4254 6.58854 62.0727 5.7339 62.0774 4.65909C62.0727 3.77841 62.3071 3.009 62.7805 2.35085C63.2588 1.69271 63.9145 1.17898 64.7479 0.809659C65.5812 0.44034 66.5282 0.255681 67.5888 0.255681C68.6683 0.255681 69.6106 0.44034 70.4155 0.809659C71.2251 1.17898 71.8549 1.69271 72.3047 2.35085C72.7545 3.009 72.9865 3.77131 73.0007 4.63778H70.0533ZM78.2369 8.69318V15H75.2113V0.454545H78.1516V6.01562H78.2795C78.5257 5.37169 78.9234 4.86742 79.4727 4.50284C80.0219 4.13352 80.7108 3.94886 81.5394 3.94886C82.297 3.94886 82.9575 4.11458 83.521 4.44602C84.0891 4.77273 84.5295 5.24384 84.842 5.85938C85.1592 6.47017 85.3155 7.2017 85.3107 8.05398V15H82.2852V8.59375C82.2899 7.9214 82.1194 7.3982 81.7738 7.02415C81.4329 6.65009 80.9547 6.46307 80.3391 6.46307C79.9272 6.46307 79.5626 6.55066 79.2454 6.72585C78.9329 6.90104 78.6867 7.15672 78.5067 7.4929C78.3316 7.82434 78.2416 8.22443 78.2369 8.69318ZM92.6207 15.2131C91.5175 15.2131 90.5634 14.9787 89.7585 14.5099C88.9583 14.0365 88.3404 13.3783 87.9048 12.5355C87.4692 11.688 87.2514 10.7055 87.2514 9.58807C87.2514 8.46117 87.4692 7.47633 87.9048 6.63352C88.3404 5.78598 88.9583 5.12784 89.7585 4.65909C90.5634 4.18561 91.5175 3.94886 92.6207 3.94886C93.724 3.94886 94.6757 4.18561 95.4759 4.65909C96.2808 5.12784 96.901 5.78598 97.3366 6.63352C97.7723 7.47633 97.9901 8.46117 97.9901 9.58807C97.9901 10.7055 97.7723 11.688 97.3366 12.5355C96.901 13.3783 96.2808 14.0365 95.4759 14.5099C94.6757 14.9787 93.724 15.2131 92.6207 15.2131ZM92.6349 12.8693C93.1368 12.8693 93.5559 12.7273 93.892 12.4432C94.2282 12.1544 94.4815 11.7614 94.652 11.2642C94.8272 10.767 94.9148 10.2012 94.9148 9.56676C94.9148 8.93229 94.8272 8.36648 94.652 7.86932C94.4815 7.37216 94.2282 6.97917 93.892 6.69034C93.5559 6.40151 93.1368 6.2571 92.6349 6.2571C92.1283 6.2571 91.7022 6.40151 91.3565 6.69034C91.0156 6.97917 90.7576 7.37216 90.5824 7.86932C90.4119 8.36648 90.3267 8.93229 90.3267 9.56676C90.3267 10.2012 90.4119 10.767 90.5824 11.2642C90.7576 11.7614 91.0156 12.1544 91.3565 12.4432C91.7022 12.7273 92.1283 12.8693 92.6349 12.8693ZM99.9574 19.0909V4.09091H102.94V5.9233H103.075C103.208 5.62973 103.4 5.33144 103.651 5.02841C103.906 4.72064 104.238 4.46496 104.645 4.26136C105.057 4.05303 105.568 3.94886 106.179 3.94886C106.974 3.94886 107.708 4.1572 108.381 4.57386C109.053 4.9858 109.59 5.60843 109.993 6.44176C110.395 7.27036 110.597 8.30966 110.597 9.55966C110.597 10.7765 110.4 11.804 110.007 12.642C109.619 13.4754 109.089 14.1075 108.416 14.5384C107.749 14.9645 107 15.1776 106.172 15.1776C105.585 15.1776 105.085 15.0805 104.673 14.8864C104.266 14.6922 103.932 14.4484 103.672 14.1548C103.411 13.8565 103.213 13.5559 103.075 13.2528H102.983V19.0909H99.9574ZM102.919 9.54545C102.919 10.1941 103.009 10.7599 103.189 11.2429C103.369 11.7259 103.629 12.1023 103.97 12.3722C104.311 12.6373 104.725 12.7699 105.213 12.7699C105.705 12.7699 106.122 12.6349 106.463 12.3651C106.804 12.0904 107.062 11.7116 107.237 11.2287C107.417 10.741 107.507 10.1799 107.507 9.54545C107.507 8.91572 107.42 8.36174 107.244 7.88352C107.069 7.4053 106.811 7.03125 106.47 6.76136C106.129 6.49148 105.71 6.35653 105.213 6.35653C104.721 6.35653 104.304 6.48674 103.963 6.74716C103.627 7.00758 103.369 7.37689 103.189 7.85511C103.009 8.33333 102.919 8.89678 102.919 9.54545Z" fill="black"/>
</svg>
