<?xml version="1.0" encoding="UTF-8"?><!DOCTYPE svg PUBLIC "-//W3C//DTD SVG 1.1//EN" "http://www.w3.org/Graphics/SVG/1.1/DTD/svg11.dtd"><svg xmlns="http://www.w3.org/2000/svg" xmlns:xlink="http://www.w3.org/1999/xlink"><symbol id="icon--check" viewBox="0 0 14 12"><path d="M3.818 11.518L0 7.888l1.272-1.21 2.546 2.42 8.91-8.47L14 1.838l-10.182 9.68z"/></symbol><symbol id="icon--minus" viewBox="0 0 9 2"><path d="M0 0h9v2H0z"/></symbol><symbol id="icon--play" viewBox="0 0 14 16"><path d="M0 0v16l14-8L0 0z"/></symbol><symbol id="icon--plus-2" viewBox="0 0 9 10"><path stroke="#000" stroke-opacity=".85" stroke-width="2" d="M0 5.417h9M4.5 9.917v-9"/></symbol><symbol id="icon--plus" viewBox="0 0 14 14"><path stroke="#fff" stroke-width="2" d="M0 7h14M7 14V0"/></symbol><symbol id="icon--stop" viewBox="0 0 12 16"><path d="M4.5 15.492V.504C4.5.225 4.247 0 3.928 0H.572C.253 0 0 .225 0 .504v14.988c0 .279.253.508.572.508h3.356c.319 0 .572-.225.572-.508zM11.428 0H8.072C7.758 0 7.5.225 7.5.504v14.988c0 .279.253.508.572.508h3.356c.314 0 .572-.225.572-.508V.504C12 .225 11.747 0 11.428 0z"/></symbol></svg>